<svg width="32" height="32" viewBox="0 0 32 32" fill="none" xmlns="http://www.w3.org/2000/svg">
<g clip-path="url(#clip0_1438_1288)">
<rect width="32" height="32" rx="16" fill="white"/>
<g clip-path="url(#clip1_1438_1288)">
<g filter="url(#filter0_d_1438_1288)">
<mask id="path-2-inside-1_1438_1288" fill="white">
<path d="M32.499 16.2688L32.4875 16.2123L32.1428 15.9711L31.9102 15.8542L31.6621 15.7463L31.423 15.6543L31.021 15.5311L30.7597 15.4731L30.5075 15.431L30.2152 15.3912L29.8205 15.3904L29.4929 15.4345L29.1522 15.5286L28.7427 15.6841L27.8083 16.0837L27.1851 16.301L26.6773 16.4297L26.2629 16.5036L25.8617 16.5276L25.5382 16.5061L25.2459 16.4664L24.8864 16.3816L24.5736 16.2694L24.2829 16.1232L23.9897 15.9363L23.7007 15.6836L23.51 15.4578L23.3839 15.2362L23.302 14.9466L23.2898 14.7428L23.3201 14.5774L23.4389 14.2757L23.6159 14.0033L23.6912 13.9169L23.8689 13.7918L24.1294 13.7025L24.4504 13.6833L24.7026 13.7254L24.9147 13.77L25.0957 13.8328L25.3348 13.9248L25.6721 14.0436L25.9669 14.1242L26.2191 14.1663L26.5516 14.2036L26.8415 14.2026L27.1846 14.1493L27.4852 14.0577L27.6343 13.9915L27.8521 13.8639L28.1363 13.6341L28.3313 13.3933L28.4926 13.13L28.5631 12.9622L28.5074 12.9737L28.3788 13.1123L28.2633 13.2011L27.8432 13.4472L27.5271 13.5479L27.2797 13.5873L26.9497 13.5907L26.6975 13.5486L26.4273 13.4748L26.0965 13.331L25.8459 13.1824L25.448 12.9935L25.1352 12.8813L24.8314 12.785L24.5456 12.7203L24.2287 12.6739L23.8561 12.6389L23.3565 12.6362L22.7702 12.6631L22.0569 12.7222L21.4329 12.7924L20.9784 12.8687L20.4616 12.9815L19.6132 13.2042L19.1186 13.2829L18.9089 13.2791L18.6723 13.2279L18.4733 13.1334L18.1777 12.9057L18.0655 12.7815L17.9034 12.4967L17.8601 12.3111L17.8814 12.1299L17.9363 11.9711L18.0936 11.7735L18.2934 11.6143L18.4335 11.5322L18.8028 11.3792L19.0722 11.3058L19.4399 11.2592L19.77 11.2558L20.1892 11.2634L20.5258 11.235L20.7797 11.1707L20.8821 11.1318L21.1622 10.9678L21.4374 10.7222L21.67 10.4383L21.878 10.1476L21.8756 10.1068L21.462 10.328L21.1393 10.4537L20.8052 10.5228L20.4596 10.5354L20.1763 10.5114L19.8594 10.465L19.5335 10.4027L18.8145 10.2331L18.4706 10.1392L18.283 10.1013L17.9973 10.0366L17.3454 9.91207L17.0441 9.8565L16.4103 9.76359L15.9394 9.70182L15.5422 9.66018L15.0403 9.61663L14.612 9.59322L14.1681 9.57892L13.6285 9.57854L12.9619 9.61032L12.4181 9.67565L11.8923 9.77262L11.4403 9.88971L11.0308 10.0452L10.8506 10.1296L10.4772 10.3483L10.1086 10.6486L9.87352 10.8918L9.85141 10.9258L10.011 11.1699L10.2403 11.4998L10.7266 12.3542L10.9206 12.3671L11.3555 12.3656L11.7592 12.3823L12.4708 12.4297L12.8434 12.4646L13.5575 12.5527L13.8097 12.5948L14.111 12.6504L14.3141 12.6791L14.3477 12.7017L13.971 12.7324L13.5362 12.734L13.2643 12.7666L13.0907 12.8261L12.9662 12.899L12.8286 13.0218L12.718 13.1921L12.6434 13.4256L12.6155 13.6318L12.6523 13.8424L12.6908 13.9464L12.7809 14.1046L12.9626 14.3146L13.2156 14.504L13.4056 14.5826L13.5776 14.6296L13.892 14.6353L14.195 14.5844L15.0123 14.3799L15.6028 14.2873L16.271 14.149L16.6879 14.1159L17.076 14.1417L17.3283 14.1838L17.605 14.2327L17.5338 14.2533L17.2128 14.2726L16.9253 14.3144L16.687 14.3696L16.4978 14.4382L16.1866 14.6205L16.058 14.7591L15.972 14.936L15.9417 15.1015L15.9564 15.346L16.0538 15.6266L16.2044 15.8548L16.4107 16.0715L16.5966 16.2158L16.8226 16.3577L17.0707 16.4656L17.3499 16.5552L17.6513 16.6108L18.0304 16.6208L18.4382 16.5718L18.8747 16.4638L19.222 16.3448L19.905 16.0502L19.9918 16.0205L19.8452 16.1274L19.5119 16.3438L19.3096 16.4623L18.9181 16.6494L18.4996 16.789L18.1409 16.8514L17.7953 16.8639L17.503 16.8242L17.2172 16.7595L17.0453 16.7125L16.8643 16.6498L16.5515 16.5376L16.2567 16.4571L15.9734 16.4332L15.7572 16.4543L15.6147 16.4956L15.319 16.6688L15.0684 16.921L14.8914 17.1935L14.7857 17.4452L14.7644 17.6265L14.7791 17.8711L14.829 18.0317L14.9821 18.3007L15.1975 18.5332L14.8912 18.3962L14.5154 18.1732L14.0298 17.8669L13.6384 17.6531L13.3993 17.5611L13.1692 17.4849L12.8924 17.436L12.6025 17.437L12.2995 17.4879L12.0858 17.5498L11.7721 17.6913L11.5231 17.8372L11.2455 18.042L11.1767 18.1034L11.2438 18.1485L11.4805 18.1997L11.7442 18.2985L11.9611 18.4245L12.1896 18.6072L12.5171 18.9639L12.2264 18.8177L11.9537 18.7031L11.6745 18.6135L11.4288 18.5464L11.1119 18.5L10.8687 18.4737L10.8089 18.5509L10.5795 19.0228L10.3608 19.4041L10.0356 19.8899L9.77432 20.2328L9.7522 20.2669L9.89794 20.4136L10.2025 20.6571L10.5448 20.8575L10.7839 20.9496L11.014 21.0258L11.2105 21.0794L11.5921 21.1302L11.9156 21.1517L12.2612 21.1392L12.8049 21.0738L13.4421 20.9538L13.9523 20.866L14.3445 20.8261L14.7548 20.8179L15.0472 20.8576L15.2838 20.9089L15.5295 20.976L15.8021 21.0905L16.16 21.2818L16.4441 21.4529L16.8044 21.685L17.1851 21.9894L17.5102 22.3054L17.8737 22.7254L17.9065 22.6007L17.8951 22.1432L17.8419 21.7946L17.7331 21.4575L17.6676 21.306L17.4875 20.9895L17.2361 20.6937L16.7252 20.2334L16.2462 19.9021L16.0137 19.7852L15.8237 19.7066L16.0194 19.613L16.32 19.5214L16.6787 19.459L17.1356 19.4234L17.5394 19.4401L17.921 19.4908L18.2223 19.5464L18.6154 19.6538L18.897 19.7841L19.1812 19.9553L19.5013 20.1897L19.8059 20.4333L20.1662 20.6653L20.4479 20.7957L20.7852 20.9145L20.9818 20.9682L21.234 21.0104L21.5755 21.0635L22.0283 21.0936L22.4476 21.1012L22.9692 21.07L23.4237 20.9936L23.789 20.9063L24.2075 20.7667L24.49 20.6434L25.0969 20.2879L25.3967 20.049L25.6629 19.7876L25.7448 19.6764L25.7112 19.6538L25.1011 19.8213L24.4574 19.9662L23.7556 20.082L23.3633 20.1218L22.8973 20.1416L22.5493 20.1134L22.3127 20.0621L22.1317 19.9993L21.8967 19.8416L21.6838 19.6498L21.5536 19.494L21.4456 19.3041L21.3842 19.0869L21.3695 18.8423L21.4195 18.6021L21.5276 18.391L21.6759 18.1776L21.9331 17.9004L22.1174 17.7502L22.3442 17.6385L22.567 17.5924L22.7922 17.5871L23.0845 17.6268L23.3793 17.7073L23.5603 17.7701L23.7904 17.8463L24.0295 17.9383L24.3824 18.0481L24.6617 18.1377L24.8492 18.1756L25.0858 18.2268L25.4674 18.2776L25.9113 18.2919L26.3527 18.2654L26.8072 18.1891L27.2904 18.0538L27.6532 17.9256L28.1003 17.727L28.405 17.5697L28.8407 17.3145L29.3518 16.9729L29.8604 16.5907L30.0758 16.4223L30.4026 16.2309L30.7031 16.1392L31.0061 16.0883L31.432 16.071L31.7399 16.1016L32.0412 16.1572L32.2287 16.195L32.4654 16.2463L32.499 16.2688Z"/>
</mask>
<path d="M32.499 16.2688L32.4875 16.2123L32.1428 15.9711L31.9102 15.8542L31.6621 15.7463L31.423 15.6543L31.021 15.5311L30.7597 15.4731L30.5075 15.431L30.2152 15.3912L29.8205 15.3904L29.4929 15.4345L29.1522 15.5286L28.7427 15.6841L27.8083 16.0837L27.1851 16.301L26.6773 16.4297L26.2629 16.5036L25.8617 16.5276L25.5382 16.5061L25.2459 16.4664L24.8864 16.3816L24.5736 16.2694L24.2829 16.1232L23.9897 15.9363L23.7007 15.6836L23.51 15.4578L23.3839 15.2362L23.302 14.9466L23.2898 14.7428L23.3201 14.5774L23.4389 14.2757L23.6159 14.0033L23.6912 13.9169L23.8689 13.7918L24.1294 13.7025L24.4504 13.6833L24.7026 13.7254L24.9147 13.77L25.0957 13.8328L25.3348 13.9248L25.6721 14.0436L25.9669 14.1242L26.2191 14.1663L26.5516 14.2036L26.8415 14.2026L27.1846 14.1493L27.4852 14.0577L27.6343 13.9915L27.8521 13.8639L28.1363 13.6341L28.3313 13.3933L28.4926 13.13L28.5631 12.9622L28.5074 12.9737L28.3788 13.1123L28.2633 13.2011L27.8432 13.4472L27.5271 13.5479L27.2797 13.5873L26.9497 13.5907L26.6975 13.5486L26.4273 13.4748L26.0965 13.331L25.8459 13.1824L25.448 12.9935L25.1352 12.8813L24.8314 12.785L24.5456 12.7203L24.2287 12.6739L23.8561 12.6389L23.3565 12.6362L22.7702 12.6631L22.0569 12.7222L21.4329 12.7924L20.9784 12.8687L20.4616 12.9815L19.6132 13.2042L19.1186 13.2829L18.9089 13.2791L18.6723 13.2279L18.4733 13.1334L18.1777 12.9057L18.0655 12.7815L17.9034 12.4967L17.8601 12.3111L17.8814 12.1299L17.9363 11.9711L18.0936 11.7735L18.2934 11.6143L18.4335 11.5322L18.8028 11.3792L19.0722 11.3058L19.4399 11.2592L19.77 11.2558L20.1892 11.2634L20.5258 11.235L20.7797 11.1707L20.8821 11.1318L21.1622 10.9678L21.4374 10.7222L21.67 10.4383L21.878 10.1476L21.8756 10.1068L21.462 10.328L21.1393 10.4537L20.8052 10.5228L20.4596 10.5354L20.1763 10.5114L19.8594 10.465L19.5335 10.4027L18.8145 10.2331L18.4706 10.1392L18.283 10.1013L17.9973 10.0366L17.3454 9.91207L17.0441 9.8565L16.4103 9.76359L15.9394 9.70182L15.5422 9.66018L15.0403 9.61663L14.612 9.59322L14.1681 9.57892L13.6285 9.57854L12.9619 9.61032L12.4181 9.67565L11.8923 9.77262L11.4403 9.88971L11.0308 10.0452L10.8506 10.1296L10.4772 10.3483L10.1086 10.6486L9.87352 10.8918L9.85141 10.9258L10.011 11.1699L10.2403 11.4998L10.7266 12.3542L10.9206 12.3671L11.3555 12.3656L11.7592 12.3823L12.4708 12.4297L12.8434 12.4646L13.5575 12.5527L13.8097 12.5948L14.111 12.6504L14.3141 12.6791L14.3477 12.7017L13.971 12.7324L13.5362 12.734L13.2643 12.7666L13.0907 12.8261L12.9662 12.899L12.8286 13.0218L12.718 13.1921L12.6434 13.4256L12.6155 13.6318L12.6523 13.8424L12.6908 13.9464L12.7809 14.1046L12.9626 14.3146L13.2156 14.504L13.4056 14.5826L13.5776 14.6296L13.892 14.6353L14.195 14.5844L15.0123 14.3799L15.6028 14.2873L16.271 14.149L16.6879 14.1159L17.076 14.1417L17.3283 14.1838L17.605 14.2327L17.5338 14.2533L17.2128 14.2726L16.9253 14.3144L16.687 14.3696L16.4978 14.4382L16.1866 14.6205L16.058 14.7591L15.972 14.936L15.9417 15.1015L15.9564 15.346L16.0538 15.6266L16.2044 15.8548L16.4107 16.0715L16.5966 16.2158L16.8226 16.3577L17.0707 16.4656L17.3499 16.5552L17.6513 16.6108L18.0304 16.6208L18.4382 16.5718L18.8747 16.4638L19.222 16.3448L19.905 16.0502L19.9918 16.0205L19.8452 16.1274L19.5119 16.3438L19.3096 16.4623L18.9181 16.6494L18.4996 16.789L18.1409 16.8514L17.7953 16.8639L17.503 16.8242L17.2172 16.7595L17.0453 16.7125L16.8643 16.6498L16.5515 16.5376L16.2567 16.4571L15.9734 16.4332L15.7572 16.4543L15.6147 16.4956L15.319 16.6688L15.0684 16.921L14.8914 17.1935L14.7857 17.4452L14.7644 17.6265L14.7791 17.8711L14.829 18.0317L14.9821 18.3007L15.1975 18.5332L14.8912 18.3962L14.5154 18.1732L14.0298 17.8669L13.6384 17.6531L13.3993 17.5611L13.1692 17.4849L12.8924 17.436L12.6025 17.437L12.2995 17.4879L12.0858 17.5498L11.7721 17.6913L11.5231 17.8372L11.2455 18.042L11.1767 18.1034L11.2438 18.1485L11.4805 18.1997L11.7442 18.2985L11.9611 18.4245L12.1896 18.6072L12.5171 18.9639L12.2264 18.8177L11.9537 18.7031L11.6745 18.6135L11.4288 18.5464L11.1119 18.5L10.8687 18.4737L10.8089 18.5509L10.5795 19.0228L10.3608 19.4041L10.0356 19.8899L9.77432 20.2328L9.7522 20.2669L9.89794 20.4136L10.2025 20.6571L10.5448 20.8575L10.7839 20.9496L11.014 21.0258L11.2105 21.0794L11.5921 21.1302L11.9156 21.1517L12.2612 21.1392L12.8049 21.0738L13.4421 20.9538L13.9523 20.866L14.3445 20.8261L14.7548 20.8179L15.0472 20.8576L15.2838 20.9089L15.5295 20.976L15.8021 21.0905L16.16 21.2818L16.4441 21.4529L16.8044 21.685L17.1851 21.9894L17.5102 22.3054L17.8737 22.7254L17.9065 22.6007L17.8951 22.1432L17.8419 21.7946L17.7331 21.4575L17.6676 21.306L17.4875 20.9895L17.2361 20.6937L16.7252 20.2334L16.2462 19.9021L16.0137 19.7852L15.8237 19.7066L16.0194 19.613L16.32 19.5214L16.6787 19.459L17.1356 19.4234L17.5394 19.4401L17.921 19.4908L18.2223 19.5464L18.6154 19.6538L18.897 19.7841L19.1812 19.9553L19.5013 20.1897L19.8059 20.4333L20.1662 20.6653L20.4479 20.7957L20.7852 20.9145L20.9818 20.9682L21.234 21.0104L21.5755 21.0635L22.0283 21.0936L22.4476 21.1012L22.9692 21.07L23.4237 20.9936L23.789 20.9063L24.2075 20.7667L24.49 20.6434L25.0969 20.2879L25.3967 20.049L25.6629 19.7876L25.7448 19.6764L25.7112 19.6538L25.1011 19.8213L24.4574 19.9662L23.7556 20.082L23.3633 20.1218L22.8973 20.1416L22.5493 20.1134L22.3127 20.0621L22.1317 19.9993L21.8967 19.8416L21.6838 19.6498L21.5536 19.494L21.4456 19.3041L21.3842 19.0869L21.3695 18.8423L21.4195 18.6021L21.5276 18.391L21.6759 18.1776L21.9331 17.9004L22.1174 17.7502L22.3442 17.6385L22.567 17.5924L22.7922 17.5871L23.0845 17.6268L23.3793 17.7073L23.5603 17.7701L23.7904 17.8463L24.0295 17.9383L24.3824 18.0481L24.6617 18.1377L24.8492 18.1756L25.0858 18.2268L25.4674 18.2776L25.9113 18.2919L26.3527 18.2654L26.8072 18.1891L27.2904 18.0538L27.6532 17.9256L28.1003 17.727L28.405 17.5697L28.8407 17.3145L29.3518 16.9729L29.8604 16.5907L30.0758 16.4223L30.4026 16.2309L30.7031 16.1392L31.0061 16.0883L31.432 16.071L31.7399 16.1016L32.0412 16.1572L32.2287 16.195L32.4654 16.2463L32.499 16.2688Z" fill="url(#paint0_linear_1438_1288)" shape-rendering="crispEdges"/>
<path d="M32.499 16.2688L32.4875 16.2123L32.1428 15.9711L31.9102 15.8542L31.6621 15.7463L31.423 15.6543L31.021 15.5311L30.7597 15.4731L30.5075 15.431L30.2152 15.3912L29.8205 15.3904L29.4929 15.4345L29.1522 15.5286L28.7427 15.6841L27.8083 16.0837L27.1851 16.301L26.6773 16.4297L26.2629 16.5036L25.8617 16.5276L25.5382 16.5061L25.2459 16.4664L24.8864 16.3816L24.5736 16.2694L24.2829 16.1232L23.9897 15.9363L23.7007 15.6836L23.51 15.4578L23.3839 15.2362L23.302 14.9466L23.2898 14.7428L23.3201 14.5774L23.4389 14.2757L23.6159 14.0033L23.6912 13.9169L23.8689 13.7918L24.1294 13.7025L24.4504 13.6833L24.7026 13.7254L24.9147 13.77L25.0957 13.8328L25.3348 13.9248L25.6721 14.0436L25.9669 14.1242L26.2191 14.1663L26.5516 14.2036L26.8415 14.2026L27.1846 14.1493L27.4852 14.0577L27.6343 13.9915L27.8521 13.8639L28.1363 13.6341L28.3313 13.3933L28.4926 13.13L28.5631 12.9622L28.5074 12.9737L28.3788 13.1123L28.2633 13.2011L27.8432 13.4472L27.5271 13.5479L27.2797 13.5873L26.9497 13.5907L26.6975 13.5486L26.4273 13.4748L26.0965 13.331L25.8459 13.1824L25.448 12.9935L25.1352 12.8813L24.8314 12.785L24.5456 12.7203L24.2287 12.6739L23.8561 12.6389L23.3565 12.6362L22.7702 12.6631L22.0569 12.7222L21.4329 12.7924L20.9784 12.8687L20.4616 12.9815L19.6132 13.2042L19.1186 13.2829L18.9089 13.2791L18.6723 13.2279L18.4733 13.1334L18.1777 12.9057L18.0655 12.7815L17.9034 12.4967L17.8601 12.3111L17.8814 12.1299L17.9363 11.9711L18.0936 11.7735L18.2934 11.6143L18.4335 11.5322L18.8028 11.3792L19.0722 11.3058L19.4399 11.2592L19.77 11.2558L20.1892 11.2634L20.5258 11.235L20.7797 11.1707L20.8821 11.1318L21.1622 10.9678L21.4374 10.7222L21.67 10.4383L21.878 10.1476L21.8756 10.1068L21.462 10.328L21.1393 10.4537L20.8052 10.5228L20.4596 10.5354L20.1763 10.5114L19.8594 10.465L19.5335 10.4027L18.8145 10.2331L18.4706 10.1392L18.283 10.1013L17.9973 10.0366L17.3454 9.91207L17.0441 9.8565L16.4103 9.76359L15.9394 9.70182L15.5422 9.66018L15.0403 9.61663L14.612 9.59322L14.1681 9.57892L13.6285 9.57854L12.9619 9.61032L12.4181 9.67565L11.8923 9.77262L11.4403 9.88971L11.0308 10.0452L10.8506 10.1296L10.4772 10.3483L10.1086 10.6486L9.87352 10.8918L9.85141 10.9258L10.011 11.1699L10.2403 11.4998L10.7266 12.3542L10.9206 12.3671L11.3555 12.3656L11.7592 12.3823L12.4708 12.4297L12.8434 12.4646L13.5575 12.5527L13.8097 12.5948L14.111 12.6504L14.3141 12.6791L14.3477 12.7017L13.971 12.7324L13.5362 12.734L13.2643 12.7666L13.0907 12.8261L12.9662 12.899L12.8286 13.0218L12.718 13.1921L12.6434 13.4256L12.6155 13.6318L12.6523 13.8424L12.6908 13.9464L12.7809 14.1046L12.9626 14.3146L13.2156 14.504L13.4056 14.5826L13.5776 14.6296L13.892 14.6353L14.195 14.5844L15.0123 14.3799L15.6028 14.2873L16.271 14.149L16.6879 14.1159L17.076 14.1417L17.3283 14.1838L17.605 14.2327L17.5338 14.2533L17.2128 14.2726L16.9253 14.3144L16.687 14.3696L16.4978 14.4382L16.1866 14.6205L16.058 14.7591L15.972 14.936L15.9417 15.1015L15.9564 15.346L16.0538 15.6266L16.2044 15.8548L16.4107 16.0715L16.5966 16.2158L16.8226 16.3577L17.0707 16.4656L17.3499 16.5552L17.6513 16.6108L18.0304 16.6208L18.4382 16.5718L18.8747 16.4638L19.222 16.3448L19.905 16.0502L19.9918 16.0205L19.8452 16.1274L19.5119 16.3438L19.3096 16.4623L18.9181 16.6494L18.4996 16.789L18.1409 16.8514L17.7953 16.8639L17.503 16.8242L17.2172 16.7595L17.0453 16.7125L16.8643 16.6498L16.5515 16.5376L16.2567 16.4571L15.9734 16.4332L15.7572 16.4543L15.6147 16.4956L15.319 16.6688L15.0684 16.921L14.8914 17.1935L14.7857 17.4452L14.7644 17.6265L14.7791 17.8711L14.829 18.0317L14.9821 18.3007L15.1975 18.5332L14.8912 18.3962L14.5154 18.1732L14.0298 17.8669L13.6384 17.6531L13.3993 17.5611L13.1692 17.4849L12.8924 17.436L12.6025 17.437L12.2995 17.4879L12.0858 17.5498L11.7721 17.6913L11.5231 17.8372L11.2455 18.042L11.1767 18.1034L11.2438 18.1485L11.4805 18.1997L11.7442 18.2985L11.9611 18.4245L12.1896 18.6072L12.5171 18.9639L12.2264 18.8177L11.9537 18.7031L11.6745 18.6135L11.4288 18.5464L11.1119 18.5L10.8687 18.4737L10.8089 18.5509L10.5795 19.0228L10.3608 19.4041L10.0356 19.8899L9.77432 20.2328L9.7522 20.2669L9.89794 20.4136L10.2025 20.6571L10.5448 20.8575L10.7839 20.9496L11.014 21.0258L11.2105 21.0794L11.5921 21.1302L11.9156 21.1517L12.2612 21.1392L12.8049 21.0738L13.4421 20.9538L13.9523 20.866L14.3445 20.8261L14.7548 20.8179L15.0472 20.8576L15.2838 20.9089L15.5295 20.976L15.8021 21.0905L16.16 21.2818L16.4441 21.4529L16.8044 21.685L17.1851 21.9894L17.5102 22.3054L17.8737 22.7254L17.9065 22.6007L17.8951 22.1432L17.8419 21.7946L17.7331 21.4575L17.6676 21.306L17.4875 20.9895L17.2361 20.6937L16.7252 20.2334L16.2462 19.9021L16.0137 19.7852L15.8237 19.7066L16.0194 19.613L16.32 19.5214L16.6787 19.459L17.1356 19.4234L17.5394 19.4401L17.921 19.4908L18.2223 19.5464L18.6154 19.6538L18.897 19.7841L19.1812 19.9553L19.5013 20.1897L19.8059 20.4333L20.1662 20.6653L20.4479 20.7957L20.7852 20.9145L20.9818 20.9682L21.234 21.0104L21.5755 21.0635L22.0283 21.0936L22.4476 21.1012L22.9692 21.07L23.4237 20.9936L23.789 20.9063L24.2075 20.7667L24.49 20.6434L25.0969 20.2879L25.3967 20.049L25.6629 19.7876L25.7448 19.6764L25.7112 19.6538L25.1011 19.8213L24.4574 19.9662L23.7556 20.082L23.3633 20.1218L22.8973 20.1416L22.5493 20.1134L22.3127 20.0621L22.1317 19.9993L21.8967 19.8416L21.6838 19.6498L21.5536 19.494L21.4456 19.3041L21.3842 19.0869L21.3695 18.8423L21.4195 18.6021L21.5276 18.391L21.6759 18.1776L21.9331 17.9004L22.1174 17.7502L22.3442 17.6385L22.567 17.5924L22.7922 17.5871L23.0845 17.6268L23.3793 17.7073L23.5603 17.7701L23.7904 17.8463L24.0295 17.9383L24.3824 18.0481L24.6617 18.1377L24.8492 18.1756L25.0858 18.2268L25.4674 18.2776L25.9113 18.2919L26.3527 18.2654L26.8072 18.1891L27.2904 18.0538L27.6532 17.9256L28.1003 17.727L28.405 17.5697L28.8407 17.3145L29.3518 16.9729L29.8604 16.5907L30.0758 16.4223L30.4026 16.2309L30.7031 16.1392L31.0061 16.0883L31.432 16.071L31.7399 16.1016L32.0412 16.1572L32.2287 16.195L32.4654 16.2463L32.499 16.2688Z" stroke="white" stroke-width="0.4" shape-rendering="crispEdges" mask="url(#path-2-inside-1_1438_1288)"/>
</g>
<path fill-rule="evenodd" clip-rule="evenodd" d="M7.57401 10.1899C10.3992 11.0687 12.0075 14.0852 11.1663 16.9275C10.3251 19.7699 7.3529 21.3616 4.52774 20.4828C1.70259 19.604 0.0942808 16.5875 0.935485 13.7451C1.77669 10.9028 4.74885 9.31109 7.57401 10.1899Z" fill="white"/>
<path fill-rule="evenodd" clip-rule="evenodd" d="M6.65356 20.6943L7.48625 19.0928L9.50217 19.4565C8.70291 20.1417 7.71082 20.5775 6.65356 20.6943Z" fill="url(#paint1_linear_1438_1288)"/>
<path fill-rule="evenodd" clip-rule="evenodd" d="M11.1439 13.792C11.4408 14.7754 11.4653 15.8515 11.1535 16.9041C11.1207 17.0148 11.0836 17.1227 11.0446 17.2296L9.85947 15.6457L11.1439 13.792Z" fill="url(#paint2_linear_1438_1288)"/>
<path fill-rule="evenodd" clip-rule="evenodd" d="M9.33304 11.0911L7.15279 11.7875L5.82228 9.93619C6.40494 9.91464 7.00171 9.98875 7.59227 10.1722C8.2425 10.3742 8.82704 10.6906 9.33304 11.0911Z" fill="url(#paint3_linear_1438_1288)"/>
<path opacity="0.3" fill-rule="evenodd" clip-rule="evenodd" d="M7.66089 20.494C8.43837 19.8468 9.04042 18.9683 9.35119 17.9182C10.1924 15.0759 8.58409 12.0594 5.75893 11.1806C4.71537 10.856 3.65196 10.8693 2.68311 11.1576C4.01037 10.0528 5.84979 9.62376 7.63122 10.1779C10.4564 11.0567 12.0647 14.0732 11.2235 16.9155C10.693 18.708 9.31495 20.0021 7.66089 20.494Z" fill="#010202"/>
<mask id="mask0_1438_1288" style="mask-type:luminance" maskUnits="userSpaceOnUse" x="-1" y="8" width="15" height="15">
<path d="M2.28565 8.28247L13.0013 11.6189L9.81599 22.3911L-0.899658 19.0547L2.28565 8.28247Z" fill="#D9D9D9"/>
</mask>
<g mask="url(#mask0_1438_1288)">
<path fill-rule="evenodd" clip-rule="evenodd" d="M4.60103 20.24C1.91202 19.4028 0.374837 16.5225 1.17432 13.819C1.97375 11.1158 4.81178 9.59733 7.50079 10.4345C10.1898 11.2716 11.7268 14.1521 10.9273 16.8554C10.1279 19.5588 7.29005 21.0771 4.60103 20.24ZM7.64382 9.95084C4.68958 9.03112 1.57154 10.6993 0.69325 13.6693C-0.185088 16.6394 1.50376 19.8039 4.45801 20.7236C7.41225 21.6434 10.5301 19.9752 11.4084 17.0051C12.2867 14.0352 10.5981 10.8706 7.64382 9.95084Z" fill="#2E2E30"/>
</g>
<path fill-rule="evenodd" clip-rule="evenodd" d="M6.61634 13.4254L4.18712 14.2639L4.25094 16.8633L6.71949 17.6311L8.18149 15.5064L6.61634 13.4254Z" fill="url(#paint4_linear_1438_1288)"/>
<path fill-rule="evenodd" clip-rule="evenodd" d="M4.4424 14.4442L6.5278 13.7243L7.87154 15.5109L6.61653 17.3349L4.49702 16.6756L4.4424 14.4442ZM6.68791 13.1833C6.63838 13.1679 6.58412 13.1679 6.5329 13.1855L4.10359 14.0242C4.00122 14.0596 3.93365 14.1578 3.93632 14.2676L3.99987 16.8668C4.00275 16.9765 4.07512 17.0726 4.17914 17.105L6.6479 17.8729C6.75208 17.9053 6.86435 17.8666 6.92606 17.777L8.38803 15.6523C8.44962 15.5625 8.44662 15.4425 8.38076 15.3546L6.81563 13.2734C6.78254 13.2296 6.7376 13.1988 6.68791 13.1833Z" fill="#2E2E30"/>
<path fill-rule="evenodd" clip-rule="evenodd" d="M2.87932 19.6705C1.97419 18.9879 1.31104 18.0384 0.969905 16.9738L2.99543 17.8039L2.87932 19.6705Z" fill="url(#paint5_linear_1438_1288)"/>
<path fill-rule="evenodd" clip-rule="evenodd" d="M2.65953 19.163C2.13179 18.6799 1.70319 18.0841 1.40997 17.427L2.73376 17.9695L2.65953 19.163ZM1.04118 16.7326C0.956119 16.7061 0.863213 16.7269 0.798037 16.7881C0.727157 16.8544 0.701143 16.9565 0.731046 17.0499C1.09499 18.185 1.78648 19.1615 2.73048 19.8736C2.80422 19.9295 2.90211 19.9404 2.98536 19.902C3.06844 19.8637 3.12378 19.7825 3.1296 19.6902L3.24572 17.8232C3.25236 17.7139 3.18862 17.6119 3.08769 17.5704L1.06188 16.7401C1.05502 16.7373 1.04807 16.7347 1.04118 16.7326Z" fill="#2E2E30"/>
<path fill-rule="evenodd" clip-rule="evenodd" d="M7.62418 19.3741L8.89442 19.6034C8.35356 19.9722 7.74893 20.2302 7.10903 20.365L7.62418 19.3741ZM9.57402 19.2145C9.5644 19.2115 9.55428 19.209 9.54396 19.2072L7.52785 18.8435C7.42073 18.8241 7.31423 18.8765 7.26392 18.9731L6.43115 20.5748C6.38807 20.6577 6.39436 20.7583 6.44714 20.8359C6.50023 20.9137 6.59091 20.9562 6.68338 20.9459C7.78795 20.8238 8.81929 20.3757 9.66597 19.6499C9.73961 19.5867 9.77001 19.4858 9.74402 19.3909C9.72063 19.3062 9.65605 19.24 9.57402 19.2145Z" fill="#2E2E30"/>
<path fill-rule="evenodd" clip-rule="evenodd" d="M6.31485 10.1932C7.18536 10.2442 8.04535 10.5265 8.78074 11.0023L7.24798 11.4921L6.31485 10.1932ZM7.66423 9.93075C7.06146 9.74345 6.43762 9.66024 5.8104 9.68345C5.71831 9.68698 5.63608 9.74098 5.59631 9.82451C5.55642 9.90782 5.56552 10.0069 5.6198 10.0826L6.95063 11.9348C7.01454 12.024 7.12765 12.0616 7.23084 12.0289L9.41207 11.3321C9.50014 11.3038 9.56501 11.2288 9.58086 11.1369C9.59671 11.0451 9.56074 10.9512 9.48754 10.8933C8.94116 10.4608 8.32782 10.137 7.66423 9.93075Z" fill="#2E2E30"/>
<path fill-rule="evenodd" clip-rule="evenodd" d="M2.71556 13.4521L0.871034 14.0944C0.896386 13.9833 0.924292 13.8725 0.957083 13.7618C1.26886 12.7092 1.87299 11.8284 2.65329 11.1798L2.71556 13.4521Z" fill="url(#paint6_linear_1438_1288)"/>
<mask id="mask1_1438_1288" style="mask-type:luminance" maskUnits="userSpaceOnUse" x="0" y="10" width="4" height="5">
<path d="M0.547607 14.2588L1.63171 10.5995L3.63942 11.2234L2.55531 14.8827L0.547607 14.2588V14.2588Z" fill="#2E2E30"/>
</mask>
<g mask="url(#mask1_1438_1288)">
<path fill-rule="evenodd" clip-rule="evenodd" d="M1.24297 13.6967C1.48432 12.9595 1.88497 12.2954 2.4175 11.7461L2.45946 13.2731L1.24297 13.6967ZM2.72537 10.9396C2.64533 10.9148 2.5576 10.9312 2.49236 10.9856C1.64609 11.6886 1.03216 12.6229 0.716783 13.6876C0.682523 13.8033 0.653628 13.9192 0.627014 14.0352C0.606305 14.1252 0.636138 14.22 0.704709 14.2825C0.772798 14.3447 0.869615 14.3651 0.956207 14.3347L2.8001 13.6928C2.90297 13.6573 2.97029 13.5586 2.96719 13.4488L2.90502 11.1775C2.90238 11.0804 2.84477 10.9928 2.75705 10.9518C2.74667 10.9471 2.73598 10.9429 2.72537 10.9396Z" fill="#2E2E30"/>
</g>
<path fill-rule="evenodd" clip-rule="evenodd" d="M4.24753 16.8827L3.06812 17.7373Z" fill="white"/>
<path fill-rule="evenodd" clip-rule="evenodd" d="M4.31921 16.6407C4.24671 16.6181 4.16547 16.6286 4.09967 16.6764L2.92082 17.5308C2.80866 17.612 2.78409 17.7702 2.86566 17.8841C2.94766 17.9982 3.10435 18.0246 3.21635 17.9433L4.39515 17.089C4.50731 17.0078 4.53188 16.8496 4.45031 16.7357C4.41661 16.6886 4.37006 16.6565 4.31921 16.6407Z" fill="#2E2E30"/>
<path fill-rule="evenodd" clip-rule="evenodd" d="M6.70064 17.6355L7.49772 19.0931Z" fill="white"/>
<path fill-rule="evenodd" clip-rule="evenodd" d="M6.7723 17.3933C6.70979 17.3739 6.64043 17.3787 6.57894 17.4126C6.45792 17.479 6.41402 17.6327 6.4814 17.7558L7.27849 19.2135C7.34538 19.3364 7.4983 19.3822 7.61953 19.3157C7.74059 19.2491 7.78433 19.0954 7.71691 18.9724L6.92002 17.5146C6.88698 17.4542 6.83305 17.4122 6.7723 17.3933Z" fill="#2E2E30"/>
<path fill-rule="evenodd" clip-rule="evenodd" d="M4.19954 14.2712L2.70654 13.4496Z" fill="white"/>
<path fill-rule="evenodd" clip-rule="evenodd" d="M2.77687 13.207C2.66557 13.1724 2.5424 13.2198 2.48529 13.3264C2.41977 13.4485 2.46564 13.6018 2.58738 13.6689L4.08188 14.4931C4.20235 14.5603 4.35539 14.5159 4.42076 14.3938C4.48624 14.2719 4.44036 14.1185 4.31862 14.0514L2.82417 13.2271C2.80886 13.2187 2.79302 13.212 2.77687 13.207Z" fill="#2E2E30"/>
<path fill-rule="evenodd" clip-rule="evenodd" d="M10.1707 15.6425L11.0338 14.3968C11.1787 15.1565 11.1516 15.9367 10.9524 16.687L10.1707 15.6425ZM11.2155 13.5509C11.2047 13.5475 11.1937 13.545 11.1825 13.5429C11.0872 13.527 10.992 13.5671 10.9371 13.6464L9.65342 15.4993C9.59113 15.5887 9.59373 15.7092 9.65995 15.7973L10.8446 17.3807C10.9003 17.4552 10.9918 17.4931 11.082 17.4806C11.1728 17.4677 11.249 17.406 11.2808 17.3194C11.3263 17.1954 11.3637 17.0839 11.3948 16.9791C11.71 15.9145 11.7063 14.7881 11.3843 13.7217C11.3595 13.6394 11.2955 13.5757 11.2155 13.5509Z" fill="#2E2E30"/>
<path fill-rule="evenodd" clip-rule="evenodd" d="M8.1748 15.4912L9.86311 15.6553Z" fill="white"/>
<path fill-rule="evenodd" clip-rule="evenodd" d="M9.93575 15.4145C9.91959 15.4095 9.90281 15.406 9.8855 15.4043L8.19562 15.2398C8.05798 15.2264 7.93659 15.3278 7.92484 15.4664C7.91288 15.6051 8.01591 15.7289 8.15269 15.7417L9.84252 15.9063C9.98016 15.9198 10.1016 15.8184 10.1133 15.6796C10.1238 15.5585 10.047 15.4491 9.93575 15.4145Z" fill="#2E2E30"/>
<path fill-rule="evenodd" clip-rule="evenodd" d="M7.18333 11.5416C7.04972 11.5002 6.90901 11.5753 6.86923 11.7093L6.38505 13.3403C6.34527 13.4743 6.42142 13.6166 6.55503 13.658C6.68863 13.6995 6.82935 13.6243 6.86912 13.4904L7.35331 11.8594C7.39309 11.7254 7.31693 11.583 7.18333 11.5416Z" fill="#2E2E30"/>
</g>
</g>
<defs>
<filter id="filter0_d_1438_1288" x="5.7522" y="5.57812" width="30.7468" height="21.1475" filterUnits="userSpaceOnUse" color-interpolation-filters="sRGB">
<feFlood flood-opacity="0" result="BackgroundImageFix"/>
<feColorMatrix in="SourceAlpha" type="matrix" values="0 0 0 0 0 0 0 0 0 0 0 0 0 0 0 0 0 0 127 0" result="hardAlpha"/>
<feOffset/>
<feGaussianBlur stdDeviation="2"/>
<feComposite in2="hardAlpha" operator="out"/>
<feColorMatrix type="matrix" values="0 0 0 0 1 0 0 0 0 1 0 0 0 0 1 0 0 0 1 0"/>
<feBlend mode="normal" in2="BackgroundImageFix" result="effect1_dropShadow_1438_1288"/>
<feBlend mode="normal" in="SourceGraphic" in2="effect1_dropShadow_1438_1288" result="shape"/>
</filter>
<linearGradient id="paint0_linear_1438_1288" x1="23.1235" y1="21.7602" x2="14.9164" y2="7.74821" gradientUnits="userSpaceOnUse">
<stop stop-color="#0053A0"/>
<stop offset="1" stop-color="#00BF63" stop-opacity="0.8"/>
</linearGradient>
<linearGradient id="paint1_linear_1438_1288" x1="7.79006" y1="21.0478" x2="8.39237" y2="19.1114" gradientUnits="userSpaceOnUse">
<stop stop-color="#00BF63" stop-opacity="0.8"/>
<stop offset="1" stop-color="#0053A0"/>
</linearGradient>
<linearGradient id="paint2_linear_1438_1288" x1="10.2929" y1="16.996" x2="11.2759" y2="13.833" gradientUnits="userSpaceOnUse">
<stop stop-color="#00BF63" stop-opacity="0.8"/>
<stop offset="1" stop-color="#0053A0"/>
</linearGradient>
<linearGradient id="paint3_linear_1438_1288" x1="7.19622" y1="11.801" x2="7.69255" y2="10.2034" gradientUnits="userSpaceOnUse">
<stop stop-color="#00BF63" stop-opacity="0.8"/>
<stop offset="1" stop-color="#0053A0"/>
</linearGradient>
<linearGradient id="paint4_linear_1438_1288" x1="5.48522" y1="17.2472" x2="6.66894" y2="13.4417" gradientUnits="userSpaceOnUse">
<stop stop-color="#00BF63" stop-opacity="0.8"/>
<stop offset="1" stop-color="#0053A0"/>
</linearGradient>
<linearGradient id="paint5_linear_1438_1288" x1="1.63961" y1="19.285" x2="2.23596" y2="17.3675" gradientUnits="userSpaceOnUse">
<stop stop-color="#00BF63" stop-opacity="0.8"/>
<stop offset="1" stop-color="#0053A0"/>
</linearGradient>
<linearGradient id="paint6_linear_1438_1288" x1="1.62275" y1="14.328" x2="2.60574" y2="11.165" gradientUnits="userSpaceOnUse">
<stop stop-color="#00BF63" stop-opacity="0.8"/>
<stop offset="1" stop-color="#0053A0"/>
</linearGradient>
<clipPath id="clip0_1438_1288">
<rect width="32" height="32" rx="16" fill="white"/>
</clipPath>
<clipPath id="clip1_1438_1288">
<rect width="33" height="14" fill="white" transform="matrix(1 0 0 -1 0 23)"/>
</clipPath>
</defs>
</svg>
