<svg width="110" height="46" viewBox="0 0 110 46" fill="none" xmlns="http://www.w3.org/2000/svg">
<g clip-path="url(#clip0_1384_2781)">
<g filter="url(#filter0_d_1384_2781)">
<path d="M108.33 22.1162L108.292 22.3021L107.143 23.0945L106.368 23.4788L105.541 23.8331L104.744 24.1355L103.403 24.5402L102.533 24.7307L101.692 24.8692L100.717 24.9998L99.4017 25.0027L98.3098 24.8575L97.1742 24.5485L95.8093 24.0377L92.6945 22.7246L90.617 22.0104L88.9245 21.5878L87.5433 21.3449L86.2057 21.2659L85.1275 21.3366L84.153 21.4672L82.9547 21.7458L81.912 22.1143L80.9431 22.5947L79.966 23.209L79.0025 24.0392L78.3667 24.7812L77.9464 25.5091L77.6736 26.4607L77.6328 27.1304L77.7339 27.674L78.1299 28.6651L78.7197 29.5602L78.9709 29.8439L79.5633 30.2552L80.4314 30.5485L81.5015 30.6117L82.3422 30.4732L83.0492 30.3268L83.6524 30.1205L84.4494 29.8181L85.574 29.4276L86.5566 29.1631L87.3973 29.0246L88.5055 28.9019L89.4719 28.9052L90.6156 29.0803L91.6175 29.3815L92.1143 29.599L92.8405 30.0183L93.7879 30.7732L94.4377 31.5643L94.9756 32.4294L95.2105 32.9809L95.0248 32.9431L94.5962 32.4876L94.2112 32.1961L92.8107 31.3875L91.757 31.0564L90.9326 30.9271L89.8326 30.9158L88.9918 31.0543L88.0911 31.2968L86.9884 31.7693L86.1532 32.2576L84.8267 32.8781L83.784 33.2466L82.7713 33.5631L81.8187 33.7757L80.7624 33.9283L79.5204 34.0431L77.8553 34.0522L75.9008 33.9636L73.5232 33.7694L71.4431 33.5389L69.9281 33.2881L68.2056 32.9175L65.3775 32.1859L63.7287 31.9271L63.0299 31.9396L62.241 32.1081L61.5778 32.4183L60.5925 33.1666L60.2186 33.5746L59.6783 34.5104L59.5337 35.1202L59.6048 35.7158L59.7878 36.2374L60.312 36.8866L60.9782 37.4099L61.445 37.6794L62.6762 38.1822L63.5743 38.4235L64.8 38.5766L65.9 38.5878L67.2977 38.5629L68.4196 38.656L69.2658 38.8673L69.6071 38.995L70.5407 39.5341L71.458 40.341L72.2335 41.2739L72.927 42.2289L72.9188 42.3628L71.5402 41.6362L70.4646 41.2231L69.3508 40.996L68.1989 40.9549L67.2544 41.0335L66.1981 41.1861L65.1117 41.3907L62.7151 41.948L61.5687 42.2566L60.9436 42.381L59.991 42.5935L57.8183 43.0028L56.8138 43.1854L54.701 43.4906L53.1315 43.6936L51.8076 43.8304L50.1344 43.9735L48.7067 44.0504L47.2273 44.0974L45.4284 44.0987L43.2064 43.9942L41.3938 43.7796L39.6413 43.461L38.1344 43.0762L36.7695 42.5655L36.1689 42.288L34.924 41.5693L33.6955 40.5827L32.9119 39.7837L32.8382 39.6718L33.3703 38.8699L34.1344 37.786L35.7553 34.9786L36.4023 34.9361L37.8517 34.9411L39.1975 34.8862L41.5695 34.7307L42.8115 34.6159L45.1918 34.3265L46.0325 34.188L47.037 34.0054L47.7139 33.911L47.8258 33.8369L46.5701 33.7359L45.1207 33.7309L44.2144 33.6235L43.6357 33.428L43.2207 33.1885L42.762 32.785L42.3934 32.2256L42.1449 31.4582L42.0519 30.7807L42.1746 30.089L42.3029 29.7471L42.603 29.2272L43.2089 28.5372L44.0523 27.915L44.6855 27.6567L45.2587 27.5024L46.3069 27.4837L47.3169 27.6509L50.0413 28.3226L52.0095 28.6271L54.237 29.0813L55.6264 29.1903L56.9203 29.1054L57.761 28.9669L58.6836 28.8064L58.4461 28.7386L57.3761 28.6754L56.4179 28.5381L55.6235 28.3568L54.9929 28.1313L53.9555 27.5324L53.5269 27.0769L53.2401 26.4955L53.139 25.9519L53.188 25.1483L53.5127 24.2266L54.0148 23.4767L54.7026 22.7646L55.3221 22.2905L56.0754 21.8242L56.9024 21.4699L57.8332 21.1754L58.8377 20.9928L60.1015 20.96L61.461 21.1209L62.916 21.4757L64.0734 21.8667L66.3502 22.8346L66.6395 22.9323L66.1509 22.5809L65.0397 21.8701L64.3654 21.4807L63.0605 20.866L61.6656 20.4072L60.4699 20.2022L59.318 20.161L58.3435 20.2916L57.3909 20.5041L56.8177 20.6584L56.2144 20.8647L55.1718 21.2332L54.1891 21.4977L53.2447 21.5763L52.524 21.5068L52.049 21.3712L51.0635 20.8023L50.228 19.9733L49.6383 19.0782L49.286 18.2509L49.2149 17.6553L49.2639 16.8518L49.4303 16.324L49.9406 15.4401L50.6583 14.6761L49.6375 15.1265L48.3847 15.8589L46.7662 16.8655L45.4615 17.568L44.6645 17.8703L43.8975 18.1207L42.9749 18.2813L42.0086 18.2779L40.9986 18.1107L40.2861 17.9073L39.2405 17.4423L38.4106 16.9632L37.4851 16.2902L37.2558 16.0884L37.4796 15.9404L38.2685 15.7719L39.1474 15.4475L39.8706 15.0333L40.6321 14.4331L41.7238 13.261L40.7548 13.7414L39.8459 14.1178L38.9151 14.4123L38.0963 14.6327L37.0399 14.7853L36.2292 14.8719L36.0299 14.6181L35.2653 13.0676L34.5362 11.8148L33.4522 10.2185L32.5812 9.0917L32.5075 8.97982L32.9933 8.49776L34.0086 7.69753L35.1495 7.03912L35.9465 6.73675L36.7135 6.48637L37.3686 6.31002L38.6406 6.14325L39.7188 6.07255L40.8707 6.11374L42.6833 6.32837L44.8071 6.72268L46.5077 7.01135L47.8153 7.14238L49.1829 7.16943L50.1573 7.03883L50.9462 6.87039L51.7651 6.64995L52.674 6.27355L53.8667 5.64509L54.8138 5.08277L56.0148 4.32039L57.2839 3.3201L58.3674 2.28195L59.5791 0.901919L59.6883 1.31161L59.6504 2.81476L59.4732 3.96022L59.1104 5.06783L58.8921 5.56569L58.2918 6.6055L57.4539 7.57752L55.7509 9.08981L54.1542 10.1783L53.3791 10.5626L52.7458 10.8209L53.3983 11.1282L54.4001 11.4294L55.5958 11.6344L57.119 11.7513L58.4647 11.6964L59.7367 11.5297L60.7412 11.3471L62.0514 10.9944L62.9903 10.566L63.9374 10.0037L65.0046 9.23338L66.0199 8.43315L67.2208 7.67076L68.1597 7.24237L69.2843 6.85182L69.9394 6.67548L70.7801 6.53698L71.9183 6.3623L73.4279 6.26332L74.8255 6.23838L76.5643 6.34113L78.0793 6.59194L79.2968 6.87894L80.6918 7.33772L81.6336 7.74284L83.6565 8.91078L84.6557 9.69564L85.5431 10.5545L85.8161 10.9201L85.7042 10.9942L83.6705 10.4439L81.5248 9.96763L79.1854 9.58745L77.8779 9.45642L76.3247 9.39153L75.1646 9.48427L74.3757 9.65271L73.7725 9.85901L72.9892 10.3772L72.2796 11.0074L71.8456 11.5194L71.4854 12.1433L71.2808 12.857L71.2319 13.6606L71.3985 14.45L71.759 15.1433L72.2532 15.8446L73.1105 16.7555L73.7248 17.2488L74.4809 17.616L75.2235 17.7674L75.9741 17.7849L76.9486 17.6543L77.9312 17.3898L78.5345 17.1835L79.3015 16.9331L80.0985 16.6308L81.2749 16.2702L82.2057 15.9757L82.8308 15.8513L83.6196 15.6829L84.8916 15.5161L86.3711 15.4691L87.8424 15.5561L89.3574 15.8069L90.9681 16.2515L92.1774 16.6724L93.6679 17.325L94.6835 17.8421L96.1358 18.6806L97.8394 19.8028L99.5347 21.0589L100.253 21.6121L101.342 22.2409L102.344 22.5421L103.354 22.7093L104.773 22.7663L105.8 22.6656L106.804 22.4831L107.429 22.3587L108.218 22.1903L108.33 22.1162Z" fill="url(#paint0_linear_1384_2781)" shape-rendering="crispEdges"/>
</g>
<path fill-rule="evenodd" clip-rule="evenodd" d="M25.3216 42.1679C34.6968 39.3242 39.9897 29.4127 37.1437 20.0299C34.2977 10.6471 24.3905 5.34618 15.0153 8.18989C5.6401 11.0336 0.347177 20.9451 3.19319 30.3279C6.03921 39.7107 15.9464 45.0116 25.3216 42.1679Z" fill="white"/>
<path fill-rule="evenodd" clip-rule="evenodd" d="M22.178 7.54102L24.9754 12.8376L31.6733 11.6757C29.0032 9.40141 25.6961 7.9459 22.178 7.54102Z" fill="url(#paint1_linear_1384_2781)"/>
<path fill-rule="evenodd" clip-rule="evenodd" d="M37.1662 30.2643C38.1329 27.0357 38.1953 23.4972 37.1435 20.0297C37.0329 19.6651 36.9082 19.3093 36.777 18.9573L32.877 24.1441L37.1662 30.2643Z" fill="url(#paint2_linear_1384_2781)"/>
<path fill-rule="evenodd" clip-rule="evenodd" d="M31.1038 39.1622L23.8289 36.819L19.4296 42.916C21.3709 42.9981 23.3574 42.7641 25.3214 42.1684C27.4838 41.5125 29.4254 40.477 31.1038 39.1622Z" fill="url(#paint3_linear_1384_2781)"/>
<path opacity="0.3" fill-rule="evenodd" clip-rule="evenodd" d="M25.4303 8.19808C28.0259 10.3455 30.0425 13.2517 31.0939 16.7181C33.94 26.1009 28.647 36.0124 19.2718 38.8561C15.8088 39.9065 12.2739 39.8427 9.04843 38.8746C13.4795 42.5402 19.6012 43.9885 25.5128 42.1954C34.888 39.3517 40.1809 29.4402 37.3349 20.0574C35.5402 14.1404 30.9369 9.84975 25.4303 8.19808Z" fill="#010202"/>
<mask id="mask0_1384_2781" style="mask-type:luminance" maskUnits="userSpaceOnUse" x="-3" y="2" width="47" height="47">
<path d="M7.79073 48.3573L43.3365 37.5755L32.5458 2.00038L-3 12.7822L7.79073 48.3573Z" fill="#D9D9D9"/>
</mask>
<g mask="url(#mask0_1384_2781)">
<path fill-rule="evenodd" clip-rule="evenodd" d="M15.2576 8.98838C6.33727 11.6941 1.2833 21.1582 3.99125 30.0858C6.69903 39.0128 16.1591 44.075 25.0795 41.3692C33.9999 38.6635 39.0531 29.1991 36.3454 20.272C33.6374 11.3444 24.178 6.28263 15.2576 8.98838ZM25.5639 42.9664C15.7637 45.939 5.37026 40.3775 2.39538 30.5698C-0.579661 20.7616 4.97296 10.3638 14.7732 7.39122C24.5734 4.41859 34.9662 9.97979 37.9412 19.788C40.9161 29.5956 35.3642 39.9938 25.5639 42.9664Z" fill="#2E2E30"/>
</g>
<path fill-rule="evenodd" clip-rule="evenodd" d="M22.0822 31.4889L13.9916 28.6798L14.1581 20.1128L22.3513 17.6276L27.249 24.6585L22.0822 31.4889Z" fill="url(#paint4_linear_1384_2781)"/>
<path fill-rule="evenodd" clip-rule="evenodd" d="M14.8372 28.0895L21.7826 30.5013L26.2184 24.6374L22.0141 18.6019L14.9795 20.7356L14.8372 28.0895ZM22.3244 32.2874C22.16 32.3373 21.9796 32.3362 21.809 32.2775L13.7182 29.4679C13.3772 29.3492 13.1509 29.0243 13.1578 28.6623L13.3235 20.0962C13.3311 19.7346 13.57 19.4191 13.9153 19.3144L22.109 16.829C22.4547 16.7241 22.8287 16.8537 23.0354 17.1503L27.9329 24.1807C28.1393 24.478 28.1314 24.8734 27.914 25.162L22.7474 31.9928C22.6381 32.1364 22.4893 32.2374 22.3244 32.2874Z" fill="#2E2E30"/>
<path fill-rule="evenodd" clip-rule="evenodd" d="M9.56671 10.9378C6.56762 13.173 4.37823 16.2928 3.2621 19.7986L9.98578 17.0976L9.56671 10.9378Z" fill="url(#paint5_linear_1384_2781)"/>
<path fill-rule="evenodd" clip-rule="evenodd" d="M8.84471 12.6115C7.0978 14.1948 5.68268 16.1519 4.71892 18.3139L9.11259 16.5492L8.84471 12.6115ZM3.50444 20.5973C3.22197 20.683 2.91258 20.6129 2.69472 20.4098C2.45779 20.1898 2.36947 19.8527 2.46729 19.5451C3.65791 15.8079 5.94077 12.5999 9.0682 10.2688C9.3125 10.086 9.63789 10.0518 9.91547 10.1798C10.1925 10.308 10.378 10.5767 10.399 10.8814L10.818 17.0412C10.8421 17.4019 10.6318 17.7372 10.2968 17.8719L3.57316 20.573C3.5504 20.5822 3.52732 20.5904 3.50444 20.5973Z" fill="#2E2E30"/>
<path fill-rule="evenodd" clip-rule="evenodd" d="M25.4293 11.912L29.6493 11.1796C27.8443 9.95336 25.8291 9.09142 23.6988 8.63529L25.4293 11.912ZM31.916 12.4745C31.8841 12.4842 31.8505 12.4921 31.8162 12.4978L25.1183 13.6597C24.7624 13.7217 24.4073 13.5469 24.2383 13.2273L21.4409 7.9307C21.2962 7.65658 21.3154 7.32521 21.4895 7.07007C21.6647 6.81461 21.9655 6.67629 22.2731 6.71203C25.9484 7.13496 29.3859 8.63171 32.2142 11.0405C32.4602 11.2502 32.563 11.5835 32.4783 11.8959C32.402 12.1748 32.1884 12.3919 31.916 12.4745Z" fill="#2E2E30"/>
<path fill-rule="evenodd" clip-rule="evenodd" d="M21.0663 42.0738C23.9641 41.9216 26.8228 41.0045 29.2632 39.4457L24.1506 37.7983L21.0663 42.0738ZM25.5642 42.9664C23.5604 43.5742 21.4845 43.8376 19.3955 43.7492C19.0888 43.7358 18.8141 43.5558 18.6802 43.279C18.5459 43.0029 18.5744 42.6756 18.7538 42.4264L23.1527 36.3296C23.3639 36.0359 23.7399 35.9137 24.084 36.0238L31.3596 38.3674C31.6534 38.4625 31.8707 38.7117 31.9251 39.0156C31.9795 39.3194 31.8614 39.629 31.6187 39.8189C29.8069 41.2382 27.7703 42.2972 25.5642 42.9664Z" fill="#2E2E30"/>
<path fill-rule="evenodd" clip-rule="evenodd" d="M9.02651 31.379L2.90227 29.2327C2.98824 29.5985 3.08267 29.9634 3.19329 30.3281C4.24504 33.7955 6.26264 36.7031 8.86004 38.8506L9.02651 31.379Z" fill="url(#paint6_linear_1384_2781)"/>
<mask id="mask1_1384_2781" style="mask-type:luminance" maskUnits="userSpaceOnUse" x="1" y="26" width="12" height="15">
<path d="M1.82471 28.6865L5.4826 40.7459L12.1283 38.7302L8.4704 26.6707L1.82471 28.6865V28.6865Z" fill="#2E2E30"/>
</mask>
<g mask="url(#mask1_1384_2781)">
<path fill-rule="evenodd" clip-rule="evenodd" d="M4.1399 30.549C4.95306 32.979 6.29303 35.1713 8.0682 36.9885L8.18033 31.9652L4.1399 30.549ZM9.1031 39.6478C8.83818 39.7281 8.54705 39.6722 8.32979 39.4922C5.51184 37.1634 3.46 34.0778 2.39565 30.5688C2.28003 30.1876 2.18219 29.8057 2.09191 29.4238C2.02166 29.1271 2.11889 28.8156 2.34511 28.6116C2.56974 28.408 2.89035 28.3427 3.17796 28.4444L9.3022 30.5907C9.64385 30.7097 9.86878 31.0357 9.86042 31.3969L9.69448 38.8684C9.68743 39.188 9.49801 39.4751 9.20792 39.6084C9.17357 39.6235 9.13821 39.6371 9.1031 39.6478Z" fill="#2E2E30"/>
</g>
<path fill-rule="evenodd" clip-rule="evenodd" d="M14.1577 20.1122L10.2263 17.2764Z" fill="white"/>
<path fill-rule="evenodd" clip-rule="evenodd" d="M14.4004 20.9116C14.16 20.9845 13.8899 20.9484 13.6705 20.7899L9.73965 17.954C9.36566 17.6843 9.28126 17.1628 9.55022 16.7894C9.82062 16.4149 10.3406 16.331 10.7141 16.6009L14.6448 19.4363C15.0188 19.706 15.1032 20.2275 14.8342 20.6009C14.7231 20.7555 14.569 20.8604 14.4004 20.9116Z" fill="#2E2E30"/>
<path fill-rule="evenodd" clip-rule="evenodd" d="M22.3514 17.6267L24.9755 12.8373Z" fill="white"/>
<path fill-rule="evenodd" clip-rule="evenodd" d="M22.5937 18.4255C22.3862 18.4884 22.1556 18.4712 21.9506 18.3583C21.5471 18.1371 21.3985 17.6299 21.6203 17.2254L24.2443 12.4361C24.4645 12.0321 24.972 11.884 25.3762 12.1056C25.7798 12.3273 25.9279 12.8347 25.7059 13.2386L23.0826 18.0284C22.9738 18.227 22.7953 18.3643 22.5937 18.4255Z" fill="#2E2E30"/>
<path fill-rule="evenodd" clip-rule="evenodd" d="M13.9915 28.6797L9.02684 31.3791Z" fill="white"/>
<path fill-rule="evenodd" clip-rule="evenodd" d="M9.26753 32.1784C8.89729 32.2907 8.48601 32.1318 8.29385 31.7779C8.07336 31.3727 8.22351 30.8661 8.62796 30.6463L13.5931 27.9467C13.9934 27.7265 14.5041 27.8762 14.724 28.2816C14.9444 28.6862 14.7942 29.1928 14.3898 29.4126L9.42477 32.1127C9.3739 32.1403 9.32126 32.1621 9.26753 32.1784Z" fill="#2E2E30"/>
<path fill-rule="evenodd" clip-rule="evenodd" d="M33.9071 24.1619L36.791 28.2765C37.2577 25.7798 37.1539 23.2125 36.4802 20.7403L33.9071 24.1619ZM37.4085 31.0629C37.3728 31.0737 37.3364 31.0819 37.2994 31.0884C36.9836 31.1389 36.6672 31.0052 36.4838 30.7434L32.1946 24.6232C31.9864 24.3277 31.9929 23.9315 32.2109 23.6428L36.1103 18.4561C36.2936 18.2121 36.5961 18.089 36.8955 18.1319C37.197 18.1759 37.4507 18.3803 37.5576 18.6659C37.7107 19.0747 37.8367 19.4422 37.9415 19.7878C39.0057 23.2962 39.0137 27.0017 37.9651 30.504C37.8844 30.7744 37.6734 30.9825 37.4085 31.0629Z" fill="#2E2E30"/>
<path fill-rule="evenodd" clip-rule="evenodd" d="M27.2488 24.6582L32.8765 24.1448Z" fill="white"/>
<path fill-rule="evenodd" clip-rule="evenodd" d="M33.1202 24.9423C33.0665 24.9586 33.0106 24.9697 32.953 24.975L27.3251 25.4879C26.8667 25.5298 26.4605 25.192 26.4189 24.7332C26.3766 24.2739 26.7177 23.8664 27.1732 23.8265L32.8009 23.313C33.2593 23.2711 33.6655 23.6089 33.7073 24.0683C33.7441 24.4693 33.4904 24.83 33.1202 24.9423Z" fill="#2E2E30"/>
<path fill-rule="evenodd" clip-rule="evenodd" d="M23.9522 37.6527C23.5118 37.7863 23.0458 37.537 22.9121 37.0962L21.2845 31.7302C21.1508 31.2894 21.3997 30.8232 21.8402 30.6896C22.2806 30.556 22.7466 30.8053 22.8803 31.2462L24.5079 36.6121C24.6417 37.0529 24.3927 37.5191 23.9522 37.6527Z" fill="#2E2E30"/>
<mask id="path-28-outside-1_1384_2781" maskUnits="userSpaceOnUse" x="43" y="10" width="51" height="23" fill="black">
<rect fill="white" x="43" y="10" width="51" height="23"/>
<path d="M48.6807 12.3594V28H45.5332V12.3594H48.6807ZM53.5791 19.0088V21.6084H47.8857V19.0088H53.5791ZM54.1807 12.3594V14.9697H47.8857V12.3594H54.1807ZM61.249 25.207V16.377H64.2676V28H61.4316L61.249 25.207ZM61.5928 22.8115L62.4307 22.79C62.4307 23.5706 62.3555 24.2939 62.2051 24.96C62.0547 25.6188 61.8291 26.1917 61.5283 26.6787C61.2347 27.1657 60.8587 27.5452 60.4004 27.8174C59.9492 28.0824 59.4157 28.2148 58.7998 28.2148C58.3271 28.2148 57.8903 28.1361 57.4893 27.9785C57.0954 27.8138 56.7552 27.5596 56.4688 27.2158C56.1823 26.8649 55.9567 26.4173 55.792 25.873C55.6344 25.3216 55.5557 24.6628 55.5557 23.8965V16.377H58.5742V23.918C58.5742 24.2331 58.5993 24.5052 58.6494 24.7344C58.7067 24.9564 58.7855 25.139 58.8857 25.2822C58.9932 25.4255 59.1149 25.5293 59.251 25.5938C59.387 25.651 59.541 25.6797 59.7129 25.6797C60.1855 25.6797 60.5579 25.5579 60.8301 25.3145C61.1094 25.0638 61.3063 24.7236 61.4209 24.2939C61.5355 23.8571 61.5928 23.363 61.5928 22.8115ZM66.4697 11.5H69.4668V25.3037L69.252 28H66.4697V11.5ZM75.5039 21.8018V22.5645C75.5039 23.5098 75.4287 24.3333 75.2783 25.0352C75.1351 25.737 74.9095 26.3242 74.6016 26.7969C74.3008 27.2695 73.9141 27.624 73.4414 27.8604C72.9688 28.0967 72.4102 28.2148 71.7656 28.2148C71.1855 28.2148 70.6878 28.0788 70.2725 27.8066C69.8571 27.5273 69.5062 27.1442 69.2197 26.6572C68.9404 26.1631 68.7113 25.5866 68.5322 24.9277C68.3604 24.2617 68.235 23.5348 68.1562 22.7471V21.6191C68.2279 20.8457 68.3496 20.126 68.5215 19.46C68.7005 18.7939 68.9297 18.2174 69.209 17.7305C69.4883 17.2363 69.8356 16.8532 70.251 16.5811C70.6735 16.3018 71.1712 16.1621 71.7441 16.1621C72.403 16.1621 72.9688 16.2839 73.4414 16.5273C73.9141 16.7637 74.3008 17.1182 74.6016 17.5908C74.9095 18.0635 75.1351 18.6543 75.2783 19.3633C75.4287 20.0651 75.5039 20.8779 75.5039 21.8018ZM72.5068 22.5645V21.8018C72.5068 21.2646 72.4854 20.8027 72.4424 20.416C72.3994 20.0293 72.3206 19.707 72.2061 19.4492C72.0915 19.1914 71.9268 18.998 71.7119 18.8691C71.5042 18.7402 71.2285 18.6758 70.8848 18.6758C70.5768 18.6758 70.319 18.7367 70.1113 18.8584C69.9036 18.973 69.7246 19.1449 69.5742 19.374C69.431 19.596 69.3271 19.861 69.2627 20.1689C69.1982 20.4697 69.1589 20.8027 69.1445 21.168V23.1982C69.1517 23.6924 69.2126 24.1292 69.3271 24.5088C69.4417 24.8883 69.6243 25.182 69.875 25.3896C70.1328 25.5973 70.4766 25.7012 70.9062 25.7012C71.2428 25.7012 71.515 25.6439 71.7227 25.5293C71.9303 25.4147 72.0915 25.2321 72.2061 24.9814C72.3278 24.7308 72.4066 24.4085 72.4424 24.0146C72.4854 23.6136 72.5068 23.1302 72.5068 22.5645ZM77.0078 22.5859V21.8018C77.0078 20.8923 77.1152 20.0866 77.3301 19.3848C77.5521 18.6829 77.8672 18.0957 78.2754 17.623C78.6836 17.1432 79.1742 16.7816 79.7471 16.5381C80.3271 16.2874 80.9753 16.1621 81.6914 16.1621C82.4147 16.1621 83.0628 16.2874 83.6357 16.5381C84.2158 16.7816 84.71 17.1432 85.1182 17.623C85.5335 18.0957 85.8522 18.6829 86.0742 19.3848C86.2962 20.0866 86.4072 20.8923 86.4072 21.8018V22.5859C86.4072 23.4883 86.2962 24.2904 86.0742 24.9922C85.8522 25.694 85.5335 26.2848 85.1182 26.7646C84.71 27.2445 84.2194 27.6061 83.6465 27.8496C83.0736 28.0931 82.429 28.2148 81.7129 28.2148C80.9967 28.2148 80.3486 28.0931 79.7686 27.8496C79.1956 27.6061 78.7015 27.2445 78.2861 26.7646C77.8708 26.2848 77.5521 25.694 77.3301 24.9922C77.1152 24.2904 77.0078 23.4883 77.0078 22.5859ZM80.0156 21.8018V22.5859C80.0156 23.123 80.0514 23.5885 80.123 23.9824C80.2018 24.3763 80.3128 24.7021 80.4561 24.96C80.6064 25.2178 80.7855 25.4076 80.9932 25.5293C81.2008 25.651 81.4408 25.7119 81.7129 25.7119C81.985 25.7119 82.2285 25.651 82.4434 25.5293C82.6582 25.4076 82.8337 25.2178 82.9697 24.96C83.113 24.7021 83.2168 24.3763 83.2812 23.9824C83.3529 23.5885 83.3887 23.123 83.3887 22.5859V21.8018C83.3887 21.279 83.3493 20.8206 83.2705 20.4268C83.1917 20.0257 83.0807 19.6999 82.9375 19.4492C82.7943 19.1914 82.6152 18.998 82.4004 18.8691C82.1927 18.7331 81.9564 18.665 81.6914 18.665C81.4264 18.665 81.1901 18.7331 80.9824 18.8691C80.7819 18.998 80.6064 19.1914 80.4561 19.4492C80.3128 19.6999 80.2018 20.0257 80.123 20.4268C80.0514 20.8206 80.0156 21.279 80.0156 21.8018ZM91.4668 11.5V28H88.4482V11.5H91.4668Z"/>
<path d="M44.2656 30.1484H92.7344V31.2227H44.2656V30.1484Z"/>
</mask>
<path d="M48.6807 12.3594V28H45.5332V12.3594H48.6807ZM53.5791 19.0088V21.6084H47.8857V19.0088H53.5791ZM54.1807 12.3594V14.9697H47.8857V12.3594H54.1807ZM61.249 25.207V16.377H64.2676V28H61.4316L61.249 25.207ZM61.5928 22.8115L62.4307 22.79C62.4307 23.5706 62.3555 24.2939 62.2051 24.96C62.0547 25.6188 61.8291 26.1917 61.5283 26.6787C61.2347 27.1657 60.8587 27.5452 60.4004 27.8174C59.9492 28.0824 59.4157 28.2148 58.7998 28.2148C58.3271 28.2148 57.8903 28.1361 57.4893 27.9785C57.0954 27.8138 56.7552 27.5596 56.4688 27.2158C56.1823 26.8649 55.9567 26.4173 55.792 25.873C55.6344 25.3216 55.5557 24.6628 55.5557 23.8965V16.377H58.5742V23.918C58.5742 24.2331 58.5993 24.5052 58.6494 24.7344C58.7067 24.9564 58.7855 25.139 58.8857 25.2822C58.9932 25.4255 59.1149 25.5293 59.251 25.5938C59.387 25.651 59.541 25.6797 59.7129 25.6797C60.1855 25.6797 60.5579 25.5579 60.8301 25.3145C61.1094 25.0638 61.3063 24.7236 61.4209 24.2939C61.5355 23.8571 61.5928 23.363 61.5928 22.8115ZM66.4697 11.5H69.4668V25.3037L69.252 28H66.4697V11.5ZM75.5039 21.8018V22.5645C75.5039 23.5098 75.4287 24.3333 75.2783 25.0352C75.1351 25.737 74.9095 26.3242 74.6016 26.7969C74.3008 27.2695 73.9141 27.624 73.4414 27.8604C72.9688 28.0967 72.4102 28.2148 71.7656 28.2148C71.1855 28.2148 70.6878 28.0788 70.2725 27.8066C69.8571 27.5273 69.5062 27.1442 69.2197 26.6572C68.9404 26.1631 68.7113 25.5866 68.5322 24.9277C68.3604 24.2617 68.235 23.5348 68.1562 22.7471V21.6191C68.2279 20.8457 68.3496 20.126 68.5215 19.46C68.7005 18.7939 68.9297 18.2174 69.209 17.7305C69.4883 17.2363 69.8356 16.8532 70.251 16.5811C70.6735 16.3018 71.1712 16.1621 71.7441 16.1621C72.403 16.1621 72.9688 16.2839 73.4414 16.5273C73.9141 16.7637 74.3008 17.1182 74.6016 17.5908C74.9095 18.0635 75.1351 18.6543 75.2783 19.3633C75.4287 20.0651 75.5039 20.8779 75.5039 21.8018ZM72.5068 22.5645V21.8018C72.5068 21.2646 72.4854 20.8027 72.4424 20.416C72.3994 20.0293 72.3206 19.707 72.2061 19.4492C72.0915 19.1914 71.9268 18.998 71.7119 18.8691C71.5042 18.7402 71.2285 18.6758 70.8848 18.6758C70.5768 18.6758 70.319 18.7367 70.1113 18.8584C69.9036 18.973 69.7246 19.1449 69.5742 19.374C69.431 19.596 69.3271 19.861 69.2627 20.1689C69.1982 20.4697 69.1589 20.8027 69.1445 21.168V23.1982C69.1517 23.6924 69.2126 24.1292 69.3271 24.5088C69.4417 24.8883 69.6243 25.182 69.875 25.3896C70.1328 25.5973 70.4766 25.7012 70.9062 25.7012C71.2428 25.7012 71.515 25.6439 71.7227 25.5293C71.9303 25.4147 72.0915 25.2321 72.2061 24.9814C72.3278 24.7308 72.4066 24.4085 72.4424 24.0146C72.4854 23.6136 72.5068 23.1302 72.5068 22.5645ZM77.0078 22.5859V21.8018C77.0078 20.8923 77.1152 20.0866 77.3301 19.3848C77.5521 18.6829 77.8672 18.0957 78.2754 17.623C78.6836 17.1432 79.1742 16.7816 79.7471 16.5381C80.3271 16.2874 80.9753 16.1621 81.6914 16.1621C82.4147 16.1621 83.0628 16.2874 83.6357 16.5381C84.2158 16.7816 84.71 17.1432 85.1182 17.623C85.5335 18.0957 85.8522 18.6829 86.0742 19.3848C86.2962 20.0866 86.4072 20.8923 86.4072 21.8018V22.5859C86.4072 23.4883 86.2962 24.2904 86.0742 24.9922C85.8522 25.694 85.5335 26.2848 85.1182 26.7646C84.71 27.2445 84.2194 27.6061 83.6465 27.8496C83.0736 28.0931 82.429 28.2148 81.7129 28.2148C80.9967 28.2148 80.3486 28.0931 79.7686 27.8496C79.1956 27.6061 78.7015 27.2445 78.2861 26.7646C77.8708 26.2848 77.5521 25.694 77.3301 24.9922C77.1152 24.2904 77.0078 23.4883 77.0078 22.5859ZM80.0156 21.8018V22.5859C80.0156 23.123 80.0514 23.5885 80.123 23.9824C80.2018 24.3763 80.3128 24.7021 80.4561 24.96C80.6064 25.2178 80.7855 25.4076 80.9932 25.5293C81.2008 25.651 81.4408 25.7119 81.7129 25.7119C81.985 25.7119 82.2285 25.651 82.4434 25.5293C82.6582 25.4076 82.8337 25.2178 82.9697 24.96C83.113 24.7021 83.2168 24.3763 83.2812 23.9824C83.3529 23.5885 83.3887 23.123 83.3887 22.5859V21.8018C83.3887 21.279 83.3493 20.8206 83.2705 20.4268C83.1917 20.0257 83.0807 19.6999 82.9375 19.4492C82.7943 19.1914 82.6152 18.998 82.4004 18.8691C82.1927 18.7331 81.9564 18.665 81.6914 18.665C81.4264 18.665 81.1901 18.7331 80.9824 18.8691C80.7819 18.998 80.6064 19.1914 80.4561 19.4492C80.3128 19.6999 80.2018 20.0257 80.123 20.4268C80.0514 20.8206 80.0156 21.279 80.0156 21.8018ZM91.4668 11.5V28H88.4482V11.5H91.4668Z" fill="white"/>
<path d="M44.2656 30.1484H92.7344V31.2227H44.2656V30.1484Z" fill="white"/>
<path d="M48.6807 12.3594H49.6807V11.3594H48.6807V12.3594ZM48.6807 28V29H49.6807V28H48.6807ZM45.5332 28H44.5332V29H45.5332V28ZM45.5332 12.3594V11.3594H44.5332V12.3594H45.5332ZM53.5791 19.0088H54.5791V18.0088H53.5791V19.0088ZM53.5791 21.6084V22.6084H54.5791V21.6084H53.5791ZM47.8857 21.6084H46.8857V22.6084H47.8857V21.6084ZM47.8857 19.0088V18.0088H46.8857V19.0088H47.8857ZM54.1807 12.3594H55.1807V11.3594H54.1807V12.3594ZM54.1807 14.9697V15.9697H55.1807V14.9697H54.1807ZM47.8857 14.9697H46.8857V15.9697H47.8857V14.9697ZM47.8857 12.3594V11.3594H46.8857V12.3594H47.8857ZM47.6807 12.3594V28H49.6807V12.3594H47.6807ZM48.6807 27H45.5332V29H48.6807V27ZM46.5332 28V12.3594H44.5332V28H46.5332ZM45.5332 13.3594H48.6807V11.3594H45.5332V13.3594ZM52.5791 19.0088V21.6084H54.5791V19.0088H52.5791ZM53.5791 20.6084H47.8857V22.6084H53.5791V20.6084ZM48.8857 21.6084V19.0088H46.8857V21.6084H48.8857ZM47.8857 20.0088H53.5791V18.0088H47.8857V20.0088ZM53.1807 12.3594V14.9697H55.1807V12.3594H53.1807ZM54.1807 13.9697H47.8857V15.9697H54.1807V13.9697ZM48.8857 14.9697V12.3594H46.8857V14.9697H48.8857ZM47.8857 13.3594H54.1807V11.3594H47.8857V13.3594ZM61.249 25.207H60.249V25.2397L60.2512 25.2723L61.249 25.207ZM61.249 16.377V15.377H60.249V16.377H61.249ZM64.2676 16.377H65.2676V15.377H64.2676V16.377ZM64.2676 28V29H65.2676V28H64.2676ZM61.4316 28L60.4338 28.0652L60.4949 29H61.4316V28ZM61.5928 22.8115L61.5671 21.8119L60.5928 21.8368V22.8115H61.5928ZM62.4307 22.79H63.4307V21.7641L62.405 21.7904L62.4307 22.79ZM62.2051 24.96L63.18 25.1825L63.1805 25.1802L62.2051 24.96ZM61.5283 26.6787L60.6775 26.1532L60.6719 26.1624L61.5283 26.6787ZM60.4004 27.8174L60.9068 28.6797L60.9109 28.6772L60.4004 27.8174ZM57.4893 27.9785L57.1035 28.9011L57.1135 28.9053L57.1236 28.9093L57.4893 27.9785ZM56.4688 27.2158L55.694 27.8482L55.7005 27.856L56.4688 27.2158ZM55.792 25.873L54.8305 26.1478L54.8326 26.1553L54.8349 26.1627L55.792 25.873ZM55.5557 16.377V15.377H54.5557V16.377H55.5557ZM58.5742 16.377H59.5742V15.377H58.5742V16.377ZM58.6494 24.7344L57.6725 24.9481L57.6765 24.9662L57.6811 24.9843L58.6494 24.7344ZM58.8857 25.2822L58.0665 25.8557L58.0759 25.8691L58.0857 25.8822L58.8857 25.2822ZM59.251 25.5938L58.8229 26.4975L58.8427 26.5069L58.8629 26.5154L59.251 25.5938ZM60.8301 25.3145L61.4969 26.0597L61.498 26.0587L60.8301 25.3145ZM61.4209 24.2939L62.3871 24.5516L62.3882 24.5477L61.4209 24.2939ZM62.249 25.207V16.377H60.249V25.207H62.249ZM61.249 17.377H64.2676V15.377H61.249V17.377ZM63.2676 16.377V28H65.2676V16.377H63.2676ZM64.2676 27H61.4316V29H64.2676V27ZM62.4295 27.9348L62.2469 25.1418L60.2512 25.2723L60.4338 28.0652L62.4295 27.9348ZM61.6184 23.8112L62.4563 23.7897L62.405 21.7904L61.5671 21.8119L61.6184 23.8112ZM61.4307 22.79C61.4307 23.5069 61.3616 24.1554 61.2296 24.7397L63.1805 25.1802C63.3494 24.4325 63.4307 23.6344 63.4307 22.79H61.4307ZM61.2302 24.7374C61.0999 25.308 60.9112 25.7749 60.6775 26.1532L62.3791 27.2042C62.747 26.6086 63.0095 25.9296 63.18 25.1825L61.2302 24.7374ZM60.6719 26.1624C60.4576 26.5178 60.1969 26.7752 59.8899 26.9575L60.9109 28.6772C61.5206 28.3153 62.0118 27.8136 62.3847 27.1951L60.6719 26.1624ZM59.894 26.9551C59.6216 27.1151 59.2694 27.2148 58.7998 27.2148V29.2148C59.5619 29.2148 60.2768 29.0497 60.9068 28.6797L59.894 26.9551ZM58.7998 27.2148C58.4401 27.2148 58.1287 27.1553 57.8549 27.0478L57.1236 28.9093C57.6519 29.1168 58.2142 29.2148 58.7998 29.2148V27.2148ZM57.8751 27.0559C57.6367 26.9563 57.4256 26.802 57.237 26.5756L55.7005 27.856C56.0848 28.3171 56.5541 28.6714 57.1035 28.9011L57.8751 27.0559ZM57.2434 26.5834C57.0577 26.356 56.8853 26.0334 56.7491 25.5834L54.8349 26.1627C55.0281 26.8013 55.3068 27.3738 55.6941 27.8482L57.2434 26.5834ZM56.7535 25.5983C56.6284 25.1604 56.5557 24.5989 56.5557 23.8965H54.5557C54.5557 24.7266 54.6405 25.4828 54.8305 26.1478L56.7535 25.5983ZM56.5557 23.8965V16.377H54.5557V23.8965H56.5557ZM55.5557 17.377H58.5742V15.377H55.5557V17.377ZM57.5742 16.377V23.918H59.5742V16.377H57.5742ZM57.5742 23.918C57.5742 24.2821 57.6028 24.6295 57.6725 24.9481L59.6263 24.5207C59.5957 24.3809 59.5742 24.184 59.5742 23.918H57.5742ZM57.6811 24.9843C57.7595 25.288 57.8799 25.5891 58.0665 25.8557L59.705 24.7088C59.691 24.6888 59.6539 24.6247 59.6177 24.4845L57.6811 24.9843ZM58.0857 25.8822C58.2723 26.1309 58.5147 26.3515 58.8229 26.4975L59.6791 24.69C59.6869 24.6937 59.6933 24.6975 59.6982 24.7006C59.7031 24.7038 59.7058 24.7061 59.7066 24.7067C59.708 24.7079 59.7003 24.7017 59.6857 24.6822L58.0857 25.8822ZM58.8629 26.5154C59.1403 26.6322 59.4294 26.6797 59.7129 26.6797V24.6797C59.6527 24.6797 59.6338 24.6699 59.639 24.6721L58.8629 26.5154ZM59.7129 26.6797C60.3572 26.6797 60.9926 26.5108 61.4969 26.0597L60.1633 24.5692C60.1232 24.605 60.0139 24.6797 59.7129 24.6797V26.6797ZM61.498 26.0587C61.9469 25.6558 62.2319 25.1337 62.3871 24.5516L60.4547 24.0363C60.3807 24.3136 60.2719 24.4718 60.1622 24.5702L61.498 26.0587ZM62.3882 24.5477C62.5286 24.0121 62.5928 23.4305 62.5928 22.8115H60.5928C60.5928 23.2954 60.5423 23.7021 60.4536 24.0402L62.3882 24.5477ZM66.4697 11.5V10.5H65.4697V11.5H66.4697ZM69.4668 11.5H70.4668V10.5H69.4668V11.5ZM69.4668 25.3037L70.4636 25.3831L70.4668 25.3435V25.3037H69.4668ZM69.252 28V29H70.1754L70.2488 28.0794L69.252 28ZM66.4697 28H65.4697V29H66.4697V28ZM75.2783 25.0352L74.3005 24.8256L74.2985 24.8352L75.2783 25.0352ZM74.6016 26.7969L73.7637 26.251L73.7579 26.26L74.6016 26.7969ZM70.2725 27.8066L69.7144 28.6365L69.7244 28.6431L70.2725 27.8066ZM69.2197 26.6572L68.3492 27.1493L68.3534 27.1568L68.3578 27.1642L69.2197 26.6572ZM68.5322 24.9277L67.5639 25.1776L67.5672 25.19L68.5322 24.9277ZM68.1562 22.7471H67.1562V22.7969L67.1612 22.8466L68.1562 22.7471ZM68.1562 21.6191L67.1605 21.5269L67.1562 21.5729V21.6191H68.1562ZM68.5215 19.46L67.5557 19.2003L67.5532 19.2101L68.5215 19.46ZM69.209 17.7305L70.0765 18.228L70.0795 18.2225L69.209 17.7305ZM70.251 16.5811L70.799 17.4175L70.8024 17.4153L70.251 16.5811ZM73.4414 16.5273L72.9834 17.4164L72.9942 17.4218L73.4414 16.5273ZM74.6016 17.5908L73.7579 18.1277L73.7637 18.1367L74.6016 17.5908ZM75.2783 19.3633L74.2981 19.5613L74.3005 19.5728L75.2783 19.3633ZM71.7119 18.8691L71.1846 19.7188L71.191 19.7228L71.1974 19.7266L71.7119 18.8691ZM70.1113 18.8584L70.5944 19.734L70.6058 19.7277L70.617 19.7211L70.1113 18.8584ZM69.5742 19.374L68.7381 18.8254L68.7339 18.8319L69.5742 19.374ZM69.2627 20.1689L70.2405 20.3785L70.2415 20.3738L69.2627 20.1689ZM69.1445 21.168L68.1453 21.1288L68.1445 21.1484V21.168H69.1445ZM69.1445 23.1982H68.1445V23.2055L68.1446 23.2127L69.1445 23.1982ZM69.3271 24.5088L68.3698 24.7978L69.3271 24.5088ZM69.875 25.3896L69.2369 26.1597L69.2477 26.1684L69.875 25.3896ZM72.2061 24.9814L71.3065 24.5445L71.3014 24.5551L71.2966 24.5657L72.2061 24.9814ZM72.4424 24.0146L71.4481 23.9081L71.4472 23.9161L71.4465 23.9241L72.4424 24.0146ZM66.4697 12.5H69.4668V10.5H66.4697V12.5ZM68.4668 11.5V25.3037H70.4668V11.5H68.4668ZM68.47 25.2243L68.2551 27.9206L70.2488 28.0794L70.4636 25.3831L68.47 25.2243ZM69.252 27H66.4697V29H69.252V27ZM67.4697 28V11.5H65.4697V28H67.4697ZM74.5039 21.8018V22.5645H76.5039V21.8018H74.5039ZM74.5039 22.5645C74.5039 23.4601 74.4324 24.2104 74.3005 24.8256L76.2561 25.2447C76.4251 24.4563 76.5039 23.5594 76.5039 22.5645H74.5039ZM74.2985 24.8352C74.1739 25.4457 73.9872 25.9079 73.7637 26.251L75.4394 27.3428C75.8318 26.7406 76.0963 26.0283 76.2581 25.2351L74.2985 24.8352ZM73.7579 26.26C73.5483 26.5893 73.2949 26.8156 72.9942 26.9659L73.8886 28.7548C74.5333 28.4325 75.0532 27.9497 75.4452 27.3338L73.7579 26.26ZM72.9942 26.9659C72.6876 27.1192 72.2885 27.2148 71.7656 27.2148V29.2148C72.5318 29.2148 73.2499 29.0741 73.8886 28.7548L72.9942 26.9659ZM71.7656 27.2148C71.3468 27.2148 71.0471 27.1187 70.8205 26.9702L69.7244 28.6431C70.3285 29.0389 71.0243 29.2148 71.7656 29.2148V27.2148ZM70.8305 26.9768C70.5544 26.7912 70.3021 26.5249 70.0817 26.1502L68.3578 27.1642C68.7103 27.7635 69.1598 28.2635 69.7145 28.6365L70.8305 26.9768ZM70.0903 26.1652C69.8592 25.7563 69.6587 25.2598 69.4972 24.6655L67.5672 25.19C67.7638 25.9134 68.0217 26.5699 68.3492 27.1493L70.0903 26.1652ZM69.5005 24.6779C69.3431 24.0679 69.2257 23.392 69.1513 22.6476L67.1612 22.8466C67.2443 23.6777 67.3776 24.4555 67.5639 25.1776L69.5005 24.6779ZM69.1562 22.7471V21.6191H67.1562V22.7471H69.1562ZM69.152 21.7113C69.2193 20.9844 69.3328 20.318 69.4898 19.7098L67.5532 19.2101C67.3664 19.934 67.2364 20.707 67.1605 21.5269L69.152 21.7113ZM69.4872 19.7196C69.6488 19.1186 69.8485 18.6255 70.0764 18.228L68.3415 17.233C68.0109 17.8094 67.7523 18.4693 67.5558 19.2004L69.4872 19.7196ZM70.0795 18.2225C70.2916 17.8473 70.5351 17.5904 70.799 17.4175L69.703 15.7446C69.1362 16.1159 68.6849 16.6254 68.3384 17.2384L70.0795 18.2225ZM70.8024 17.4153C71.0405 17.2579 71.3408 17.1621 71.7441 17.1621V15.1621C71.0017 15.1621 70.3065 15.3456 69.6995 15.7468L70.8024 17.4153ZM71.7441 17.1621C72.2811 17.1621 72.6823 17.2612 72.9834 17.4163L73.8994 15.6384C73.2552 15.3065 72.5249 15.1621 71.7441 15.1621V17.1621ZM72.9942 17.4218C73.2949 17.5721 73.5483 17.7984 73.7579 18.1277L75.4452 17.0539C75.0532 16.438 74.5333 15.9552 73.8886 15.6329L72.9942 17.4218ZM73.7637 18.1367C73.9862 18.4782 74.1732 18.9428 74.2981 19.5613L76.2585 19.1653C76.097 18.3658 75.8328 17.6487 75.4394 17.0449L73.7637 18.1367ZM74.3005 19.5728C74.4327 20.1894 74.5039 20.9294 74.5039 21.8018H76.5039C76.5039 20.8264 76.4248 19.9408 76.2561 19.1538L74.3005 19.5728ZM73.5068 22.5645V21.8018H71.5068V22.5645H73.5068ZM73.5068 21.8018C73.5068 21.2405 73.4845 20.7398 73.4363 20.3056L71.4485 20.5264C71.4862 20.8657 71.5068 21.2888 71.5068 21.8018H73.5068ZM73.4363 20.3056C73.3859 19.8525 73.2886 19.4228 73.1199 19.0431L71.2922 19.8554C71.3527 19.9913 71.4129 20.2061 71.4485 20.5264L73.4363 20.3056ZM73.1199 19.0431C72.9327 18.622 72.6394 18.2594 72.2264 18.0116L71.1974 19.7266C71.2141 19.7367 71.2502 19.7608 71.2922 19.8554L73.1199 19.0431ZM72.2393 18.0195C71.8214 17.7601 71.3426 17.6758 70.8848 17.6758V19.6758C71.1144 19.6758 71.1871 19.7203 71.1846 19.7188L72.2393 18.0195ZM70.8848 17.6758C70.4478 17.6758 70.0039 17.7622 69.6056 17.9957L70.617 19.7211C70.6342 19.7111 70.7059 19.6758 70.8848 19.6758V17.6758ZM69.6283 17.9828C69.2573 18.1875 68.9639 18.4814 68.7382 18.8254L70.4103 19.9227C70.4853 19.8083 70.55 19.7585 70.5944 19.734L69.6283 17.9828ZM68.7339 18.8319C68.5129 19.1745 68.3688 19.5585 68.2839 19.9641L70.2415 20.3738C70.2855 20.1635 70.3491 20.0176 70.4145 19.9162L68.7339 18.8319ZM68.2849 19.9594C68.2064 20.3255 68.1615 20.7166 68.1453 21.1288L70.1438 21.2072C70.1562 20.8889 70.19 20.6139 70.2405 20.3785L68.2849 19.9594ZM68.1445 21.168V23.1982H70.1445V21.168H68.1445ZM68.1446 23.2127C68.1528 23.7781 68.2227 24.3104 68.3698 24.7978L70.2845 24.2198C70.2024 23.948 70.1506 23.6067 70.1444 23.1838L68.1446 23.2127ZM68.3698 24.7978C68.5287 25.3242 68.8047 25.8015 69.237 26.1597L70.513 24.6196C70.444 24.5624 70.3547 24.4525 70.2845 24.2198L68.3698 24.7978ZM69.2477 26.1684C69.7303 26.5571 70.3171 26.7012 70.9062 26.7012V24.7012C70.636 24.7012 70.5354 24.6375 70.5023 24.6109L69.2477 26.1684ZM70.9062 26.7012C71.3451 26.7012 71.801 26.6282 72.2057 26.4049L71.2396 24.6537C71.2289 24.6596 71.1406 24.7012 70.9062 24.7012V26.7012ZM72.2057 26.4049C72.6304 26.1706 72.9268 25.8101 73.1155 25.3972L71.2966 24.5657C71.2748 24.6132 71.2571 24.6361 71.2494 24.6448C71.2428 24.6523 71.2402 24.6534 71.2396 24.6537L72.2057 26.4049ZM73.1056 25.4183C73.2972 25.0238 73.3958 24.573 73.4383 24.1052L71.4465 23.9241C71.4174 24.2441 71.3584 24.4378 71.3065 24.5445L73.1056 25.4183ZM73.4367 24.1212C73.4846 23.6739 73.5068 23.1528 73.5068 22.5645H71.5068C71.5068 23.1076 71.4861 23.5533 71.4481 23.9081L73.4367 24.1212ZM77.3301 19.3848L76.3766 19.0832L76.3739 19.0921L77.3301 19.3848ZM78.2754 17.623L79.0322 18.2767L79.037 18.271L78.2754 17.623ZM79.7471 16.5381L80.1382 17.4584L80.1437 17.4561L79.7471 16.5381ZM83.6357 16.5381L83.2349 17.4542L83.2418 17.4572L83.2487 17.4601L83.6357 16.5381ZM85.1182 17.623L84.3565 18.271L84.3617 18.2771L84.367 18.2832L85.1182 17.623ZM86.0742 19.3848L85.1208 19.6864L86.0742 19.3848ZM85.1182 26.7646L84.3621 26.1101L84.3565 26.1167L85.1182 26.7646ZM79.7686 27.8496L79.3774 28.7699L79.3815 28.7717L79.7686 27.8496ZM77.3301 24.9922L76.3738 25.2849L76.3766 25.2938L77.3301 24.9922ZM80.123 23.9824L79.1392 24.1613L79.1407 24.1699L79.1425 24.1785L80.123 23.9824ZM80.4561 24.96L79.5819 25.4456L79.587 25.4548L79.5923 25.4638L80.4561 24.96ZM82.9697 24.96L82.0956 24.4743L82.0904 24.4837L82.0853 24.4932L82.9697 24.96ZM83.2812 23.9824L82.2974 23.8035L82.2958 23.8122L82.2944 23.8209L83.2812 23.9824ZM83.2705 20.4268L82.2893 20.6195L82.2899 20.6229L83.2705 20.4268ZM82.9375 19.4492L82.0633 19.9349L82.0693 19.9454L82.9375 19.4492ZM82.4004 18.8691L81.8524 19.7056L81.8689 19.7164L81.8859 19.7266L82.4004 18.8691ZM80.9824 18.8691L81.5232 19.7104L81.5304 19.7056L80.9824 18.8691ZM80.4561 19.4492L79.5922 18.9453L79.5878 18.9531L80.4561 19.4492ZM80.123 20.4268L79.1417 20.234L79.1392 20.2479L80.123 20.4268ZM78.0078 22.5859V21.8018H76.0078V22.5859H78.0078ZM78.0078 21.8018C78.0078 20.9688 78.1064 20.2649 78.2863 19.6775L76.3739 19.0921C76.124 19.9082 76.0078 20.8157 76.0078 21.8018H78.0078ZM78.2835 19.6864C78.4718 19.0912 78.7272 18.6299 79.0322 18.2767L77.5186 16.9694C77.0072 17.5615 76.6324 18.2747 76.3766 19.0832L78.2835 19.6864ZM79.037 18.271C79.3458 17.9081 79.71 17.6404 80.1382 17.4584L79.3559 15.6178C78.6383 15.9228 78.0214 16.3784 77.5137 16.9751L79.037 18.271ZM80.1437 17.4561C80.5829 17.2663 81.0935 17.1621 81.6914 17.1621V15.1621C80.857 15.1621 80.0714 15.3086 79.3504 15.6201L80.1437 17.4561ZM81.6914 17.1621C82.2982 17.1621 82.8067 17.2669 83.2349 17.4542L84.0366 15.6219C83.319 15.308 82.5312 15.1621 81.6914 15.1621V17.1621ZM83.2487 17.4601C83.6839 17.6428 84.0498 17.9105 84.3565 18.271L85.8798 16.9751C85.3701 16.3759 84.7477 15.9203 84.0228 15.616L83.2487 17.4601ZM84.367 18.2832C84.6766 18.6354 84.9336 19.0946 85.1208 19.6864L87.0277 19.0832C86.7708 18.2713 86.3905 17.556 85.8693 16.9629L84.367 18.2832ZM85.1208 19.6864C85.3057 20.2708 85.4072 20.9715 85.4072 21.8018H87.4072C87.4072 20.813 87.2868 19.9024 87.0277 19.0832L85.1208 19.6864ZM85.4072 21.8018V22.5859H87.4072V21.8018H85.4072ZM85.4072 22.5859C85.4072 23.4082 85.3059 24.1055 85.1208 24.6906L87.0277 25.2938C87.2866 24.4753 87.4072 23.5684 87.4072 22.5859H85.4072ZM85.1208 24.6906C84.9333 25.2831 84.6752 25.7484 84.3621 26.1101L85.8742 27.4191C86.3918 26.8212 86.7711 26.1049 87.0277 25.2938L85.1208 24.6906ZM84.3565 26.1167C84.0477 26.4796 83.6835 26.7473 83.2553 26.9293L84.0376 28.7699C84.7553 28.4649 85.3722 28.0093 85.8798 27.4126L84.3565 26.1167ZM83.2553 26.9293C82.8233 27.1129 82.3147 27.2148 81.7129 27.2148V29.2148C82.5434 29.2148 83.3238 29.0733 84.0376 28.7699L83.2553 26.9293ZM81.7129 27.2148C81.1114 27.2148 80.5973 27.113 80.1556 26.9275L79.3815 28.7717C80.1 29.0732 80.8821 29.2148 81.7129 29.2148V27.2148ZM80.1597 26.9293C79.7299 26.7466 79.3598 26.477 79.0422 26.1101L77.5301 27.4191C78.0432 28.0119 78.6614 28.4656 79.3774 28.7699L80.1597 26.9293ZM79.0422 26.1101C78.7291 25.7484 78.471 25.2831 78.2835 24.6906L76.3766 25.2938C76.6332 26.1049 77.0125 26.8212 77.5301 27.4191L79.0422 26.1101ZM78.2863 24.6995C78.1062 24.1113 78.0078 23.4109 78.0078 22.5859H76.0078C76.0078 23.5657 76.1242 24.4694 76.3739 25.2849L78.2863 24.6995ZM79.0156 21.8018V22.5859H81.0156V21.8018H79.0156ZM79.0156 22.5859C79.0156 23.1641 79.0539 23.6923 79.1392 24.1613L81.1069 23.8035C81.049 23.4847 81.0156 23.082 81.0156 22.5859H79.0156ZM79.1425 24.1785C79.2347 24.6398 79.374 25.0713 79.5819 25.4456L81.3302 24.4743C81.2517 24.333 81.1689 24.1128 81.1036 23.7863L79.1425 24.1785ZM79.5923 25.4638C79.8087 25.8348 80.1 26.1649 80.4874 26.392L81.4989 24.6666C81.471 24.6502 81.4042 24.6007 81.3198 24.4561L79.5923 25.4638ZM80.4874 26.392C80.8677 26.6149 81.2866 26.7119 81.7129 26.7119V24.7119C81.5949 24.7119 81.534 24.6872 81.4989 24.6666L80.4874 26.392ZM81.7129 26.7119C82.1398 26.7119 82.5562 26.6147 82.9364 26.3993L81.9503 24.6593C81.9008 24.6873 81.8303 24.7119 81.7129 24.7119V26.7119ZM82.9364 26.3993C83.3456 26.1674 83.6452 25.8226 83.8541 25.4267L82.0853 24.4932C82.0221 24.613 81.9708 24.6477 81.9503 24.6593L82.9364 26.3993ZM83.8439 25.4456C84.059 25.0584 84.1912 24.614 84.2681 24.1439L82.2944 23.8209C82.2424 24.1386 82.1669 24.3459 82.0956 24.4743L83.8439 25.4456ZM84.2651 24.1613C84.3504 23.6923 84.3887 23.1641 84.3887 22.5859H82.3887C82.3887 23.082 82.3553 23.4847 82.2974 23.8035L84.2651 24.1613ZM84.3887 22.5859V21.8018H82.3887V22.5859H84.3887ZM84.3887 21.8018C84.3887 21.2316 84.346 20.705 84.2511 20.2306L82.2899 20.6229C82.3526 20.9363 82.3887 21.3263 82.3887 21.8018H84.3887ZM84.2518 20.234C84.16 19.767 84.0202 19.3283 83.8057 18.9531L82.0693 19.9454C82.1413 20.0714 82.2234 20.2844 82.2893 20.6195L84.2518 20.234ZM83.8117 18.9636C83.5984 18.5798 83.3049 18.2456 82.9149 18.0116L81.8859 19.7266C81.9256 19.7504 81.9901 19.8031 82.0633 19.9349L83.8117 18.9636ZM82.9484 18.0327C82.5668 17.7826 82.1374 17.665 81.6914 17.665V19.665C81.7754 19.665 81.8186 19.6835 81.8524 19.7056L82.9484 18.0327ZM81.6914 17.665C81.2455 17.665 80.816 17.7826 80.4344 18.0327L81.5304 19.7056C81.5642 19.6835 81.6074 19.665 81.6914 19.665V17.665ZM80.4417 18.028C80.0791 18.261 79.8026 18.5848 79.5923 18.9453L81.3198 19.9531C81.4103 19.798 81.4847 19.7351 81.5232 19.7103L80.4417 18.028ZM79.5878 18.9531C79.3734 19.3283 79.2335 19.767 79.1418 20.234L81.1043 20.6195C81.1701 20.2844 81.2523 20.0714 81.3243 19.9454L79.5878 18.9531ZM79.1392 20.2479C79.0542 20.7155 79.0156 21.2361 79.0156 21.8018H81.0156C81.0156 21.3219 81.0487 20.9258 81.1069 20.6056L79.1392 20.2479ZM91.4668 11.5H92.4668V10.5H91.4668V11.5ZM91.4668 28V29H92.4668V28H91.4668ZM88.4482 28H87.4482V29H88.4482V28ZM88.4482 11.5V10.5H87.4482V11.5H88.4482ZM90.4668 11.5V28H92.4668V11.5H90.4668ZM91.4668 27H88.4482V29H91.4668V27ZM89.4482 28V11.5H87.4482V28H89.4482ZM88.4482 12.5H91.4668V10.5H88.4482V12.5Z" fill="black" mask="url(#path-28-outside-1_1384_2781)"/>
<path d="M44.2656 30.1484V29.1484H43.2656V30.1484H44.2656ZM92.7344 30.1484H93.7344V29.1484H92.7344V30.1484ZM92.7344 31.2227V32.2227H93.7344V31.2227H92.7344ZM44.2656 31.2227H43.2656V32.2227H44.2656V31.2227ZM44.2656 31.1484H92.7344V29.1484H44.2656V31.1484ZM91.7344 30.1484V31.2227H93.7344V30.1484H91.7344ZM92.7344 30.2227H44.2656V32.2227H92.7344V30.2227ZM45.2656 31.2227V30.1484H43.2656V31.2227H45.2656Z" fill="black" mask="url(#path-28-outside-1_1384_2781)"/>
</g>
<defs>
<filter id="filter0_d_1384_2781" x="28.5076" y="-3.09766" width="83.8225" height="51.1963" filterUnits="userSpaceOnUse" color-interpolation-filters="sRGB">
<feFlood flood-opacity="0" result="BackgroundImageFix"/>
<feColorMatrix in="SourceAlpha" type="matrix" values="0 0 0 0 0 0 0 0 0 0 0 0 0 0 0 0 0 0 127 0" result="hardAlpha"/>
<feOffset/>
<feGaussianBlur stdDeviation="2"/>
<feComposite in2="hardAlpha" operator="out"/>
<feColorMatrix type="matrix" values="0 0 0 0 1 0 0 0 0 1 0 0 0 0 1 0 0 0 1 0"/>
<feBlend mode="normal" in2="BackgroundImageFix" result="effect1_dropShadow_1384_2781"/>
<feBlend mode="normal" in="SourceGraphic" in2="effect1_dropShadow_1384_2781" result="shape"/>
</filter>
<linearGradient id="paint0_linear_1384_2781" x1="77.0784" y1="4.07308" x2="50.3035" y2="50.4486" gradientUnits="userSpaceOnUse">
<stop stop-color="#0053A0"/>
<stop offset="1" stop-color="#00BF63" stop-opacity="0.8"/>
</linearGradient>
<linearGradient id="paint1_linear_1384_2781" x1="25.9514" y1="6.39645" x2="27.8999" y2="12.8202" gradientUnits="userSpaceOnUse">
<stop stop-color="#00BF63" stop-opacity="0.8"/>
<stop offset="1" stop-color="#0053A0"/>
</linearGradient>
<linearGradient id="paint2_linear_1384_2781" x1="34.2898" y1="19.7117" x2="37.4633" y2="30.1741" gradientUnits="userSpaceOnUse">
<stop stop-color="#00BF63" stop-opacity="0.8"/>
<stop offset="1" stop-color="#0053A0"/>
</linearGradient>
<linearGradient id="paint3_linear_1384_2781" x1="23.9734" y1="36.7752" x2="25.585" y2="42.0884" gradientUnits="userSpaceOnUse">
<stop stop-color="#00BF63" stop-opacity="0.8"/>
<stop offset="1" stop-color="#0053A0"/>
</linearGradient>
<linearGradient id="paint4_linear_1384_2781" x1="18.2547" y1="18.8702" x2="22.0822" y2="31.4889" gradientUnits="userSpaceOnUse">
<stop stop-color="#00BF63" stop-opacity="0.8"/>
<stop offset="1" stop-color="#0053A0"/>
</linearGradient>
<linearGradient id="paint5_linear_1384_2781" x1="5.44937" y1="12.1867" x2="7.37944" y2="18.5498" gradientUnits="userSpaceOnUse">
<stop stop-color="#00BF63" stop-opacity="0.8"/>
<stop offset="1" stop-color="#0053A0"/>
</linearGradient>
<linearGradient id="paint6_linear_1384_2781" x1="5.38943" y1="28.4783" x2="8.56294" y2="38.9407" gradientUnits="userSpaceOnUse">
<stop stop-color="#00BF63" stop-opacity="0.8"/>
<stop offset="1" stop-color="#0053A0"/>
</linearGradient>
<clipPath id="clip0_1384_2781">
<rect width="110" height="46" fill="white"/>
</clipPath>
</defs>
</svg>
