<svg width="110" height="46" viewBox="0 0 110 46" fill="none" xmlns="http://www.w3.org/2000/svg">
<g clip-path="url(#clip0_1485_2704)">
<g filter="url(#filter0_d_1485_2704)">
<mask id="path-1-inside-1_1485_2704" fill="white">
<path d="M108.33 22.1162L108.292 22.3021L107.143 23.0945L106.368 23.4788L105.541 23.8331L104.744 24.1355L103.403 24.5402L102.533 24.7307L101.692 24.8692L100.717 24.9998L99.4017 25.0027L98.3098 24.8575L97.1742 24.5485L95.8093 24.0377L92.6945 22.7246L90.617 22.0104L88.9245 21.5878L87.5433 21.3449L86.2057 21.2659L85.1275 21.3366L84.153 21.4672L82.9547 21.7458L81.912 22.1143L80.9431 22.5947L79.966 23.209L79.0025 24.0392L78.3667 24.7812L77.9464 25.5091L77.6736 26.4607L77.6328 27.1304L77.7339 27.674L78.1299 28.6651L78.7197 29.5602L78.9709 29.8439L79.5633 30.2552L80.4314 30.5485L81.5015 30.6117L82.3422 30.4732L83.0492 30.3268L83.6524 30.1205L84.4494 29.8181L85.574 29.4276L86.5566 29.1631L87.3973 29.0246L88.5055 28.9019L89.4719 28.9052L90.6156 29.0803L91.6175 29.3815L92.1143 29.599L92.8405 30.0183L93.7879 30.7732L94.4377 31.5643L94.9756 32.4294L95.2105 32.9809L95.0248 32.9431L94.5962 32.4876L94.2112 32.1961L92.8107 31.3875L91.757 31.0564L90.9326 30.9271L89.8326 30.9158L88.9918 31.0543L88.0911 31.2968L86.9884 31.7693L86.1532 32.2576L84.8267 32.8781L83.784 33.2466L82.7713 33.5631L81.8187 33.7757L80.7624 33.9283L79.5204 34.0431L77.8553 34.0522L75.9008 33.9636L73.5232 33.7694L71.4431 33.5389L69.9281 33.2881L68.2056 32.9175L65.3775 32.1859L63.7287 31.9271L63.0299 31.9396L62.241 32.1081L61.5778 32.4183L60.5925 33.1666L60.2186 33.5746L59.6783 34.5104L59.5337 35.1202L59.6048 35.7158L59.7878 36.2374L60.312 36.8866L60.9782 37.4099L61.445 37.6794L62.6762 38.1822L63.5743 38.4235L64.8 38.5766L65.9 38.5878L67.2977 38.5629L68.4196 38.656L69.2658 38.8673L69.6071 38.995L70.5407 39.5341L71.458 40.341L72.2335 41.2739L72.927 42.2289L72.9188 42.3628L71.5402 41.6362L70.4646 41.2231L69.3508 40.996L68.1989 40.9549L67.2544 41.0335L66.1981 41.1861L65.1117 41.3907L62.7151 41.948L61.5687 42.2566L60.9436 42.381L59.991 42.5935L57.8183 43.0028L56.8138 43.1854L54.701 43.4906L53.1315 43.6936L51.8076 43.8304L50.1344 43.9735L48.7067 44.0504L47.2273 44.0974L45.4284 44.0987L43.2064 43.9942L41.3938 43.7796L39.6413 43.461L38.1344 43.0762L36.7695 42.5655L36.1689 42.288L34.924 41.5693L33.6955 40.5827L32.9119 39.7837L32.8382 39.6718L33.3703 38.8699L34.1344 37.786L35.7553 34.9786L36.4023 34.9361L37.8517 34.9411L39.1975 34.8862L41.5695 34.7307L42.8115 34.6159L45.1918 34.3265L46.0325 34.188L47.037 34.0054L47.7139 33.911L47.8258 33.8369L46.5701 33.7359L45.1207 33.7309L44.2144 33.6235L43.6357 33.428L43.2207 33.1885L42.762 32.785L42.3934 32.2256L42.1449 31.4582L42.0519 30.7807L42.1746 30.089L42.3029 29.7471L42.603 29.2272L43.2089 28.5372L44.0523 27.915L44.6855 27.6567L45.2587 27.5024L46.3069 27.4837L47.3169 27.6509L50.0413 28.3226L52.0095 28.6271L54.237 29.0813L55.6264 29.1903L56.9203 29.1054L57.761 28.9669L58.6836 28.8064L58.4461 28.7386L57.3761 28.6754L56.4179 28.5381L55.6235 28.3568L54.9929 28.1313L53.9555 27.5324L53.5269 27.0769L53.2401 26.4955L53.139 25.9519L53.188 25.1483L53.5127 24.2266L54.0148 23.4767L54.7026 22.7646L55.3221 22.2905L56.0754 21.8242L56.9024 21.4699L57.8332 21.1754L58.8377 20.9928L60.1015 20.96L61.461 21.1209L62.916 21.4757L64.0734 21.8667L66.3502 22.8346L66.6395 22.9323L66.1509 22.5809L65.0397 21.8701L64.3654 21.4807L63.0605 20.866L61.6656 20.4072L60.4699 20.2022L59.318 20.161L58.3435 20.2916L57.3909 20.5041L56.8177 20.6584L56.2144 20.8647L55.1718 21.2332L54.1891 21.4977L53.2447 21.5763L52.524 21.5068L52.049 21.3712L51.0635 20.8023L50.228 19.9733L49.6383 19.0782L49.286 18.2509L49.2149 17.6553L49.2639 16.8518L49.4303 16.324L49.9406 15.4401L50.6583 14.6761L49.6375 15.1265L48.3847 15.8589L46.7662 16.8655L45.4615 17.568L44.6645 17.8703L43.8975 18.1207L42.9749 18.2813L42.0086 18.2779L40.9986 18.1107L40.2861 17.9073L39.2405 17.4423L38.4106 16.9632L37.4851 16.2902L37.2558 16.0884L37.4796 15.9404L38.2685 15.7719L39.1474 15.4475L39.8706 15.0333L40.6321 14.4331L41.7238 13.261L40.7548 13.7414L39.8459 14.1178L38.9151 14.4123L38.0963 14.6327L37.0399 14.7853L36.2292 14.8719L36.0299 14.6181L35.2653 13.0676L34.5362 11.8148L33.4522 10.2185L32.5812 9.0917L32.5075 8.97982L32.9933 8.49776L34.0086 7.69753L35.1495 7.03912L35.9465 6.73675L36.7135 6.48637L37.3686 6.31002L38.6406 6.14325L39.7188 6.07255L40.8707 6.11374L42.6833 6.32837L44.8071 6.72268L46.5077 7.01135L47.8153 7.14238L49.1829 7.16943L50.1573 7.03883L50.9462 6.87039L51.7651 6.64995L52.674 6.27355L53.8667 5.64509L54.8138 5.08277L56.0148 4.32039L57.2839 3.3201L58.3674 2.28195L59.5791 0.901919L59.6883 1.31161L59.6504 2.81476L59.4732 3.96022L59.1104 5.06783L58.8921 5.56569L58.2918 6.6055L57.4539 7.57752L55.7509 9.08981L54.1542 10.1783L53.3791 10.5626L52.7458 10.8209L53.3983 11.1282L54.4001 11.4294L55.5958 11.6344L57.119 11.7513L58.4647 11.6964L59.7367 11.5297L60.7412 11.3471L62.0514 10.9944L62.9903 10.566L63.9374 10.0037L65.0046 9.23338L66.0199 8.43315L67.2208 7.67076L68.1597 7.24237L69.2843 6.85182L69.9394 6.67548L70.7801 6.53698L71.9183 6.3623L73.4279 6.26332L74.8255 6.23838L76.5643 6.34113L78.0793 6.59194L79.2968 6.87894L80.6918 7.33772L81.6336 7.74284L83.6565 8.91078L84.6557 9.69564L85.5431 10.5545L85.8161 10.9201L85.7042 10.9942L83.6705 10.4439L81.5248 9.96763L79.1854 9.58745L77.8779 9.45642L76.3247 9.39153L75.1646 9.48427L74.3757 9.65271L73.7725 9.85901L72.9892 10.3772L72.2796 11.0074L71.8456 11.5194L71.4854 12.1433L71.2808 12.857L71.2319 13.6606L71.3985 14.45L71.759 15.1433L72.2532 15.8446L73.1105 16.7555L73.7248 17.2488L74.4809 17.616L75.2235 17.7674L75.9741 17.7849L76.9486 17.6543L77.9312 17.3898L78.5345 17.1835L79.3015 16.9331L80.0985 16.6308L81.2749 16.2702L82.2057 15.9757L82.8308 15.8513L83.6196 15.6829L84.8916 15.5161L86.3711 15.4691L87.8424 15.5561L89.3574 15.8069L90.9681 16.2515L92.1774 16.6724L93.6679 17.325L94.6835 17.8421L96.1358 18.6806L97.8394 19.8028L99.5347 21.0589L100.253 21.6121L101.342 22.2409L102.344 22.5421L103.354 22.7093L104.773 22.7663L105.8 22.6656L106.804 22.4831L107.429 22.3587L108.218 22.1903L108.33 22.1162Z"/>
</mask>
<path d="M108.33 22.1162L108.292 22.3021L107.143 23.0945L106.368 23.4788L105.541 23.8331L104.744 24.1355L103.403 24.5402L102.533 24.7307L101.692 24.8692L100.717 24.9998L99.4017 25.0027L98.3098 24.8575L97.1742 24.5485L95.8093 24.0377L92.6945 22.7246L90.617 22.0104L88.9245 21.5878L87.5433 21.3449L86.2057 21.2659L85.1275 21.3366L84.153 21.4672L82.9547 21.7458L81.912 22.1143L80.9431 22.5947L79.966 23.209L79.0025 24.0392L78.3667 24.7812L77.9464 25.5091L77.6736 26.4607L77.6328 27.1304L77.7339 27.674L78.1299 28.6651L78.7197 29.5602L78.9709 29.8439L79.5633 30.2552L80.4314 30.5485L81.5015 30.6117L82.3422 30.4732L83.0492 30.3268L83.6524 30.1205L84.4494 29.8181L85.574 29.4276L86.5566 29.1631L87.3973 29.0246L88.5055 28.9019L89.4719 28.9052L90.6156 29.0803L91.6175 29.3815L92.1143 29.599L92.8405 30.0183L93.7879 30.7732L94.4377 31.5643L94.9756 32.4294L95.2105 32.9809L95.0248 32.9431L94.5962 32.4876L94.2112 32.1961L92.8107 31.3875L91.757 31.0564L90.9326 30.9271L89.8326 30.9158L88.9918 31.0543L88.0911 31.2968L86.9884 31.7693L86.1532 32.2576L84.8267 32.8781L83.784 33.2466L82.7713 33.5631L81.8187 33.7757L80.7624 33.9283L79.5204 34.0431L77.8553 34.0522L75.9008 33.9636L73.5232 33.7694L71.4431 33.5389L69.9281 33.2881L68.2056 32.9175L65.3775 32.1859L63.7287 31.9271L63.0299 31.9396L62.241 32.1081L61.5778 32.4183L60.5925 33.1666L60.2186 33.5746L59.6783 34.5104L59.5337 35.1202L59.6048 35.7158L59.7878 36.2374L60.312 36.8866L60.9782 37.4099L61.445 37.6794L62.6762 38.1822L63.5743 38.4235L64.8 38.5766L65.9 38.5878L67.2977 38.5629L68.4196 38.656L69.2658 38.8673L69.6071 38.995L70.5407 39.5341L71.458 40.341L72.2335 41.2739L72.927 42.2289L72.9188 42.3628L71.5402 41.6362L70.4646 41.2231L69.3508 40.996L68.1989 40.9549L67.2544 41.0335L66.1981 41.1861L65.1117 41.3907L62.7151 41.948L61.5687 42.2566L60.9436 42.381L59.991 42.5935L57.8183 43.0028L56.8138 43.1854L54.701 43.4906L53.1315 43.6936L51.8076 43.8304L50.1344 43.9735L48.7067 44.0504L47.2273 44.0974L45.4284 44.0987L43.2064 43.9942L41.3938 43.7796L39.6413 43.461L38.1344 43.0762L36.7695 42.5655L36.1689 42.288L34.924 41.5693L33.6955 40.5827L32.9119 39.7837L32.8382 39.6718L33.3703 38.8699L34.1344 37.786L35.7553 34.9786L36.4023 34.9361L37.8517 34.9411L39.1975 34.8862L41.5695 34.7307L42.8115 34.6159L45.1918 34.3265L46.0325 34.188L47.037 34.0054L47.7139 33.911L47.8258 33.8369L46.5701 33.7359L45.1207 33.7309L44.2144 33.6235L43.6357 33.428L43.2207 33.1885L42.762 32.785L42.3934 32.2256L42.1449 31.4582L42.0519 30.7807L42.1746 30.089L42.3029 29.7471L42.603 29.2272L43.2089 28.5372L44.0523 27.915L44.6855 27.6567L45.2587 27.5024L46.3069 27.4837L47.3169 27.6509L50.0413 28.3226L52.0095 28.6271L54.237 29.0813L55.6264 29.1903L56.9203 29.1054L57.761 28.9669L58.6836 28.8064L58.4461 28.7386L57.3761 28.6754L56.4179 28.5381L55.6235 28.3568L54.9929 28.1313L53.9555 27.5324L53.5269 27.0769L53.2401 26.4955L53.139 25.9519L53.188 25.1483L53.5127 24.2266L54.0148 23.4767L54.7026 22.7646L55.3221 22.2905L56.0754 21.8242L56.9024 21.4699L57.8332 21.1754L58.8377 20.9928L60.1015 20.96L61.461 21.1209L62.916 21.4757L64.0734 21.8667L66.3502 22.8346L66.6395 22.9323L66.1509 22.5809L65.0397 21.8701L64.3654 21.4807L63.0605 20.866L61.6656 20.4072L60.4699 20.2022L59.318 20.161L58.3435 20.2916L57.3909 20.5041L56.8177 20.6584L56.2144 20.8647L55.1718 21.2332L54.1891 21.4977L53.2447 21.5763L52.524 21.5068L52.049 21.3712L51.0635 20.8023L50.228 19.9733L49.6383 19.0782L49.286 18.2509L49.2149 17.6553L49.2639 16.8518L49.4303 16.324L49.9406 15.4401L50.6583 14.6761L49.6375 15.1265L48.3847 15.8589L46.7662 16.8655L45.4615 17.568L44.6645 17.8703L43.8975 18.1207L42.9749 18.2813L42.0086 18.2779L40.9986 18.1107L40.2861 17.9073L39.2405 17.4423L38.4106 16.9632L37.4851 16.2902L37.2558 16.0884L37.4796 15.9404L38.2685 15.7719L39.1474 15.4475L39.8706 15.0333L40.6321 14.4331L41.7238 13.261L40.7548 13.7414L39.8459 14.1178L38.9151 14.4123L38.0963 14.6327L37.0399 14.7853L36.2292 14.8719L36.0299 14.6181L35.2653 13.0676L34.5362 11.8148L33.4522 10.2185L32.5812 9.0917L32.5075 8.97982L32.9933 8.49776L34.0086 7.69753L35.1495 7.03912L35.9465 6.73675L36.7135 6.48637L37.3686 6.31002L38.6406 6.14325L39.7188 6.07255L40.8707 6.11374L42.6833 6.32837L44.8071 6.72268L46.5077 7.01135L47.8153 7.14238L49.1829 7.16943L50.1573 7.03883L50.9462 6.87039L51.7651 6.64995L52.674 6.27355L53.8667 5.64509L54.8138 5.08277L56.0148 4.32039L57.2839 3.3201L58.3674 2.28195L59.5791 0.901919L59.6883 1.31161L59.6504 2.81476L59.4732 3.96022L59.1104 5.06783L58.8921 5.56569L58.2918 6.6055L57.4539 7.57752L55.7509 9.08981L54.1542 10.1783L53.3791 10.5626L52.7458 10.8209L53.3983 11.1282L54.4001 11.4294L55.5958 11.6344L57.119 11.7513L58.4647 11.6964L59.7367 11.5297L60.7412 11.3471L62.0514 10.9944L62.9903 10.566L63.9374 10.0037L65.0046 9.23338L66.0199 8.43315L67.2208 7.67076L68.1597 7.24237L69.2843 6.85182L69.9394 6.67548L70.7801 6.53698L71.9183 6.3623L73.4279 6.26332L74.8255 6.23838L76.5643 6.34113L78.0793 6.59194L79.2968 6.87894L80.6918 7.33772L81.6336 7.74284L83.6565 8.91078L84.6557 9.69564L85.5431 10.5545L85.8161 10.9201L85.7042 10.9942L83.6705 10.4439L81.5248 9.96763L79.1854 9.58745L77.8779 9.45642L76.3247 9.39153L75.1646 9.48427L74.3757 9.65271L73.7725 9.85901L72.9892 10.3772L72.2796 11.0074L71.8456 11.5194L71.4854 12.1433L71.2808 12.857L71.2319 13.6606L71.3985 14.45L71.759 15.1433L72.2532 15.8446L73.1105 16.7555L73.7248 17.2488L74.4809 17.616L75.2235 17.7674L75.9741 17.7849L76.9486 17.6543L77.9312 17.3898L78.5345 17.1835L79.3015 16.9331L80.0985 16.6308L81.2749 16.2702L82.2057 15.9757L82.8308 15.8513L83.6196 15.6829L84.8916 15.5161L86.3711 15.4691L87.8424 15.5561L89.3574 15.8069L90.9681 16.2515L92.1774 16.6724L93.6679 17.325L94.6835 17.8421L96.1358 18.6806L97.8394 19.8028L99.5347 21.0589L100.253 21.6121L101.342 22.2409L102.344 22.5421L103.354 22.7093L104.773 22.7663L105.8 22.6656L106.804 22.4831L107.429 22.3587L108.218 22.1903L108.33 22.1162Z" fill="url(#paint0_linear_1485_2704)" shape-rendering="crispEdges"/>
<path d="M108.33 22.1162L108.292 22.3021L107.143 23.0945L106.368 23.4788L105.541 23.8331L104.744 24.1355L103.403 24.5402L102.533 24.7307L101.692 24.8692L100.717 24.9998L99.4017 25.0027L98.3098 24.8575L97.1742 24.5485L95.8093 24.0377L92.6945 22.7246L90.617 22.0104L88.9245 21.5878L87.5433 21.3449L86.2057 21.2659L85.1275 21.3366L84.153 21.4672L82.9547 21.7458L81.912 22.1143L80.9431 22.5947L79.966 23.209L79.0025 24.0392L78.3667 24.7812L77.9464 25.5091L77.6736 26.4607L77.6328 27.1304L77.7339 27.674L78.1299 28.6651L78.7197 29.5602L78.9709 29.8439L79.5633 30.2552L80.4314 30.5485L81.5015 30.6117L82.3422 30.4732L83.0492 30.3268L83.6524 30.1205L84.4494 29.8181L85.574 29.4276L86.5566 29.1631L87.3973 29.0246L88.5055 28.9019L89.4719 28.9052L90.6156 29.0803L91.6175 29.3815L92.1143 29.599L92.8405 30.0183L93.7879 30.7732L94.4377 31.5643L94.9756 32.4294L95.2105 32.9809L95.0248 32.9431L94.5962 32.4876L94.2112 32.1961L92.8107 31.3875L91.757 31.0564L90.9326 30.9271L89.8326 30.9158L88.9918 31.0543L88.0911 31.2968L86.9884 31.7693L86.1532 32.2576L84.8267 32.8781L83.784 33.2466L82.7713 33.5631L81.8187 33.7757L80.7624 33.9283L79.5204 34.0431L77.8553 34.0522L75.9008 33.9636L73.5232 33.7694L71.4431 33.5389L69.9281 33.2881L68.2056 32.9175L65.3775 32.1859L63.7287 31.9271L63.0299 31.9396L62.241 32.1081L61.5778 32.4183L60.5925 33.1666L60.2186 33.5746L59.6783 34.5104L59.5337 35.1202L59.6048 35.7158L59.7878 36.2374L60.312 36.8866L60.9782 37.4099L61.445 37.6794L62.6762 38.1822L63.5743 38.4235L64.8 38.5766L65.9 38.5878L67.2977 38.5629L68.4196 38.656L69.2658 38.8673L69.6071 38.995L70.5407 39.5341L71.458 40.341L72.2335 41.2739L72.927 42.2289L72.9188 42.3628L71.5402 41.6362L70.4646 41.2231L69.3508 40.996L68.1989 40.9549L67.2544 41.0335L66.1981 41.1861L65.1117 41.3907L62.7151 41.948L61.5687 42.2566L60.9436 42.381L59.991 42.5935L57.8183 43.0028L56.8138 43.1854L54.701 43.4906L53.1315 43.6936L51.8076 43.8304L50.1344 43.9735L48.7067 44.0504L47.2273 44.0974L45.4284 44.0987L43.2064 43.9942L41.3938 43.7796L39.6413 43.461L38.1344 43.0762L36.7695 42.5655L36.1689 42.288L34.924 41.5693L33.6955 40.5827L32.9119 39.7837L32.8382 39.6718L33.3703 38.8699L34.1344 37.786L35.7553 34.9786L36.4023 34.9361L37.8517 34.9411L39.1975 34.8862L41.5695 34.7307L42.8115 34.6159L45.1918 34.3265L46.0325 34.188L47.037 34.0054L47.7139 33.911L47.8258 33.8369L46.5701 33.7359L45.1207 33.7309L44.2144 33.6235L43.6357 33.428L43.2207 33.1885L42.762 32.785L42.3934 32.2256L42.1449 31.4582L42.0519 30.7807L42.1746 30.089L42.3029 29.7471L42.603 29.2272L43.2089 28.5372L44.0523 27.915L44.6855 27.6567L45.2587 27.5024L46.3069 27.4837L47.3169 27.6509L50.0413 28.3226L52.0095 28.6271L54.237 29.0813L55.6264 29.1903L56.9203 29.1054L57.761 28.9669L58.6836 28.8064L58.4461 28.7386L57.3761 28.6754L56.4179 28.5381L55.6235 28.3568L54.9929 28.1313L53.9555 27.5324L53.5269 27.0769L53.2401 26.4955L53.139 25.9519L53.188 25.1483L53.5127 24.2266L54.0148 23.4767L54.7026 22.7646L55.3221 22.2905L56.0754 21.8242L56.9024 21.4699L57.8332 21.1754L58.8377 20.9928L60.1015 20.96L61.461 21.1209L62.916 21.4757L64.0734 21.8667L66.3502 22.8346L66.6395 22.9323L66.1509 22.5809L65.0397 21.8701L64.3654 21.4807L63.0605 20.866L61.6656 20.4072L60.4699 20.2022L59.318 20.161L58.3435 20.2916L57.3909 20.5041L56.8177 20.6584L56.2144 20.8647L55.1718 21.2332L54.1891 21.4977L53.2447 21.5763L52.524 21.5068L52.049 21.3712L51.0635 20.8023L50.228 19.9733L49.6383 19.0782L49.286 18.2509L49.2149 17.6553L49.2639 16.8518L49.4303 16.324L49.9406 15.4401L50.6583 14.6761L49.6375 15.1265L48.3847 15.8589L46.7662 16.8655L45.4615 17.568L44.6645 17.8703L43.8975 18.1207L42.9749 18.2813L42.0086 18.2779L40.9986 18.1107L40.2861 17.9073L39.2405 17.4423L38.4106 16.9632L37.4851 16.2902L37.2558 16.0884L37.4796 15.9404L38.2685 15.7719L39.1474 15.4475L39.8706 15.0333L40.6321 14.4331L41.7238 13.261L40.7548 13.7414L39.8459 14.1178L38.9151 14.4123L38.0963 14.6327L37.0399 14.7853L36.2292 14.8719L36.0299 14.6181L35.2653 13.0676L34.5362 11.8148L33.4522 10.2185L32.5812 9.0917L32.5075 8.97982L32.9933 8.49776L34.0086 7.69753L35.1495 7.03912L35.9465 6.73675L36.7135 6.48637L37.3686 6.31002L38.6406 6.14325L39.7188 6.07255L40.8707 6.11374L42.6833 6.32837L44.8071 6.72268L46.5077 7.01135L47.8153 7.14238L49.1829 7.16943L50.1573 7.03883L50.9462 6.87039L51.7651 6.64995L52.674 6.27355L53.8667 5.64509L54.8138 5.08277L56.0148 4.32039L57.2839 3.3201L58.3674 2.28195L59.5791 0.901919L59.6883 1.31161L59.6504 2.81476L59.4732 3.96022L59.1104 5.06783L58.8921 5.56569L58.2918 6.6055L57.4539 7.57752L55.7509 9.08981L54.1542 10.1783L53.3791 10.5626L52.7458 10.8209L53.3983 11.1282L54.4001 11.4294L55.5958 11.6344L57.119 11.7513L58.4647 11.6964L59.7367 11.5297L60.7412 11.3471L62.0514 10.9944L62.9903 10.566L63.9374 10.0037L65.0046 9.23338L66.0199 8.43315L67.2208 7.67076L68.1597 7.24237L69.2843 6.85182L69.9394 6.67548L70.7801 6.53698L71.9183 6.3623L73.4279 6.26332L74.8255 6.23838L76.5643 6.34113L78.0793 6.59194L79.2968 6.87894L80.6918 7.33772L81.6336 7.74284L83.6565 8.91078L84.6557 9.69564L85.5431 10.5545L85.8161 10.9201L85.7042 10.9942L83.6705 10.4439L81.5248 9.96763L79.1854 9.58745L77.8779 9.45642L76.3247 9.39153L75.1646 9.48427L74.3757 9.65271L73.7725 9.85901L72.9892 10.3772L72.2796 11.0074L71.8456 11.5194L71.4854 12.1433L71.2808 12.857L71.2319 13.6606L71.3985 14.45L71.759 15.1433L72.2532 15.8446L73.1105 16.7555L73.7248 17.2488L74.4809 17.616L75.2235 17.7674L75.9741 17.7849L76.9486 17.6543L77.9312 17.3898L78.5345 17.1835L79.3015 16.9331L80.0985 16.6308L81.2749 16.2702L82.2057 15.9757L82.8308 15.8513L83.6196 15.6829L84.8916 15.5161L86.3711 15.4691L87.8424 15.5561L89.3574 15.8069L90.9681 16.2515L92.1774 16.6724L93.6679 17.325L94.6835 17.8421L96.1358 18.6806L97.8394 19.8028L99.5347 21.0589L100.253 21.6121L101.342 22.2409L102.344 22.5421L103.354 22.7093L104.773 22.7663L105.8 22.6656L106.804 22.4831L107.429 22.3587L108.218 22.1903L108.33 22.1162Z" stroke="white" stroke-width="0.8" shape-rendering="crispEdges" mask="url(#path-1-inside-1_1485_2704)"/>
</g>
<path fill-rule="evenodd" clip-rule="evenodd" d="M25.3216 42.1669C34.6968 39.3232 39.9897 29.4117 37.1437 20.0289C34.2977 10.6462 24.3905 5.3452 15.0153 8.18891C5.6401 11.0326 0.347178 20.9441 3.19319 30.3269C6.03921 39.7097 15.9464 45.0106 25.3216 42.1669Z" fill="white"/>
<path fill-rule="evenodd" clip-rule="evenodd" d="M22.178 7.54004L24.9754 12.8366L31.6733 11.6747C29.0032 9.40043 25.6961 7.94493 22.178 7.54004Z" fill="url(#paint1_linear_1485_2704)"/>
<path fill-rule="evenodd" clip-rule="evenodd" d="M37.1662 30.2633C38.1329 27.0347 38.1953 23.4962 37.1435 20.0288C37.0329 19.6641 36.9082 19.3083 36.777 18.9563L32.877 24.1431L37.1662 30.2633Z" fill="url(#paint2_linear_1485_2704)"/>
<path fill-rule="evenodd" clip-rule="evenodd" d="M31.1038 39.1612L23.8289 36.818L19.4296 42.915C21.3709 42.9971 23.3574 42.7631 25.3214 42.1674C27.4838 41.5115 29.4254 40.4761 31.1038 39.1612Z" fill="url(#paint3_linear_1485_2704)"/>
<path opacity="0.3" fill-rule="evenodd" clip-rule="evenodd" d="M25.4303 8.1971C28.0259 10.3445 30.0425 13.2507 31.0939 16.7171C33.94 26.0999 28.647 36.0114 19.2718 38.8551C15.8088 39.9055 12.2739 39.8417 9.04843 38.8737C13.4795 42.5393 19.6012 43.9875 25.5128 42.1944C34.888 39.3507 40.1809 29.4392 37.3349 20.0564C35.5402 14.1394 30.9369 9.84877 25.4303 8.1971Z" fill="#010202"/>
<mask id="mask0_1485_2704" style="mask-type:luminance" maskUnits="userSpaceOnUse" x="-3" y="1" width="47" height="48">
<path d="M7.79073 48.3563L43.3365 37.5745L32.5458 1.99941L-3 12.7812L7.79073 48.3563Z" fill="#D9D9D9"/>
</mask>
<g mask="url(#mask0_1485_2704)">
<path fill-rule="evenodd" clip-rule="evenodd" d="M15.2576 8.9874C6.33727 11.6932 1.2833 21.1572 3.99125 30.0848C6.69903 39.0119 16.1591 44.074 25.0795 41.3683C33.9999 38.6625 39.0531 29.1981 36.3454 20.271C33.6374 11.3434 24.178 6.28165 15.2576 8.9874ZM25.5639 42.9654C15.7637 45.9381 5.37026 40.3765 2.39538 30.5688C-0.579661 20.7607 4.97296 10.3629 14.7732 7.39024C24.5734 4.41761 34.9662 9.97881 37.9412 19.787C40.9161 29.5946 35.3642 39.9928 25.5639 42.9654Z" fill="#2E2E30"/>
</g>
<path fill-rule="evenodd" clip-rule="evenodd" d="M22.0822 31.4879L13.9916 28.6788L14.1581 20.1118L22.3513 17.6267L27.249 24.6576L22.0822 31.4879Z" fill="url(#paint4_linear_1485_2704)"/>
<path fill-rule="evenodd" clip-rule="evenodd" d="M14.8372 28.0886L21.7826 30.5003L26.2184 24.6364L22.0141 18.6009L14.9795 20.7347L14.8372 28.0886ZM22.3244 32.2864C22.16 32.3363 21.9796 32.3352 21.809 32.2765L13.7182 29.4669C13.3772 29.3482 13.1509 29.0233 13.1578 28.6613L13.3235 20.0952C13.3311 19.7336 13.57 19.4181 13.9153 19.3134L22.109 16.828C22.4547 16.7232 22.8287 16.8528 23.0354 17.1493L27.9329 24.1797C28.1393 24.477 28.1314 24.8724 27.914 25.161L22.7474 31.9919C22.6381 32.1354 22.4893 32.2364 22.3244 32.2864Z" fill="#2E2E30"/>
<path fill-rule="evenodd" clip-rule="evenodd" d="M9.56671 10.9368C6.56762 13.172 4.37823 16.2918 3.2621 19.7977L9.98578 17.0966L9.56671 10.9368Z" fill="url(#paint5_linear_1485_2704)"/>
<path fill-rule="evenodd" clip-rule="evenodd" d="M8.84471 12.6105C7.0978 14.1938 5.68268 16.1509 4.71892 18.3129L9.11259 16.5483L8.84471 12.6105ZM3.50444 20.5963C3.22197 20.682 2.91258 20.6119 2.69472 20.4088C2.45779 20.1888 2.36947 19.8517 2.46729 19.5441C3.65791 15.807 5.94077 12.5989 9.0682 10.2678C9.3125 10.085 9.63789 10.0508 9.91547 10.1788C10.1925 10.307 10.378 10.5757 10.399 10.8804L10.818 17.0402C10.8421 17.4009 10.6318 17.7362 10.2968 17.8709L3.57316 20.572C3.5504 20.5812 3.52732 20.5894 3.50444 20.5963Z" fill="#2E2E30"/>
<path fill-rule="evenodd" clip-rule="evenodd" d="M25.4293 11.911L29.6493 11.1786C27.8443 9.95238 25.8291 9.09044 23.6988 8.63432L25.4293 11.911ZM31.916 12.4735C31.8841 12.4832 31.8505 12.4911 31.8162 12.4968L25.1183 13.6588C24.7624 13.7208 24.4073 13.5459 24.2383 13.2263L21.4409 7.92972C21.2962 7.65561 21.3154 7.32423 21.4895 7.06909C21.6647 6.81363 21.9655 6.67531 22.2731 6.71105C25.9484 7.13398 29.3859 8.63073 32.2142 11.0396C32.4602 11.2492 32.563 11.5826 32.4783 11.8949C32.402 12.1738 32.1884 12.3909 31.916 12.4735Z" fill="#2E2E30"/>
<path fill-rule="evenodd" clip-rule="evenodd" d="M21.0663 42.0728C23.9641 41.9206 26.8228 41.0035 29.2632 39.4447L24.1506 37.7973L21.0663 42.0728ZM25.5642 42.9654C23.5604 43.5732 21.4845 43.8366 19.3955 43.7482C19.0888 43.7348 18.8141 43.5548 18.6802 43.278C18.5459 43.0019 18.5744 42.6746 18.7538 42.4255L23.1527 36.3286C23.3639 36.0349 23.7399 35.9127 24.084 36.0229L31.3596 38.3664C31.6534 38.4616 31.8707 38.7108 31.9251 39.0146C31.9795 39.3184 31.8614 39.6281 31.6187 39.818C29.8069 41.2372 27.7703 42.2963 25.5642 42.9654Z" fill="#2E2E30"/>
<path fill-rule="evenodd" clip-rule="evenodd" d="M9.02651 31.378L2.90227 29.2317C2.98824 29.5975 3.08267 29.9624 3.19329 30.3271C4.24504 33.7945 6.26264 36.7022 8.86004 38.8497L9.02651 31.378Z" fill="url(#paint6_linear_1485_2704)"/>
<mask id="mask1_1485_2704" style="mask-type:luminance" maskUnits="userSpaceOnUse" x="1" y="26" width="12" height="15">
<path d="M1.82471 28.6855L5.4826 40.745L12.1283 38.7292L8.4704 26.6698L1.82471 28.6855V28.6855Z" fill="#2E2E30"/>
</mask>
<g mask="url(#mask1_1485_2704)">
<path fill-rule="evenodd" clip-rule="evenodd" d="M4.1399 30.5481C4.95306 32.978 6.29303 35.1703 8.0682 36.9876L8.18033 31.9643L4.1399 30.5481ZM9.1031 39.6468C8.83818 39.7271 8.54705 39.6713 8.32979 39.4913C5.51184 37.1624 3.46 34.0768 2.39565 30.5679C2.28003 30.1867 2.18219 29.8047 2.09191 29.4228C2.02166 29.1261 2.11889 28.8147 2.34511 28.6106C2.56974 28.407 2.89035 28.3417 3.17796 28.4434L9.3022 30.5897C9.64385 30.7087 9.86878 31.0347 9.86042 31.3959L9.69448 38.8674C9.68743 39.187 9.49801 39.4741 9.20792 39.6074C9.17357 39.6225 9.13821 39.6361 9.1031 39.6468Z" fill="#2E2E30"/>
</g>
<path fill-rule="evenodd" clip-rule="evenodd" d="M14.1577 20.1112L10.2263 17.2754L14.1577 20.1112Z" fill="white"/>
<path fill-rule="evenodd" clip-rule="evenodd" d="M14.4004 20.9106C14.16 20.9835 13.8899 20.9474 13.6705 20.789L9.73965 17.953C9.36566 17.6833 9.28126 17.1618 9.55022 16.7884C9.82062 16.414 10.3406 16.3301 10.7141 16.5999L14.6448 19.4354C15.0188 19.705 15.1032 20.2265 14.8342 20.5999C14.7231 20.7546 14.569 20.8594 14.4004 20.9106Z" fill="#2E2E30"/>
<path fill-rule="evenodd" clip-rule="evenodd" d="M22.3514 17.6257L24.9755 12.8364L22.3514 17.6257Z" fill="white"/>
<path fill-rule="evenodd" clip-rule="evenodd" d="M22.5937 18.4245C22.3862 18.4874 22.1556 18.4702 21.9506 18.3574C21.5471 18.1362 21.3985 17.6289 21.6203 17.2245L24.2443 12.4351C24.4645 12.0311 24.972 11.883 25.3762 12.1046C25.7798 12.3263 25.9279 12.8337 25.7059 13.2377L23.0826 18.0274C22.9738 18.2261 22.7953 18.3634 22.5937 18.4245Z" fill="#2E2E30"/>
<path fill-rule="evenodd" clip-rule="evenodd" d="M13.9915 28.6787L9.02684 31.3781L13.9915 28.6787Z" fill="white"/>
<path fill-rule="evenodd" clip-rule="evenodd" d="M9.26753 32.1774C8.89729 32.2897 8.48601 32.1308 8.29385 31.7769C8.07336 31.3717 8.22351 30.8651 8.62796 30.6453L13.5931 27.9458C13.9934 27.7255 14.5041 27.8752 14.724 28.2806C14.9444 28.6853 14.7942 29.1918 14.3898 29.4116L9.42477 32.1117C9.3739 32.1394 9.32126 32.1611 9.26753 32.1774Z" fill="#2E2E30"/>
<path fill-rule="evenodd" clip-rule="evenodd" d="M33.9071 24.1609L36.791 28.2755C37.2577 25.7788 37.1539 23.2116 36.4802 20.7393L33.9071 24.1609ZM37.4085 31.0619C37.3728 31.0727 37.3364 31.0809 37.2994 31.0874C36.9836 31.1379 36.6672 31.0042 36.4838 30.7424L32.1946 24.6223C31.9864 24.3267 31.9929 23.9306 32.2109 23.6418L36.1103 18.4551C36.2936 18.2111 36.5961 18.088 36.8955 18.1309C37.197 18.1749 37.4507 18.3793 37.5576 18.6649C37.7107 19.0737 37.8367 19.4413 37.9415 19.7868C39.0057 23.2952 39.0137 27.0008 37.9651 30.503C37.8844 30.7734 37.6734 30.9816 37.4085 31.0619Z" fill="#2E2E30"/>
<path fill-rule="evenodd" clip-rule="evenodd" d="M27.2488 24.6572L32.8765 24.1438L27.2488 24.6572Z" fill="white"/>
<path fill-rule="evenodd" clip-rule="evenodd" d="M33.1202 24.9413C33.0665 24.9576 33.0106 24.9687 32.953 24.974L27.3251 25.4869C26.8667 25.5289 26.4605 25.1911 26.4189 24.7322C26.3766 24.273 26.7177 23.8654 27.1732 23.8255L32.8009 23.3121C33.2593 23.2701 33.6655 23.6079 33.7073 24.0673C33.7441 24.4683 33.4904 24.829 33.1202 24.9413Z" fill="#2E2E30"/>
<path fill-rule="evenodd" clip-rule="evenodd" d="M23.9522 37.6517C23.5118 37.7853 23.0458 37.536 22.9121 37.0952L21.2845 31.7292C21.1508 31.2884 21.3997 30.8222 21.8402 30.6886C22.2806 30.555 22.7466 30.8044 22.8803 31.2452L24.5079 36.6111C24.6417 37.0519 24.3927 37.5181 23.9522 37.6517Z" fill="#2E2E30"/>
<mask id="path-28-outside-2_1485_2704" maskUnits="userSpaceOnUse" x="40" y="16" width="55" height="15" fill="black">
<rect fill="white" x="40" y="16" width="55" height="15"/>
<path d="M41.2608 29.1562V18.2139C41.2608 17.9854 41.3428 17.792 41.5069 17.6338C41.6709 17.4756 41.8672 17.3965 42.0957 17.3965H52.2295C52.458 17.3965 52.6514 17.4785 52.8096 17.6426C52.9737 17.8066 53.0557 18.0029 53.0557 18.2314V19.0576C53.0557 19.2861 52.9737 19.4824 52.8096 19.6465C52.6514 19.8047 52.458 19.8838 52.2295 19.8838H44.5743V22.9775H50.8057C51.0342 22.9775 51.2276 23.0596 51.3858 23.2236C51.5498 23.3877 51.6319 23.5811 51.6319 23.8037V24.6387C51.6319 24.8672 51.5498 25.0635 51.3858 25.2275C51.2276 25.3857 51.0342 25.4648 50.8057 25.4648H44.5743V29.1562C44.5743 29.3965 44.4922 29.5986 44.3282 29.7627C44.17 29.9209 43.9766 30 43.7481 30H42.0957C41.8672 30 41.6709 29.9209 41.5069 29.7627C41.3428 29.5986 41.2608 29.3965 41.2608 29.1562ZM54.1519 25.9482V20.9121C54.1519 20.7539 54.2017 20.625 54.3013 20.5254C54.4068 20.4199 54.5357 20.3672 54.688 20.3672H56.6568C56.8091 20.3672 56.9351 20.4199 57.0347 20.5254C57.1402 20.625 57.1929 20.7539 57.1929 20.9121V25.9482C57.1929 27.3545 57.7495 28.0576 58.8628 28.0576C59.5952 28.0576 60.3833 27.6357 61.2271 26.792V20.9121C61.2271 20.7539 61.2769 20.625 61.3765 20.5254C61.482 20.4199 61.6109 20.3672 61.7632 20.3672H63.7232C63.8814 20.3672 64.0103 20.4199 64.1099 20.5254C64.2154 20.625 64.2681 20.7539 64.2681 20.9121V29.4639C64.2681 29.6162 64.2154 29.7451 64.1099 29.8506C64.0103 29.9502 63.8814 30 63.7232 30H61.7632C61.6109 30 61.482 29.9502 61.3765 29.8506C61.2769 29.7451 61.2271 29.6162 61.2271 29.4639V28.9014C60.2193 29.751 59.1441 30.1758 58.0015 30.1758C56.8648 30.1758 55.939 29.8301 55.2241 29.1387C54.5093 28.4414 54.1519 27.3779 54.1519 25.9482ZM66.709 17.9414C66.709 17.7832 66.7588 17.6543 66.8584 17.5547C66.9639 17.4492 67.0928 17.3965 67.2451 17.3965H69.2139C69.3662 17.3965 69.4922 17.4492 69.5918 17.5547C69.6973 17.6543 69.75 17.7832 69.75 17.9414V20.6396C70.6992 20.3408 71.5459 20.1914 72.29 20.1914C73.7314 20.1914 74.877 20.6221 75.7266 21.4834C76.5762 22.3389 77.001 23.5752 77.001 25.1924C77.001 28.5146 75.1406 30.1758 71.4199 30.1758C70.5703 30.1758 69.6885 30.082 68.7744 29.8945C67.8662 29.7012 67.1777 29.4668 66.709 29.1914V17.9414ZM69.75 22.6699V27.8555C70.2539 27.9902 70.8955 28.0576 71.6748 28.0576C72.4541 28.0576 73.0137 27.832 73.3535 27.3809C73.6992 26.9297 73.8721 26.2002 73.8721 25.1924C73.8721 24.1846 73.7021 23.4551 73.3623 23.0039C73.0283 22.5469 72.46 22.3184 71.6572 22.3184C71.1416 22.3184 70.5059 22.4355 69.75 22.6699ZM79.7231 28.9102C78.8091 28.0664 78.352 26.8242 78.352 25.1836C78.352 23.5371 78.8091 22.2949 79.7231 21.457C80.6372 20.6133 81.9497 20.1914 83.6606 20.1914C85.3774 20.1914 86.6929 20.6133 87.6069 21.457C88.521 22.2949 88.978 23.5371 88.978 25.1836C88.978 26.8242 88.521 28.0664 87.6069 28.9102C86.6929 29.7539 85.3774 30.1758 83.6606 30.1758C81.9497 30.1758 80.6372 29.7539 79.7231 28.9102ZM81.9468 22.8984C81.5835 23.373 81.4018 24.1318 81.4018 25.1748C81.4018 26.2178 81.5835 26.9795 81.9468 27.46C82.31 27.9404 82.8813 28.1807 83.6606 28.1807C84.4458 28.1807 85.02 27.9404 85.3833 27.46C85.7524 26.9795 85.937 26.2178 85.937 25.1748C85.937 24.1318 85.7524 23.373 85.3833 22.8984C85.02 22.4238 84.4458 22.1865 83.6606 22.1865C82.8813 22.1865 82.31 22.4238 81.9468 22.8984ZM90.874 29.4639V17.9414C90.874 17.7832 90.9238 17.6543 91.0234 17.5547C91.1289 17.4492 91.2578 17.3965 91.4101 17.3965H93.3789C93.5312 17.3965 93.6572 17.4492 93.7568 17.5547C93.8623 17.6543 93.915 17.7832 93.915 17.9414V29.4639C93.915 29.6162 93.8623 29.7451 93.7568 29.8506C93.6572 29.9502 93.5312 30 93.3789 30H91.4101C91.2578 30 91.1289 29.9502 91.0234 29.8506C90.9238 29.7451 90.874 29.6162 90.874 29.4639Z"/>
</mask>
<path d="M41.2608 29.1562V18.2139C41.2608 17.9854 41.3428 17.792 41.5069 17.6338C41.6709 17.4756 41.8672 17.3965 42.0957 17.3965H52.2295C52.458 17.3965 52.6514 17.4785 52.8096 17.6426C52.9737 17.8066 53.0557 18.0029 53.0557 18.2314V19.0576C53.0557 19.2861 52.9737 19.4824 52.8096 19.6465C52.6514 19.8047 52.458 19.8838 52.2295 19.8838H44.5743V22.9775H50.8057C51.0342 22.9775 51.2276 23.0596 51.3858 23.2236C51.5498 23.3877 51.6319 23.5811 51.6319 23.8037V24.6387C51.6319 24.8672 51.5498 25.0635 51.3858 25.2275C51.2276 25.3857 51.0342 25.4648 50.8057 25.4648H44.5743V29.1562C44.5743 29.3965 44.4922 29.5986 44.3282 29.7627C44.17 29.9209 43.9766 30 43.7481 30H42.0957C41.8672 30 41.6709 29.9209 41.5069 29.7627C41.3428 29.5986 41.2608 29.3965 41.2608 29.1562ZM54.1519 25.9482V20.9121C54.1519 20.7539 54.2017 20.625 54.3013 20.5254C54.4068 20.4199 54.5357 20.3672 54.688 20.3672H56.6568C56.8091 20.3672 56.9351 20.4199 57.0347 20.5254C57.1402 20.625 57.1929 20.7539 57.1929 20.9121V25.9482C57.1929 27.3545 57.7495 28.0576 58.8628 28.0576C59.5952 28.0576 60.3833 27.6357 61.2271 26.792V20.9121C61.2271 20.7539 61.2769 20.625 61.3765 20.5254C61.482 20.4199 61.6109 20.3672 61.7632 20.3672H63.7232C63.8814 20.3672 64.0103 20.4199 64.1099 20.5254C64.2154 20.625 64.2681 20.7539 64.2681 20.9121V29.4639C64.2681 29.6162 64.2154 29.7451 64.1099 29.8506C64.0103 29.9502 63.8814 30 63.7232 30H61.7632C61.6109 30 61.482 29.9502 61.3765 29.8506C61.2769 29.7451 61.2271 29.6162 61.2271 29.4639V28.9014C60.2193 29.751 59.1441 30.1758 58.0015 30.1758C56.8648 30.1758 55.939 29.8301 55.2241 29.1387C54.5093 28.4414 54.1519 27.3779 54.1519 25.9482ZM66.709 17.9414C66.709 17.7832 66.7588 17.6543 66.8584 17.5547C66.9639 17.4492 67.0928 17.3965 67.2451 17.3965H69.2139C69.3662 17.3965 69.4922 17.4492 69.5918 17.5547C69.6973 17.6543 69.75 17.7832 69.75 17.9414V20.6396C70.6992 20.3408 71.5459 20.1914 72.29 20.1914C73.7314 20.1914 74.877 20.6221 75.7266 21.4834C76.5762 22.3389 77.001 23.5752 77.001 25.1924C77.001 28.5146 75.1406 30.1758 71.4199 30.1758C70.5703 30.1758 69.6885 30.082 68.7744 29.8945C67.8662 29.7012 67.1777 29.4668 66.709 29.1914V17.9414ZM69.75 22.6699V27.8555C70.2539 27.9902 70.8955 28.0576 71.6748 28.0576C72.4541 28.0576 73.0137 27.832 73.3535 27.3809C73.6992 26.9297 73.8721 26.2002 73.8721 25.1924C73.8721 24.1846 73.7021 23.4551 73.3623 23.0039C73.0283 22.5469 72.46 22.3184 71.6572 22.3184C71.1416 22.3184 70.5059 22.4355 69.75 22.6699ZM79.7231 28.9102C78.8091 28.0664 78.352 26.8242 78.352 25.1836C78.352 23.5371 78.8091 22.2949 79.7231 21.457C80.6372 20.6133 81.9497 20.1914 83.6606 20.1914C85.3774 20.1914 86.6929 20.6133 87.6069 21.457C88.521 22.2949 88.978 23.5371 88.978 25.1836C88.978 26.8242 88.521 28.0664 87.6069 28.9102C86.6929 29.7539 85.3774 30.1758 83.6606 30.1758C81.9497 30.1758 80.6372 29.7539 79.7231 28.9102ZM81.9468 22.8984C81.5835 23.373 81.4018 24.1318 81.4018 25.1748C81.4018 26.2178 81.5835 26.9795 81.9468 27.46C82.31 27.9404 82.8813 28.1807 83.6606 28.1807C84.4458 28.1807 85.02 27.9404 85.3833 27.46C85.7524 26.9795 85.937 26.2178 85.937 25.1748C85.937 24.1318 85.7524 23.373 85.3833 22.8984C85.02 22.4238 84.4458 22.1865 83.6606 22.1865C82.8813 22.1865 82.31 22.4238 81.9468 22.8984ZM90.874 29.4639V17.9414C90.874 17.7832 90.9238 17.6543 91.0234 17.5547C91.1289 17.4492 91.2578 17.3965 91.4101 17.3965H93.3789C93.5312 17.3965 93.6572 17.4492 93.7568 17.5547C93.8623 17.6543 93.915 17.7832 93.915 17.9414V29.4639C93.915 29.6162 93.8623 29.7451 93.7568 29.8506C93.6572 29.9502 93.5312 30 93.3789 30H91.4101C91.2578 30 91.1289 29.9502 91.0234 29.8506C90.9238 29.7451 90.874 29.6162 90.874 29.4639Z" fill="white"/>
<path d="M52.8096 17.6426L52.3056 18.1286L52.3146 18.1376L52.8096 17.6426ZM44.5743 19.8838V19.1838H43.8743V19.8838H44.5743ZM44.5743 22.9775H43.8743V23.6775H44.5743V22.9775ZM51.3858 23.2236L50.8818 23.7096L50.8908 23.7186L51.3858 23.2236ZM44.5743 25.4648V24.7648H43.8743V25.4648H44.5743ZM41.5069 29.7627L41.0118 30.2578L41.021 30.2666L41.5069 29.7627ZM41.2608 29.1562H41.9608V18.2139H41.2608H40.5608V29.1562H41.2608ZM41.2608 18.2139H41.9608C41.9608 18.1852 41.9655 18.1737 41.9667 18.1708C41.9679 18.168 41.9727 18.157 41.9928 18.1377L41.5069 17.6338L41.021 17.1299C40.7197 17.4204 40.5608 17.7959 40.5608 18.2139H41.2608ZM41.5069 17.6338L41.9928 18.1377C42.026 18.1057 42.0479 18.0965 42.0957 18.0965V17.3965V16.6965C41.6865 16.6965 41.3159 16.8455 41.021 17.1299L41.5069 17.6338ZM42.0957 17.3965V18.0965H52.2295V17.3965V16.6965H42.0957V17.3965ZM52.2295 17.3965V18.0965C52.2582 18.0965 52.2697 18.1012 52.2726 18.1024C52.2754 18.1036 52.2864 18.1084 52.3057 18.1285L52.8096 17.6426L53.3135 17.1567C53.023 16.8554 52.6475 16.6965 52.2295 16.6965V17.3965ZM52.8096 17.6426L52.3146 18.1376C52.3497 18.1726 52.3557 18.1918 52.3557 18.2314H53.0557H53.7557C53.7557 17.8141 53.5977 17.4407 53.3046 17.1476L52.8096 17.6426ZM53.0557 18.2314H52.3557V19.0576H53.0557H53.7557V18.2314H53.0557ZM53.0557 19.0576H52.3557C52.3557 19.0973 52.3497 19.1165 52.3146 19.1515L52.8096 19.6465L53.3046 20.1415C53.5977 19.8484 53.7557 19.475 53.7557 19.0576H53.0557ZM52.8096 19.6465L52.3146 19.1515C52.2965 19.1696 52.2856 19.1747 52.2809 19.1766C52.2759 19.1786 52.2615 19.1838 52.2295 19.1838V19.8838V20.5838C52.6392 20.5838 53.012 20.4341 53.3046 20.1415L52.8096 19.6465ZM52.2295 19.8838V19.1838H44.5743V19.8838V20.5838H52.2295V19.8838ZM44.5743 19.8838H43.8743V22.9775H44.5743H45.2743V19.8838H44.5743ZM44.5743 22.9775V23.6775H50.8057V22.9775V22.2775H44.5743V22.9775ZM50.8057 22.9775V23.6775C50.8344 23.6775 50.8459 23.6823 50.8487 23.6835C50.8515 23.6847 50.8626 23.6895 50.8819 23.7095L51.3858 23.2236L51.8897 22.7377C51.5991 22.4364 51.2237 22.2775 50.8057 22.2775V22.9775ZM51.3858 23.2236L50.8908 23.7186C50.9159 23.7437 50.9235 23.7594 50.9259 23.7651C50.9281 23.7702 50.9319 23.7806 50.9319 23.8037H51.6319H52.3319C52.3319 23.3869 52.1699 23.0178 51.8808 22.7287L51.3858 23.2236ZM51.6319 23.8037H50.9319V24.6387H51.6319H52.3319V23.8037H51.6319ZM51.6319 24.6387H50.9319C50.9319 24.6784 50.9259 24.6975 50.8908 24.7326L51.3858 25.2275L51.8808 25.7225C52.1738 25.4294 52.3319 25.056 52.3319 24.6387H51.6319ZM51.3858 25.2275L50.8908 24.7326C50.8727 24.7507 50.8617 24.7557 50.8571 24.7576C50.8521 24.7597 50.8376 24.7648 50.8057 24.7648V25.4648V26.1648C51.2154 26.1648 51.5882 26.0151 51.8808 25.7225L51.3858 25.2275ZM50.8057 25.4648V24.7648H44.5743V25.4648V26.1648H50.8057V25.4648ZM44.5743 25.4648H43.8743V29.1562H44.5743H45.2743V25.4648H44.5743ZM44.5743 29.1562H43.8743C43.8743 29.2182 43.8609 29.24 43.8332 29.2677L44.3282 29.7627L44.8231 30.2577C45.1236 29.9572 45.2743 29.5748 45.2743 29.1562H44.5743ZM44.3282 29.7627L43.8332 29.2677C43.8151 29.2858 43.8041 29.2909 43.7994 29.2928C43.7945 29.2948 43.78 29.3 43.7481 29.3V30V30.7C44.1578 30.7 44.5305 30.5503 44.8231 30.2577L44.3282 29.7627ZM43.7481 30V29.3H42.0957V30V30.7H43.7481V30ZM42.0957 30V29.3C42.0479 29.3 42.026 29.2908 41.9928 29.2588L41.5069 29.7627L41.021 30.2666C41.3159 30.551 41.6865 30.7 42.0957 30.7V30ZM41.5069 29.7627L42.0018 29.2677C41.9742 29.24 41.9608 29.2182 41.9608 29.1562H41.2608H40.5608C40.5608 29.5748 40.7115 29.9572 41.0119 30.2577L41.5069 29.7627ZM57.0347 20.5254L56.5258 21.006L56.5395 21.0206L56.5541 21.0343L57.0347 20.5254ZM61.2271 26.792L61.722 27.287L61.9271 27.0819V26.792H61.2271ZM64.1099 20.5254L63.601 21.006L63.6147 21.0206L63.6292 21.0343L64.1099 20.5254ZM61.3765 29.8506L60.8676 30.3312L60.8813 30.3458L60.8958 30.3595L61.3765 29.8506ZM61.2271 28.9014H61.9271V27.3957L60.7759 28.3662L61.2271 28.9014ZM55.2241 29.1387L54.7354 29.6398L54.7375 29.6418L55.2241 29.1387ZM54.1519 25.9482H54.8519V20.9121H54.1519H53.4519V25.9482H54.1519ZM54.1519 20.9121H54.8519C54.8519 20.9069 54.8525 20.9223 54.8422 20.9491C54.8312 20.9774 54.8141 21.0025 54.7963 21.0204L54.3013 20.5254L53.8063 20.0304C53.5588 20.2779 53.4519 20.5932 53.4519 20.9121H54.1519ZM54.3013 20.5254L54.7963 21.0204C54.788 21.0286 54.7697 21.0434 54.7421 21.0546C54.7149 21.0658 54.6942 21.0672 54.688 21.0672V20.3672V19.6672C54.3545 19.6672 54.0462 19.7906 53.8063 20.0304L54.3013 20.5254ZM54.688 20.3672V21.0672H56.6568V20.3672V19.6672H54.688V20.3672ZM56.6568 20.3672V21.0672C56.6508 21.0672 56.6272 21.0658 56.5952 21.0524C56.5625 21.0387 56.5389 21.0199 56.5258 21.006L57.0347 20.5254L57.5436 20.0448C57.3045 19.7916 56.9908 19.6672 56.6568 19.6672V20.3672ZM57.0347 20.5254L56.5541 21.0343C56.5374 21.0186 56.5184 20.9935 56.5055 20.9618C56.493 20.9315 56.4929 20.9116 56.4929 20.9121H57.1929H57.8929C57.8929 20.5807 57.7743 20.2611 57.5153 20.0165L57.0347 20.5254ZM57.1929 20.9121H56.4929V25.9482H57.1929H57.8929V20.9121H57.1929ZM57.1929 25.9482H56.4929C56.4929 26.7249 56.6434 27.4366 57.0615 27.9648C57.5043 28.5241 58.1491 28.7576 58.8628 28.7576V28.0576V27.3576C58.4632 27.3576 58.2731 27.2396 58.1592 27.0958C58.0207 26.9208 57.8929 26.5778 57.8929 25.9482H57.1929ZM58.8628 28.0576V28.7576C59.8686 28.7576 60.8259 28.1831 61.722 27.287L61.2271 26.792L60.7321 26.297C59.9407 27.0884 59.3218 27.3576 58.8628 27.3576V28.0576ZM61.2271 26.792H61.9271V20.9121H61.2271H60.5271V26.792H61.2271ZM61.2271 20.9121H61.9271C61.9271 20.9069 61.9277 20.9223 61.9174 20.9491C61.9064 20.9774 61.8893 21.0025 61.8715 21.0204L61.3765 20.5254L60.8815 20.0304C60.634 20.2779 60.5271 20.5932 60.5271 20.9121H61.2271ZM61.3765 20.5254L61.8715 21.0204C61.8632 21.0286 61.8449 21.0434 61.8173 21.0546C61.7901 21.0658 61.7694 21.0672 61.7632 21.0672V20.3672V19.6672C61.4297 19.6672 61.1214 19.7906 60.8815 20.0304L61.3765 20.5254ZM61.7632 20.3672V21.0672H63.7232V20.3672V19.6672H61.7632V20.3672ZM63.7232 20.3672V21.0672C63.7237 21.0672 63.7038 21.067 63.6735 21.0546C63.6418 21.0417 63.6167 21.0227 63.601 21.006L64.1099 20.5254L64.6188 20.0448C64.3742 19.7858 64.0546 19.6672 63.7232 19.6672V20.3672ZM64.1099 20.5254L63.6292 21.0343C63.6126 21.0186 63.5936 20.9935 63.5807 20.9618C63.5682 20.9315 63.5681 20.9116 63.5681 20.9121H64.2681H64.9681C64.9681 20.5807 64.8495 20.2611 64.5905 20.0165L64.1099 20.5254ZM64.2681 20.9121H63.5681V29.4639H64.2681H64.9681V20.9121H64.2681ZM64.2681 29.4639H63.5681C63.5681 29.4577 63.5695 29.437 63.5807 29.4098C63.5919 29.3822 63.6066 29.3639 63.6149 29.3556L64.1099 29.8506L64.6049 30.3456C64.8447 30.1057 64.9681 29.7974 64.9681 29.4639H64.2681ZM64.1099 29.8506L63.6149 29.3556C63.6327 29.3378 63.6578 29.3206 63.6862 29.3097C63.713 29.2993 63.7283 29.3 63.7232 29.3V30V30.7C64.0421 30.7 64.3573 30.5931 64.6049 30.3456L64.1099 29.8506ZM63.7232 30V29.3H61.7632V30V30.7H63.7232V30ZM61.7632 30V29.3C61.7645 29.3 61.7807 29.3005 61.8045 29.3097C61.829 29.3191 61.8471 29.3323 61.8571 29.3417L61.3765 29.8506L60.8958 30.3595C61.1383 30.5884 61.442 30.7 61.7632 30.7V30ZM61.3765 29.8506L61.8854 29.3699C61.8948 29.3799 61.9079 29.398 61.9174 29.4225C61.9266 29.4464 61.9271 29.4626 61.9271 29.4639H61.2271H60.5271C60.5271 29.7851 60.6386 30.0888 60.8676 30.3312L61.3765 29.8506ZM61.2271 29.4639H61.9271V28.9014H61.2271H60.5271V29.4639H61.2271ZM61.2271 28.9014L60.7759 28.3662C59.8738 29.1266 58.954 29.4758 58.0015 29.4758V30.1758V30.8758C59.3342 30.8758 60.5647 30.3753 61.6783 29.4366L61.2271 28.9014ZM58.0015 30.1758V29.4758C57.0183 29.4758 56.2762 29.1824 55.7108 28.6355L55.2241 29.1387L54.7375 29.6418C55.6017 30.4777 56.7112 30.8758 58.0015 30.8758V30.1758ZM55.2241 29.1387L55.7129 28.6376C55.1824 28.1201 54.8519 27.2715 54.8519 25.9482H54.1519H53.4519C53.4519 27.4843 53.8361 28.7627 54.7354 29.6398L55.2241 29.1387ZM69.5918 17.5547L69.0829 18.0353L69.0966 18.0499L69.1112 18.0636L69.5918 17.5547ZM69.75 20.6396H69.05V21.5939L69.9602 21.3073L69.75 20.6396ZM75.7266 21.4834L75.2282 21.975L75.2299 21.9767L75.7266 21.4834ZM68.7744 29.8945L68.6286 30.5792L68.6338 30.5803L68.7744 29.8945ZM66.709 29.1914H66.009V29.592L66.3544 29.795L66.709 29.1914ZM69.75 22.6699L69.5427 22.0013L69.05 22.1541V22.6699H69.75ZM69.75 27.8555H69.05V28.3929L69.5691 28.5317L69.75 27.8555ZM73.3535 27.3809L72.7979 26.9551L72.7944 26.9597L73.3535 27.3809ZM73.3623 23.0039L72.7971 23.417L72.8032 23.4251L73.3623 23.0039ZM66.709 17.9414H67.409C67.409 17.9362 67.4096 17.9516 67.3993 17.9784C67.3883 18.0067 67.3712 18.0318 67.3534 18.0497L66.8584 17.5547L66.3634 17.0597C66.1159 17.3072 66.009 17.6225 66.009 17.9414H66.709ZM66.8584 17.5547L67.3534 18.0497C67.3451 18.0579 67.3268 18.0726 67.2992 18.0839C67.272 18.0951 67.2513 18.0965 67.2451 18.0965V17.3965V16.6965C66.9116 16.6965 66.6033 16.8199 66.3634 17.0597L66.8584 17.5547ZM67.2451 17.3965V18.0965H69.2139V17.3965V16.6965H67.2451V17.3965ZM69.2139 17.3965V18.0965C69.208 18.0965 69.1843 18.0951 69.1523 18.0817C69.1196 18.068 69.096 18.0492 69.0829 18.0353L69.5918 17.5547L70.1007 17.0741C69.8616 16.8209 69.548 16.6965 69.2139 16.6965V17.3965ZM69.5918 17.5547L69.1112 18.0636C69.0945 18.0479 69.0755 18.0228 69.0626 17.9911C69.0502 17.9608 69.05 17.9409 69.05 17.9414H69.75H70.45C70.45 17.61 70.3314 17.2904 70.0724 17.0458L69.5918 17.5547ZM69.75 17.9414H69.05V20.6396H69.75H70.45V17.9414H69.75ZM69.75 20.6396L69.9602 21.3073C70.8628 21.0232 71.6366 20.8914 72.29 20.8914V20.1914V19.4914C71.4552 19.4914 70.5356 19.6585 69.5398 19.972L69.75 20.6396ZM72.29 20.1914V20.8914C73.5827 20.8914 74.5349 21.2721 75.2282 21.975L75.7266 21.4834L76.2249 20.9918C75.219 19.972 73.8802 19.4914 72.29 19.4914V20.1914ZM75.7266 21.4834L75.2299 21.9767C75.9097 22.6612 76.301 23.6951 76.301 25.1924H77.001H77.701C77.701 23.4553 77.2426 22.0166 76.2232 20.9901L75.7266 21.4834ZM77.001 25.1924H76.301C76.301 26.7238 75.8758 27.7503 75.1395 28.4078C74.388 29.0788 73.1907 29.4758 71.4199 29.4758V30.1758V30.8758C73.3699 30.8758 74.963 30.4422 76.0719 29.4521C77.1959 28.4484 77.701 26.9832 77.701 25.1924H77.001ZM71.4199 30.1758V29.4758C70.6219 29.4758 69.7873 29.3877 68.9151 29.2088L68.7744 29.8945L68.6338 30.5803C69.5896 30.7763 70.5187 30.8758 71.4199 30.8758V30.1758ZM68.7744 29.8945L68.9202 29.2099C68.0412 29.0227 67.4375 28.8075 67.0636 28.5879L66.709 29.1914L66.3544 29.795C66.918 30.126 67.6912 30.3796 68.6286 30.5792L68.7744 29.8945ZM66.709 29.1914H67.409V17.9414H66.709H66.009V29.1914H66.709ZM69.75 22.6699H69.05V27.8555H69.75H70.45V22.6699H69.75ZM69.75 27.8555L69.5691 28.5317C70.1534 28.6879 70.8614 28.7576 71.6748 28.7576V28.0576V27.3576C70.9297 27.3576 70.3544 27.2925 69.9309 27.1792L69.75 27.8555ZM71.6748 28.0576V28.7576C72.5846 28.7576 73.3947 28.4896 73.9126 27.802L73.3535 27.3809L72.7944 26.9597C72.6326 27.1745 72.3236 27.3576 71.6748 27.3576V28.0576ZM73.3535 27.3809L73.9092 27.8066C74.397 27.1699 74.5721 26.2485 74.5721 25.1924H73.8721H73.1721C73.1721 26.1519 73.0014 26.6895 72.7979 26.9551L73.3535 27.3809ZM73.8721 25.1924H74.5721C74.5721 24.1379 74.4004 23.2187 73.9214 22.5827L73.3623 23.0039L72.8032 23.4251C73.0039 23.6915 73.1721 24.2312 73.1721 25.1924H73.8721ZM73.3623 23.0039L73.9275 22.5909C73.4123 21.886 72.5839 21.6184 71.6572 21.6184V22.3184V23.0184C72.336 23.0184 72.6443 23.2078 72.7971 23.4169L73.3623 23.0039ZM71.6572 22.3184V21.6184C71.0443 21.6184 70.3338 21.756 69.5427 22.0013L69.75 22.6699L69.9573 23.3385C70.6779 23.1151 71.2389 23.0184 71.6572 23.0184V22.3184ZM79.7231 21.457L80.1961 21.973L80.1979 21.9714L79.7231 21.457ZM87.6069 21.457L87.1321 21.9714L87.1339 21.973L87.6069 21.457ZM85.3833 27.46L84.8282 27.0335L84.8249 27.0378L85.3833 27.46ZM85.3833 22.8984L84.8274 23.3239L84.8307 23.3282L85.3833 22.8984ZM79.7231 28.9102L80.1979 28.3958C79.4693 27.7232 79.052 26.6943 79.052 25.1836H78.352H77.652C77.652 26.9541 78.1488 28.4096 79.2483 29.4245L79.7231 28.9102ZM78.352 25.1836H79.052C79.052 23.6658 79.4699 22.6387 80.1961 21.973L79.7231 21.457L79.2501 20.941C78.1482 21.9511 77.652 23.4084 77.652 25.1836H78.352ZM79.7231 21.457L80.1979 21.9714C80.9408 21.2856 82.059 20.8914 83.6606 20.8914V20.1914V19.4914C81.8404 19.4914 80.3335 19.9409 79.2483 20.9427L79.7231 21.457ZM83.6606 20.1914V20.8914C85.2689 20.8914 86.3896 21.286 87.1321 21.9714L87.6069 21.457L88.0817 20.9427C86.9961 19.9406 85.486 19.4914 83.6606 19.4914V20.1914ZM87.6069 21.457L87.1339 21.973C87.8601 22.6387 88.278 23.6658 88.278 25.1836H88.978H89.678C89.678 23.4084 89.1818 21.9511 88.0799 20.941L87.6069 21.457ZM88.978 25.1836H88.278C88.278 26.6943 87.8607 27.7232 87.1321 28.3958L87.6069 28.9102L88.0817 29.4245C89.1812 28.4096 89.678 26.9541 89.678 25.1836H88.978ZM87.6069 28.9102L87.1321 28.3958C86.3896 29.0812 85.2689 29.4758 83.6606 29.4758V30.1758V30.8758C85.486 30.8758 86.9961 30.4266 88.0817 29.4245L87.6069 28.9102ZM83.6606 30.1758V29.4758C82.059 29.4758 80.9408 29.0816 80.1979 28.3958L79.7231 28.9102L79.2483 29.4245C80.3335 30.4262 81.8404 30.8758 83.6606 30.8758V30.1758ZM81.9468 22.8984L81.3909 22.473C80.8867 23.1317 80.7018 24.0805 80.7018 25.1748H81.4018H82.1018C82.1018 24.1832 82.2802 23.6144 82.5026 23.3239L81.9468 22.8984ZM81.4018 25.1748H80.7018C80.7018 26.2703 80.8872 27.2192 81.3884 27.8821L81.9468 27.46L82.5051 27.0378C82.2798 26.7398 82.1018 26.1653 82.1018 25.1748H81.4018ZM81.9468 27.46L81.3884 27.8821C81.9214 28.5871 82.7325 28.8807 83.6606 28.8807V28.1807V27.4807C83.0302 27.4807 82.6987 27.2938 82.5051 27.0378L81.9468 27.46ZM83.6606 28.1807V28.8807C84.5925 28.8807 85.4076 28.5884 85.9416 27.8821L85.3833 27.46L84.8249 27.0378C84.6324 27.2925 84.2991 27.4807 83.6606 27.4807V28.1807ZM85.3833 27.46L85.9384 27.8864C86.4482 27.2228 86.637 26.2719 86.637 25.1748H85.937H85.237C85.237 26.1637 85.0566 26.7362 84.8282 27.0335L85.3833 27.46ZM85.937 25.1748H86.637C86.637 24.0789 86.4487 23.1281 85.9358 22.4687L85.3833 22.8984L84.8307 23.3282C85.0562 23.618 85.237 24.1848 85.237 25.1748H85.937ZM85.3833 22.8984L85.9391 22.473C85.404 21.7738 84.5894 21.4865 83.6606 21.4865V22.1865V22.8865C84.3021 22.8865 84.636 23.0738 84.8274 23.3239L85.3833 22.8984ZM83.6606 22.1865V21.4865C82.7355 21.4865 81.9251 21.7751 81.3909 22.473L81.9468 22.8984L82.5026 23.3239C82.695 23.0725 83.0271 22.8865 83.6606 22.8865V22.1865ZM93.7568 17.5547L93.2479 18.0353L93.2616 18.0499L93.2762 18.0636L93.7568 17.5547ZM91.0234 29.8506L90.5145 30.3312L90.5282 30.3458L90.5428 30.3595L91.0234 29.8506ZM90.874 29.4639H91.574V17.9414H90.874H90.174V29.4639H90.874ZM90.874 17.9414H91.574C91.574 17.9362 91.5746 17.9516 91.5643 17.9784C91.5533 18.0067 91.5362 18.0318 91.5184 18.0497L91.0234 17.5547L90.5284 17.0597C90.2809 17.3072 90.174 17.6225 90.174 17.9414H90.874ZM91.0234 17.5547L91.5184 18.0497C91.5101 18.0579 91.4918 18.0726 91.4642 18.0839C91.437 18.0951 91.4163 18.0965 91.4101 18.0965V17.3965V16.6965C91.0766 16.6965 90.7683 16.8199 90.5284 17.0597L91.0234 17.5547ZM91.4101 17.3965V18.0965H93.3789V17.3965V16.6965H91.4101V17.3965ZM93.3789 17.3965V18.0965C93.373 18.0965 93.3493 18.0951 93.3173 18.0817C93.2846 18.068 93.261 18.0492 93.2479 18.0353L93.7568 17.5547L94.2657 17.0741C94.0266 16.8209 93.713 16.6965 93.3789 16.6965V17.3965ZM93.7568 17.5547L93.2762 18.0636C93.2595 18.0479 93.2405 18.0228 93.2276 17.9911C93.2152 17.9608 93.215 17.9409 93.215 17.9414H93.915H94.615C94.615 17.61 94.4964 17.2904 94.2374 17.0458L93.7568 17.5547ZM93.915 17.9414H93.215V29.4639H93.915H94.615V17.9414H93.915ZM93.915 29.4639H93.215C93.215 29.4577 93.2164 29.437 93.2276 29.4098C93.2388 29.3822 93.2535 29.3639 93.2618 29.3556L93.7568 29.8506L94.2518 30.3456C94.4916 30.1057 94.615 29.7974 94.615 29.4639H93.915ZM93.7568 29.8506L93.2618 29.3556C93.277 29.3405 93.3006 29.3234 93.3302 29.3117C93.3588 29.3004 93.3779 29.3 93.3789 29.3V30V30.7C93.7002 30.7 94.0095 30.5878 94.2518 30.3456L93.7568 29.8506ZM93.3789 30V29.3H91.4101V30V30.7H93.3789V30ZM91.4101 30V29.3C91.4114 29.3 91.4276 29.3005 91.4515 29.3097C91.4759 29.3191 91.4941 29.3323 91.504 29.3417L91.0234 29.8506L90.5428 30.3595C90.7852 30.5884 91.0889 30.7 91.4101 30.7V30ZM91.0234 29.8506L91.5323 29.3699C91.5417 29.3799 91.5548 29.398 91.5643 29.4225C91.5735 29.4464 91.574 29.4626 91.574 29.4639H90.874H90.174C90.174 29.7851 90.2855 30.0888 90.5145 30.3312L91.0234 29.8506Z" fill="black" mask="url(#path-28-outside-2_1485_2704)"/>
</g>
<defs>
<filter id="filter0_d_1485_2704" x="28.5076" y="-3.09766" width="83.8225" height="51.1963" filterUnits="userSpaceOnUse" color-interpolation-filters="sRGB">
<feFlood flood-opacity="0" result="BackgroundImageFix"/>
<feColorMatrix in="SourceAlpha" type="matrix" values="0 0 0 0 0 0 0 0 0 0 0 0 0 0 0 0 0 0 127 0" result="hardAlpha"/>
<feOffset/>
<feGaussianBlur stdDeviation="2"/>
<feComposite in2="hardAlpha" operator="out"/>
<feColorMatrix type="matrix" values="0 0 0 0 1 0 0 0 0 1 0 0 0 0 1 0 0 0 1 0"/>
<feBlend mode="normal" in2="BackgroundImageFix" result="effect1_dropShadow_1485_2704"/>
<feBlend mode="normal" in="SourceGraphic" in2="effect1_dropShadow_1485_2704" result="shape"/>
</filter>
<linearGradient id="paint0_linear_1485_2704" x1="77.0784" y1="4.07308" x2="50.3035" y2="50.4486" gradientUnits="userSpaceOnUse">
<stop stop-color="#0053A0"/>
<stop offset="1" stop-color="#00BF63" stop-opacity="0.8"/>
</linearGradient>
<linearGradient id="paint1_linear_1485_2704" x1="25.9514" y1="6.39547" x2="27.8999" y2="12.8193" gradientUnits="userSpaceOnUse">
<stop stop-color="#00BF63" stop-opacity="0.8"/>
<stop offset="1" stop-color="#0053A0"/>
</linearGradient>
<linearGradient id="paint2_linear_1485_2704" x1="34.2898" y1="19.7107" x2="37.4633" y2="30.1732" gradientUnits="userSpaceOnUse">
<stop stop-color="#00BF63" stop-opacity="0.8"/>
<stop offset="1" stop-color="#0053A0"/>
</linearGradient>
<linearGradient id="paint3_linear_1485_2704" x1="23.9734" y1="36.7742" x2="25.585" y2="42.0874" gradientUnits="userSpaceOnUse">
<stop stop-color="#00BF63" stop-opacity="0.8"/>
<stop offset="1" stop-color="#0053A0"/>
</linearGradient>
<linearGradient id="paint4_linear_1485_2704" x1="18.2547" y1="18.8692" x2="22.0822" y2="31.4879" gradientUnits="userSpaceOnUse">
<stop stop-color="#00BF63" stop-opacity="0.8"/>
<stop offset="1" stop-color="#0053A0"/>
</linearGradient>
<linearGradient id="paint5_linear_1485_2704" x1="5.44937" y1="12.1857" x2="7.37944" y2="18.5488" gradientUnits="userSpaceOnUse">
<stop stop-color="#00BF63" stop-opacity="0.8"/>
<stop offset="1" stop-color="#0053A0"/>
</linearGradient>
<linearGradient id="paint6_linear_1485_2704" x1="5.38943" y1="28.4773" x2="8.56294" y2="38.9398" gradientUnits="userSpaceOnUse">
<stop stop-color="#00BF63" stop-opacity="0.8"/>
<stop offset="1" stop-color="#0053A0"/>
</linearGradient>
<clipPath id="clip0_1485_2704">
<rect width="110" height="46" fill="white"/>
</clipPath>
</defs>
</svg>
