<svg width="647" height="419" viewBox="0 0 647 419" fill="none" xmlns="http://www.w3.org/2000/svg">
<g clip-path="url(#clip0_1429_1290)">
<path d="M243.935 390.41C241.455 377.315 238.746 364.358 235.991 351.411C235.571 349.44 234.935 347.515 234.288 345.163C230.498 348.22 231.272 352.065 230.946 355.476C230.62 358.873 230.732 362.311 229.848 365.986C226.896 359.648 223.945 353.309 220.994 346.971C220.738 346.978 220.482 346.985 220.226 346.993C220.411 350.044 220.394 353.123 220.816 356.141C222.367 367.232 227.257 376.795 234.933 384.825C237.164 387.158 240.321 388.606 242.885 390.786C243.041 390.926 243.366 390.738 243.935 390.41Z" fill="#00592E"/>
<path d="M241.38 381.519C243.709 381.074 246.314 380.426 249.22 379.609C246.714 365.754 243.906 352.068 241.099 338.381C240.668 338.334 240.237 338.288 239.805 338.241C238.949 345.962 238.093 353.682 237.16 362.101C234.178 355.803 231.309 349.745 228.44 343.687C228.115 343.721 227.79 343.755 227.465 343.789C227.883 347.946 227.747 352.255 228.835 356.229C231.129 364.609 234.283 372.682 240.956 378.811C241.498 379.31 241.438 380.466 241.38 381.519Z" fill="url(#paint0_linear_1429_1290)"/>
<path d="M225.91 376.71C224.126 367.287 222.177 357.963 220.194 348.646C219.892 347.228 219.434 345.842 218.968 344.15C216.241 346.349 216.798 349.116 216.563 351.571C216.33 354.016 216.41 356.49 215.773 359.134C213.65 354.573 211.526 350.012 209.402 345.451C209.218 345.456 209.034 345.461 208.85 345.467C208.983 347.662 208.971 349.878 209.274 352.05C210.39 360.031 213.909 366.913 219.433 372.691C221.038 374.37 223.31 375.411 225.155 376.981C225.267 377.081 225.501 376.946 225.91 376.71Z" fill="#00592E"/>
<path d="M225.335 378.986C227.664 378.541 230.269 377.893 233.176 377.076C230.669 363.221 227.862 349.534 225.054 335.848C224.623 335.801 224.192 335.755 223.76 335.708C222.904 343.428 222.049 351.149 221.115 359.567C218.133 353.27 215.264 347.212 212.395 341.154C212.07 341.188 211.745 341.222 211.42 341.256C211.838 345.413 211.702 349.722 212.79 353.695C215.084 362.075 218.238 370.148 224.911 376.278C225.454 376.777 225.393 377.932 225.335 378.986Z" fill="url(#paint1_linear_1429_1290)" fill-opacity="0.8"/>
<path d="M220.934 396.41C218.454 383.315 215.745 370.358 212.99 357.411C212.57 355.44 211.934 353.515 211.287 351.163C207.497 354.22 208.271 358.065 207.945 361.476C207.62 364.873 207.731 368.311 206.847 371.986C203.895 365.648 200.944 359.309 197.993 352.971C197.737 352.978 197.481 352.985 197.225 352.993C197.41 356.044 197.393 359.123 197.815 362.141C199.366 373.232 204.256 382.795 211.932 390.825C214.163 393.158 217.32 394.606 219.884 396.786C220.04 396.926 220.365 396.738 220.934 396.41Z" fill="url(#paint2_linear_1429_1290)"/>
<path d="M218.38 387.519C220.709 387.074 223.314 386.426 226.22 385.609C223.714 371.754 220.906 358.068 218.099 344.381C217.668 344.334 217.237 344.288 216.805 344.241C215.949 351.962 215.093 359.682 214.16 368.101C211.178 361.803 208.309 355.745 205.44 349.687C205.115 349.721 204.79 349.755 204.465 349.789C204.883 353.946 204.747 358.255 205.835 362.229C208.129 370.609 211.283 378.682 217.956 384.811C218.498 385.31 218.438 386.466 218.38 387.519Z" fill="#00592E"/>
<path d="M262.839 390.41C260.359 377.315 257.651 364.358 254.895 351.411C254.476 349.44 253.839 347.515 253.192 345.163C249.402 348.22 250.176 352.065 249.85 355.476C249.525 358.873 249.637 362.311 248.752 365.986C245.801 359.648 242.85 353.309 239.898 346.971C239.642 346.978 239.386 346.985 239.13 346.993C239.315 350.044 239.298 353.123 239.72 356.141C241.271 367.232 246.161 376.795 253.837 384.825C256.068 387.158 259.225 388.606 261.789 390.786C261.945 390.926 262.27 390.738 262.839 390.41Z" fill="url(#paint3_linear_1429_1290)"/>
<path d="M260.286 381.519C262.614 381.074 265.22 380.426 268.126 379.609C265.619 365.754 262.812 352.068 260.004 338.381C259.573 338.334 259.142 338.288 258.711 338.241C257.855 345.962 256.999 353.682 256.065 362.101C253.083 355.803 250.214 349.745 247.345 343.687C247.02 343.721 246.695 343.755 246.37 343.789C246.788 347.946 246.652 352.255 247.74 356.229C250.034 364.609 253.188 372.682 259.861 378.811C260.404 379.31 260.343 380.466 260.286 381.519Z" fill="url(#paint4_linear_1429_1290)" fill-opacity="0.8"/>
<path d="M244.816 376.71C243.031 367.287 241.082 357.963 239.099 348.646C238.798 347.228 238.34 345.842 237.874 344.15C235.146 346.349 235.704 349.116 235.469 351.571C235.235 354.016 235.315 356.49 234.679 359.134C232.555 354.573 230.431 350.012 228.308 345.451C228.123 345.456 227.939 345.461 227.755 345.467C227.888 347.662 227.876 349.878 228.179 352.05C229.295 360.031 232.814 366.913 238.338 372.691C239.943 374.37 242.215 375.411 244.06 376.981C244.173 377.081 244.406 376.946 244.816 376.71Z" fill="url(#paint5_linear_1429_1290)"/>
<path d="M244.241 378.986C246.569 378.541 249.175 377.893 252.081 377.076C249.574 363.221 246.767 349.534 243.959 335.848C243.528 335.801 243.097 335.755 242.666 335.708C241.81 343.428 240.954 351.149 240.02 359.567C237.038 353.27 234.169 347.212 231.3 341.154C230.975 341.188 230.65 341.222 230.325 341.256C230.743 345.413 230.607 349.722 231.695 353.695C233.989 362.075 237.143 370.148 243.816 376.278C244.359 376.777 244.298 377.932 244.241 378.986Z" fill="url(#paint6_linear_1429_1290)"/>
<path d="M237.286 387.519C239.614 387.074 242.22 386.426 245.126 385.609C242.619 371.754 239.812 358.068 237.004 344.381C236.573 344.334 236.142 344.288 235.711 344.241C234.855 351.962 233.999 359.682 233.065 368.101C230.083 361.803 227.214 355.745 224.345 349.687C224.02 349.721 223.695 349.755 223.37 349.789C223.788 353.946 223.652 358.255 224.74 362.229C227.034 370.609 230.188 378.682 236.861 384.811C237.404 385.31 237.343 386.466 237.286 387.519Z" fill="url(#paint7_linear_1429_1290)"/>
<path d="M202.91 382.71C201.126 373.287 199.177 363.963 197.194 354.646C196.892 353.228 196.434 351.842 195.968 350.15C193.241 352.349 193.798 355.116 193.563 357.571C193.33 360.016 193.41 362.49 192.773 365.134C190.65 360.573 188.526 356.012 186.402 351.451C186.218 351.456 186.034 351.461 185.85 351.467C185.983 353.662 185.971 355.878 186.274 358.05C187.39 366.031 190.909 372.913 196.433 378.691C198.038 380.37 200.31 381.411 202.155 382.981C202.267 383.081 202.501 382.946 202.91 382.71Z" fill="url(#paint8_linear_1429_1290)"/>
<path d="M202.335 384.986C204.664 384.541 207.269 383.893 210.176 383.076C207.669 369.221 204.862 355.534 202.054 341.848C201.623 341.801 201.192 341.755 200.76 341.708C199.904 349.428 199.049 357.149 198.115 365.567C195.133 359.27 192.264 353.212 189.395 347.154C189.07 347.188 188.745 347.222 188.42 347.256C188.838 351.413 188.702 355.722 189.79 359.695C192.084 368.075 195.238 376.148 201.911 382.278C202.454 382.777 202.393 383.932 202.335 384.986Z" fill="url(#paint9_linear_1429_1290)" fill-opacity="0.8"/>
<path d="M209.934 401.41C207.454 388.315 204.745 375.358 201.99 362.411C201.57 360.44 200.934 358.515 200.287 356.163C196.497 359.22 197.271 363.065 196.945 366.476C196.62 369.873 196.731 373.311 195.847 376.986C192.895 370.648 189.944 364.309 186.993 357.971C186.737 357.978 186.481 357.985 186.225 357.993C186.41 361.044 186.393 364.123 186.815 367.141C188.366 378.232 193.256 387.795 200.932 395.825C203.163 398.158 206.32 399.606 208.884 401.786C209.04 401.926 209.365 401.738 209.934 401.41Z" fill="#00592E"/>
<path d="M207.38 392.519C209.709 392.074 212.314 391.426 215.22 390.609C212.714 376.754 209.906 363.068 207.099 349.381C206.668 349.334 206.237 349.288 205.805 349.241C204.949 356.962 204.093 364.682 203.16 373.101C200.178 366.803 197.309 360.745 194.44 354.687C194.115 354.721 193.79 354.755 193.465 354.789C193.883 358.946 193.747 363.255 194.835 367.229C197.129 375.609 200.283 383.682 206.956 389.811C207.498 390.31 207.438 391.466 207.38 392.519Z" fill="url(#paint10_linear_1429_1290)" fill-opacity="0.8"/>
<path d="M191.91 387.71C190.126 378.287 188.177 368.963 186.194 359.646C185.892 358.228 185.434 356.842 184.968 355.15C182.241 357.349 182.798 360.116 182.563 362.571C182.33 365.016 182.41 367.49 181.773 370.134C179.65 365.573 177.526 361.012 175.402 356.451C175.218 356.456 175.034 356.461 174.85 356.467C174.983 358.662 174.971 360.878 175.274 363.05C176.39 371.031 179.909 377.913 185.433 383.691C187.038 385.37 189.31 386.411 191.155 387.981C191.267 388.081 191.501 387.946 191.91 387.71Z" fill="#00592E"/>
<path d="M191.335 389.986C193.664 389.541 196.269 388.893 199.176 388.076C196.669 374.221 193.862 360.534 191.054 346.848C190.623 346.801 190.192 346.755 189.76 346.708C188.904 354.428 188.049 362.149 187.115 370.567C184.133 364.27 181.264 358.212 178.395 352.154C178.07 352.188 177.745 352.222 177.42 352.256C177.838 356.413 177.702 360.722 178.79 364.695C181.084 373.075 184.238 381.148 190.911 387.278C191.454 387.777 191.393 388.932 191.335 389.986Z" fill="url(#paint11_linear_1429_1290)" fill-opacity="0.8"/>
<path d="M194.934 409.41C192.454 396.315 189.745 383.358 186.99 370.411C186.57 368.44 185.934 366.515 185.287 364.163C181.497 367.22 182.271 371.065 181.945 374.476C181.62 377.873 181.731 381.311 180.847 384.986C177.895 378.648 174.944 372.309 171.993 365.971C171.737 365.978 171.481 365.985 171.225 365.993C171.41 369.044 171.393 372.123 171.815 375.141C173.366 386.232 178.256 395.795 185.932 403.825C188.163 406.158 191.32 407.606 193.884 409.786C194.04 409.926 194.365 409.738 194.934 409.41Z" fill="url(#paint12_linear_1429_1290)"/>
<path d="M192.38 400.519C194.709 400.074 197.314 399.426 200.22 398.609C197.714 384.754 194.906 371.068 192.099 357.381C191.668 357.334 191.237 357.288 190.805 357.241C189.949 364.962 189.093 372.682 188.16 381.101C185.178 374.803 182.309 368.745 179.44 362.687C179.115 362.721 178.79 362.755 178.465 362.789C178.883 366.946 178.747 371.255 179.835 375.229C182.129 383.609 185.283 391.682 191.956 397.811C192.498 398.31 192.438 399.466 192.38 400.519Z" fill="url(#paint13_linear_1429_1290)"/>
<path d="M176.91 395.954C175.126 386.531 173.177 377.207 171.194 367.89C170.892 366.472 170.434 365.086 169.968 363.394C167.241 365.594 167.798 368.36 167.563 370.815C167.33 373.26 167.41 375.734 166.773 378.378C164.65 373.817 162.526 369.256 160.402 364.695C160.218 364.7 160.034 364.705 159.85 364.711C159.983 366.906 159.971 369.122 160.274 371.294C161.39 379.275 164.909 386.157 170.433 391.935C172.038 393.614 174.31 394.656 176.155 396.225C176.267 396.325 176.501 396.19 176.91 395.954Z" fill="url(#paint14_linear_1429_1290)"/>
<path d="M176.335 397.986C178.664 397.541 181.269 396.893 184.176 396.076C181.669 382.221 178.862 368.534 176.054 354.848C175.623 354.801 175.192 354.755 174.76 354.708C173.904 362.428 173.049 370.149 172.115 378.567C169.133 372.27 166.264 366.212 163.395 360.154C163.07 360.188 162.745 360.222 162.42 360.256C162.838 364.413 162.702 368.722 163.79 372.695C166.084 381.075 169.238 389.148 175.911 395.278C176.454 395.777 176.393 396.932 176.335 397.986Z" fill="url(#paint15_linear_1429_1290)" fill-opacity="0.8"/>
<path d="M341.187 389.801C344.124 374.295 347.331 358.951 350.594 343.619C351.091 341.284 351.844 339.004 352.611 336.22C357.099 339.839 356.182 344.392 356.569 348.432C356.954 352.455 356.821 356.527 357.869 360.878C361.364 353.372 364.859 345.866 368.353 338.36C368.657 338.369 368.96 338.377 369.263 338.386C369.044 341.999 369.064 345.646 368.564 349.22C366.728 362.353 360.937 373.679 351.847 383.188C349.205 385.951 345.466 387.665 342.43 390.247C342.245 390.412 341.86 390.19 341.187 389.801Z" fill="url(#paint16_linear_1429_1290)"/>
<path d="M344.212 379.273C341.455 378.746 338.369 377.978 334.928 377.011C337.896 360.604 341.221 344.396 344.545 328.188C345.056 328.133 345.567 328.078 346.077 328.023C347.091 337.165 348.105 346.308 349.21 356.277C352.741 348.82 356.139 341.646 359.537 334.471C359.921 334.512 360.306 334.552 360.691 334.592C360.196 339.515 360.357 344.618 359.069 349.323C356.352 359.247 352.617 368.808 344.715 376.066C344.072 376.657 344.144 378.025 344.212 379.273Z" fill="url(#paint17_linear_1429_1290)" fill-opacity="0.8"/>
<path d="M362.53 373.577C364.643 362.418 366.951 351.377 369.299 340.344C369.657 338.664 370.199 337.023 370.751 335.019C373.98 337.624 373.32 340.901 373.599 343.808C373.876 346.702 373.78 349.633 374.534 352.764C377.049 347.363 379.564 341.961 382.079 336.56C382.297 336.566 382.515 336.572 382.733 336.578C382.576 339.179 382.59 341.803 382.231 344.375C380.909 353.825 376.742 361.975 370.201 368.818C368.3 370.806 365.609 372.04 363.425 373.898C363.292 374.017 363.015 373.857 362.53 373.577Z" fill="url(#paint18_linear_1429_1290)"/>
<path d="M363.212 376.273C360.455 375.746 357.369 374.978 353.928 374.011C356.896 357.604 360.221 341.396 363.545 325.188C364.056 325.133 364.567 325.078 365.077 325.023C366.091 334.165 367.105 343.308 368.21 353.277C371.741 345.82 375.139 338.646 378.537 331.471C378.921 331.512 379.306 331.552 379.691 331.592C379.196 336.515 379.357 341.618 378.069 346.323C375.352 356.247 371.617 365.808 363.715 373.066C363.072 373.657 363.144 375.025 363.212 376.273Z" fill="url(#paint19_linear_1429_1290)" fill-opacity="0.8"/>
<path d="M403.187 401.801C406.124 386.295 409.331 370.951 412.594 355.619C413.091 353.284 413.844 351.004 414.611 348.22C419.099 351.839 418.182 356.392 418.569 360.432C418.954 364.455 418.821 368.527 419.869 372.878C423.364 365.372 426.859 357.866 430.353 350.36C430.657 350.369 430.96 350.377 431.263 350.386C431.044 353.999 431.064 357.646 430.564 361.22C428.728 374.353 422.937 385.679 413.847 395.188C411.205 397.951 407.466 399.665 404.43 402.247C404.245 402.412 403.86 402.19 403.187 401.801Z" fill="#00592E"/>
<path d="M406.212 391.273C403.455 390.746 400.369 389.978 396.928 389.011C399.896 372.604 403.221 356.396 406.545 340.188C407.056 340.133 407.567 340.078 408.077 340.023C409.091 349.165 410.105 358.308 411.21 368.277C414.741 360.82 418.139 353.646 421.537 346.471C421.921 346.512 422.306 346.552 422.691 346.592C422.196 351.515 422.357 356.618 421.069 361.323C418.352 371.247 414.617 380.808 406.715 388.066C406.072 388.657 406.144 390.025 406.212 391.273Z" fill="url(#paint20_linear_1429_1290)" fill-opacity="0.8"/>
<path d="M424.531 385.577C426.644 374.418 428.952 363.377 431.3 352.344C431.658 350.664 432.2 349.023 432.752 347.019C435.981 349.624 435.321 352.901 435.6 355.808C435.877 358.702 435.781 361.633 436.535 364.764C439.05 359.363 441.565 353.961 444.08 348.56C444.298 348.566 444.516 348.572 444.734 348.578C444.577 351.179 444.591 353.803 444.232 356.375C442.91 365.825 438.743 373.975 432.202 380.818C430.301 382.806 427.61 384.04 425.426 385.898C425.292 386.017 425.016 385.857 424.531 385.577Z" fill="url(#paint21_linear_1429_1290)"/>
<path d="M425.212 388.273C422.455 387.746 419.369 386.978 415.928 386.011C418.896 369.604 422.221 353.396 425.545 337.188C426.056 337.133 426.567 337.078 427.077 337.023C428.091 346.165 429.105 355.308 430.21 365.277C433.741 357.82 437.139 350.646 440.537 343.471C440.921 343.512 441.306 343.552 441.691 343.592C441.196 348.515 441.357 353.618 440.069 358.323C437.352 368.247 433.617 377.808 425.715 385.066C425.072 385.657 425.144 387.025 425.212 388.273Z" fill="url(#paint22_linear_1429_1290)" fill-opacity="0.8"/>
<path d="M425.187 408.801C428.124 393.295 431.331 377.951 434.594 362.619C435.091 360.284 435.844 358.004 436.611 355.22C441.099 358.839 440.182 363.392 440.569 367.432C440.954 371.455 440.821 375.527 441.869 379.878C445.364 372.372 448.859 364.866 452.353 357.36C452.657 357.369 452.96 357.377 453.263 357.386C453.044 360.999 453.064 364.646 452.564 368.22C450.728 381.353 444.937 392.679 435.847 402.188C433.205 404.951 429.466 406.665 426.43 409.247C426.245 409.412 425.86 409.19 425.187 408.801Z" fill="#00592E"/>
<path d="M428.212 398.273C425.455 397.746 422.369 396.978 418.928 396.011C421.896 379.604 425.221 363.396 428.545 347.188C429.056 347.133 429.567 347.078 430.077 347.023C431.091 356.165 432.105 365.308 433.21 375.277C436.741 367.82 440.139 360.646 443.537 353.471C443.921 353.512 444.306 353.552 444.691 353.592C444.196 358.515 444.357 363.618 443.069 368.323C440.352 378.247 436.617 387.808 428.715 395.066C428.072 395.657 428.144 397.025 428.212 398.273Z" fill="url(#paint23_linear_1429_1290)" fill-opacity="0.8"/>
<path d="M446.531 392.577C448.644 381.418 450.952 370.377 453.3 359.344C453.658 357.664 454.2 356.023 454.752 354.019C457.981 356.624 457.321 359.901 457.6 362.808C457.877 365.702 457.781 368.633 458.535 371.764C461.05 366.363 463.565 360.961 466.08 355.56C466.298 355.566 466.516 355.572 466.734 355.578C466.577 358.179 466.591 360.803 466.232 363.375C464.91 372.825 460.743 380.975 454.202 387.818C452.301 389.806 449.61 391.04 447.426 392.898C447.292 393.017 447.016 392.857 446.531 392.577Z" fill="url(#paint24_linear_1429_1290)"/>
<path d="M447.212 395.273C444.455 394.746 441.369 393.978 437.928 393.011C440.896 376.604 444.221 360.396 447.545 344.188C448.056 344.133 448.567 344.078 449.077 344.023C450.091 353.165 451.105 362.308 452.21 372.277C455.741 364.82 459.139 357.646 462.537 350.471C462.921 350.512 463.306 350.552 463.691 350.592C463.196 355.515 463.357 360.618 462.069 365.323C459.352 375.247 455.617 384.808 447.715 392.066C447.072 392.657 447.144 394.025 447.212 395.273Z" fill="url(#paint25_linear_1429_1290)" fill-opacity="0.8"/>
<path d="M431.187 419.801C434.124 404.295 437.331 388.951 440.594 373.619C441.091 371.284 441.844 369.004 442.611 366.22C447.099 369.839 446.182 374.392 446.569 378.432C446.954 382.455 446.821 386.527 447.869 390.878C451.364 383.372 454.859 375.866 458.353 368.36C458.657 368.369 458.96 368.377 459.263 368.386C459.044 371.999 459.064 375.646 458.564 379.22C456.728 392.353 450.937 403.679 441.847 413.188C439.205 415.951 435.466 417.665 432.43 420.247C432.245 420.412 431.86 420.19 431.187 419.801Z" fill="#E2E2E2"/>
<path d="M434.212 409.273C431.455 408.746 428.369 407.978 424.928 407.011C427.896 390.604 431.221 374.396 434.545 358.188C435.056 358.133 435.567 358.078 436.077 358.023C437.091 367.165 438.105 376.308 439.21 386.277C442.741 378.82 446.139 371.646 449.537 364.471C449.921 364.512 450.306 364.552 450.691 364.592C450.196 369.515 450.357 374.618 449.069 379.323C446.352 389.247 442.617 398.808 434.715 406.066C434.072 406.657 434.144 408.025 434.212 409.273Z" fill="#00592E"/>
<path d="M452.531 403.577C454.644 392.418 456.952 381.377 459.3 370.344C459.658 368.664 460.2 367.023 460.752 365.019C463.981 367.624 463.321 370.901 463.6 373.808C463.877 376.702 463.781 379.633 464.535 382.764C467.05 377.363 469.565 371.961 472.08 366.56C472.298 366.566 472.516 366.572 472.734 366.578C472.577 369.179 472.591 371.803 472.232 374.375C470.91 383.825 466.743 391.975 460.202 398.818C458.301 400.806 455.61 402.04 453.426 403.898C453.292 404.017 453.016 403.857 452.531 403.577Z" fill="url(#paint26_linear_1429_1290)"/>
<path d="M453.212 406.273C450.455 405.746 447.369 404.978 443.928 404.011C446.896 387.604 450.221 371.396 453.545 355.188C454.056 355.133 454.567 355.078 455.077 355.023C456.091 364.165 457.105 373.308 458.21 383.277C461.741 375.82 465.139 368.646 468.537 361.471C468.921 361.512 469.306 361.552 469.691 361.592C469.196 366.515 469.357 371.618 468.069 376.323C465.352 386.247 461.617 395.808 453.715 403.066C453.072 403.657 453.144 405.025 453.212 406.273Z" fill="url(#paint27_linear_1429_1290)" fill-opacity="0.8"/>
<path d="M204.531 1C205.473 1.66527 205.822 2.75134 206.438 2.93377C219.179 6.70601 228.462 14.9495 235.205 25.9852C237.73 30.118 238.927 35.1211 240.392 39.8325C248.266 65.1566 256.053 90.5078 263.832 115.861C275.297 153.224 286.748 190.59 298.166 227.967C302.423 241.904 299.312 254.369 289.416 264.748C279.422 275.23 266.808 278.318 252.894 274.707C240.137 271.397 232.341 262.478 227.124 250.696C201.808 193.518 176.246 136.449 151.076 79.2079C147.524 71.1294 144.44 62.4816 143.234 53.8062C140.193 31.9367 154.842 11.3821 174.238 4.02231C175.828 3.41905 177.248 2.36782 178.373 1.26237C186.688 0.999999 195.375 0.999999 204.531 1Z" fill="#00BF63" fill-opacity="0.9"/>
<path d="M346.071 350.976C357.724 351.012 369.378 351.047 381.45 351.353C381.867 351.624 382.035 352.014 381.947 352.416C381.89 353.63 381.922 354.441 382.104 355.616C383.626 356.32 384.996 356.943 386.371 356.955C396.172 357.04 405.974 357.037 415.775 356.96C417.18 356.949 418.582 356.392 420.399 356.029C422.579 356.299 424.357 356.572 426.108 356.966C439.988 360.086 453.723 363.54 465.428 372.294C476.112 380.285 480.021 396.358 470.555 407.106C469.147 408.388 468.045 409.545 466.58 410.785C457.158 413.329 448.093 415.764 439.05 418.277C437.648 418.667 436.348 419.417 435 420C433.934 420 432.867 420 431.172 419.888C430.528 419.449 430.511 419.121 430.511 419.129C430.437 419.255 430.219 419.628 430 420C428.934 420 427.867 420 426.258 419.621C424.906 418.825 424.097 418.049 423.285 418.045C409.004 417.982 394.722 417.967 380.441 418.108C379.288 418.119 378.147 419.341 377 420C374.63 420 372.259 420 369.355 419.596C367.482 418.461 366.166 417.152 364.8 417.098C358.718 416.861 352.62 416.898 346.531 417.027C344.673 417.067 342.828 417.72 340.513 418.089C335.699 418.055 331.349 418.025 326.767 417.727C325.025 417.638 323.513 417.816 321.573 417.999C319.429 418.001 317.714 417.998 315.768 417.728C314.025 417.639 312.514 417.817 310.542 418.08C305.732 418.146 301.381 418.127 296.753 417.787C288.404 417.316 280.331 417.05 272.263 417.151C271.164 417.164 270.087 419.005 269 420C266.63 420 264.259 420 261.299 419.625C259.894 418.836 259.08 418.065 258.262 418.061C245.154 417.992 232.045 417.979 218.938 418.114C217.952 418.124 216.979 419.343 216 420C215.556 420 215.111 420 214.244 419.609C210.641 418.661 207.461 418.102 203.69 417.44C204.451 418.926 204.726 419.463 205 420C202.959 420 200.917 420 198.438 420C197.091 419.409 196.255 418.516 195.262 418.276C188.985 416.759 182.507 415.882 176.414 413.844C168.088 411.059 161.975 405.746 160.949 396.258C159.87 386.275 163.56 378.094 171.615 372.582C177.69 368.424 184.689 365.615 192.033 362.094C195.845 361.104 198.901 360.227 201.957 359.349C211.938 357.735 221.916 356.105 231.901 354.513C237.311 353.65 242.731 352.853 248.759 352.271C249.901 352.704 250.429 352.891 251.011 353.428C254.925 358.91 258.176 364.678 262.751 369.065C284.235 389.667 319.459 386.349 337.29 363.432C340.406 359.427 343.153 355.135 346.071 350.976Z" fill="#C8C8C8"/>
<path d="M466.943 410.701C468.045 409.544 469.147 408.388 470.985 407.116C476.57 406.656 481.419 406.312 486.713 405.997C491.017 406.006 494.877 405.986 498.737 405.967C499.498 407.11 500.8 408.201 500.916 409.406C501.224 412.601 501.019 415.845 501.009 419.535C489.312 420 477.625 420 465.466 419.591C465.644 416.355 466.293 413.528 466.943 410.701Z" fill="#302F42"/>
<path d="M377.469 420C378.147 419.341 379.288 418.119 380.441 418.108C394.721 417.967 409.004 417.982 423.285 418.046C424.097 418.049 424.906 418.826 425.858 419.621C409.979 420 393.958 420 377.469 420Z" fill="#E3E3E3"/>
<path d="M216.469 420C216.979 419.343 217.952 418.124 218.937 418.114C232.044 417.98 245.153 417.993 258.261 418.061C259.079 418.065 259.893 418.836 260.855 419.625C246.313 420 231.625 420 216.469 420Z" fill="#E2E2E2"/>
<path d="M356.464 420C355.254 419.439 354.521 418.418 353.758 418.394C349.794 418.271 345.823 418.402 341.416 418.268C342.828 417.72 344.673 417.066 346.531 417.027C352.62 416.897 358.718 416.861 364.8 417.098C366.166 417.152 367.482 418.461 368.911 419.596C364.976 420 360.951 420 356.464 420Z" fill="#D4D4D4"/>
<path d="M296.752 417.787C291.846 418.482 286.662 418.854 281.739 419.614C277.975 420 273.951 420 269.463 420C270.087 419.006 271.163 417.165 272.262 417.151C280.331 417.051 288.404 417.316 296.752 417.787Z" fill="#D4D4D4"/>
<path d="M205.45 420C204.726 419.463 204.451 418.927 203.69 417.44C207.462 418.103 210.641 418.661 213.911 419.61C211.3 420 208.6 420 205.45 420Z" fill="#E2E2E2"/>
<path d="M326.767 417.728C326.755 418.506 326.512 419.018 326.634 419.765C325.611 420 324.222 420 322.783 419.765C322.489 419.018 322.245 418.506 322.002 417.995C323.513 417.817 325.025 417.639 326.767 417.728Z" fill="#D4D4D4"/>
<path d="M311.417 420C311.17 419.563 311.34 419.127 311.256 418.343C312.514 417.817 314.025 417.639 315.514 418.075C315.661 419.127 315.831 419.563 316 420C314.611 420 313.223 420 311.417 420Z" fill="#D4D4D4"/>
<path d="M464.967 239.059C463.678 238.957 462.39 238.855 460.185 238.68C461.055 228.524 461.765 218.529 462.796 208.567C464.52 191.906 466.509 175.273 468.219 158.611C468.441 156.442 467.986 154.069 467.308 151.963C462.488 136.989 457.099 122.181 452.816 107.059C451.016 100.704 451.093 93.7183 450.995 87.0093C450.914 81.4775 453.903 76.8877 458.855 74.6231C464.975 71.8249 471.387 69.4087 477.914 67.8216C486.864 65.6453 496.035 64.3692 505.127 62.7994C506.4 62.5795 507.764 62.8825 509.516 63.3752C509.609 64.5068 509.273 65.2066 508.483 65.9701C502.955 66.615 497.589 66.3432 492.865 67.954C482.9 71.3517 475.02 78.2771 467.932 85.8254C462.302 91.8216 464.233 97.5806 472.128 100.445C472.637 111.07 477.311 118.297 487.079 121.982C488.093 122.365 488.931 123.217 489.851 123.851C492.835 131.38 492.825 131.275 501.299 130.416C505.645 129.976 510.056 129.672 514.399 129.935C516.36 130.054 518.489 131.396 520.086 132.729C524.252 136.209 527.878 140.391 532.254 143.554C538.148 147.816 541.057 153.767 541.656 160.396C544.188 188.429 546.289 216.502 548.317 244.578C548.532 247.555 547.238 250.641 545.912 253.856C540.773 254.714 536.365 255.392 531.958 256.07C528.992 256.926 527.902 255.424 527.206 252.742C524.539 242.466 521.704 232.234 518.915 221.99C518.585 220.777 518.155 219.59 517.772 218.391C517.282 218.433 516.793 218.474 516.304 218.515C516.304 225.881 516.304 233.248 515.982 240.945C508.51 241.369 501.342 241.821 494.215 241.468C484.449 240.985 474.715 239.891 464.967 239.059Z" fill="#CCCCCC"/>
<path d="M464.829 238.366C474.715 238.891 484.45 239.985 494.215 240.468C501.343 240.821 508.511 240.369 515.967 240.452C516.516 249.737 517.421 258.895 516.772 267.941C516.335 274.027 514.867 280.66 511.771 285.787C507.253 293.268 505.491 301.235 505.17 309.382C504.089 336.897 503.676 364.439 503.026 391.971C502.967 394.439 503.595 397.287 498.78 397.102C493.94 398.113 489.908 399.058 485.491 400.034C483.676 400.316 482.246 400.566 480.526 400.866C479.991 396.838 479.497 393.095 478.996 389.353C476.774 372.763 474.542 356.175 472.331 339.585C470.536 326.115 468.261 312.685 467.144 299.159C466.261 288.456 464.551 279.171 451.893 276.932C451.734 276.904 451.589 276.8 451.437 276.731C443.145 272.988 434.854 269.245 426.593 265.516C424 285.928 421.565 305.989 418.798 326.004C418.322 329.448 416.433 332.696 414.755 336.026C410.247 335.361 406.18 334.706 402.114 334.051C394.522 332.798 394.295 332.32 394.976 325.141C396.352 310.628 397.695 296.107 398.716 281.565C399.201 274.658 399.347 267.669 398.899 260.766C397.438 238.294 413.323 232.452 430.05 234.436C439.359 235.541 448.504 238.344 457.583 240.881C460.869 241.799 462.935 241.41 464.829 238.366Z" fill="#2F2E41"/>
<path d="M472.072 100.044C464.233 97.5807 462.302 91.8217 467.933 85.8254C475.02 78.2772 482.9 71.3518 492.865 67.9541C497.59 66.3433 502.956 66.615 508.863 66.0049C511.943 66.8827 514.502 67.3756 516.373 68.7835C520.114 71.5993 523.477 74.9162 526.996 78.0262C529.194 82.1085 531.699 86.0584 533.527 90.2998C537.796 100.202 532.407 117.565 523.264 123.273C520.972 124.703 518.069 125.478 515.351 125.838C509.138 126.66 502.866 127.039 496.671 127.594C496.506 126.28 496.356 125.081 496.417 123.54C500.905 117.815 496.961 105.102 489.855 103.06C484.113 101.409 478.013 101.002 472.072 100.044Z" fill="#2F2E41"/>
<path d="M472.128 100.444C478.012 101.002 484.112 101.409 489.854 103.059C496.96 105.102 500.904 117.814 496.24 123.285C493.974 123.379 492.094 123.383 490.033 123.619C488.931 123.216 488.093 122.364 487.079 121.982C477.311 118.296 472.637 111.07 472.128 100.444Z" fill="#9F616A"/>
<path d="M382.136 352.658C382.136 352.658 381.967 352.207 382.006 351.966C384.038 344.222 388.282 340.411 395.152 340.059C397.486 339.939 399.827 340.003 402.953 340.237C407.671 340.287 411.6 340.082 415.913 340.031C416.686 345.119 417.075 350.052 416.988 354.981C406.985 354.969 397.456 355.087 387.934 354.851C385.988 354.802 384.068 353.424 382.136 352.658Z" fill="#2F2E41"/>
<path d="M532.08 256.429C536.365 255.392 540.772 254.713 545.581 254.038C547.075 259.524 547.635 265.053 551.685 269.634C554.264 272.551 553.719 276.767 550.944 279.175C548.75 281.078 545.171 282.299 542.25 282.222C538.475 282.121 536.364 279.088 535.701 275.178C534.657 269.028 533.38 262.917 532.08 256.429Z" fill="#A1616A"/>
<path d="M527.29 77.8486C523.477 74.9165 520.114 71.5995 516.373 68.7838C514.503 67.3758 511.943 66.8829 509.316 65.9415C509.274 65.2069 509.61 64.5071 509.966 63.5122C512.181 62.8093 514.721 62.9709 516.512 61.8901C522.606 58.2113 528.145 58.5057 531.404 63.2074C534.691 67.95 533.206 73.569 527.29 77.8486Z" fill="#A1616A"/>
<path d="M485.876 401.002C489.908 400.057 493.94 399.112 498.341 398.12C498.726 400.411 498.741 402.75 498.747 405.527C494.877 405.986 491.017 406.006 486.658 405.585C486.064 403.764 485.97 402.383 485.876 401.002Z" fill="#A3636B"/>
<path d="M415.113 339.952C411.221 340.129 407.329 340.307 403.098 340.237C402.541 338.265 402.323 336.541 402.109 334.434C406.181 334.706 410.248 335.361 414.722 336.415C415.125 337.86 415.119 338.906 415.113 339.952Z" fill="#9F616A"/>
<path d="M417.011 354.963C417.799 355.273 418.588 355.583 419.681 355.991C418.582 356.392 417.18 356.949 415.774 356.96C405.973 357.037 396.171 357.04 386.37 356.955C384.995 356.943 383.625 356.32 382.575 355.611C394.269 355.149 405.64 355.056 417.011 354.963Z" fill="#D4D4D4"/>
<path d="M417.017 354.729C405.64 355.056 394.268 355.149 382.426 355.247C381.922 354.441 381.89 353.63 381.946 352.416C383.948 352.676 385.85 353.869 387.777 353.911C397.21 354.116 406.649 354.014 416.558 354.024C417.029 354.027 417.023 354.495 417.017 354.729Z" fill="#16152B"/>
<path d="M344.338 331.643C344.338 359.136 322.069 381.422 294.6 381.422C267.13 381.422 244.861 359.136 244.861 331.643C244.861 304.151 267.13 281.864 294.6 281.864C322.069 281.864 344.338 304.151 344.338 331.643Z" fill="white" stroke="black"/>
<path d="M318.193 301.695L315.217 286.339C323.617 290.175 330.758 296.281 335.867 303.875L318.193 301.695Z" fill="url(#paint28_linear_1429_1290)" stroke="black"/>
<path d="M344.338 331.642C344.338 341.43 341.51 350.552 336.635 358.249L330.481 339.475L344.278 329.382C344.315 330.133 344.338 330.885 344.338 331.642Z" fill="url(#paint29_linear_1429_1290)" stroke="black"/>
<path d="M279.066 378.933L294.966 366.815L311.674 378.396C306.347 380.347 300.6 381.422 294.599 381.422C289.173 381.422 283.955 380.543 279.066 378.933Z" fill="url(#paint30_linear_1429_1290)" stroke="black"/>
<path opacity="0.3" d="M331.665 317.694C331.665 308.222 329.068 299.361 324.556 291.772C336.853 300.835 344.834 315.419 344.834 331.874C344.834 359.367 322.565 381.653 295.095 381.653C278.656 381.653 264.084 373.665 255.028 361.357C262.609 365.874 271.464 368.473 280.926 368.473C308.949 368.473 331.665 345.738 331.665 317.694Z" fill="#010202" stroke="black"/>
<mask id="mask0_1429_1290" style="mask-type:luminance" maskUnits="userSpaceOnUse" x="242" y="279" width="106" height="106">
<path d="M346.698 279.5V383.784H242.5V279.5H346.698Z" fill="#2E2E30" stroke="black"/>
</mask>
<g mask="url(#mask0_1429_1290)">
<path d="M294.6 283.227C267.923 283.227 246.223 304.945 246.223 331.642C246.223 358.338 267.923 380.058 294.6 380.058C321.276 380.058 342.975 358.338 342.975 331.642C342.975 304.945 321.276 283.227 294.6 283.227ZM294.6 383.785C265.873 383.785 242.5 360.392 242.5 331.642C242.5 302.891 265.873 279.5 294.6 279.5C323.327 279.5 346.698 302.891 346.698 331.642C346.698 360.392 323.327 383.785 294.6 383.785Z" fill="#2E2E30" stroke="black"/>
</g>
<path d="M294.599 349.695L275.569 335.859L282.839 313.469H306.36L313.629 335.859L294.599 349.695Z" fill="url(#paint31_linear_1429_1290)" stroke="black"/>
<path d="M293.504 351.824C293.831 352.06 294.216 352.179 294.599 352.179C294.983 352.179 295.366 352.06 295.693 351.824H293.504ZM293.504 351.824L293.503 351.823M293.504 351.824L293.503 351.823M293.503 351.823L273.887 337.559C273.235 337.084 272.962 336.243 273.212 335.473C273.212 335.473 273.212 335.473 273.212 335.473L280.702 312.395C280.702 312.395 280.702 312.395 280.702 312.395C280.953 311.626 281.669 311.107 282.473 311.107H306.723C307.529 311.107 308.244 311.627 308.494 312.394L315.987 335.473C316.236 336.242 315.963 337.082 315.311 337.559L293.503 351.823ZM277.283 334.993L277.17 335.338L277.464 335.552L294.305 347.797L294.599 348.011L294.893 347.797L311.735 335.552L312.028 335.338L311.916 334.993L305.484 315.18L305.371 314.834H305.008H284.189H283.826L283.714 315.18L277.283 334.993ZM315.31 337.559L295.694 351.823L315.31 337.559Z" fill="#2E2E30" stroke="black"/>
<path d="M273.241 300.901L254.232 302.569C259.872 294.738 267.725 288.615 276.879 285.121L273.241 300.901Z" fill="url(#paint32_linear_1429_1290)" stroke="black"/>
<path d="M274.729 288.386L274.961 287.381L274.028 287.822C267.929 290.707 262.429 294.89 257.994 300.009L257.186 300.943L258.416 300.835L271.774 299.664L272.136 299.632L272.218 299.278L274.729 288.386ZM251.596 304.102L251.595 304.101C251.232 303.478 251.261 302.7 251.67 302.106C257.91 293.042 266.649 286.29 276.943 282.579L276.943 282.579C277.583 282.347 278.3 282.484 278.81 282.937C279.319 283.391 279.541 284.086 279.389 284.751L275.461 301.788C275.278 302.576 274.611 303.155 273.809 303.226L253.366 305.019L253.365 305.019C253.31 305.024 253.256 305.027 253.204 305.027C252.545 305.027 251.929 304.676 251.596 304.102Z" fill="#2E2E30" stroke="black"/>
<path d="M336.652 306.353L336.655 306.353C336.732 306.363 336.808 306.368 336.881 306.368C337.516 306.368 338.113 306.043 338.457 305.496C338.84 304.883 338.836 304.104 338.447 303.497C332.815 294.727 324.807 287.911 315.285 283.783L315.285 283.783C314.652 283.507 313.92 283.607 313.379 284.04C312.842 284.472 312.586 285.168 312.718 285.848L336.652 306.353ZM336.652 306.353L317.545 303.996L317.544 303.996C316.745 303.898 316.099 303.295 315.945 302.502C315.945 302.502 315.945 302.501 315.945 302.501L312.718 285.848L336.652 306.353ZM319.272 300.106L319.341 300.463L319.702 300.507L331.741 301.992L332.968 302.143L332.191 301.181C328.267 296.324 323.464 292.29 318.009 289.271L317.072 288.753L317.276 289.803L319.272 300.106Z" fill="#2E2E30" stroke="black"/>
<path d="M276.18 379.395L276.18 379.396C276.286 380.074 276.756 380.637 277.403 380.864C282.939 382.802 288.725 383.786 294.6 383.786C301.067 383.786 307.396 382.601 313.415 380.267L313.415 380.266C314.056 380.018 314.509 379.433 314.59 378.749C314.671 378.064 314.368 377.391 313.802 376.997L276.18 379.395ZM276.18 379.395C276.072 378.719 276.344 378.038 276.89 377.621C276.89 377.621 276.89 377.621 276.89 377.621L293.823 364.714L293.823 364.714C294.463 364.224 295.345 364.205 296.011 364.665C296.011 364.665 296.011 364.665 296.011 364.665L313.801 376.996L276.18 379.395ZM282.84 377.772L282.01 378.404L283.024 378.655C291.086 380.645 299.675 380.508 307.654 378.266L308.676 377.979L307.803 377.374L295.302 368.706L295.003 368.499L294.714 368.72L282.84 377.772Z" fill="#2E2E30" stroke="black"/>
<path d="M252.564 358.249C247.689 350.552 244.861 341.43 244.861 331.642C244.861 330.885 244.883 330.132 244.92 329.381L258.718 339.475L252.564 358.249Z" fill="url(#paint33_linear_1429_1290)" stroke="black"/>
<mask id="mask1_1429_1290" style="mask-type:luminance" maskUnits="userSpaceOnUse" x="242" y="326" width="20" height="36">
<path d="M261.168 361.258H242.5V326.568H261.168V361.258Z" fill="#2E2E30" stroke="black"/>
</mask>
<g mask="url(#mask1_1429_1290)">
<path d="M257.724 342.535L257.512 342.8L257.68 343.095L258.288 344.159L259.165 345.693L254.483 359.976L254.483 359.977C254.262 360.653 253.673 361.143 252.967 361.242C252.878 361.252 252.793 361.258 252.715 361.258C252.097 361.258 251.511 360.95 251.164 360.425L251.164 360.425C245.495 351.879 242.5 341.926 242.5 331.639C242.5 330.525 242.548 329.421 242.617 328.317L242.617 328.317C242.659 327.638 243.069 327.035 243.685 326.746L243.685 326.746L243.686 326.745C244.296 326.456 245.023 326.525 245.57 326.927L245.57 326.927L245.571 326.928L260.405 337.779L260.405 337.78C261.057 338.255 261.327 339.097 261.075 339.864L261.075 339.864L259.222 345.516V343.911V342.087V340.661L258.332 341.774L257.724 342.535ZM247.039 332.616L246.215 332.013L246.244 333.033C246.452 340.363 248.3 347.48 251.652 353.931L252.201 354.986L252.571 353.856L257.005 340.335L257.118 339.99L256.825 339.775L247.039 332.616Z" fill="#2E2E30" stroke="#FF0505"/>
</g>
<mask id="path-75-inside-1_1429_1290" fill="white">
<path fill-rule="evenodd" clip-rule="evenodd" d="M282.475 312.969L274.151 302.052Z"/>
</mask>
<path fill-rule="evenodd" clip-rule="evenodd" d="M282.475 312.969L274.151 302.052Z" fill="white"/>
<path d="M283.27 312.363L274.947 301.445L273.356 302.658L281.68 313.575L283.27 312.363Z" fill="black" mask="url(#path-75-inside-1_1429_1290)"/>
<path d="M280.995 314.102L280.995 314.101L272.673 303.184L272.673 303.184C272.049 302.365 272.207 301.196 273.023 300.573C273.844 299.948 275.008 300.106 275.631 300.924L275.631 300.924L283.953 311.84L283.953 311.84C284.578 312.659 284.42 313.828 283.603 314.451L283.603 314.452C283.265 314.71 282.869 314.834 282.476 314.834C281.913 314.834 281.361 314.582 280.995 314.102Z" fill="#2E2E30" stroke="black"/>
<mask id="path-78-inside-2_1429_1290" fill="white">
<path fill-rule="evenodd" clip-rule="evenodd" d="M306.724 312.97L317.772 302.147Z"/>
</mask>
<path fill-rule="evenodd" clip-rule="evenodd" d="M306.724 312.97L317.772 302.147Z" fill="white"/>
<path d="M307.423 313.685L318.472 302.862L317.072 301.433L306.024 312.256L307.423 313.685Z" fill="black" mask="url(#path-78-inside-2_1429_1290)"/>
<path d="M305.394 314.274L305.394 314.273C304.675 313.539 304.686 312.359 305.422 311.639L305.422 311.638L316.471 300.816L316.472 300.815C317.203 300.096 318.382 300.107 319.103 300.843C319.821 301.578 319.809 302.758 319.073 303.477L319.072 303.478L308.025 314.302L308.025 314.302C307.664 314.656 307.195 314.834 306.724 314.834C306.239 314.834 305.759 314.648 305.394 314.274Z" fill="#2E2E30" stroke="black"/>
<mask id="path-81-inside-3_1429_1290" fill="white">
<path fill-rule="evenodd" clip-rule="evenodd" d="M274.982 336.05L259.308 339.285Z"/>
</mask>
<path fill-rule="evenodd" clip-rule="evenodd" d="M274.982 336.05L259.308 339.285Z" fill="white"/>
<path d="M274.779 335.07L259.106 338.305L259.51 340.264L275.184 337.029L274.779 335.07Z" fill="black" mask="url(#path-81-inside-3_1429_1290)"/>
<path d="M257.484 339.662L257.483 339.661C257.275 338.653 257.924 337.668 258.93 337.46L258.93 337.46L274.606 334.226L274.608 334.225C275.601 334.015 276.597 334.664 276.805 335.674L276.805 335.674C277.013 336.681 276.365 337.666 275.358 337.874L275.358 337.874L259.683 341.11C259.683 341.11 259.682 341.11 259.682 341.11C259.556 341.136 259.429 341.149 259.303 341.149C258.44 341.149 257.665 340.542 257.484 339.662Z" fill="#2E2E30" stroke="black"/>
<path d="M332.375 339.777L332.082 339.991L332.195 340.336L336.628 353.858L336.999 354.988L337.547 353.933C340.899 347.483 342.747 340.366 342.956 333.037L342.985 332.016L342.161 332.619L332.375 339.777ZM334.718 359.98L334.718 359.98L328.125 339.867L328.124 339.866C327.871 339.1 328.141 338.259 328.794 337.783L328.795 337.783L343.626 326.932L343.627 326.931C344.175 326.53 344.902 326.462 345.514 326.748C346.129 327.037 346.539 327.639 346.582 328.318C346.66 329.544 346.699 330.633 346.699 331.642C346.699 341.928 343.704 351.881 338.037 360.428L338.037 360.429C337.69 360.953 337.104 361.262 336.486 361.262C336.406 361.262 336.323 361.256 336.233 361.245C335.527 361.147 334.939 360.656 334.718 359.98Z" fill="#2E2E30" stroke="black"/>
<mask id="path-85-inside-4_1429_1290" fill="white">
<path fill-rule="evenodd" clip-rule="evenodd" d="M314.217 336.05L329.891 339.285Z"/>
</mask>
<path fill-rule="evenodd" clip-rule="evenodd" d="M314.217 336.05L329.891 339.285Z" fill="white"/>
<path d="M314.015 337.029L329.689 340.264L330.093 338.305L314.419 335.07L314.015 337.029Z" fill="black" mask="url(#path-85-inside-4_1429_1290)"/>
<path d="M313.842 337.873L313.841 337.873C312.835 337.666 312.186 336.681 312.395 335.674L312.395 335.673C312.602 334.664 313.596 334.016 314.592 334.225L314.594 334.225L330.268 337.46L330.268 337.46C331.274 337.667 331.923 338.652 331.715 339.661L331.715 339.661C331.533 340.542 330.758 341.148 329.895 341.148C329.769 341.148 329.642 341.136 329.516 341.11C329.516 341.11 329.516 341.11 329.515 341.11L313.842 337.873Z" fill="#2E2E30" stroke="black"/>
<mask id="path-88-inside-5_1429_1290" fill="white">
<path fill-rule="evenodd" clip-rule="evenodd" d="M294.601 350.315V366.196Z"/>
</mask>
<path fill-rule="evenodd" clip-rule="evenodd" d="M294.601 350.315V366.196Z" fill="white"/>
<path d="M293.601 350.315V366.196H295.601V350.315H293.601Z" fill="black" mask="url(#path-88-inside-5_1429_1290)"/>
<path d="M294.6 368.059C293.573 368.059 292.738 367.225 292.738 366.196V350.316C292.738 349.287 293.573 348.452 294.6 348.452C295.627 348.452 296.461 349.287 296.461 350.316V366.196C296.461 367.225 295.627 368.059 294.6 368.059Z" fill="#2E2E30" stroke="black"/>
</g>
<defs>
<linearGradient id="paint0_linear_1429_1290" x1="230.564" y1="342" x2="251.513" y2="378.285" gradientUnits="userSpaceOnUse">
<stop stop-color="#00BF63" stop-opacity="0.8"/>
<stop offset="1" stop-color="#7D7D7D"/>
</linearGradient>
<linearGradient id="paint1_linear_1429_1290" x1="214.519" y1="339.467" x2="235.468" y2="375.752" gradientUnits="userSpaceOnUse">
<stop stop-color="#00BF63"/>
<stop offset="1" stop-color="#00592E" stop-opacity="0.8"/>
</linearGradient>
<linearGradient id="paint2_linear_1429_1290" x1="199.524" y1="351.665" x2="224.252" y2="394.494" gradientUnits="userSpaceOnUse">
<stop stop-color="#00BF63" stop-opacity="0.8"/>
<stop offset="1" stop-color="#0053A0"/>
</linearGradient>
<linearGradient id="paint3_linear_1429_1290" x1="241.43" y1="345.665" x2="266.157" y2="388.494" gradientUnits="userSpaceOnUse">
<stop stop-color="#00BF63" stop-opacity="0.8"/>
<stop offset="1" stop-color="#0053A0"/>
</linearGradient>
<linearGradient id="paint4_linear_1429_1290" x1="249.469" y1="342" x2="270.418" y2="378.285" gradientUnits="userSpaceOnUse">
<stop stop-color="#00BF63"/>
<stop offset="1" stop-color="#00592E" stop-opacity="0.8"/>
</linearGradient>
<linearGradient id="paint5_linear_1429_1290" x1="229.409" y1="344.511" x2="247.203" y2="375.331" gradientUnits="userSpaceOnUse">
<stop stop-color="#00BF63" stop-opacity="0.8"/>
<stop offset="1" stop-color="#0053A0"/>
</linearGradient>
<linearGradient id="paint6_linear_1429_1290" x1="233.424" y1="339.467" x2="254.374" y2="375.752" gradientUnits="userSpaceOnUse">
<stop stop-color="#00BF63" stop-opacity="0.8"/>
<stop offset="1" stop-color="#7D7D7D"/>
</linearGradient>
<linearGradient id="paint7_linear_1429_1290" x1="226.469" y1="348" x2="247.418" y2="384.285" gradientUnits="userSpaceOnUse">
<stop stop-color="#00BF63" stop-opacity="0.8"/>
<stop offset="1" stop-color="#7D7D7D"/>
</linearGradient>
<linearGradient id="paint8_linear_1429_1290" x1="187.504" y1="350.511" x2="205.298" y2="381.331" gradientUnits="userSpaceOnUse">
<stop stop-color="#00BF63" stop-opacity="0.8"/>
<stop offset="1" stop-color="#0053A0"/>
</linearGradient>
<linearGradient id="paint9_linear_1429_1290" x1="191.519" y1="345.467" x2="212.468" y2="381.752" gradientUnits="userSpaceOnUse">
<stop stop-color="#00BF63"/>
<stop offset="1" stop-color="#00592E" stop-opacity="0.8"/>
</linearGradient>
<linearGradient id="paint10_linear_1429_1290" x1="196.564" y1="353" x2="217.513" y2="389.285" gradientUnits="userSpaceOnUse">
<stop stop-color="#00BF63"/>
<stop offset="1" stop-color="#00592E" stop-opacity="0.8"/>
</linearGradient>
<linearGradient id="paint11_linear_1429_1290" x1="180.519" y1="350.467" x2="201.468" y2="386.752" gradientUnits="userSpaceOnUse">
<stop stop-color="#00BF63"/>
<stop offset="1" stop-color="#00592E" stop-opacity="0.8"/>
</linearGradient>
<linearGradient id="paint12_linear_1429_1290" x1="173.524" y1="364.665" x2="198.252" y2="407.494" gradientUnits="userSpaceOnUse">
<stop stop-color="#00592E" stop-opacity="0.8"/>
<stop offset="1" stop-color="#7C7C7C"/>
</linearGradient>
<linearGradient id="paint13_linear_1429_1290" x1="181.564" y1="361" x2="202.513" y2="397.285" gradientUnits="userSpaceOnUse">
<stop stop-color="#00BF63" stop-opacity="0.8"/>
<stop offset="1" stop-color="#7D7D7D"/>
</linearGradient>
<linearGradient id="paint14_linear_1429_1290" x1="161.504" y1="363.755" x2="179.298" y2="394.575" gradientUnits="userSpaceOnUse">
<stop stop-color="#00BF63" stop-opacity="0.8"/>
<stop offset="1" stop-color="#0053A0"/>
</linearGradient>
<linearGradient id="paint15_linear_1429_1290" x1="165.519" y1="358.467" x2="186.468" y2="394.752" gradientUnits="userSpaceOnUse">
<stop stop-color="#00BF63"/>
<stop offset="1" stop-color="#00592E" stop-opacity="0.8"/>
</linearGradient>
<linearGradient id="paint16_linear_1429_1290" x1="366.54" y1="336.814" x2="337.258" y2="387.533" gradientUnits="userSpaceOnUse">
<stop stop-color="#00BF63" stop-opacity="0.8"/>
<stop offset="1" stop-color="#0053A0"/>
</linearGradient>
<linearGradient id="paint17_linear_1429_1290" x1="357.021" y1="332.474" x2="332.213" y2="375.444" gradientUnits="userSpaceOnUse">
<stop stop-color="#00BF63"/>
<stop offset="1" stop-color="#00592E" stop-opacity="0.8"/>
</linearGradient>
<linearGradient id="paint18_linear_1429_1290" x1="380.774" y1="335.447" x2="359.702" y2="371.944" gradientUnits="userSpaceOnUse">
<stop stop-color="#00BF63" stop-opacity="0.8"/>
<stop offset="1" stop-color="#0053A0"/>
</linearGradient>
<linearGradient id="paint19_linear_1429_1290" x1="376.021" y1="329.474" x2="351.213" y2="372.444" gradientUnits="userSpaceOnUse">
<stop stop-color="#00BF63"/>
<stop offset="1" stop-color="#00592E" stop-opacity="0.8"/>
</linearGradient>
<linearGradient id="paint20_linear_1429_1290" x1="419.021" y1="344.474" x2="394.213" y2="387.444" gradientUnits="userSpaceOnUse">
<stop stop-color="#00BF63"/>
<stop offset="1" stop-color="#00592E" stop-opacity="0.8"/>
</linearGradient>
<linearGradient id="paint21_linear_1429_1290" x1="442.775" y1="347.447" x2="421.703" y2="383.944" gradientUnits="userSpaceOnUse">
<stop stop-color="#00BF63" stop-opacity="0.8"/>
<stop offset="1" stop-color="#0053A0"/>
</linearGradient>
<linearGradient id="paint22_linear_1429_1290" x1="438.021" y1="341.474" x2="413.213" y2="384.444" gradientUnits="userSpaceOnUse">
<stop stop-color="#00BF63"/>
<stop offset="1" stop-color="#00592E" stop-opacity="0.8"/>
</linearGradient>
<linearGradient id="paint23_linear_1429_1290" x1="441.021" y1="351.474" x2="416.213" y2="394.444" gradientUnits="userSpaceOnUse">
<stop stop-color="#00BF63"/>
<stop offset="1" stop-color="#00592E" stop-opacity="0.8"/>
</linearGradient>
<linearGradient id="paint24_linear_1429_1290" x1="464.775" y1="354.447" x2="443.703" y2="390.944" gradientUnits="userSpaceOnUse">
<stop stop-color="#00BF63" stop-opacity="0.8"/>
<stop offset="1" stop-color="#0053A0"/>
</linearGradient>
<linearGradient id="paint25_linear_1429_1290" x1="460.021" y1="348.474" x2="435.213" y2="391.444" gradientUnits="userSpaceOnUse">
<stop stop-color="#00BF63"/>
<stop offset="1" stop-color="#00592E" stop-opacity="0.8"/>
</linearGradient>
<linearGradient id="paint26_linear_1429_1290" x1="470.775" y1="365.447" x2="449.703" y2="401.944" gradientUnits="userSpaceOnUse">
<stop stop-color="#00BF63" stop-opacity="0.8"/>
<stop offset="1" stop-color="#0053A0"/>
</linearGradient>
<linearGradient id="paint27_linear_1429_1290" x1="466.021" y1="359.474" x2="441.213" y2="402.444" gradientUnits="userSpaceOnUse">
<stop stop-color="#00BF63"/>
<stop offset="1" stop-color="#00592E" stop-opacity="0.8"/>
</linearGradient>
<linearGradient id="paint28_linear_1429_1290" x1="325.711" y1="285.492" x2="325.711" y2="304.503" gradientUnits="userSpaceOnUse">
<stop stop-color="#00BF63" stop-opacity="0.8"/>
<stop offset="1" stop-color="#0053A0"/>
</linearGradient>
<linearGradient id="paint29_linear_1429_1290" x1="337.365" y1="328.435" x2="337.365" y2="359.398" gradientUnits="userSpaceOnUse">
<stop stop-color="#00BF63" stop-opacity="0.8"/>
<stop offset="1" stop-color="#0053A0"/>
</linearGradient>
<linearGradient id="paint30_linear_1429_1290" x1="295.379" y1="366.197" x2="295.379" y2="381.922" gradientUnits="userSpaceOnUse">
<stop stop-color="#00BF63" stop-opacity="0.8"/>
<stop offset="1" stop-color="#0053A0"/>
</linearGradient>
<linearGradient id="paint31_linear_1429_1290" x1="294.599" y1="312.969" x2="294.599" y2="350.314" gradientUnits="userSpaceOnUse">
<stop stop-color="#00BF63" stop-opacity="0.8"/>
<stop offset="1" stop-color="#0053A0"/>
</linearGradient>
<linearGradient id="paint32_linear_1429_1290" x1="265.389" y1="284.329" x2="265.389" y2="303.161" gradientUnits="userSpaceOnUse">
<stop stop-color="#00BF63" stop-opacity="0.8"/>
<stop offset="1" stop-color="#0053A0"/>
</linearGradient>
<linearGradient id="paint33_linear_1429_1290" x1="251.834" y1="328.435" x2="251.834" y2="359.398" gradientUnits="userSpaceOnUse">
<stop stop-color="#00BF63" stop-opacity="0.8"/>
<stop offset="1" stop-color="#0053A0"/>
</linearGradient>
<clipPath id="clip0_1429_1290">
<rect width="647" height="419" fill="white"/>
</clipPath>
</defs>
</svg>
