<svg width="152" height="152" viewBox="0 0 152 152" fill="none" xmlns="http://www.w3.org/2000/svg">
<g opacity="0.4">
<path fill-rule="evenodd" clip-rule="evenodd" d="M75.9383 148.588C115.995 148.588 148.467 116.089 148.467 76C148.467 35.9107 115.995 3.41211 75.9383 3.41211C35.8815 3.41211 3.40918 35.9107 3.40918 76C3.40918 116.089 35.8815 148.588 75.9383 148.588Z" fill="white"/>
<path fill-rule="evenodd" clip-rule="evenodd" d="M104.733 9.37207L109.393 33.4156L136.978 36.8186C129.23 24.7513 118.018 15.1316 104.733 9.37207Z" fill="url(#paint0_linear_1291_2331)"/>
<path fill-rule="evenodd" clip-rule="evenodd" d="M136.408 116.071C144.022 104.586 148.466 90.8146 148.466 75.9994C148.466 74.4413 148.4 72.9013 148.305 71.3682L126.89 87.034L136.408 116.071Z" fill="url(#paint1_linear_1291_2331)"/>
<path fill-rule="evenodd" clip-rule="evenodd" d="M102.13 143.688L76.4472 125.886L51.998 144.52C59.4962 147.145 67.5467 148.587 75.938 148.587C85.1772 148.587 94.0027 146.84 102.13 143.688Z" fill="url(#paint2_linear_1291_2331)"/>
<path opacity="0.3" fill-rule="evenodd" clip-rule="evenodd" d="M116.678 15.8047C124.285 27.2874 128.727 41.0516 128.727 55.8621C128.727 95.9514 96.2543 128.45 56.1975 128.45C41.4012 128.45 27.6459 124.005 16.1748 116.39C29.1619 135.991 51.395 148.922 76.6532 148.922C116.71 148.922 149.182 116.424 149.182 76.3344C149.182 51.0534 136.263 28.8023 116.678 15.8047Z" fill="#010202"/>
<mask id="mask0_1291_2331" style="mask-type:luminance" maskUnits="userSpaceOnUse" x="0" y="0" width="152" height="152">
<path d="M0 151.999H151.874V0H0V151.999Z" fill="#2E2E30"/>
</mask>
<g mask="url(#mask0_1291_2331)">
<path fill-rule="evenodd" clip-rule="evenodd" d="M75.9384 6.8241C37.8249 6.8241 6.81857 37.8555 6.81857 76C6.81857 114.142 37.8249 145.176 75.9384 145.176C114.052 145.176 145.056 114.142 145.056 76C145.056 37.8555 114.052 6.8241 75.9384 6.8241ZM75.9384 152C34.0656 152 0 117.904 0 76C0 34.0932 34.0656 0 75.9384 0C117.811 0 151.875 34.0932 151.875 76C151.875 117.904 117.811 152 75.9384 152Z" fill="#2E2E30"/>
</g>
<path fill-rule="evenodd" clip-rule="evenodd" d="M75.9383 102.957L47.6162 82.3641L58.435 49.042H93.4415L104.26 82.3641L75.9383 102.957Z" fill="url(#paint3_linear_1291_2331)"/>
<path fill-rule="evenodd" clip-rule="evenodd" d="M51.6248 81.0603L75.9375 98.7392L100.253 81.0603L90.9657 52.4559H60.9094L51.6248 81.0603ZM75.9375 106.371C75.2352 106.371 74.5307 106.152 73.9329 105.72L45.6108 85.1252C44.4176 84.2562 43.9175 82.7162 44.3744 81.3082L55.1886 47.9884C55.6478 46.5827 56.9569 45.6318 58.432 45.6318H93.4408C94.9182 45.6318 96.2273 46.5827 96.6842 47.9884L107.503 81.3082C107.958 82.7162 107.458 84.2539 106.264 85.1252L77.9422 105.72C77.3444 106.152 76.6421 106.371 75.9375 106.371Z" fill="#2E2E30"/>
<path fill-rule="evenodd" clip-rule="evenodd" d="M51.3586 7.69434C36.9714 12.8806 24.7026 22.489 16.1748 34.8815L45.6878 32.2929L51.3586 7.69434Z" fill="url(#paint4_linear_1291_2331)"/>
<path fill-rule="evenodd" clip-rule="evenodd" d="M46.5468 13.3885C37.8327 17.5102 29.9732 23.4881 23.6364 30.8036L42.9216 29.1135L46.5468 13.3885ZM16.1746 38.2964C14.9678 38.2964 13.8404 37.655 13.229 36.6018C12.5631 35.4599 12.6176 34.0359 13.3654 32.9486C22.4591 19.7394 35.1985 9.89681 50.2016 4.48758C51.3744 4.06221 52.6881 4.3147 53.6222 5.14497C54.5541 5.97523 54.9609 7.24679 54.6814 8.46375L49.0106 33.0623C48.6765 34.5022 47.456 35.5645 45.9854 35.6942L16.4724 38.2828C16.3724 38.2919 16.2724 38.2964 16.1746 38.2964Z" fill="#2E2E30"/>
<path fill-rule="evenodd" clip-rule="evenodd" d="M112.268 30.3329L129.648 32.4757C124.041 25.5356 117.179 19.7715 109.386 15.4587L112.268 30.3329ZM136.98 40.2324C136.844 40.2324 136.703 40.2233 136.562 40.2051L108.977 36.8022C107.511 36.6225 106.329 35.517 106.047 34.0657L101.388 10.0222C101.147 8.7779 101.615 7.50407 102.599 6.71248C103.588 5.92088 104.929 5.73663 106.09 6.24162C119.968 12.2582 131.642 22.1941 139.849 34.9756C140.563 36.0879 140.569 37.5142 139.867 38.6356C139.237 39.6365 138.144 40.2324 136.98 40.2324Z" fill="#2E2E30"/>
<path fill-rule="evenodd" clip-rule="evenodd" d="M59.399 143.171C70.9178 146.014 83.1912 145.819 94.5896 142.616L76.5409 130.103L59.399 143.171ZM75.9386 152.001C67.3767 152.001 58.9421 150.568 50.8735 147.743C49.6893 147.327 48.8279 146.296 48.6325 145.054C48.4347 143.815 48.9347 142.568 49.9325 141.806L74.3794 123.172C75.5544 122.273 77.1704 122.241 78.3864 123.081L104.072 140.885C105.108 141.606 105.663 142.839 105.515 144.092C105.368 145.345 104.538 146.417 103.363 146.872C94.5896 150.275 85.3641 152.001 75.9386 152.001Z" fill="#2E2E30"/>
<path fill-rule="evenodd" clip-rule="evenodd" d="M24.9854 87.034L3.57055 71.3682C3.47282 72.9013 3.40918 74.4413 3.40918 75.9994C3.40918 90.8146 7.85261 104.586 15.4667 116.071L24.9854 87.034Z" fill="url(#paint5_linear_1291_2331)"/>
<mask id="mask1_1291_2331" style="mask-type:luminance" maskUnits="userSpaceOnUse" x="0" y="67" width="29" height="53">
<path d="M0 67.9551V119.481H28.3946V67.9551H0H0Z" fill="#2E2E30"/>
</mask>
<g mask="url(#mask1_1291_2331)">
<path fill-rule="evenodd" clip-rule="evenodd" d="M6.84812 77.9901C7.14586 88.4628 9.78692 98.6307 14.5758 107.848L20.9762 88.3264L6.84812 77.9901ZM15.4691 119.481C14.3372 119.481 13.2644 118.917 12.628 117.954C4.36616 105.498 0 90.99 0 75.9975C0 74.3688 0.0704586 72.7583 0.170464 71.1569C0.247741 69.9127 0.997784 68.8094 2.12512 68.2794C3.24564 67.7494 4.57753 67.8745 5.58214 68.6138L26.997 84.2797C28.1925 85.1509 28.6857 86.6931 28.2243 88.0966L18.7079 117.133C18.301 118.375 17.2192 119.274 15.9259 119.451C15.7736 119.469 15.6191 119.481 15.4691 119.481Z" fill="#2E2E30"/>
</g>
<path fill-rule="evenodd" clip-rule="evenodd" d="M58.4326 49.0426L46.416 33.2812Z" fill="white"/>
<path fill-rule="evenodd" clip-rule="evenodd" d="M58.4352 52.456C57.4079 52.456 56.3942 51.9942 55.7237 51.1139L43.7094 35.3525C42.5661 33.8535 42.8548 31.713 44.3503 30.5711C45.8527 29.4269 47.9869 29.7158 49.1279 31.2149L61.1422 46.974C62.2854 48.473 61.9968 50.6135 60.5013 51.7554C59.883 52.2285 59.1557 52.456 58.4352 52.456Z" fill="#2E2E30"/>
<path fill-rule="evenodd" clip-rule="evenodd" d="M93.4424 49.0429L109.393 33.418Z" fill="white"/>
<path fill-rule="evenodd" clip-rule="evenodd" d="M93.4427 52.4542C92.5563 52.4542 91.6744 52.113 91.0062 51.4283C89.6902 50.084 89.7106 47.923 91.0584 46.6037L107.009 30.9788C108.35 29.6595 110.512 29.6822 111.83 31.0288C113.146 32.3755 113.123 34.5364 111.776 35.8535L95.8269 51.4807C95.1655 52.1289 94.3041 52.4542 93.4427 52.4542Z" fill="#2E2E30"/>
<path fill-rule="evenodd" clip-rule="evenodd" d="M47.6159 82.3633L24.9873 87.0332Z" fill="white"/>
<path fill-rule="evenodd" clip-rule="evenodd" d="M24.9808 90.4466C23.3989 90.4466 21.9784 89.3365 21.6466 87.7238C21.2647 85.8767 22.4534 84.0729 24.2967 83.693L46.9275 79.023C48.7549 78.6363 50.5755 79.8283 50.955 81.6753C51.3369 83.5201 50.1482 85.3239 48.3049 85.7038L25.6741 90.3761C25.4422 90.4238 25.2104 90.4466 24.9808 90.4466Z" fill="#2E2E30"/>
<path fill-rule="evenodd" clip-rule="evenodd" d="M130.9 88.3258L137.3 107.847C142.089 98.6325 144.73 88.4646 145.028 77.9919L130.9 88.3258ZM136.409 119.482C136.257 119.482 136.104 119.471 135.952 119.453C134.657 119.275 133.577 118.377 133.17 117.135L123.651 88.0984C123.188 86.6949 123.683 85.1526 124.879 84.2814L146.291 68.6156C147.298 67.8786 148.628 67.7557 149.748 68.2789C150.876 68.8089 151.626 69.9099 151.705 71.1541C151.819 72.9352 151.876 74.523 151.876 75.9992C151.876 90.9895 147.51 105.498 139.25 117.956C138.614 118.918 137.541 119.482 136.409 119.482Z" fill="#2E2E30"/>
<path fill-rule="evenodd" clip-rule="evenodd" d="M104.26 82.3633L126.888 87.0332Z" fill="white"/>
<path fill-rule="evenodd" clip-rule="evenodd" d="M126.894 90.4459C126.664 90.4459 126.432 90.4232 126.201 90.3754L103.572 85.7032C101.729 85.3233 100.54 83.5194 100.922 81.6747C101.302 79.8276 103.12 78.6379 104.949 79.0224L127.578 83.6923C129.421 84.0722 130.61 85.876 130.228 87.7231C129.896 89.3359 128.476 90.4459 126.894 90.4459Z" fill="#2E2E30"/>
<path fill-rule="evenodd" clip-rule="evenodd" d="M75.9386 129.297C74.0567 129.297 72.5293 127.768 72.5293 125.885V102.958C72.5293 101.074 74.0567 99.5459 75.9386 99.5459C77.8205 99.5459 79.3479 101.074 79.3479 102.958V125.885C79.3479 127.768 77.8205 129.297 75.9386 129.297Z" fill="#2E2E30"/>
</g>
<defs>
<linearGradient id="paint0_linear_1291_2331" x1="120.856" y1="9.37207" x2="120.856" y2="36.8186" gradientUnits="userSpaceOnUse">
<stop stop-color="#00BF63" stop-opacity="0.8"/>
<stop offset="1" stop-color="#0053A0"/>
</linearGradient>
<linearGradient id="paint1_linear_1291_2331" x1="137.678" y1="71.3682" x2="137.678" y2="116.071" gradientUnits="userSpaceOnUse">
<stop stop-color="#00BF63" stop-opacity="0.8"/>
<stop offset="1" stop-color="#0053A0"/>
</linearGradient>
<linearGradient id="paint2_linear_1291_2331" x1="77.0642" y1="125.886" x2="77.0642" y2="148.587" gradientUnits="userSpaceOnUse">
<stop stop-color="#00BF63" stop-opacity="0.8"/>
<stop offset="1" stop-color="#0053A0"/>
</linearGradient>
<linearGradient id="paint3_linear_1291_2331" x1="75.9383" y1="49.042" x2="75.9383" y2="102.957" gradientUnits="userSpaceOnUse">
<stop stop-color="#00BF63" stop-opacity="0.8"/>
<stop offset="1" stop-color="#0053A0"/>
</linearGradient>
<linearGradient id="paint4_linear_1291_2331" x1="33.7667" y1="7.69434" x2="33.7667" y2="34.8815" gradientUnits="userSpaceOnUse">
<stop stop-color="#00BF63" stop-opacity="0.8"/>
<stop offset="1" stop-color="#0053A0"/>
</linearGradient>
<linearGradient id="paint5_linear_1291_2331" x1="14.1973" y1="71.3682" x2="14.1973" y2="116.071" gradientUnits="userSpaceOnUse">
<stop stop-color="#00BF63" stop-opacity="0.8"/>
<stop offset="1" stop-color="#0053A0"/>
</linearGradient>
</defs>
</svg>
