<svg width="408" height="106" viewBox="0 0 408 106" fill="none" xmlns="http://www.w3.org/2000/svg">
<g filter="url(#filter0_d_399_159)">
<path d="M75.2463 0.501057C75.8798 -0.166248 76.7627 -0.157799 77.589 0.471775C78.5612 1.21603 79.5655 1.95835 80.7388 0.81879C80.9924 0.56348 81.4445 0.674885 81.7538 1.02013C81.748 1.0202 81.7423 1.02028 81.7366 1.02035C82.2733 1.5954 82.8672 1.56953 83.5395 1.44481C84.132 1.34043 84.7882 1.11734 85.3094 1.73142C85.6302 1.72741 85.9509 1.7234 86.2716 1.71939C86.2715 1.71308 86.2714 1.70676 86.2713 1.70045C86.9135 1.80306 87.6788 1.46778 88.1358 2.27946C88.4532 2.25942 88.7646 2.31323 89.0744 2.38705C89.4197 2.36998 89.7648 2.35789 90.1144 2.33238C90.6276 2.30657 91.0786 2.37829 91.2957 3.05441C91.4457 3.51781 91.402 3.94515 91.0853 4.27871C90.9803 4.39255 90.865 4.48818 90.7457 4.56517C90.6004 4.71357 90.4138 4.82111 90.1949 4.89025C89.4757 5.13199 88.7346 4.94851 88.0155 5.19024C87.8036 5.22763 87.5998 5.29063 87.405 5.3797C87.4302 5.54169 87.5031 5.7007 87.6554 5.85388C88.0131 6.21775 88.5126 6.38696 88.7443 6.9464C88.9597 7.46712 89.6068 7.98171 88.6493 8.38139C88.4598 8.46049 88.2519 8.50543 88.0469 8.58401C87.873 8.82898 87.6679 9.07594 87.4623 9.33569C88.1024 9.86996 88.862 9.78341 89.5677 9.88327C89.5619 9.87703 89.5561 9.87079 89.5503 9.86455C89.795 9.94727 90.0375 10.0017 90.2765 10.0373C90.667 10.046 91.0539 10.0568 91.4381 10.055C92.7614 9.90958 94.0223 9.26307 95.3001 8.82291C95.7158 8.67999 96.0993 8.35632 96.5334 8.18435C96.5416 8.12252 96.5536 8.05941 96.5577 7.99275C96.8181 7.00034 97.4546 6.56447 98.205 6.24477C98.3015 6.22387 98.3969 6.21174 98.4913 6.2052C99.3644 5.35474 100.262 6.66897 101.144 6.51866C101.787 6.64636 102.417 6.87111 103.071 6.57223C103.213 6.56139 103.356 6.54626 103.5 6.53088C103.572 6.43999 103.645 6.33877 103.709 6.21575C104.665 5.66072 105.277 4.52739 106.265 3.95259C106.774 3.65568 107.254 3.53246 107.782 3.46768C108.247 3.40369 108.925 3.72607 108.722 4.13591C108.034 5.57965 109.963 7.18491 108.77 8.01434C107.975 8.56724 106.728 9.02831 105.586 8.80988C104.573 8.62857 103.189 8.29761 103.097 9.88841C102.988 11.519 104.539 10.9951 105.36 11.1594C107.628 11.6158 109.969 11.4525 112.18 12.472C112.745 12.7364 113.335 12.4177 113.911 12.2553C114.774 11.9924 115.61 12.0398 116.279 12.8848C116.658 13.3519 117.09 13.5492 117.544 13.6418C117.966 13.6131 118.391 13.5692 118.807 13.6677C118.854 13.6671 118.9 13.6665 118.947 13.6659C118.933 13.5961 118.921 13.5132 118.917 13.4144C120.483 12.9294 122.042 13.1232 123.618 13.3556C123.74 13.4494 123.851 13.5409 123.953 13.6242C125.573 12.9285 127.205 13.3646 128.822 13.6599C128.966 13.5999 129.11 13.5592 129.27 13.499C129.945 13.6263 130.637 13.7922 131.312 13.8807C132.726 14.057 134.11 14.2135 134.725 12.0917C134.941 11.3723 135.579 11.1897 136.171 11.066C136.197 10.9937 136.222 10.9214 136.247 10.8491C137.066 8.68284 139.419 8.83005 140.406 6.91999C140.406 6.9263 140.406 6.93261 140.406 6.93893C140.796 6.89631 141.171 6.85243 141.559 6.79192C141.564 6.78428 141.571 6.77859 141.575 6.7709C142.301 5.81145 143.217 5.87645 144.166 6.05854C144.527 6.71346 144.731 7.56483 145.618 6.58399C146.204 5.93721 147.641 6.75285 147.801 8.01133C147.979 9.38589 148.788 9.91909 149.392 10.7454C149.31 11.576 149.618 12.5047 149.245 13.2683C149.251 13.268 149.257 13.2681 149.264 13.268C149.6 13.2446 149.828 13.4947 150.087 13.7047C150.964 14.7931 152.029 15.4265 153.253 15.6842C153.306 15.5991 153.375 15.5061 153.462 15.407C153.945 15.4785 154.456 15.3171 154.941 15.5627C155.808 15.5713 156.659 15.5806 157.526 15.5891C158.791 15.3988 160.1 14.8016 161.255 16.0672C161.264 16.1208 161.264 16.1734 161.267 16.2242C163.136 15.8879 164.995 15.833 166.874 16.1712C168.208 16.3291 169.558 16.5256 170.902 16.1985C171.981 16.534 173.086 16.2485 174.162 16.332C174.518 16.3603 174.974 16.1355 175.237 16.5478C176.13 16.6378 177.035 16.771 177.937 16.6731C178.482 16.6081 179.01 16.4459 179.243 15.7836C179.459 15.1603 179.005 14.8757 178.68 14.55C178.42 14.2818 178.224 13.9535 178.315 13.5451C178.437 13.0784 178.824 13.1886 179.128 13.1656C179.865 13.0788 180.608 13.304 181.342 12.9845C181.914 11.8329 182.056 10.1415 183.51 10.0254C183.788 9.71187 184.147 9.80925 184.48 9.85982C184.688 9.81843 184.993 9.85325 185.088 9.69691C186.865 6.78536 189.07 8.52307 191.082 9.02156C191.935 9.24362 192.693 9.54515 193.488 8.9536C193.716 9.16414 193.96 9.50891 193.512 9.57267C192.859 9.658 192.417 10.1604 191.864 10.402C191.861 10.3981 191.857 10.3947 191.854 10.3908C190.676 10.6371 189.673 10.8683 188.861 12.3848C188.187 13.6536 186.622 14.217 185.445 15.0848C185.063 15.3611 184.19 14.8684 184.364 15.9905C184.486 16.8035 184.944 17.4383 185.698 17.4095C187.559 17.3475 189.442 17.7691 191.261 16.9706C191.74 16.7513 192.303 16.8036 192.832 16.7388C193.252 16.9467 193.765 16.9798 194.028 17.5194C194.818 19.1382 195.974 19.1431 197.252 18.6231C197.332 18.6609 197.413 18.6395 197.477 18.5805C198.934 18.3101 200.22 17.2274 201.763 17.4019C204.825 18.469 207.872 16.9976 210.942 17.3856C211.736 17.4907 212.512 17.4073 213.219 17.9765C214.73 18.3636 216.254 18.4247 217.792 18.3474C218.625 18.2984 219.336 18.6763 220.063 19.0937C221.194 19.7583 222.143 19.8826 222.295 17.8839C222.322 17.4957 222.495 17.162 222.814 16.9834C222.814 16.9904 222.814 16.9973 222.814 17.0042C222.815 17.0779 222.822 17.1524 222.826 17.2276C222.837 17.1464 222.844 17.0644 222.845 16.983C222.829 15.7037 222.352 14.7332 221.414 14.0727C222.725 14.0562 223.776 13.6762 224.498 12.4545C224.49 12.4577 224.483 12.461 224.475 12.4643C224.804 11.8007 225.019 11.118 224.961 10.3236C224.905 9.66573 225.257 9.62257 225.676 9.71422C225.996 9.67142 226.317 9.62801 226.638 9.56582C227.386 9.55647 228.135 9.54711 228.883 9.53775C228.98 9.57533 229.093 9.61377 229.19 9.65134C229.75 9.50883 229.963 9.87398 230.019 10.4744C230.055 10.8036 230.026 11.134 229.723 11.2736C229.277 11.4724 229.063 11.0295 228.802 10.7225C228.623 10.4921 228.396 10.3192 228.185 10.128C228.19 10.1216 228.195 10.1152 228.201 10.1088C228.024 10.111 227.848 10.1132 227.671 10.1154C227.651 10.2161 227.632 10.3167 227.612 10.4173C227.365 11.8787 227.827 12.7085 229.23 12.7325C229.24 12.726 229.25 12.7219 229.26 12.7151C229.771 12.5535 230.245 11.927 230.878 12.5585C230.411 13.6887 229.399 13.5284 228.634 13.9256C228.627 13.9327 228.619 13.9396 228.612 13.9467C228.614 13.9458 228.615 13.9457 228.617 13.9448C227.766 15.1578 227.709 17.0017 226.404 17.8325C226.404 17.8271 226.405 17.8209 226.405 17.8155C226.119 17.9123 225.73 17.9451 225.72 18.4226C225.71 18.8489 226.047 18.8646 226.304 18.9001C226.674 18.9343 227.043 18.9679 227.411 18.9052C228.981 18.6917 230.41 18.7126 230.841 21.1315C230.945 21.7314 231.46 21.7838 231.894 21.8172C233.42 21.9145 234.963 22.0876 236.482 21.6614C236.51 21.6505 236.535 21.6362 236.562 21.6244C236.525 21.63 236.488 21.6386 236.449 21.6428C237.356 20.9914 237.223 19.2875 238.39 18.9044C238.388 18.9434 238.381 18.9816 238.379 19.0201C238.392 18.9874 238.407 18.9554 238.421 18.9229C238.518 18.9217 238.598 18.8819 238.677 18.8421C239.388 17.8829 240.31 17.2693 240.938 16.0977C241.706 14.6726 241.411 14.1337 240.282 13.6437C240.088 13.5685 239.94 13.3565 239.777 13.184C239.502 12.9355 239.305 12.6469 239.3 12.2013C239.2 11.8208 239.102 11.4409 239.462 11.184C239.464 11.1861 239.467 11.1876 239.469 11.1896C239.467 11.187 239.465 11.1848 239.464 11.1821C239.464 11.1828 239.463 11.1834 239.462 11.184C239.458 11.1794 239.453 11.1757 239.448 11.171C239.451 11.1709 239.454 11.1709 239.458 11.1708C239.454 11.1646 239.451 11.1583 239.448 11.152C240.213 10.7546 240.089 9.88312 240.192 9.12554C240.504 9.12164 240.802 9.13504 241.114 9.15C241.122 9.14428 241.132 9.13829 241.14 9.13263C241.14 9.13894 241.141 9.14525 241.141 9.15156C242.756 8.72456 244.322 9.48159 245.91 9.44234C245.916 9.44848 245.922 9.455 245.928 9.46106C246.355 9.45674 246.783 9.48824 247.21 9.48292C248.196 10.6064 247.52 12.9886 246.012 13.6686C246.005 13.6808 246.002 13.6965 245.995 13.7086C245.985 13.7147 245.975 13.72 245.965 13.726C245.466 14.3842 245.021 14.971 245.558 16.021C246.027 16.9492 245.688 17.6033 244.746 17.5635C244.734 17.5684 244.723 17.5783 244.711 17.5829C244.135 17.6288 243.557 17.6164 242.997 17.7009C242.004 17.8491 242.266 18.3119 242.833 18.8091C242.946 18.8077 243.074 18.7682 243.139 18.845C245.347 20.8725 247.404 19.8004 249.491 18.5137C251.115 17.5044 254.123 18.1649 255.379 19.8171C255.934 20.547 256.568 21.1011 257.32 20.9368C259.401 20.5229 261.428 20.8466 263.455 21.2674C263.456 21.2723 263.457 21.2776 263.458 21.2825C263.521 21.2075 263.599 21.188 263.678 21.2059C263.679 21.2059 263.68 21.2058 263.681 21.2058C263.68 21.1996 263.679 21.1933 263.678 21.1869C264.74 20.1457 265.992 20.0132 267.294 20.1909C269.142 20.4392 270.827 20.3992 272.312 18.558C273.576 16.9714 276.678 18.6575 276.903 21.2338C277.055 23.0744 277.789 22.6778 278.623 22.648C279.216 22.6405 279.793 22.5755 280.386 22.5293C280.463 22.5163 280.534 22.4874 280.603 22.4546C280.525 22.4726 280.448 22.4939 280.37 22.5106C281.191 21.4142 281.996 20.3166 281.927 18.6689C281.923 18.3202 281.951 18.0102 282.27 17.8899C282.637 17.7497 282.913 17.9782 283.078 18.3249C283.491 19.2507 283.96 19.5558 284.704 18.7516C284.862 18.5752 285.278 18.5124 285.456 18.6456C287.512 20.0358 289.663 18.6512 291.754 19.0518C292.751 19.233 293.742 18.8705 294.287 17.5257C294.567 16.8243 295.155 16.3909 295.879 16.4982C295.884 16.5044 295.889 16.5107 295.895 16.5169C296.919 16.3296 297.744 16.804 298.46 17.6289C299.557 18.9047 300.866 19.4065 302.294 19.511C302.5 19.5179 302.706 19.5248 302.913 19.5317C303.303 18.6157 303.99 18.3743 304.776 18.3644C305.877 18.3506 306.978 18.3368 308.079 18.3231C308.086 18.3183 308.094 18.3144 308.101 18.3095C308.105 18.2074 308.131 18.1169 308.158 18.0114C308.148 18.0116 308.137 18.0117 308.127 18.0118C309.647 17.6442 311.309 18.4178 312.722 17.2176C314.726 15.7767 316.732 15.7128 318.82 17.0637C319.223 17.3293 319.75 17.2855 320.216 17.3948C320.211 17.3823 320.206 17.3698 320.203 17.3571C321.605 15.2837 325.352 14.597 328.134 16.2882C329.945 17.3904 331.842 17.6777 333.568 17.0745C335.852 16.2507 338.206 15.6978 340.457 14.7969C340.468 14.7898 340.478 14.7828 340.488 14.7757C340.799 14.7131 341.11 14.6505 341.42 14.5879C343.599 14.1888 345.802 14.0684 348.005 13.8881C349.704 13.7505 351.419 13.5731 353.123 13.862C353.236 13.8606 353.348 13.8592 353.46 13.8578C354.708 13.5319 355.995 13.7478 357.261 13.5963C357.337 13.7936 357.419 13.9207 357.499 14.0005C357.551 13.9662 357.602 13.9298 357.65 13.8831C358.109 13.3731 358.654 13.3076 359.233 13.3974C359.795 13.4291 360.357 13.4616 360.849 13.0097C362.42 12.8931 363.774 12.022 364.752 10.6521C366.329 8.46038 368.251 8.14563 370.423 8.62272C370.423 8.62904 370.423 8.63535 370.423 8.64166C370.903 8.51934 371.338 8.64912 371.76 8.97346C371.764 8.98055 371.77 8.98716 371.774 8.99412C374.135 9.12573 375.709 10.9516 377.296 12.7644C378.908 14.2639 380.521 15.7634 382.134 17.2629C382.126 17.2799 382.117 17.2958 382.109 17.3125C382.123 17.2959 382.137 17.2793 382.151 17.2627C382.67 17.7407 383.379 18.0034 383.472 18.9717C383.466 18.9849 383.461 18.9984 383.456 19.0116C383.922 20.2849 385.337 20.5195 385.629 22.0472C385.746 22.6836 386.068 23.2817 386.068 23.9698C386.075 23.98 386.079 23.9918 386.086 24.0018C386.631 25.2556 386.924 26.7259 388.025 27.546C388.012 27.5468 387.999 27.5457 387.986 27.5465C387.999 27.5524 388.012 27.559 388.025 27.5649C390.543 28.7357 393.223 28.7227 395.829 29.2137C398.086 29.6486 400.202 30.3733 401.674 32.6731C401.682 32.678 401.69 32.683 401.698 32.6879C402.308 33.9992 402.919 35.3313 403.545 36.6424C404.101 40.0294 404.239 43.3637 402.851 46.5229C402.601 47.0883 402.319 47.6345 402.069 48.1805C401.732 48.8265 401.364 49.3621 400.919 49.7385C400.916 49.9069 400.902 50.0724 400.858 50.2318C400.842 50.263 400.828 50.2955 400.814 50.327C400.839 50.3026 400.864 50.2763 400.891 50.2522C400.987 51.5308 400.633 52.6996 400.327 53.8864C400.318 53.8458 400.31 53.8042 400.302 53.7636C400.299 53.7976 400.297 53.832 400.294 53.866C400.304 54.7044 400.08 55.4515 399.7 56.1444C399.704 56.1508 399.709 56.1565 399.713 56.1631C398.797 59.9175 396.663 62.5626 394.27 64.978C393.553 65.3554 393 66.0793 392.833 66.8957C392.213 69.9097 390.457 71.8913 388.83 74.0257C388.963 74.3732 388.837 74.6461 388.599 74.843C387.528 75.1281 386.639 75.8966 385.896 76.7785C384.378 78.6012 382.612 79.9024 380.649 80.761C378.303 81.7988 376.48 83.5478 374.709 85.703C372.211 88.7017 369.057 90.6616 365.537 91.5396C364.961 91.6825 364.384 91.8066 363.809 91.9495C363.799 91.9547 363.787 91.9562 363.777 91.9612C363.783 91.9632 363.788 91.9666 363.793 91.9686C362.716 92.9107 361.432 92.6013 360.217 92.769C360.214 92.7684 360.21 92.7679 360.206 92.7673C358.909 93.5372 357.477 93.4043 356.141 93.3825C351.053 93.3492 346.023 94.246 340.956 94.5421C340.202 94.5903 339.464 94.5612 338.71 94.5512C338.704 94.5576 338.699 94.564 338.693 94.5704C336.554 94.2121 334.43 93.8533 332.291 93.495C332.286 93.4985 332.282 93.503 332.277 93.5066C331.86 93.5118 331.427 93.5376 331.01 93.5622C330.991 93.5686 330.97 93.5718 330.951 93.5781C330.638 94.0603 330.203 94.2882 329.718 94.2564C327.229 94.1131 324.796 94.6292 322.396 95.2022C319.665 95.8481 316.959 95.2579 314.238 95.2606C314.037 95.2709 313.836 95.2798 313.635 95.2927C313.635 95.3054 313.635 95.318 313.635 95.3306C313.59 95.3312 313.544 95.3317 313.499 95.3323C313.716 96.4665 312.799 96.4364 312.237 96.5508C310.605 96.9007 308.947 96.4561 307.31 96.4571C303.427 96.5056 299.557 96.4372 295.714 97.1059C294.609 97.2942 293.504 97.4043 292.393 97.0887C291.109 97.1047 289.809 97.1214 288.525 97.1181C288.525 97.1244 288.525 97.1307 288.525 97.137C283.237 97.7656 278.056 95.4451 272.736 96.1127C271.661 96.2393 270.607 95.6147 269.585 95.1463C269.567 95.1455 269.548 95.1459 269.53 95.1451C266.862 94.8682 264.14 95.3668 261.512 94.3911C261.501 94.385 261.491 94.3788 261.48 94.3726C261.483 94.3716 261.485 94.3697 261.488 94.3687C260.667 94.0343 259.726 94.1983 258.951 93.6087C258.951 93.6017 258.951 93.5947 258.952 93.5879C258.951 93.5885 258.951 93.5891 258.95 93.5898C258.068 93.6008 257.169 93.6125 256.286 93.6041C256.305 93.5802 256.324 93.5565 256.343 93.5333C256.298 93.5624 256.252 93.5919 256.206 93.6241C256.026 93.6263 255.859 93.6554 255.682 93.678C255.692 93.6943 255.701 93.7106 255.711 93.7269C255.705 93.7268 255.698 93.7253 255.692 93.7252C255.693 93.7258 255.693 93.7264 255.694 93.7271C255.699 93.727 255.705 93.7269 255.711 93.7269C255.33 95.322 256.53 95.1139 257.146 95.5329C257.502 95.7802 258.062 95.754 258.006 96.4332C257.95 97.0739 257.42 97.0425 257.004 97.1446C255.146 97.4197 253.464 96.3732 251.68 96.124C250.41 95.946 251.467 94.5764 250.837 94.1571C250.425 94.1427 250.012 94.1089 249.584 94.0951C249.584 94.0737 249.579 94.0524 249.577 94.0308C249.574 94.0512 249.574 94.0723 249.57 94.0934C242.831 93.7733 236.178 95.3296 229.457 95.2199C224.658 95.1247 219.874 95.0293 215.074 94.9148C214.786 94.9184 214.481 94.7825 214.19 94.6891C214.189 94.6904 214.188 94.6916 214.187 94.6929C213.672 94.5442 213.156 94.376 212.641 94.2274C212.63 94.2142 212.619 94.2011 212.609 94.188C209.612 93.2363 206.586 92.5369 203.414 92.9449C204.206 92.1403 205.07 91.9351 205.954 92.021C207.03 92.1238 207.149 91.4058 207.089 90.4177C207.441 90.3551 207.842 90.3295 207.658 89.653C207.662 89.6439 207.668 89.6352 207.673 89.6263C207.662 89.6287 207.652 89.6318 207.642 89.6342C207.337 89.6187 207.031 89.5836 206.71 89.5682C206.71 89.5745 206.71 89.5809 206.71 89.5872C206.702 89.5813 206.694 89.5762 206.686 89.5704C206.688 89.595 206.693 89.62 206.694 89.6461C204.88 89.6688 203.068 89.7307 201.255 89.7728C201.26 89.7532 201.265 89.7335 201.27 89.7139C200.299 90.3659 199.345 90.9996 198.374 91.6517C197.662 92.1954 196.915 92.454 196.151 92.5735C196.384 92.7012 196.656 92.9374 196.981 93.2791C197.404 93.7198 197.986 93.9831 198.077 94.7769C197.77 94.7807 197.464 94.7845 197.158 94.7883C197.159 94.795 197.161 94.8024 197.162 94.8091C197.156 94.8094 197.15 94.8091 197.144 94.8093C197.146 94.9254 197.116 95.0421 197.102 95.1584C196.155 95.1702 195.208 95.2199 194.261 95.2318C193.397 95.3783 192.548 95.5247 191.684 95.6712C191.361 95.5589 191.022 95.4284 190.7 95.3161C190.695 95.3161 190.689 95.3162 190.684 95.3163C190.687 95.316 190.69 95.3145 190.694 95.3142C190.503 95.297 190.311 95.2624 190.121 95.2456C190.115 95.2457 190.11 95.2458 190.105 95.2458C189.91 95.2647 189.715 95.2836 189.52 95.3024C188.938 95.3287 188.368 95.2473 187.822 94.905C187.817 94.9051 187.811 94.9052 187.806 94.9052C187.901 94.7684 188.011 94.6307 188.105 94.5132C188.185 94.4346 188.313 94.3557 188.328 94.2585C188.531 93.4329 188.699 92.9038 188.964 92.5989C188.835 92.5993 188.707 92.6012 188.58 92.6075C188.147 92.6129 187.731 92.6957 187.435 92.1957C186.909 91.1745 185.633 91.7907 185.138 90.6921C184.945 90.6945 184.736 90.6574 184.543 90.6598C184.114 89.6569 183.116 89.5521 182.545 88.7642C182.449 88.7653 182.352 88.7476 182.256 88.7488C182.091 88.5401 182.052 88.3198 182.109 88.0953C181.589 88.1302 181.076 88.1058 180.653 87.6438C180.656 87.621 180.661 87.5992 180.665 87.5773C180.661 87.5804 180.657 87.5839 180.653 87.587C179.388 86.8441 178.11 86.2244 176.675 86.4889C177.558 87.2742 178.527 87.9497 179.021 89.2363C179.039 89.3521 179.055 89.4683 179.073 89.5841C179.067 89.5842 179.062 89.5843 179.057 89.5843C177.667 92.6659 175.51 90.8117 173.632 90.7961C174.511 89.273 173.91 88.6208 172.654 88.2874C172.31 88.1975 171.979 87.9607 171.649 87.7734C171.634 87.7748 171.619 87.776 171.604 87.7777C171.51 87.7789 171.399 87.7595 171.304 87.7417C170.46 87.8655 169.756 87.6598 169.359 86.622C169.361 86.6156 169.363 86.6093 169.365 86.603C169.363 86.603 169.361 86.6031 169.359 86.6031C168.214 86.1907 167.026 86.2439 165.854 86.1809C165.846 86.17 165.836 86.1616 165.829 86.151C165.826 86.167 165.826 86.1841 165.823 86.2003C164.696 85.9428 163.682 85.6653 164.031 87.8913C164.188 88.917 163.423 89.3929 162.541 89.4233C161.69 89.4339 160.839 89.3666 160.06 89.9582C158.82 90.8852 158.732 91.6237 159.774 92.7744C160.132 93.1577 160.57 93.4627 160.69 94.0623C158.344 93.8783 156.008 93.2478 153.635 93.4326C151.501 93.4593 149.351 93.4866 147.217 93.4939C147.227 93.4868 147.238 93.4798 147.249 93.4727C145.983 93.5855 145.046 93.0538 144.275 91.7446C143.413 90.2461 141.765 90.1907 140.624 89.1461C140.55 89.0719 140.476 88.9977 140.403 88.9235C140.271 88.8052 140.14 88.6869 140.008 88.5685C139.133 87.8372 138.141 87.3136 137.353 86.4217C137.294 86.3511 137.234 86.2805 137.175 86.2099C135.426 86.2317 133.677 86.2536 131.928 86.2754C132.214 87.2994 132.978 86.7464 133.323 87.3433C132.026 87.6504 130.755 87.4337 129.487 87.4689C128.69 86.5486 127.649 86.7556 126.701 86.5738C126.505 86.3047 126.039 86.252 126.145 85.7852C126.166 85.6775 126.379 85.6364 126.588 85.5978C126.266 85.1857 125.927 84.8634 125.317 85.0966C124.183 85.5373 123.152 85.1233 122.195 84.3402C121.514 83.7669 120.707 83.4673 119.922 83.5352C118.495 83.6694 117.101 83.8415 115.697 83.1997C115.245 82.992 114.522 83.0012 114.274 83.7024C113.497 85.7486 112.04 85.9799 110.467 85.9414C109.841 85.9299 109.186 86.1511 108.572 85.8098C108.566 85.8098 108.56 85.8099 108.555 85.81C107.68 85.569 106.805 85.328 105.93 85.0871C105.934 85.0793 105.938 85.0718 105.942 85.0642C105.938 85.0652 105.934 85.0672 105.93 85.0681C105.304 85.076 104.695 85.0831 104.07 85.1103C104.037 85.1185 104.005 85.1304 103.974 85.1399C104.007 85.1427 104.039 85.1494 104.07 85.1501C103.685 86.6359 102.929 88.1925 104.557 89.22C104.623 89.2485 104.688 89.2753 104.748 89.3105C104.844 89.3093 104.94 89.3285 105.036 89.3466C105.358 89.3426 105.679 89.3386 106 89.3346C106.463 91.7136 106.447 91.7519 104.499 91.272C103.582 91.0508 102.617 90.9281 101.822 90.2013C101.827 90.2012 101.832 90.2011 101.837 90.2011C99.8965 90.264 98.0752 89.6276 96.2988 88.7191C96.3009 88.7051 96.3038 88.6908 96.3061 88.6773C96.3035 88.6774 96.3009 88.6791 96.2983 88.6793C95.5841 88.6332 94.8579 88.7597 94.2181 88.2715C94.1701 88.2692 94.1233 88.2723 94.0788 88.2809C93.3399 88.2711 92.641 87.8142 91.8769 88.0413C91.9033 89.0571 92.4031 89.4852 93.1946 89.5136C93.4674 89.5102 93.7245 89.5075 93.982 89.5625C94.5289 89.6719 95.4423 89.5631 95.3888 90.3972C95.3212 91.4066 94.4017 91.0889 93.8223 90.9604C92.9535 90.7772 92.1585 90.0893 91.1987 90.334C90.6198 90.225 90.0106 90.2512 89.4936 89.9671C87.1509 88.7163 84.6788 88.7086 82.2089 88.8365C82.1721 91.0282 82.0608 91.1265 80.2868 90.4117C79.7209 89.5374 78.3255 89.7335 78.3186 88.1862C78.302 88.1861 78.2852 88.1868 78.2685 88.1868C74.4267 87.6918 70.569 87.2553 66.6995 87.1097C66.7208 87.0969 66.742 87.084 66.7633 87.0711C66.7624 87.0541 66.759 87.0367 66.758 87.02C66.7541 87.0233 66.7511 87.0282 66.7471 87.0315C66.379 87.1137 65.9625 87.1574 65.7325 86.7336C64.8767 85.0187 63.5291 85.0546 62.2177 85.4005C60.458 85.8492 58.4961 85.545 57.0245 87.2117C57.0053 87.2029 56.9853 87.1947 56.9661 87.186C56.9795 87.2075 56.9944 87.2278 57.0077 87.2498C57.0187 87.2497 57.0296 87.2496 57.0406 87.2494C57.3155 87.4205 57.6059 87.5728 58.0748 87.8577C57.1167 88.238 56.1804 87.8048 55.4007 88.3382C54.9034 88.3444 54.4224 88.3883 53.9251 88.3945C52.9514 88.2621 51.8334 87.6938 51.4726 89.2983C52.4159 89.5316 52.1713 91.0237 52.6831 91.7265C52.8788 91.9956 52.3694 92.3894 52.0626 92.2381C51.5299 91.993 50.6804 92.0033 50.8755 90.9347C50.9337 90.6481 50.9521 90.4422 50.8859 90.2603C50.8158 90.2947 50.7408 90.3219 50.6596 90.337C50.3378 90.2634 50.017 90.266 49.7097 90.0761C49.6559 90.0768 49.6021 90.0774 49.5483 90.0781C49.4951 90.0851 49.4419 90.0921 49.3887 90.099C47.7318 91.0701 46.306 90.0601 44.8677 89.2635C43.6103 88.7946 42.3089 88.656 41.008 88.556C41.0011 88.5494 40.9931 88.5439 40.9859 88.5373C39.8875 88.6589 38.7973 88.1977 37.6693 88.52C36.7897 88.7638 35.6604 89.6501 35.2156 87.4446C35.0273 86.5555 33.6913 86.1067 32.6674 86.3324C29.3545 87.0721 26.1184 86.3184 22.8685 85.6802C22.5641 85.6261 22.2739 85.4369 21.9846 85.3049C20.1397 85.5785 18.6332 83.9668 16.8129 83.9509C16.0908 83.9599 16.0805 83.1843 16.5544 82.5771C16.9333 82.0876 17.638 81.9822 17.7401 81.1474C17.3349 80.8228 17.0725 80.3598 16.7779 79.898C16.2056 79.0326 16.3264 78.4294 17.158 78.2057C17.4593 78.1288 17.7185 77.9468 17.9736 77.7561C17.5941 77.6534 17.3331 77.3882 17.5854 76.4161C17.6919 75.9888 17.1454 75.8208 16.8889 75.8623C15.4469 76.0549 15.2027 74.6029 14.7083 73.5617C14.3468 72.7916 15.4384 72.952 15.3663 72.294C15.3715 72.2801 15.3791 72.2671 15.3846 72.254C15.3784 72.254 15.3721 72.2541 15.3658 72.2542C15.1093 72.2574 14.8526 72.2619 14.6114 72.2068C14.2896 72.1333 13.7796 72.352 13.7086 71.8298C13.6737 71.5979 14.1468 71.2603 14.3845 70.9861C14.3804 70.9854 14.3761 70.9869 14.372 70.9862C15.0667 70.0861 15.9946 69.8802 16.9402 69.8101C17.6618 69.7623 18.2354 69.3484 18.8243 68.9532C18.8296 68.9594 18.8349 68.9657 18.8402 68.9719C18.7394 68.605 18.6216 68.2386 18.5208 67.8717C18.5453 67.8909 18.5702 67.9049 18.5966 67.9143C18.6254 67.9183 18.6542 67.9224 18.6829 67.9265C18.671 67.8852 18.6539 67.8425 18.6375 67.7982C18.5988 67.8223 18.5595 67.8476 18.5208 67.8717C17.5706 67.5538 17.5451 66.8162 17.8863 65.8814C18.0567 65.3944 18.0411 65.3947 17.2518 65.1525C16.6559 64.9661 16.044 64.7994 15.4158 64.594C16.3454 62.5801 16.461 62.3123 14.7745 61.1813C14.4953 60.9992 14.2162 60.8171 13.937 60.6349C13.8516 60.6139 13.7662 60.5929 13.6807 60.5718C13.0839 60.4028 12.5004 60.082 11.6923 59.4811C14.2056 58.9842 16.7704 58.8157 16.8149 54.6459C14.0765 55.1067 11.2186 54.9865 8.41373 53.9744C7.40593 53.7556 6.42867 53.4402 5.51128 52.8572C5.51132 52.8603 5.51136 52.8635 5.5114 52.8666C5.2853 52.7531 5.04209 52.6404 4.81598 52.5268C3.67396 51.0284 3.73559 49.5331 4.97033 48.1988C6.36613 46.882 7.95139 46.5317 9.67289 46.8786C10.3002 47.0065 10.941 46.9225 11.5671 46.9534C12.6056 47.1387 13.6383 47.1999 14.6694 47.1344C15.5445 46.8565 16.3959 46.4407 17.2544 46.0471C17.5752 45.9014 17.9269 45.8474 18.2795 45.8051C18.3967 45.6214 18.5154 45.4405 18.6727 45.2925C18.8157 45.194 18.9592 45.1342 19.1031 45.1129C19.2203 45.1263 19.3351 45.1291 19.4464 45.1257C19.3799 44.8906 19.0967 44.75 18.9051 44.5718C18.9136 44.5641 18.9229 44.5579 18.9315 44.5506C18.9226 44.5511 18.9137 44.5523 18.9048 44.5529C17.9564 44.4289 17.0069 44.2862 16.0585 44.1623C16.6865 43.0489 17.7299 43.0738 18.6571 42.7907C18.9448 42.7096 19.2839 42.88 19.5367 42.5676C20.1838 41.0347 20.4212 40.794 21.3501 41.4425C20.8663 40.6923 20.6473 39.8686 21.19 38.6678C22.033 36.7761 21.6381 36.024 19.8801 35.309C19.832 35.3096 19.7984 35.2318 19.7656 35.1741C19.7164 35.0778 19.731 34.9607 19.826 34.8627C19.7939 34.8441 19.7618 34.8256 19.7297 34.8071C19.74 34.8 19.7504 34.7929 19.7607 34.7858C20.0799 34.6461 20.399 34.5064 20.7021 34.3668C21.1755 33.7209 21.1437 32.423 22.2703 32.6805C22.316 32.7464 22.3631 32.8095 22.4106 32.87C22.4621 32.8509 22.5174 32.8333 22.5745 32.8206C22.5596 32.7147 22.5791 32.6063 22.6379 32.5016C23.1378 31.4092 22.0198 31.8677 21.9012 31.3649C20.5848 31.2844 20.6131 29.7733 20.8294 29.1301C21.4643 27.2796 20.2992 27.7585 19.6539 27.495C19.6591 27.4886 19.6642 27.4823 19.6694 27.4759C18.6566 27.3335 17.5526 27.5988 16.6409 26.5629C18.5941 26.6573 20.5084 26.5748 22.3804 26.0669C22.6468 25.9853 22.9133 25.9037 23.1798 25.8221C22.536 24.3949 22.0653 22.7517 20.3026 22.9677C20.3706 21.978 21.0302 21.9894 21.4269 21.6354C21.7284 21.3602 22.1735 21.0434 21.9594 20.6002C20.9197 18.5827 22.1945 18.9186 23.0909 18.8417C23.0967 18.8416 23.1024 18.8415 23.1082 18.8414C23.5385 18.6033 24.2536 18.0512 23.7037 17.7089C22.976 17.2524 23.9176 15.5714 22.4767 15.8416C21.3399 16.0496 20.1489 15.755 18.9767 15.6921C18.941 15.5689 18.9425 15.4509 18.9723 15.3437C18.9563 15.3438 18.9398 15.3441 18.9237 15.3443C18.9218 15.3389 18.9207 15.3326 18.9188 15.3273C18.91 15.3391 18.901 15.351 18.8926 15.3636C17.7616 14.7571 16.6305 14.13 15.0471 13.2771C16.4084 13.224 17.4121 13.614 18.2896 13.138C17.4612 11.7859 17.5736 11.6345 19.1266 11.0157C20.0046 10.6557 19.2344 9.30934 20.1303 9.18106C20.3225 9.15927 20.5153 9.11799 20.7075 9.09619C21.1527 8.75109 20.8236 8.14867 20.8432 7.66258C20.2534 7.61377 19.6737 7.55275 19.0671 7.50674C19.1245 6.96333 19.6398 7.20743 19.7643 6.85783C19.759 6.85789 19.7538 6.85796 19.7486 6.85802C20.2721 6.3666 20.8856 6.59054 21.448 6.6417C22.3957 6.72666 23.1946 6.40791 23.9083 5.73967C24.2253 5.42545 24.5564 5.01399 24.9423 5.08656C27.3558 5.58006 29.2315 4.08136 31.1734 2.7964C31.5076 2.57915 31.8925 2.57371 32.2602 2.47219C32.9502 2.46357 33.491 2.0689 33.917 1.48172C34.5951 0.5429 35.448 0.726555 36.2688 0.929562C36.9452 1.11506 37.4206 1.92394 37.4291 2.60266C37.4418 3.62996 36.6319 2.96183 36.2004 3.10291C35.7688 3.24406 35.3357 3.26948 34.8701 3.25591C33.9708 3.20896 33.6411 3.83329 34.4388 4.73488C34.7895 5.85508 33.5645 5.38583 33.5095 6.12348C34.195 7.04569 35.6754 7.33738 35.3923 9.0471C35.3179 9.50799 35.0862 9.93239 34.726 10.0385C35.057 10.7017 34.9722 11.4151 34.4676 12.182C34.4698 12.3563 34.4566 12.5309 34.4426 12.6861C34.2461 13.1184 34.376 13.6785 34.3263 14.1649C34.4482 14.1174 34.5662 14.0754 34.6834 14.0222C35.9298 13.5994 37.1884 14.1444 38.4377 13.9544C39.0306 13.9165 39.5314 13.5938 40.0599 13.33C39.9181 13.2275 39.7556 13.1106 39.5489 12.9518C43.5726 12.5912 47.404 12.2331 51.2356 11.9137C51.7005 11.8691 52.1687 12.0773 52.6355 12.1878C52.8452 12.2912 53.0903 12.269 53.2929 12.3728C53.3796 12.2939 53.4672 12.2114 53.5499 12.1177C55.395 12.9025 57.223 12.318 59.0551 12.0621C58.8696 11.8466 58.7099 11.6209 58.8195 11.2753C59.0208 10.6732 59.5536 11.0143 59.9369 10.8938C60.973 10.5715 62.29 10.9972 62.8663 9.39691C62.0902 8.72871 61.4404 7.90433 61.0432 6.8646C60.8106 6.22761 60.4535 5.99927 59.9399 5.98629C59.5209 5.83645 59.0852 5.68612 58.6663 5.53627C59.0415 5.10332 59.4977 5.08614 59.9587 5.111C59.3892 3.63948 59.623 3.46224 61.1753 3.39114C61.833 3.36352 62.5016 2.87134 63.1513 3.48387C64.9714 4.02345 66.7963 3.61248 68.6245 3.51205C68.5112 3.57993 68.3972 3.64731 68.2838 3.71519C68.4152 3.67416 68.5423 3.62133 68.6561 3.5306C68.6456 3.52441 68.6351 3.51823 68.6245 3.51205C69.1668 3.2532 69.6934 3.01398 70.2356 2.75512C71.2669 1.81141 72.4787 2.49356 73.5989 2.24714C73.7123 2.16088 73.8262 2.08472 73.9393 2.01749C74.287 1.40491 74.8042 0.957466 75.2463 0.501057ZM360.225 92.7708C360.219 92.7709 360.214 92.771 360.208 92.771C360.211 92.7706 360.214 92.7694 360.217 92.769C360.22 92.7696 360.223 92.7702 360.225 92.7708ZM249.584 94.0951C249.579 94.1015 249.574 94.1079 249.569 94.1143C249.57 94.1076 249.569 94.1 249.57 94.0934C249.575 94.0936 249.58 94.0949 249.584 94.0951ZM192.26 92.6146C193.219 92.7421 194.161 92.9573 194.902 93.9415C195.053 93.3017 195.211 92.8754 195.409 92.651C194.367 92.7067 193.304 92.5837 192.26 92.6146ZM67.4561 89.8353C69.7635 88.2744 72.0114 89.6422 74.5673 89.9983C73.3129 91.0606 71.7902 89.8592 70.9251 91.2655C70.1066 91.2758 69.2881 91.286 68.4696 91.2962C68.0949 90.8551 67.1021 91.0225 67.4561 89.8353ZM42.9685 90.0448C43.2915 90.2153 43.5515 90.4449 43.3009 90.9328C42.5626 90.9226 41.8397 90.8928 41.1014 90.8826C40.9226 90.691 40.6792 90.5191 40.7224 90.1505C41.4763 90.1217 42.2146 90.0736 42.9685 90.0448ZM58.8571 88.759C59.3058 88.7148 59.9971 88.8424 60.0056 89.4814C60.016 90.3153 59.3211 89.956 58.8878 89.9614C58.6311 89.9646 58.3574 89.9291 58.1002 89.8936C58.1003 89.8999 58.1004 89.9062 58.1005 89.9125C57.4887 89.7456 56.8767 89.5794 56.0072 89.3382C57.0957 89.1113 57.9755 88.8476 58.8571 88.759ZM119.393 86.2579C120.079 85.9003 120.741 86.2398 121.402 86.4449C121.749 87.2746 121.776 88.1086 121.207 88.7752C120.669 89.4025 119.992 89.1588 119.409 88.7976C117.744 87.7909 115.809 88.2796 114.128 87.3313C115.923 87.212 117.703 87.1319 119.393 86.2579ZM107.895 86.9831C109.282 86.2289 110.539 86.601 111.778 86.9345C111.618 88.2743 110.694 87.491 110.168 87.7691C109.46 87.5647 108.705 87.5741 107.895 86.9831ZM259.463 84.6869C259.473 84.6895 259.484 84.6916 259.494 84.6941C259.489 84.6858 259.484 84.6779 259.48 84.6697C259.474 84.6753 259.468 84.6811 259.463 84.6869ZM110.355 78.7738C110.362 78.7849 110.371 78.7947 110.378 78.8057C110.382 78.8069 110.387 78.8081 110.392 78.8093C110.393 78.7952 110.394 78.7813 110.396 78.7676C110.382 78.7702 110.369 78.7716 110.355 78.7738ZM91.3392 71.9826C91.3324 71.9824 91.3256 71.983 91.3188 71.9829C91.3199 71.9835 91.3209 71.9841 91.322 71.9847C91.3277 71.984 91.3334 71.9833 91.3392 71.9826C91.3444 71.9827 91.3497 71.9842 91.3549 71.9843C91.3711 71.9876 91.3874 71.9899 91.4036 71.9932C91.4003 71.9783 91.3978 71.9638 91.3952 71.9497C91.3769 71.9613 91.3574 71.9703 91.3392 71.9826ZM194.926 69.5627C194.935 69.5626 194.943 69.5625 194.951 69.5624C194.943 69.555 194.934 69.5496 194.926 69.5419C194.926 69.5488 194.926 69.5558 194.926 69.5627ZM284.301 67.6689C284.308 67.6689 284.314 67.6707 284.32 67.6706C284.32 67.6643 284.32 67.658 284.32 67.6517C284.353 67.6512 284.387 67.6508 284.42 67.6504C284.393 67.6367 284.364 67.627 284.337 67.6117C284.335 67.6112 284.332 67.6104 284.33 67.6099C284.321 67.6302 284.311 67.6499 284.301 67.6689ZM327.074 66.3217C327.103 66.3214 327.132 66.321 327.16 66.3206C327.155 66.3061 327.151 66.2914 327.146 66.2773C327.122 66.2923 327.098 66.3054 327.074 66.3217ZM235.01 63.5897C235.017 63.5904 235.024 63.5925 235.032 63.5932C235.232 63.6093 235.388 63.557 235.215 63.5549C235.146 63.5671 235.078 63.5778 235.01 63.5897ZM259.794 59.0505C259.795 59.0461 259.795 59.0416 259.796 59.0372C259.782 59.0373 259.769 59.0375 259.755 59.0377C259.768 59.0419 259.781 59.0462 259.794 59.0505ZM136.227 55.2386C136.23 55.2163 136.234 55.1936 136.238 55.1703C136.213 55.1706 136.187 55.1709 136.162 55.1713C136.183 55.1937 136.205 55.2162 136.227 55.2386ZM143.195 55.0436C143.197 55.0436 143.198 55.0435 143.199 55.0435C143.199 55.041 143.199 55.0385 143.198 55.0359C143.198 55.0386 143.196 55.0409 143.195 55.0436ZM244.152 53.6244C244.22 53.6237 244.288 53.6244 244.356 53.6237C244.507 53.6083 244.658 53.5962 244.809 53.5802C244.59 53.5948 244.371 53.6094 244.152 53.6244ZM206.894 53.0257C206.898 53.0256 206.901 53.0256 206.905 53.0255C206.904 53.0243 206.903 53.023 206.902 53.0218C206.899 53.0226 206.897 53.0249 206.894 53.0257ZM17.3699 53.029C17.3803 53.0282 17.3908 53.0297 17.4012 53.0286C17.3901 53.0167 17.3792 53.0045 17.3678 52.9931C17.3685 53.0047 17.3689 53.0167 17.3699 53.029ZM5.5109 52.8269C5.51093 52.8294 5.51097 52.8319 5.511 52.8344C5.51612 52.8305 5.52138 52.8268 5.52653 52.8229C5.52132 52.8242 5.51611 52.8255 5.5109 52.8269ZM85.6386 49.8857C85.6444 49.8858 85.6501 49.8855 85.6559 49.8855C85.6512 49.8842 85.6464 49.8833 85.6417 49.8819C85.6407 49.8832 85.6397 49.8845 85.6386 49.8857ZM271.178 47.1991C271.16 47.1989 271.14 47.198 271.122 47.1979C271.122 47.2218 271.121 47.2451 271.121 47.268C271.14 47.2572 271.16 47.2483 271.179 47.2369C271.187 47.2225 271.198 47.2105 271.206 47.1968C271.197 47.1974 271.188 47.1984 271.178 47.1991ZM92.2577 43.5261C92.2849 43.5274 92.3121 43.5295 92.3392 43.5307C92.2723 43.5201 92.2051 43.5119 92.1383 43.5011C92.1776 43.5128 92.2182 43.5165 92.2577 43.5261ZM125.678 42.0155C125.676 42.0264 125.672 42.0371 125.669 42.0478C125.677 42.0425 125.686 42.0396 125.694 42.0342C125.696 42.0342 125.697 42.0342 125.699 42.0341C125.696 42.0266 125.695 42.0189 125.692 42.0115C125.688 42.0127 125.683 42.0143 125.678 42.0155ZM101.255 39.2012C101.26 39.2018 101.265 39.2024 101.27 39.2029C101.267 39.2004 101.263 39.198 101.259 39.1955C101.258 39.1977 101.256 39.199 101.255 39.2012ZM163.038 37.3342C163.226 37.3284 163.413 37.3249 163.601 37.3196C163.338 37.3141 163.078 37.3099 162.82 37.3047C162.892 37.3169 162.965 37.3233 163.038 37.3342ZM224.683 33.0198C224.692 33.0197 224.701 33.0196 224.71 33.0195C224.706 33.0164 224.701 33.0133 224.697 33.0102C224.693 33.0134 224.688 33.0165 224.683 33.0198ZM76.3395 30.1617C76.3175 30.1704 76.2944 30.175 76.2724 30.1834C76.2949 30.1889 76.3175 30.1939 76.34 30.1996C76.3882 30.236 76.4376 30.2703 76.4887 30.3075C76.5064 30.2627 76.5205 30.2127 76.5338 30.1574C76.4692 30.1591 76.4043 30.1598 76.3395 30.1617ZM219.704 25.3353C219.704 25.3341 219.705 25.3328 219.705 25.3315C219.704 25.3315 219.703 25.3316 219.702 25.3316C219.703 25.3328 219.703 25.3341 219.704 25.3353ZM159.224 25.686C159.231 25.6865 159.238 25.6871 159.246 25.6876C159.247 25.6814 159.247 25.6749 159.249 25.6686C159.241 25.6754 159.232 25.6795 159.224 25.686ZM139.851 20.4354C139.845 20.4454 139.841 20.4566 139.836 20.4659C139.863 20.4655 139.89 20.4652 139.917 20.4649C139.895 20.4567 139.873 20.4446 139.851 20.4354ZM278.306 10.1814C278.521 8.16162 279.594 9.19471 280.334 9.30184C281.41 9.4438 281.116 10.3982 280.95 11.2147C280.783 11.9926 279.91 12.6634 280.676 13.6236C279.685 13.9269 278.858 14.5968 277.983 15.1896C277.028 15.8412 276.244 15.967 276.142 14.2428C276.101 13.5645 275.762 13.4131 275.328 13.3022C275.329 13.2918 275.331 13.2818 275.332 13.2718C275.325 13.2753 275.319 13.2799 275.312 13.2834C274.107 13.1627 272.901 13.0421 271.696 12.9214C271.695 12.7983 271.693 12.6752 271.692 12.5521C273.398 12.5308 275.104 12.5095 276.81 12.4881C276.815 12.4944 276.821 12.5006 276.827 12.5069C276.668 12.5872 276.51 12.6673 276.354 12.7476C276.553 12.7716 276.733 12.7511 276.843 12.5275C276.843 12.5142 276.843 12.501 276.843 12.4877C276.837 12.4815 276.832 12.4752 276.827 12.469C277.801 12.1657 278.19 11.1911 278.306 10.1814ZM298.66 9.17126C298.968 10.7755 297.891 10.5371 297.203 10.7199C296.499 10.9032 295.939 11.0268 296.817 11.9274C297.239 12.3682 297.231 12.9324 296.9 13.4795C295.862 15.141 293.258 14.9401 292.531 13.2424C294.087 11.9042 295.611 10.5661 297.151 9.22799C297.648 9.22178 298.146 9.19707 298.643 9.17147C298.648 9.1714 298.654 9.17133 298.66 9.17126ZM113.866 15.9606C113.892 15.9975 113.91 16.0404 113.929 16.083C113.987 16.0867 114.045 16.0904 114.103 16.0941C114.024 16.0432 113.946 15.9986 113.866 15.9606ZM319.491 10.4413C320.435 8.95604 321.605 8.80692 323.039 9.27375C325.375 10.0397 327.74 10.4935 330.137 9.64906C330.472 9.5285 330.857 9.40846 331.311 9.82947C330.381 11.1792 329.036 11.4282 327.802 11.5988C326.729 11.748 325.594 12.0333 324.496 11.5625C324.077 11.3739 323.661 11.4759 323.296 11.8483C321.997 13.2028 320.326 13.0697 318.79 13.4767C317.719 13.7617 317.72 12.5783 317.373 11.8068C317.373 11.8005 317.373 11.7942 317.373 11.7879C318.155 11.4678 318.971 11.243 319.491 10.4413ZM285.148 10.6395C285.401 11.6441 284.663 11.5377 284.249 11.7947C283.702 11.6852 283.058 12.8757 282.792 12.0838C282.525 11.2727 283.566 11.1816 284.076 10.865C284.378 10.6674 284.78 10.7021 285.148 10.6395ZM58.3097 14.7459C58.0888 14.4642 57.855 14.2687 57.4797 14.5517C57.7099 14.5885 58.1014 14.5514 58.17 14.8575C58.2153 14.8064 58.262 14.7696 58.3097 14.7459ZM119.951 14.0417C119.944 14.0341 119.936 14.0294 119.929 14.023C119.923 14.0231 119.916 14.0231 119.91 14.0232C119.924 14.03 119.938 14.0346 119.951 14.0417ZM177.002 9.91542C177.007 9.92167 177.012 9.92791 177.018 9.93416C177.343 10.2985 178.115 10.4058 177.772 11.1464C177.476 11.7899 176.94 11.3511 176.504 11.0657C176.035 10.7613 175.565 10.4961 174.886 10.0782C175.398 9.97493 175.75 9.912 176.118 9.82986C176.407 9.86502 176.713 9.89963 177.002 9.91542ZM191.869 10.4077C191.863 10.4077 191.858 10.4078 191.853 10.4079C191.857 10.4063 191.86 10.4036 191.864 10.402C191.865 10.404 191.867 10.4057 191.869 10.4077ZM151.654 6.74151C152.168 6.8513 152.826 6.82361 152.741 7.75449C152.686 8.43402 152.275 8.9829 151.697 8.95134C151.055 8.92058 150.645 8.18913 150.589 7.56927C150.532 6.91053 151.173 6.82464 151.654 6.76045C151.654 6.75414 151.654 6.74782 151.654 6.74151Z" fill="url(#paint0_linear_399_159)"/>
</g>
<defs>
<filter id="filter0_d_399_159" x="0" y="0" width="407.942" height="105.288" filterUnits="userSpaceOnUse" color-interpolation-filters="sRGB">
<feFlood flood-opacity="0" result="BackgroundImageFix"/>
<feColorMatrix in="SourceAlpha" type="matrix" values="0 0 0 0 0 0 0 0 0 0 0 0 0 0 0 0 0 0 127 0" result="hardAlpha"/>
<feOffset dy="4"/>
<feGaussianBlur stdDeviation="2"/>
<feComposite in2="hardAlpha" operator="out"/>
<feColorMatrix type="matrix" values="0 0 0 0 1 0 0 0 0 1 0 0 0 0 1 0 0 0 1 0"/>
<feBlend mode="normal" in2="BackgroundImageFix" result="effect1_dropShadow_399_159"/>
<feBlend mode="normal" in="SourceGraphic" in2="effect1_dropShadow_399_159" result="shape"/>
</filter>
<linearGradient id="paint0_linear_399_159" x1="4.00616" y1="48.4082" x2="404.006" y2="48.4082" gradientUnits="userSpaceOnUse">
<stop stop-color="#00BF63" stop-opacity="0.8"/>
<stop offset="1" stop-color="#0053A0"/>
</linearGradient>
</defs>
</svg>
