<svg width="608" height="105" viewBox="0 0 608 105" fill="none" xmlns="http://www.w3.org/2000/svg">
<g filter="url(#filter0_d_392_3727)">
<path d="M111.216 0.5065C112.172 -0.164024 113.496 -0.159988 114.731 0.4655C116.184 1.20495 117.685 1.94231 119.453 0.796795C119.835 0.540203 120.512 0.649349 120.974 0.99308C120.965 0.993179 120.956 0.993279 120.948 0.993382C121.749 1.5658 122.64 1.53696 123.649 1.40886C124.538 1.30151 125.524 1.07512 126.302 1.68664C126.783 1.68103 127.264 1.67542 127.745 1.6698C127.745 1.66349 127.745 1.65718 127.745 1.65086C128.707 1.75027 129.857 1.41114 130.537 2.22059C131.013 2.19897 131.48 2.25122 131.944 2.3235C132.462 2.3047 132.98 2.29088 133.504 2.26363C134.274 2.23525 134.95 2.30472 135.271 2.9798C135.493 3.44249 135.424 3.87008 134.947 4.20524C134.789 4.31962 134.615 4.41583 134.435 4.49342C134.216 4.64256 133.936 4.75104 133.607 4.82129C132.527 5.06663 131.416 4.88684 130.336 5.13219C130.018 5.17064 129.712 5.23466 129.419 5.32471C129.456 5.4866 129.564 5.64524 129.791 5.79767C130.325 6.15978 131.073 6.32651 131.417 6.88483C131.736 7.40451 132.703 7.9159 131.264 8.3204C130.979 8.40046 130.667 8.44643 130.359 8.52605C130.097 8.77191 129.787 9.0199 129.477 9.2807C130.433 9.81181 131.573 9.72145 132.631 9.81779C132.622 9.81158 132.614 9.80537 132.605 9.79916C132.971 9.88067 133.335 9.93388 133.693 9.96829C134.279 9.97506 134.859 9.98391 135.435 9.98017C137.421 9.82814 139.317 9.17529 141.237 8.72871C141.861 8.58369 142.438 8.25808 143.091 8.08393C143.104 8.02206 143.122 7.95888 143.129 7.89219C143.526 6.89841 144.484 6.45933 145.612 6.13586C145.757 6.11448 145.9 6.10186 146.042 6.09486C147.357 5.23997 148.694 6.5498 150.018 6.39507C150.982 6.51957 151.924 6.74119 152.908 6.43901C153.121 6.42746 153.335 6.41161 153.551 6.39552C153.661 6.30426 153.77 6.20266 153.867 6.07932C155.305 5.51947 156.232 4.38299 157.717 3.80322C158.484 3.50373 159.204 3.37811 159.997 3.31069C160.694 3.24437 161.709 3.56338 161.401 3.97427C160.359 5.42155 163.242 7.01728 161.446 7.85274C160.249 8.40965 158.376 8.87699 156.665 8.66425C155.146 8.488 153.073 8.16393 152.923 9.75531C152.749 11.3865 155.079 10.8549 156.309 11.0151C159.708 11.4602 163.219 11.2852 166.529 12.2937C167.374 12.5553 168.262 12.2336 169.126 12.0683C170.423 11.801 171.677 11.8443 172.674 12.686C173.239 13.1513 173.886 13.3464 174.566 13.4367C175.2 13.406 175.837 13.3599 176.461 13.4563C176.53 13.4555 176.6 13.4547 176.67 13.4539C176.649 13.3841 176.632 13.3012 176.627 13.2025C178.98 12.7096 181.317 12.8956 183.679 13.1202C183.861 13.2134 184.027 13.3043 184.18 13.3871C186.614 12.6832 189.059 13.1112 191.482 13.3985C191.698 13.3378 191.915 13.2963 192.155 13.2353C193.167 13.3592 194.204 13.5217 195.215 13.6068C197.336 13.776 199.409 13.9257 200.347 11.8007C200.676 11.0801 201.635 10.8943 202.524 10.7676C202.562 10.6952 202.601 10.6228 202.639 10.5504C203.883 8.37983 207.411 8.51529 208.905 6.60015C208.905 6.60647 208.905 6.61278 208.905 6.61909C209.49 6.57452 210.052 6.52877 210.636 6.46632C210.642 6.45864 210.653 6.45292 210.659 6.44521C211.755 5.48207 213.128 5.54249 214.551 5.71985C215.088 6.37301 215.388 7.22342 216.724 6.23808C217.608 5.58832 219.758 6.39684 219.99 7.65461C220.247 9.02837 221.456 9.55757 222.356 10.3809C222.227 11.212 222.682 12.1393 222.117 12.9047C222.127 12.9044 222.136 12.9045 222.146 12.9044C222.651 12.8793 222.99 13.1282 223.378 13.337C224.686 14.421 226.279 15.0492 228.112 15.3008C228.193 15.2154 228.296 15.1221 228.428 15.0225C229.151 15.0916 229.92 14.9276 230.645 15.1709C231.945 15.1751 233.221 15.1801 234.521 15.1844C236.421 14.9876 238.389 14.3839 240.112 15.6438C240.125 15.6974 240.125 15.7499 240.128 15.8008C242.935 15.4551 245.723 15.3909 248.539 15.7197C250.538 15.8709 252.563 16.0607 254.58 15.7269C256.197 16.057 257.856 15.766 259.469 15.8441C260.003 15.8706 260.689 15.6435 261.08 16.0545C262.419 16.1401 263.775 16.2688 265.129 16.1664C265.947 16.0986 266.74 15.9338 267.094 15.2703C267.423 14.6458 266.744 14.3635 266.259 14.0394C265.871 13.7724 265.578 13.4451 265.718 13.0362C265.905 12.5689 266.484 12.6771 266.941 12.6526C268.047 12.5621 269.159 12.7836 270.263 12.4604C271.128 11.3059 271.353 9.61367 273.536 9.49027C273.955 9.17537 274.493 9.27096 274.991 9.31987C275.304 9.27744 275.761 9.31074 275.904 9.15391C278.59 6.23326 281.885 7.96008 284.899 8.44855C286.178 8.66636 287.313 8.96411 288.509 8.36855C288.849 8.57797 289.213 8.92155 288.54 8.98755C287.561 9.07615 286.894 9.58081 286.063 9.82521C286.058 9.8213 286.053 9.81788 286.048 9.81401C284.28 10.0663 282.773 10.3025 281.544 11.8231C280.524 13.0954 278.173 13.6667 276.401 14.5404C275.827 14.8186 274.52 14.3303 274.774 15.4515C274.952 16.264 275.634 16.8966 276.765 16.864C279.556 16.7927 282.377 17.2049 285.112 16.3973C285.832 16.1755 286.676 16.2251 287.469 16.1576C288.098 16.3634 288.867 16.394 289.258 16.9323C290.432 18.5473 292.166 18.5463 294.085 18.0199C294.206 18.0573 294.328 18.0355 294.423 17.9762C296.61 17.6985 298.548 16.6093 300.86 16.7761C305.446 17.828 310.026 16.3412 314.628 16.7139C315.819 16.815 316.983 16.7277 318.039 17.2935C320.304 17.6731 322.589 17.7266 324.896 17.6415C326.146 17.5884 327.209 17.9628 328.297 18.3765C329.989 19.0355 331.412 19.1551 331.654 17.1555C331.697 16.7671 331.958 16.4325 332.438 16.2524C332.438 16.2593 332.438 16.2662 332.438 16.2732C332.439 16.3469 332.449 16.4213 332.455 16.4965C332.472 16.4153 332.482 16.3332 332.485 16.2518C332.47 14.9725 331.762 14.0042 330.359 13.3484C332.326 13.3253 333.904 12.94 334.997 11.7147C334.985 11.7179 334.973 11.7213 334.962 11.7246C335.459 11.0593 335.787 10.3755 335.705 9.58129C335.626 8.92368 336.155 8.87876 336.782 8.96832C337.263 8.92392 337.745 8.87889 338.226 8.8151C339.349 8.802 340.471 8.7889 341.594 8.7758C341.739 8.8129 341.909 8.85077 342.054 8.88787C342.894 8.74255 343.211 9.10666 343.291 9.70682C343.343 10.0359 343.297 10.3665 342.842 10.5076C342.171 10.7086 341.853 10.2667 341.465 9.96109C341.197 9.73149 340.858 9.55979 340.543 9.36953C340.551 9.36313 340.559 9.35673 340.567 9.35032C340.302 9.35341 340.037 9.3565 339.772 9.35959C339.742 9.46033 339.712 9.56107 339.682 9.6618C339.301 11.1245 339.987 11.952 342.092 11.969C342.106 11.9625 342.122 11.9583 342.137 11.9515C342.905 11.7874 343.62 11.1584 344.566 11.7868C343.857 12.9194 342.34 12.7641 341.189 13.1652C341.179 13.1724 341.167 13.1793 341.157 13.1865C341.159 13.1856 341.161 13.1854 341.164 13.1845C339.879 14.4019 339.78 16.2461 337.817 17.0836C337.817 17.0781 337.818 17.0719 337.819 17.0665C337.389 17.1648 336.805 17.1995 336.787 17.6771C336.768 18.1035 337.275 18.1175 337.66 18.1518C338.214 18.1841 338.767 18.2158 339.32 18.1513C341.676 17.9299 343.819 17.9437 344.449 20.3606C344.601 20.96 345.372 21.0099 346.023 21.0411C348.311 21.1308 350.625 21.2962 352.906 20.8623C352.947 20.8513 352.986 20.8369 353.026 20.8249C352.97 20.8307 352.914 20.8395 352.857 20.8439C354.221 20.1879 354.034 18.4845 355.787 18.0956C355.784 18.1346 355.773 18.1729 355.77 18.2113C355.79 18.1786 355.813 18.1466 355.834 18.114C355.979 18.1123 356.099 18.072 356.219 18.0318C357.291 17.069 358.679 16.4508 359.628 15.276C360.791 13.8469 360.352 13.3095 358.662 12.825C358.372 12.7508 358.152 12.5396 357.909 12.3679C357.497 12.1207 357.204 11.8331 357.199 11.3875C357.053 11.0075 356.908 10.628 357.451 10.3693C357.454 10.3714 357.457 10.3729 357.46 10.3749C357.458 10.3722 357.455 10.3701 357.453 10.3674C357.452 10.368 357.451 10.3687 357.451 10.3693C357.444 10.3647 357.436 10.3611 357.429 10.3563C357.434 10.3563 357.439 10.3562 357.443 10.3561C357.439 10.3499 357.434 10.3437 357.429 10.3374C358.579 9.93606 358.4 9.06518 358.56 8.30703C359.028 8.30156 359.475 8.31347 359.942 8.32688C359.955 8.32112 359.969 8.31508 359.982 8.30937C359.982 8.31569 359.982 8.322 359.982 8.32831C362.408 7.8932 364.752 8.64245 367.134 8.59526C367.143 8.60138 367.152 8.60787 367.16 8.6139C367.801 8.60744 368.443 8.6368 369.083 8.62934C370.554 9.74797 369.524 12.1337 367.256 12.8213C367.247 12.8336 367.241 12.8493 367.231 12.8614C367.216 12.8675 367.201 12.8729 367.187 12.879C366.432 13.5397 365.761 14.1288 366.56 15.1762C367.257 16.1021 366.742 16.7579 365.33 16.7228C365.312 16.7278 365.296 16.7377 365.278 16.7424C364.413 16.7912 363.546 16.7817 362.705 16.869C361.215 17.0221 361.605 17.4837 362.453 17.9781C362.621 17.9761 362.814 17.936 362.911 18.0125C366.208 20.029 369.302 18.9466 372.44 17.6494C374.884 16.6319 379.391 17.2774 381.264 18.9234C382.09 19.6506 383.037 20.2016 384.166 20.0336C387.29 19.6092 390.328 19.9228 393.366 20.3335C393.368 20.3384 393.369 20.3437 393.371 20.3486C393.465 20.2732 393.583 20.2533 393.701 20.2708C393.703 20.2708 393.704 20.2708 393.706 20.2708C393.704 20.2645 393.703 20.2582 393.701 20.2519C395.302 19.2053 397.18 19.0665 399.131 19.2377C401.902 19.4768 404.429 19.4283 406.67 17.5796C408.577 15.9865 413.218 17.6572 413.537 20.2326C413.751 22.0726 414.855 21.6723 416.107 21.6383C416.997 21.6279 417.863 21.56 418.752 21.5108C418.868 21.4974 418.975 21.4681 419.078 21.4351C418.961 21.4534 418.845 21.4751 418.729 21.4922C419.968 20.3916 421.182 19.2899 421.091 17.6424C421.087 17.2937 421.131 16.9836 421.611 16.8617C422.163 16.7196 422.575 16.9468 422.82 17.2927C423.432 18.2164 424.133 18.5192 425.255 17.7113C425.494 17.5341 426.118 17.4692 426.385 17.6015C429.458 18.9815 432.694 17.5861 435.828 17.9762C437.322 18.1524 438.81 17.7849 439.637 16.4374C440.062 15.7345 440.948 15.2981 442.032 15.4018C442.04 15.408 442.048 15.4142 442.056 15.4205C443.594 15.228 444.827 15.6983 445.896 16.5197C447.532 17.7901 449.492 18.2854 451.633 18.3828C451.942 18.3886 452.252 18.3945 452.561 18.4003C453.152 17.4824 454.185 17.2375 455.364 17.2236C457.016 17.2044 458.667 17.1851 460.319 17.1658C460.33 17.1611 460.341 17.1571 460.352 17.1522C460.359 17.0501 460.398 16.9594 460.44 16.8538C460.424 16.854 460.409 16.8542 460.393 16.8544C462.675 16.4791 465.162 17.2445 467.29 16.0371C470.307 14.5861 473.317 14.5121 476.438 15.8527C477.041 16.1163 477.831 16.0698 478.529 16.1768C478.523 16.1643 478.515 16.1519 478.51 16.1392C480.628 14.0587 486.253 13.3531 490.413 15.0306C493.122 16.1238 495.966 16.4016 498.559 15.7897C501.991 14.9545 505.525 14.3898 508.908 13.4776C508.924 13.4705 508.939 13.4633 508.955 13.4562C509.421 13.392 509.888 13.3279 510.354 13.2637C513.624 12.8538 516.931 12.7223 520.236 12.531C522.785 12.3849 525.358 12.1989 527.913 12.4793C528.081 12.4773 528.25 12.4754 528.418 12.4734C530.292 12.1412 532.221 12.3507 534.12 12.1929C534.234 12.3898 534.355 12.5165 534.475 12.5959C534.553 12.5614 534.63 12.5247 534.702 12.4778C535.394 11.9654 536.212 11.8972 537.08 11.9841C537.923 12.013 538.766 12.0427 539.506 11.5883C541.864 11.4638 543.9 10.5859 545.377 9.21099C547.758 7.01125 550.643 6.68687 553.898 7.15314C553.898 7.15945 553.898 7.16576 553.898 7.17207C554.619 7.04735 555.271 7.17496 555.9 7.49722C555.907 7.50429 555.915 7.51087 555.922 7.51781C559.462 7.63763 561.81 9.4558 564.177 11.2607C566.585 12.7523 568.994 14.2438 571.402 15.7354C571.39 15.7525 571.376 15.7684 571.365 15.7851C571.386 15.7684 571.407 15.7518 571.428 15.7351C572.203 16.2106 573.265 16.4698 573.396 17.4376C573.388 17.4509 573.381 17.4643 573.373 17.4776C574.063 18.7486 576.183 18.9762 576.611 20.5025C576.781 21.1384 577.26 21.7349 577.256 22.4232C577.265 22.4333 577.272 22.4451 577.282 22.455C578.091 23.7062 578.519 25.1751 580.166 25.9898C580.146 25.9906 580.126 25.9896 580.107 25.9905C580.126 25.9963 580.146 26.0028 580.166 26.0087C583.934 27.167 587.954 27.1405 591.859 27.6186C595.24 28.0422 598.409 28.7564 600.602 31.049C600.614 31.0539 600.626 31.0588 600.637 31.0637C601.543 32.372 602.45 33.7012 603.38 35.0092C604.19 38.3937 604.373 41.7276 602.268 44.894C601.89 45.4606 601.462 46.0083 601.084 46.5556C600.575 47.2033 600.018 47.7408 599.348 48.1195C599.342 48.2879 599.32 48.4535 599.253 48.6131C599.229 48.6444 599.208 48.677 599.186 48.7085C599.224 48.684 599.262 48.6576 599.302 48.6333C599.437 49.9116 598.898 51.0822 598.43 52.2706C598.418 52.23 598.406 52.1884 598.394 52.1479C598.389 52.182 598.386 52.2163 598.381 52.2503C598.391 53.0887 598.049 53.8371 597.474 54.5319C597.48 54.5383 597.488 54.544 597.493 54.5506C596.093 58.3098 592.874 60.9657 589.267 63.3932C588.189 63.7743 587.354 64.501 587.099 65.3183C586.147 68.3356 583.498 70.3262 581.044 72.4688C581.241 72.8157 581.05 73.0893 580.691 73.2874C579.083 73.5778 577.745 74.3508 576.624 75.2365C574.334 77.0669 571.675 78.3771 568.725 79.2455C565.199 80.2951 562.452 82.0534 559.781 84.2175C556.013 87.2289 551.268 89.2048 545.982 90.1004C545.117 90.2462 544.251 90.3732 543.387 90.519C543.372 90.5242 543.355 90.5258 543.34 90.5309C543.348 90.5329 543.356 90.5362 543.364 90.5382C541.742 91.4858 539.818 91.1828 537.994 91.3566C537.989 91.356 537.983 91.3554 537.978 91.3549C536.027 92.1313 533.88 92.0056 531.875 91.9905C524.244 91.9825 516.694 92.9046 509.091 93.2261C507.961 93.278 506.854 93.2526 505.723 93.2464C505.714 93.2528 505.706 93.2592 505.697 93.2657C502.491 92.918 499.309 92.5699 496.103 92.2222C496.095 92.2258 496.089 92.2302 496.082 92.2338C495.456 92.2411 494.806 92.2691 494.18 92.2958C494.151 92.3023 494.12 92.3057 494.091 92.312C493.618 92.7958 492.965 93.0258 492.237 92.9965C488.505 92.8656 484.853 93.3939 481.249 93.9789C477.148 94.6386 473.093 94.0619 469.012 94.0781C468.71 94.0894 468.408 94.0994 468.107 94.1133C468.107 94.1259 468.107 94.1386 468.108 94.1512C468.04 94.152 467.971 94.1527 467.903 94.1536C468.22 95.2868 466.844 95.2612 466.001 95.3785C463.551 95.7365 461.067 95.3002 458.612 95.3094C452.787 95.3773 446.984 95.3282 441.214 96.0162C439.556 96.21 437.897 96.3257 436.233 96.0156C434.307 96.038 432.357 96.0612 430.431 96.0643C430.432 96.0706 430.432 96.0769 430.432 96.0833C422.495 96.7383 414.741 94.4436 406.757 95.1378C405.143 95.2698 403.566 94.6504 402.037 94.1871C402.01 94.1864 401.982 94.1869 401.955 94.1862C397.956 93.9225 393.869 94.4349 389.933 93.4722C389.918 93.4661 389.902 93.46 389.886 93.4538C389.89 93.4528 389.894 93.4509 389.898 93.4499C388.669 93.1195 387.256 93.2883 386.097 92.7025C386.098 92.6955 386.099 92.6886 386.099 92.6817C386.099 92.6823 386.098 92.683 386.097 92.6836C384.773 92.6991 383.425 92.7152 382.101 92.7113C382.129 92.6872 382.159 92.6635 382.187 92.6402C382.119 92.6695 382.05 92.6992 381.981 92.7316C381.711 92.7348 381.459 92.7647 381.194 92.7882C381.209 92.8044 381.223 92.8207 381.237 92.8369C381.228 92.8369 381.218 92.8354 381.209 92.8353C381.21 92.836 381.211 92.8366 381.211 92.8372C381.22 92.8371 381.229 92.837 381.237 92.8369C380.654 94.4341 382.457 94.2199 383.376 94.6359C383.909 94.8815 384.749 94.8524 384.661 95.532C384.572 96.173 383.778 96.1442 383.153 96.2485C380.364 96.5328 377.849 95.4947 375.174 95.2544C373.271 95.0827 374.866 93.7077 373.924 93.2916C373.306 93.2792 372.687 93.2475 372.045 93.2358C372.045 93.2144 372.037 93.1931 372.035 93.1715C372.031 93.1919 372.031 93.2131 372.024 93.2342C361.918 92.9477 351.929 94.5374 341.849 94.4613C334.65 94.3901 327.475 94.3186 320.277 94.2281C319.844 94.2331 319.389 94.0988 318.953 94.0068C318.951 94.008 318.95 94.0093 318.948 94.0106C318.177 93.8645 317.404 93.6988 316.632 93.5527C316.616 93.5397 316.6 93.5266 316.585 93.5135C312.096 92.5768 307.563 91.8924 302.802 92.3163C303.996 91.5077 305.293 91.2982 306.618 91.3797C308.231 91.4771 308.415 90.7584 308.332 89.7706C308.861 89.7062 309.463 89.6786 309.19 89.003C309.198 88.9938 309.206 88.9852 309.213 88.9762C309.198 88.9787 309.182 88.9818 309.166 88.9843C308.709 88.9702 308.251 88.9367 307.769 88.9229C307.769 88.9292 307.77 88.9356 307.77 88.9419C307.758 88.936 307.746 88.931 307.734 88.9252C307.737 88.9498 307.743 88.9748 307.744 89.0009C305.025 89.0326 302.306 89.1037 299.586 89.1548C299.594 89.1351 299.602 89.1155 299.609 89.0958C298.149 89.7528 296.713 90.3913 295.252 91.0482C294.18 91.5956 293.057 91.8579 291.911 91.9812C292.259 92.1078 292.666 92.3426 293.151 92.6827C293.782 93.1213 294.653 93.3817 294.783 94.1751C294.324 94.1805 293.865 94.1858 293.406 94.1912C293.407 94.1978 293.41 94.2052 293.411 94.2119C293.402 94.2122 293.394 94.2119 293.385 94.2122C293.386 94.3283 293.341 94.4452 293.319 94.5615C291.898 94.5781 290.478 94.6325 289.057 94.6491C287.76 94.8 286.486 94.9506 285.189 95.1015C284.706 94.9907 284.198 94.862 283.715 94.7512C283.707 94.7513 283.699 94.7514 283.692 94.7515C283.696 94.7513 283.701 94.7497 283.706 94.7494C283.42 94.7332 283.133 94.6995 282.847 94.6837C282.839 94.6838 282.831 94.6839 282.823 94.684C282.531 94.7038 282.238 94.7236 281.945 94.7435C281.072 94.7727 280.218 94.6941 279.401 94.3546C279.394 94.3546 279.386 94.3547 279.378 94.3548C279.521 94.2175 279.686 94.0792 279.829 93.9613C279.949 93.8823 280.142 93.8027 280.165 93.7055C280.475 92.8787 280.732 92.3488 281.131 92.0426C280.938 92.0435 280.746 92.0461 280.555 92.0531C279.905 92.0607 279.28 92.1455 278.841 91.6469C278.059 90.6283 276.141 91.2509 275.405 90.1547C275.116 90.1581 274.803 90.122 274.514 90.1254C273.876 89.1246 272.381 89.0248 271.53 88.2396C271.386 88.2412 271.241 88.224 271.097 88.2257C270.851 88.0178 270.794 87.7977 270.88 87.5729C270.101 87.6104 269.331 87.5886 268.701 87.1286C268.705 87.1058 268.713 87.0839 268.719 87.0621C268.713 87.0652 268.706 87.0687 268.7 87.0718C266.808 86.3352 264.896 85.7218 262.742 85.9935C264.06 86.7745 265.509 87.4452 266.241 88.7294C266.267 88.8451 266.291 88.9612 266.316 89.077C266.308 89.0771 266.3 89.0772 266.293 89.0773C264.186 92.166 260.964 90.3225 258.147 90.3163C259.476 88.7886 258.579 88.1394 256.698 87.8122C256.183 87.7241 255.688 87.4889 255.195 87.3032C255.172 87.3047 255.149 87.306 255.126 87.3078C254.985 87.3095 254.82 87.2906 254.677 87.2733C253.41 87.4013 252.355 87.1991 251.768 86.1632C251.771 86.1568 251.774 86.1505 251.777 86.1442C251.774 86.1442 251.771 86.1443 251.768 86.1443C250.054 85.7376 248.271 85.7967 246.513 85.7396C246.502 85.7287 246.487 85.7204 246.475 85.7098C246.471 85.7258 246.472 85.743 246.467 85.7591C244.779 85.5073 243.259 85.2348 243.766 87.4593C243.995 88.4842 242.844 88.964 241.521 88.9988C240.245 89.0137 238.969 88.9506 237.796 89.5461C235.929 90.4794 235.793 91.2184 237.347 92.364C237.881 92.7455 238.536 93.0483 238.711 93.6474C235.195 93.4751 231.696 92.8562 228.135 93.0529C224.934 93.0903 221.708 93.1284 218.507 93.1463C218.523 93.1392 218.54 93.132 218.556 93.1249C216.656 93.2441 215.254 92.7171 214.107 91.4116C212.826 89.9173 210.353 89.8701 208.649 88.8312C208.539 88.7573 208.429 88.6835 208.319 88.6096C208.123 88.492 207.926 88.3743 207.73 88.2566C206.423 87.5296 204.939 87.011 203.763 86.1229C203.674 86.0526 203.585 85.9822 203.497 85.9119C200.874 85.9425 198.251 85.9731 195.627 86.0037C196.049 87.0263 197.198 86.4695 197.711 87.0647C195.765 87.3784 193.859 87.1679 191.958 87.2095C190.768 86.2931 189.206 86.5054 187.784 86.3282C187.492 86.0601 186.794 86.0098 186.957 85.5424C186.989 85.4346 187.308 85.3924 187.622 85.3528C187.142 84.9423 186.636 84.6216 185.719 84.8579C184.015 85.3043 182.471 84.8954 181.042 84.117C180.024 83.5471 178.816 83.2514 177.638 83.3233C175.497 83.4647 173.405 83.6437 171.303 83.0089C170.627 82.8035 169.542 82.8163 169.165 83.5188C167.985 85.569 165.798 85.8076 163.439 85.777C162.5 85.7686 161.516 85.9931 160.598 85.6548C160.589 85.6549 160.58 85.655 160.572 85.6551C159.261 85.4185 157.951 85.1819 156.64 84.9453C156.646 84.9375 156.653 84.9299 156.659 84.9223C156.652 84.9233 156.646 84.9253 156.64 84.9263C155.702 84.9373 154.788 84.9475 153.85 84.9778C153.801 84.9861 153.753 84.9982 153.707 85.0079C153.755 85.0106 153.804 85.017 153.85 85.0176C153.263 86.5054 152.117 88.0659 154.551 89.0854C154.65 89.1135 154.747 89.14 154.837 89.1749C154.981 89.1732 155.125 89.1919 155.27 89.2096C155.752 89.204 156.234 89.1983 156.715 89.1927C157.393 91.5696 157.368 91.6079 154.451 91.1378C153.076 90.9211 151.63 90.8033 150.442 90.0804C150.45 90.0803 150.458 90.0802 150.465 90.0801C147.554 90.1528 144.827 89.5253 142.169 88.6256C142.172 88.6117 142.176 88.5974 142.18 88.5839C142.176 88.584 142.172 88.5857 142.168 88.5859C141.097 88.5433 140.007 88.6735 139.051 88.1885C138.979 88.1865 138.909 88.1897 138.842 88.1985C137.734 88.1925 136.689 87.739 135.541 87.97C135.573 88.9856 136.32 89.4113 137.507 89.4358C137.916 89.431 138.302 89.427 138.688 89.4807C139.507 89.5874 140.878 89.4741 140.792 90.3085C140.683 91.3183 139.306 91.0052 138.438 90.8795C137.136 90.7007 135.949 90.0167 134.508 90.2663C133.64 90.1601 132.726 90.1894 131.953 89.9078C128.448 88.6686 124.74 88.6733 121.034 88.8135C120.964 91.0056 120.796 91.1044 118.14 90.3985C117.298 89.527 115.203 89.7301 115.204 88.1826C115.179 88.1827 115.154 88.1834 115.129 88.1835C109.37 87.7076 103.587 87.2904 97.7838 87.1642C97.8158 87.1512 97.8478 87.1382 97.8797 87.1252C97.8785 87.1082 97.8736 87.0909 97.8721 87.0741C97.8662 87.0775 97.8617 87.0824 97.8557 87.0857C97.3031 87.1697 96.6779 87.2155 96.336 86.7928C95.0645 85.0821 93.043 85.1247 91.0735 85.4772C88.431 85.9347 85.4905 85.6404 83.2713 87.3146C83.2427 87.3058 83.2127 87.2977 83.184 87.2891C83.2039 87.3105 83.2262 87.3307 83.2459 87.3527C83.2623 87.3526 83.2788 87.3524 83.2952 87.3522C83.7064 87.5219 84.1409 87.6727 84.8421 87.9554C83.4024 88.3405 82.0011 87.9119 80.8279 88.4492C80.0818 88.4579 79.3602 88.5042 78.6141 88.5129C77.1547 88.3853 75.4817 87.8226 74.9292 89.4291C76.3425 89.6577 75.965 91.151 76.7277 91.8514C77.0194 92.1195 76.2524 92.5159 75.7934 92.3661C74.9961 92.1236 73.7219 92.1382 74.0221 91.0685C74.1113 90.7816 74.1404 90.5756 74.0425 90.394C73.937 90.4288 73.8244 90.4563 73.7025 90.4718C73.2204 90.3999 72.7391 90.4041 72.2796 90.2157C72.1989 90.2166 72.1182 90.2176 72.0375 90.2185C71.9576 90.2258 71.8778 90.233 71.798 90.2402C69.3058 91.2197 67.1744 90.2167 65.0227 89.4272C63.1401 88.9646 61.189 88.8325 59.2386 88.739C59.2282 88.7324 59.2162 88.7269 59.2055 88.7204C57.5571 88.8475 55.9252 88.3917 54.231 88.7197C52.9099 88.9679 51.2099 89.8599 50.5583 87.6564C50.2822 86.7683 48.2815 86.3261 46.7441 86.5569C41.7699 87.3132 36.9212 86.5757 32.0513 85.9537C31.5951 85.901 31.1612 85.7134 30.7281 85.5827C27.959 85.8656 25.7108 84.2613 22.9806 84.2545C21.8975 84.2671 21.8875 83.4915 22.6026 82.8819C23.1744 82.3905 24.2321 82.2815 24.3913 81.4462C23.7858 81.1236 23.3955 80.6618 22.9568 80.2015C22.1045 79.3389 22.29 78.7351 23.5389 78.5071C23.9914 78.4288 24.3815 78.2454 24.7654 78.0534C24.1969 77.9527 23.8074 77.6887 24.1927 76.7153C24.3554 76.2874 23.5369 76.1221 23.1519 76.1649C20.9877 76.3647 20.6317 74.9139 19.8974 73.8751C19.3608 73.1067 20.9969 73.2616 20.8935 72.604C20.9014 72.59 20.9128 72.577 20.9212 72.5639C20.9118 72.564 20.9024 72.5641 20.893 72.5642C20.5082 72.5687 20.1231 72.5745 19.7617 72.5206C19.2795 72.4487 18.513 72.6699 18.4103 72.1481C18.3596 71.9163 19.0716 71.5763 19.4301 71.3009C19.424 71.3003 19.4175 71.3017 19.4113 71.3011C20.4596 70.3975 21.8529 70.1868 23.2717 70.1121C24.3544 70.0606 25.2177 69.6439 26.1038 69.2456C26.1117 69.2519 26.1196 69.2581 26.1275 69.2643C25.9789 68.8979 25.8049 68.532 25.6563 68.1656C25.6928 68.1847 25.7301 68.1986 25.7696 68.2078C25.8127 68.2117 25.8559 68.2156 25.899 68.2196C25.8814 68.1783 25.856 68.1358 25.8317 68.0916C25.7735 68.1158 25.7145 68.1413 25.6563 68.1656C24.2332 67.8524 24.2003 67.1149 24.7186 66.1783C24.9777 65.6904 24.9542 65.6909 23.7721 65.4526C22.8797 65.2691 21.9631 65.1054 21.0223 64.9032C22.4308 62.8845 22.606 62.6161 20.0844 61.4935C19.667 61.3127 19.2496 61.132 18.8322 60.9512C18.7042 60.9306 18.5762 60.91 18.4482 60.8894C17.5542 60.7233 16.6813 60.4054 15.4736 59.8085C19.2468 59.2991 23.0949 59.1177 23.1911 54.9474C19.0806 55.4219 14.7948 55.316 10.5949 54.3178C9.08486 54.1041 7.62129 53.7935 6.24942 53.215C6.24945 53.2182 6.24949 53.2213 6.24953 53.2245C5.91119 53.1121 5.5472 53.0005 5.20887 52.8881C3.50654 51.3953 3.60958 49.8995 5.47103 48.5591C7.57392 47.2351 9.95416 46.8769 12.5338 47.2152C13.4738 47.34 14.4355 47.2528 15.3744 47.2806C16.9308 47.4607 18.4793 47.5167 20.0263 47.446C21.3409 47.1638 22.6209 46.7437 23.9112 46.3457C24.3935 46.1985 24.9213 46.1427 25.4505 46.0986C25.6277 45.9143 25.8069 45.7328 26.044 45.584C26.2591 45.4848 26.4747 45.4242 26.6907 45.4023C26.8665 45.4151 27.0387 45.4173 27.2057 45.4133C27.1075 45.1785 26.6838 45.0393 26.3976 44.8621C26.4104 44.8543 26.4244 44.8481 26.4373 44.8408C26.424 44.8414 26.4107 44.8426 26.3974 44.8431C24.9757 44.724 23.5526 44.5859 22.1309 44.4668C23.0807 43.3502 24.6455 43.3698 26.0383 43.0821C26.4703 42.9995 26.9778 43.1683 27.3592 42.8545C28.3407 41.3184 28.6984 41.0765 30.0871 41.7204C29.3668 40.9725 29.044 40.1498 29.8666 38.9463C31.1444 37.0502 30.5575 36.3 27.9257 35.5937C27.8535 35.5946 27.8037 35.517 27.7548 35.4594C27.6818 35.3633 27.7045 35.2462 27.8476 35.1477C27.7996 35.1293 27.7516 35.1109 27.7035 35.0925C27.7191 35.0854 27.7347 35.0783 27.7503 35.0711C28.23 34.9298 28.7097 34.7885 29.1653 34.6474C29.8799 33.999 29.8413 32.7013 31.5293 32.9531C31.5974 33.0188 31.6676 33.0817 31.7384 33.1419C31.8159 33.1225 31.8989 33.1046 31.9846 33.0917C31.9631 32.9859 31.993 32.8773 32.082 32.7724C32.8396 31.6774 31.1594 32.1415 30.985 31.6393C29.0111 31.5654 29.0642 30.054 29.3933 29.4096C30.3587 27.5559 28.6077 28.0406 27.6417 27.7803C27.6495 27.7739 27.6573 27.7675 27.665 27.7611C26.1469 27.6237 24.4892 27.8946 23.1291 26.8632C26.0581 26.9479 28.9299 26.8558 31.7413 26.3385C32.1415 26.2555 32.5418 26.1726 32.942 26.0896C31.9866 24.6655 31.2922 23.0246 28.6468 23.2494C28.7557 22.2593 29.745 22.2674 30.3426 21.9114C30.7967 21.6346 31.4665 21.3157 31.1486 20.8735C29.6035 18.8611 31.5131 19.1905 32.8582 19.1092C32.8669 19.1091 32.8755 19.109 32.8841 19.1089C33.5313 18.8686 34.6078 18.3128 33.7853 17.9733C32.6972 17.5204 34.1213 15.8346 31.9582 16.1119C30.2517 16.3256 28.4673 16.037 26.7095 15.98C26.6569 15.8569 26.6599 15.7389 26.7054 15.6315C26.6814 15.6317 26.6566 15.6321 26.6326 15.6323C26.6297 15.627 26.628 15.6207 26.6253 15.6154C26.6119 15.6272 26.5985 15.6391 26.5858 15.6518C24.8937 15.051 23.2015 14.4295 20.8326 13.5844C22.8748 13.5245 24.3775 13.9095 25.6971 13.4291C24.4641 12.081 24.6337 11.929 26.9676 11.3024C28.2869 10.938 27.1413 9.59543 28.4859 9.46266C28.7744 9.43991 29.0639 9.39766 29.3524 9.3749C30.0226 9.02755 29.5331 8.42673 29.566 7.94051C28.6817 7.89463 27.8127 7.83651 26.9031 7.79353C26.993 7.2498 27.7643 7.49134 27.9534 7.14109C27.9456 7.14119 27.9377 7.14127 27.9299 7.14137C28.7185 6.64729 29.6372 6.86818 30.4803 6.91653C31.9012 6.99676 33.1017 6.67399 34.177 6.00214C34.6546 5.68631 35.1542 5.27316 35.7326 5.3438C39.3492 5.82528 42.1731 4.3171 45.0949 3.02233C45.5977 2.80339 46.175 2.79603 46.7272 2.69267C47.7622 2.68059 48.5762 2.2832 49.2193 1.69384C50.2431 0.751564 51.5211 0.930969 52.7507 1.12988C53.7639 1.31202 54.4713 2.11858 54.4793 2.79731C54.491 3.82462 53.2809 3.16048 52.6327 3.30373C51.9844 3.44706 51.3345 3.47464 50.6363 3.46339C49.2878 3.42094 48.7889 4.04696 49.9789 4.94463C50.4971 6.06315 48.6629 5.6 48.5752 6.33797C49.5969 7.25683 51.8153 7.54113 51.3785 9.2524C51.2637 9.71369 50.9131 10.1393 50.3722 10.2472C50.8639 10.9088 50.7318 11.6227 49.9694 12.3921C49.9714 12.5665 49.9505 12.7411 49.9283 12.8964C49.6306 13.3297 49.8214 13.8892 49.7433 14.3759C49.9267 14.3277 50.1039 14.2852 50.28 14.2314C52.1525 13.8023 54.0365 14.3411 55.9117 14.1449C56.8011 14.104 57.5547 13.7788 58.3492 13.5122C58.1373 13.4104 57.8943 13.2944 57.5855 13.1366C63.6232 12.7559 69.3725 12.3786 75.1219 12.04C75.8195 11.993 76.5202 12.199 77.2196 12.3072C77.5334 12.4095 77.9011 12.3861 78.2044 12.4889C78.3349 12.4095 78.4669 12.3266 78.5917 12.2324C81.3536 13.0081 84.0995 12.4144 86.8493 12.1494C86.5726 11.9347 86.3347 11.7098 86.5016 11.3636C86.8077 10.7605 87.6044 11.099 88.1803 10.9766C89.7366 10.649 91.7089 11.0682 92.5846 9.46488C91.4253 8.80052 90.4565 7.97933 89.8681 6.94151C89.5237 6.30563 88.9898 6.07906 88.2194 6.06865C87.5921 5.92089 86.9397 5.77272 86.3124 5.62497C86.8782 5.19011 87.5626 5.17064 88.2539 5.1932C87.4101 3.72442 87.762 3.546 90.0909 3.46713C91.0775 3.43622 92.0839 2.94067 93.0539 3.54999C95.7802 4.08051 98.5203 3.66039 101.263 3.55081C101.093 3.61926 100.921 3.68722 100.751 3.75566C100.948 3.71397 101.139 3.66051 101.31 3.5692C101.295 3.56307 101.279 3.55694 101.263 3.55081C102.078 3.28923 102.87 3.04736 103.685 2.78577C105.238 1.83684 107.051 2.51298 108.733 2.26094C108.904 2.17411 109.075 2.09737 109.245 2.02958C109.771 1.41521 110.55 0.965149 111.216 0.5065ZM538.006 91.3583C537.998 91.3584 537.989 91.3585 537.98 91.3586C537.985 91.3582 537.99 91.357 537.994 91.3566C537.998 91.3572 538.002 91.3577 538.006 91.3583ZM372.045 93.2358C372.037 93.2422 372.03 93.2486 372.022 93.255C372.024 93.2483 372.022 93.2408 372.024 93.2342C372.031 93.2344 372.038 93.2356 372.045 93.2358ZM286.074 92.0417C287.512 92.1645 288.923 92.375 290.027 93.3555C290.259 92.715 290.499 92.2879 290.798 92.0624C289.234 92.1233 287.64 92.0056 286.074 92.0417ZM98.8993 89.8862C102.371 88.3136 105.733 89.6703 109.564 90.0137C107.675 91.0823 105.4 89.8884 104.092 91.2992C102.865 91.3135 101.637 91.3278 100.409 91.3421C99.8502 90.9028 98.3598 91.0752 98.8993 89.8862ZM62.1686 90.2181C62.6518 90.387 63.0402 90.6153 62.6608 91.1045C61.5536 91.098 60.4694 91.0718 59.3621 91.0653C59.0952 90.8746 58.7314 90.7039 58.7988 90.3351C59.9298 90.3025 61.0375 90.2507 62.1686 90.2181ZM86.0092 88.8528C86.6825 88.8063 87.7184 88.9305 87.7266 89.5695C87.7364 90.4034 86.6966 90.0475 86.0467 90.0551C85.6616 90.0596 85.2514 90.0255 84.8659 89.9912C84.8659 89.9975 84.866 90.0038 84.8661 90.0101C83.9496 89.8463 83.0329 89.6832 81.7305 89.4463C83.3647 89.2139 84.6863 88.9458 86.0092 88.8528ZM176.826 86.0489C177.856 85.6879 178.848 86.024 179.837 86.2259C180.352 87.0538 180.387 87.8878 179.528 88.5572C178.717 89.1873 177.703 88.947 176.832 88.5887C174.341 87.5902 171.435 88.0886 168.921 87.1487C171.615 87.0203 174.285 86.9314 176.826 86.0489ZM159.575 86.8316C161.66 86.0704 163.542 86.4362 165.399 86.7636C165.15 88.1043 163.769 87.3256 162.978 87.6063C161.917 87.4055 160.785 87.4186 159.575 86.8316ZM386.929 83.7776C386.944 83.7801 386.96 83.7822 386.976 83.7846C386.969 83.7763 386.961 83.7685 386.954 83.7602C386.946 83.7659 386.937 83.7717 386.929 83.7776ZM163.322 78.6094C163.333 78.6205 163.345 78.6303 163.356 78.6412C163.363 78.6424 163.37 78.6436 163.377 78.6447C163.379 78.6306 163.381 78.6167 163.383 78.603C163.363 78.6057 163.343 78.6071 163.322 78.6094ZM134.848 71.9128C134.838 71.9126 134.828 71.9133 134.818 71.9131C134.819 71.9137 134.821 71.9144 134.822 71.915C134.831 71.9142 134.84 71.9135 134.848 71.9128C134.856 71.9129 134.864 71.9143 134.872 71.9144C134.896 71.9176 134.921 71.9199 134.945 71.923C134.94 71.9082 134.936 71.8936 134.932 71.8796C134.905 71.8913 134.876 71.9004 134.848 71.9128ZM290.237 68.9749C290.249 68.9747 290.262 68.9746 290.274 68.9744C290.262 68.9671 290.248 68.9617 290.236 68.954C290.236 68.961 290.237 68.9679 290.237 68.9749ZM424.305 66.6342C424.314 66.6341 424.324 66.6358 424.333 66.6357C424.333 66.6294 424.333 66.6231 424.333 66.6168C424.383 66.6162 424.434 66.6156 424.483 66.615C424.442 66.6014 424.399 66.5919 424.358 66.5767C424.355 66.5762 424.352 66.5754 424.349 66.5749C424.334 66.5953 424.32 66.615 424.305 66.6342ZM488.47 65.073C488.513 65.0725 488.556 65.072 488.599 65.0715C488.592 65.057 488.585 65.0423 488.578 65.0282C488.542 65.0433 488.505 65.0566 488.47 65.073ZM350.401 62.801C350.412 62.8017 350.423 62.8037 350.434 62.8044C350.735 62.8196 350.968 62.7664 350.708 62.7653C350.606 62.7777 350.503 62.7888 350.401 62.801ZM387.608 58.1376C387.608 58.1332 387.609 58.1287 387.61 58.1243C387.589 58.1245 387.569 58.1248 387.549 58.125C387.568 58.1292 387.588 58.1334 387.608 58.1376ZM202.294 54.9432C202.299 54.9209 202.305 54.8981 202.312 54.8748C202.274 54.8753 202.235 54.8757 202.197 54.8762C202.229 54.8985 202.262 54.9209 202.294 54.9432ZM212.748 54.7133C212.75 54.7133 212.751 54.7132 212.753 54.7132C212.753 54.7107 212.753 54.7082 212.753 54.7056C212.751 54.7083 212.749 54.7106 212.748 54.7133ZM364.185 52.7893C364.287 52.7883 364.388 52.7886 364.49 52.7876C364.716 52.7714 364.943 52.7586 365.169 52.7418C364.841 52.7575 364.513 52.7733 364.185 52.7893ZM308.305 52.3768C308.31 52.3767 308.315 52.3767 308.321 52.3766C308.319 52.3754 308.318 52.3741 308.316 52.3729C308.312 52.3737 308.308 52.376 308.305 52.3768ZM24.035 53.3276C24.0506 53.3267 24.0664 53.3281 24.082 53.3271C24.0654 53.3152 24.0492 53.3031 24.0322 53.2917C24.0332 53.3033 24.0337 53.3153 24.035 53.3276ZM6.24906 53.1847C6.24909 53.1872 6.24912 53.1898 6.24915 53.1923C6.25686 53.1883 6.26477 53.1846 6.27252 53.1807C6.26471 53.182 6.25689 53.1833 6.24906 53.1847ZM126.454 49.8428C126.463 49.8428 126.472 49.8425 126.48 49.8425C126.473 49.8412 126.466 49.8403 126.459 49.839C126.458 49.8403 126.456 49.8415 126.454 49.8428ZM404.766 46.2284C404.738 46.2284 404.709 46.2275 404.682 46.2275C404.682 46.2515 404.681 46.2747 404.68 46.2976C404.708 46.2867 404.739 46.2778 404.767 46.2663C404.78 46.2518 404.796 46.2397 404.809 46.226C404.794 46.2267 404.78 46.2277 404.766 46.2284ZM136.427 43.4496C136.468 43.4508 136.509 43.4527 136.55 43.4539C136.449 43.4435 136.349 43.4357 136.248 43.4252C136.307 43.4367 136.368 43.4402 136.427 43.4496ZM186.566 41.7718C186.562 41.7827 186.556 41.7934 186.552 41.8042C186.564 41.7989 186.578 41.7959 186.59 41.7905C186.592 41.7904 186.594 41.7904 186.597 41.7904C186.593 41.7829 186.59 41.7752 186.587 41.7678C186.58 41.769 186.573 41.7706 186.566 41.7718ZM149.953 39.0795C149.96 39.08 149.968 39.0805 149.976 39.0811C149.971 39.0786 149.965 39.0762 149.96 39.0737C149.958 39.0759 149.954 39.0772 149.953 39.0795ZM242.636 36.9034C242.917 36.8967 243.198 36.8923 243.48 36.886C243.086 36.8818 242.696 36.8789 242.309 36.875C242.417 36.8868 242.527 36.8929 242.636 36.9034ZM335.128 32.2806C335.142 32.2804 335.155 32.2802 335.168 32.2801C335.162 32.277 335.156 32.2739 335.15 32.2708C335.143 32.2741 335.135 32.2772 335.128 32.2806ZM112.646 30.1638C112.613 30.1726 112.578 30.1774 112.545 30.1858C112.579 30.1912 112.613 30.1961 112.647 30.2017C112.719 30.2379 112.793 30.2719 112.869 30.3089C112.896 30.264 112.917 30.214 112.938 30.1585C112.841 30.1606 112.743 30.1616 112.646 30.1638ZM327.714 24.6204C327.715 24.6192 327.715 24.6179 327.716 24.6166C327.715 24.6166 327.713 24.6166 327.711 24.6167C327.712 24.6179 327.713 24.6192 327.714 24.6204ZM236.997 25.2735C237.008 25.274 237.019 25.2745 237.03 25.275C237.032 25.2688 237.032 25.2623 237.034 25.256C237.023 25.2628 237.009 25.267 236.997 25.2735ZM207.976 20.1193C207.968 20.1294 207.962 20.1405 207.953 20.1499C207.994 20.1494 208.035 20.1489 208.076 20.1485C208.042 20.1405 208.01 20.1284 207.976 20.1193ZM415.719 9.17244C416.057 7.15142 417.659 8.17923 418.767 8.28267C420.381 8.41926 419.933 9.37518 419.678 10.1926C419.422 10.9714 418.108 11.6466 419.25 12.603C417.761 12.9113 416.516 13.5854 415.199 14.1826C413.763 14.839 412.586 14.9688 412.445 13.245C412.389 12.5668 411.882 12.4171 411.23 12.3083C411.232 12.298 411.235 12.288 411.237 12.2779C411.227 12.2815 411.217 12.2861 411.207 12.2897C409.4 12.175 407.593 12.0603 405.786 11.9457C405.785 11.8226 405.783 11.6995 405.782 11.5764C408.341 11.5465 410.9 11.5167 413.459 11.4868C413.468 11.493 413.476 11.4992 413.485 11.5055C413.246 11.5866 413.008 11.6675 412.773 11.7486C413.072 11.7715 413.342 11.7502 413.509 11.526C413.508 11.5128 413.508 11.4995 413.508 11.4862C413.5 11.48 413.492 11.4738 413.484 11.4676C414.948 11.1594 415.538 10.1828 415.719 9.17244ZM446.256 8.06046C446.707 9.66332 445.092 9.43028 444.059 9.61647C443.002 9.80336 442.161 9.92977 443.472 10.826C444.103 11.2648 444.085 11.829 443.586 12.3778C442.017 14.0446 438.113 13.8567 437.034 12.1626C439.377 10.8164 441.673 9.47063 443.993 8.12474C444.738 8.11604 445.484 8.08885 446.23 8.06076C446.239 8.06066 446.247 8.06056 446.256 8.06046ZM169.033 15.7741C169.072 15.8109 169.099 15.8536 169.126 15.8962C169.213 15.8996 169.3 15.903 169.387 15.9064C169.27 15.8559 169.152 15.8117 169.033 15.7741ZM477.491 9.22644C478.918 7.73637 480.673 7.58139 482.821 8.04109C486.32 8.79542 489.864 9.23739 493.465 8.38095C493.969 8.2587 494.546 8.13673 495.225 8.5555C493.821 9.90999 491.801 10.1658 489.95 10.3425C488.339 10.4971 486.633 10.7881 484.991 10.3227C484.364 10.1362 483.739 10.2403 483.189 10.6146C481.231 11.9757 478.725 11.8508 476.419 12.2656C474.81 12.5559 474.82 11.3725 474.305 10.6027C474.305 10.5964 474.305 10.5901 474.305 10.5838C475.481 10.2597 476.706 10.0308 477.491 9.22644ZM425.979 9.59634C426.351 10.5998 425.244 10.497 424.622 10.7562C423.802 10.6494 422.828 11.8431 422.434 11.0525C422.04 10.2428 423.602 10.1464 424.369 9.82726C424.823 9.62811 425.426 9.66083 425.979 9.59634ZM85.7122 14.837C85.383 14.5565 85.0337 14.3621 84.4688 14.647C84.8138 14.6826 85.4012 14.6435 85.502 14.9493C85.5703 14.898 85.6405 14.8609 85.7122 14.837ZM178.174 13.8246C178.164 13.8171 178.151 13.8125 178.141 13.806C178.132 13.8061 178.122 13.8063 178.113 13.8064C178.133 13.813 178.154 13.8176 178.174 13.8246ZM263.774 9.41286C263.782 9.41908 263.79 9.4253 263.798 9.43152C264.283 9.79423 265.441 9.89771 264.921 10.6401C264.472 11.2851 263.672 10.849 263.019 10.5657C262.317 10.2637 261.615 10.0008 260.6 9.58626C261.368 9.4804 261.897 9.4157 262.449 9.33171C262.883 9.36543 263.341 9.39851 263.774 9.41286ZM286.07 9.83081C286.062 9.8309 286.054 9.83099 286.046 9.83108C286.052 9.82949 286.057 9.82683 286.063 9.82521C286.065 9.82715 286.067 9.82885 286.07 9.83081ZM225.777 6.36544C226.548 6.47266 227.534 6.44168 227.401 7.37306C227.313 8.05291 226.693 8.60389 225.826 8.57521C224.863 8.54766 224.253 7.8182 224.174 7.19858C224.094 6.54008 225.055 6.45098 225.777 6.38437C225.777 6.37806 225.777 6.37175 225.777 6.36544Z" fill="url(#paint0_linear_392_3727)"/>
</g>
<defs>
<filter id="filter0_d_392_3727" x="0" y="0" width="607.946" height="104.298" filterUnits="userSpaceOnUse" color-interpolation-filters="sRGB">
<feFlood flood-opacity="0" result="BackgroundImageFix"/>
<feColorMatrix in="SourceAlpha" type="matrix" values="0 0 0 0 0 0 0 0 0 0 0 0 0 0 0 0 0 0 127 0" result="hardAlpha"/>
<feOffset dy="4"/>
<feGaussianBlur stdDeviation="2"/>
<feComposite in2="hardAlpha" operator="out"/>
<feColorMatrix type="matrix" values="0 0 0 0 1 0 0 0 0 1 0 0 0 0 1 0 0 0 1 0"/>
<feBlend mode="normal" in2="BackgroundImageFix" result="effect1_dropShadow_392_3727"/>
<feBlend mode="normal" in="SourceGraphic" in2="effect1_dropShadow_392_3727" result="shape"/>
</filter>
<linearGradient id="paint0_linear_392_3727" x1="4.00568" y1="47.7734" x2="604.006" y2="47.7734" gradientUnits="userSpaceOnUse">
<stop stop-color="#00BF63" stop-opacity="0.8"/>
<stop offset="1" stop-color="#0053A0"/>
</linearGradient>
</defs>
</svg>
