<svg width="508" height="106" viewBox="0 0 508 106" fill="none" xmlns="http://www.w3.org/2000/svg">
<g filter="url(#filter0_d_397_3727)">
<path d="M93.3334 0.500641C94.1291 -0.166683 95.2325 -0.158234 96.2618 0.471359C97.4728 1.21564 98.7239 1.95798 100.197 0.818386C100.515 0.563068 101.08 0.674473 101.464 1.01973C101.457 1.01981 101.45 1.01987 101.443 1.01995C102.111 1.59502 102.853 1.56915 103.694 1.44442C104.435 1.34004 105.257 1.11694 105.905 1.73104C106.306 1.72703 106.707 1.72302 107.107 1.71901C107.107 1.7127 107.107 1.70639 107.107 1.70007C107.909 1.80268 108.868 1.4674 109.434 2.2791C109.831 2.25906 110.22 2.31287 110.607 2.3867C111.039 2.36962 111.47 2.35753 111.907 2.33202C112.549 2.30621 113.112 2.37793 113.38 3.05407C113.565 3.51749 113.508 3.94484 113.11 4.2784C112.978 4.39225 112.833 4.48788 112.684 4.56487C112.501 4.71328 112.268 4.82082 111.993 4.88997C111.093 5.13171 110.168 4.94823 109.268 5.18996C109.003 5.22735 108.748 5.29035 108.504 5.37943C108.534 5.54142 108.624 5.70044 108.814 5.85362C109.259 6.21749 109.882 6.38671 110.169 6.94617C110.435 7.4669 111.241 7.98151 110.042 8.3812C109.805 8.46031 109.545 8.50524 109.288 8.58383C109.069 8.82881 108.811 9.07576 108.553 9.33552C109.35 9.86981 110.3 9.78326 111.181 9.88312C111.174 9.87688 111.167 9.87064 111.16 9.8644C111.465 9.94713 111.768 10.0015 112.067 10.0372C112.555 10.0459 113.038 10.0567 113.518 10.0548C115.173 9.90944 116.753 9.26291 118.353 8.82274C118.873 8.67981 119.354 8.35613 119.898 8.18416C119.908 8.12233 119.924 8.05921 119.929 7.99255C120.26 7.00011 121.058 6.56424 121.998 6.24453C122.119 6.22363 122.238 6.21149 122.356 6.20496C123.452 5.35447 124.567 6.66874 125.67 6.51842C126.473 6.64613 127.259 6.87089 128.078 6.57199C128.256 6.56116 128.434 6.54602 128.614 6.53065C128.706 6.43975 128.797 6.33852 128.878 6.2155C130.076 5.66046 130.847 4.5271 132.085 3.95228C132.724 3.65536 133.324 3.53214 133.985 3.46736C134.566 3.40337 135.412 3.72575 135.155 4.13561C134.287 5.57939 136.69 7.18469 135.194 8.01415C134.196 8.56706 132.635 9.02814 131.209 8.80971C129.944 8.6284 128.216 8.29742 128.091 9.88827C127.947 11.5189 129.889 10.995 130.913 11.1593C133.746 11.6157 136.672 11.4524 139.43 12.472C140.135 12.7364 140.874 12.4176 141.595 12.2552C142.676 11.9923 143.721 12.0397 144.551 12.8848C145.022 13.3519 145.561 13.5492 146.128 13.6418C146.657 13.6131 147.187 13.5691 147.707 13.6676C147.765 13.6671 147.824 13.6665 147.882 13.6659C147.865 13.5961 147.85 13.5131 147.846 13.4143C149.807 12.9294 151.754 13.1232 153.722 13.3556C153.874 13.4494 154.013 13.5408 154.14 13.6241C156.168 12.9284 158.206 13.3645 160.225 13.6599C160.405 13.5999 160.586 13.5592 160.786 13.499C161.629 13.6263 162.493 13.7921 163.336 13.8807C165.103 14.057 166.831 14.2135 167.612 12.0916C167.886 11.3722 168.686 11.1896 169.426 11.0659C169.458 10.9936 169.49 10.9213 169.522 10.849C170.558 8.68268 173.498 8.82989 174.742 6.91978C174.742 6.92609 174.743 6.9324 174.743 6.93871C175.23 6.89609 175.698 6.85221 176.185 6.79171C176.19 6.78406 176.199 6.77837 176.204 6.77068C177.117 5.81121 178.262 5.87621 179.447 6.0583C179.895 6.71324 180.145 7.56464 181.259 6.58377C181.994 5.93697 183.787 6.75264 183.98 8.01115C184.195 9.38575 185.202 9.91896 185.953 10.7453C185.846 11.5759 186.225 12.5047 185.755 13.2682C185.762 13.268 185.77 13.2681 185.778 13.268C186.199 13.2446 186.482 13.4947 186.805 13.7047C187.895 14.7931 189.223 15.4266 190.751 15.6843C190.818 15.5991 190.904 15.5061 191.014 15.407C191.617 15.4785 192.257 15.3171 192.861 15.5628C193.945 15.5713 195.009 15.5806 196.092 15.5892C197.675 15.3988 199.314 14.8016 200.751 16.0672C200.762 16.1209 200.762 16.1734 200.765 16.2243C203.103 15.8879 205.427 15.8331 207.773 16.1713C209.44 16.3291 211.127 16.5256 212.808 16.1986C214.155 16.534 215.537 16.2486 216.882 16.3321C217.327 16.3604 217.899 16.1356 218.224 16.5478C219.34 16.6378 220.471 16.7711 221.599 16.6732C222.28 16.6082 222.941 16.446 223.236 15.7837C223.51 15.1603 222.944 14.8757 222.54 14.5501C222.216 14.2818 221.972 13.9535 222.089 13.5451C222.244 13.0784 222.727 13.1885 223.107 13.1655C224.029 13.0787 224.956 13.304 225.876 12.9844C226.597 11.8328 226.784 10.1414 228.602 10.0252C228.952 9.71175 229.4 9.80914 229.815 9.85971C230.076 9.81831 230.457 9.85314 230.576 9.69679C232.813 6.78516 235.56 8.52292 238.072 9.02143C239.137 9.24349 240.083 9.54502 241.08 8.95347C241.363 9.16401 241.667 9.50879 241.106 9.57255C240.29 9.65789 239.735 10.1603 239.042 10.4019C239.038 10.398 239.034 10.3946 239.03 10.3907C237.556 10.6371 236.3 10.8682 235.277 12.3847C234.427 13.6536 232.468 14.217 230.992 15.0849C230.513 15.3611 229.424 14.8684 229.636 15.9905C229.784 16.8036 230.353 17.4384 231.295 17.4096C233.622 17.3476 235.972 17.7692 238.251 16.9707C238.851 16.7514 239.554 16.8037 240.216 16.7389C240.739 16.9468 241.38 16.9799 241.706 17.5195C242.685 19.1384 244.13 19.1432 245.73 18.6232C245.83 18.661 245.932 18.6396 246.011 18.5807C247.834 18.3102 249.448 17.2275 251.375 17.402C255.197 18.4692 259.013 16.9976 262.848 17.3857C263.84 17.4908 264.811 17.4074 265.691 17.9766C267.578 18.3638 269.482 18.4249 271.405 18.3475C272.447 18.2985 273.333 18.6765 274.239 19.0939C275.65 19.7585 276.836 19.8827 277.036 17.884C277.073 17.4958 277.29 17.1621 277.69 16.9835C277.69 16.9905 277.69 16.9974 277.69 17.0044C277.691 17.078 277.699 17.1525 277.704 17.2277C277.718 17.1466 277.727 17.0645 277.729 16.9831C277.716 15.7038 277.126 14.7332 275.956 14.0727C277.595 14.0562 278.911 13.6762 279.821 12.4545C279.811 12.4577 279.801 12.461 279.791 12.4642C280.206 11.8007 280.479 11.118 280.411 10.3235C280.344 9.66563 280.786 9.62247 281.308 9.71412C281.708 9.67132 282.11 9.6279 282.511 9.56571C283.447 9.55635 284.382 9.547 285.318 9.53764C285.439 9.57523 285.58 9.61366 285.701 9.65124C286.401 9.50873 286.666 9.87388 286.732 10.4743C286.775 10.8036 286.738 11.134 286.358 11.2735C285.799 11.4723 285.534 11.0294 285.21 10.7225C284.987 10.492 284.705 10.3192 284.442 10.1279C284.449 10.1215 284.455 10.1151 284.462 10.1087C284.241 10.1109 284.02 10.1131 283.8 10.1153C283.774 10.216 283.749 10.3166 283.724 10.4172C283.407 11.8786 283.979 12.7085 285.734 12.7325C285.746 12.726 285.759 12.7218 285.771 12.715C286.411 12.5535 287.006 11.9269 287.795 12.5584C287.204 13.6887 285.94 13.5284 284.982 13.9256C284.973 13.9328 284.963 13.9396 284.954 13.9467C284.956 13.9458 284.958 13.9457 284.96 13.9448C283.89 15.1579 283.808 17.0018 282.172 17.8327C282.173 17.8272 282.174 17.821 282.174 17.8156C281.815 17.9124 281.329 17.9452 281.314 18.4227C281.299 18.849 281.721 18.8647 282.042 18.9003C282.504 18.9344 282.965 18.968 283.425 18.9054C285.389 18.6918 287.175 18.7128 287.7 21.1317C287.827 21.7316 288.47 21.7841 289.012 21.8174C290.918 21.9148 292.847 22.0879 294.748 21.6616C294.782 21.6507 294.815 21.6364 294.848 21.6246C294.801 21.6302 294.755 21.6389 294.707 21.6431C295.844 20.9916 295.687 19.2876 297.148 18.9045C297.146 18.9436 297.136 18.9818 297.133 19.0202C297.151 18.9875 297.17 18.9556 297.187 18.9231C297.308 18.9219 297.408 18.882 297.508 18.8422C298.401 17.883 299.557 17.2694 300.348 16.0978C301.317 14.6726 300.951 14.1338 299.542 13.6437C299.301 13.5685 299.117 13.3565 298.914 13.184C298.571 12.9355 298.327 12.6469 298.323 12.2013C298.201 11.8208 298.08 11.4408 298.532 11.184C298.534 11.186 298.537 11.1876 298.54 11.1896C298.538 11.1869 298.536 11.1847 298.534 11.1821C298.533 11.1827 298.533 11.1833 298.532 11.184C298.526 11.1793 298.52 11.1757 298.514 11.1709C298.518 11.1709 298.522 11.1708 298.526 11.1708C298.522 11.1645 298.518 11.1583 298.514 11.152C299.473 10.7545 299.323 9.88303 299.456 9.12542C299.846 9.12152 300.218 9.13492 300.608 9.14989C300.618 9.14417 300.63 9.13818 300.641 9.13251C300.641 9.13882 300.641 9.14513 300.641 9.15145C302.663 8.72444 304.616 9.48148 306.601 9.44224C306.609 9.44838 306.616 9.4549 306.623 9.46096C307.157 9.45664 307.692 9.48813 308.226 9.48281C309.451 10.6063 308.594 12.9886 306.704 13.6686C306.696 13.6808 306.692 13.6966 306.683 13.7086C306.671 13.7147 306.658 13.72 306.646 13.726C306.018 14.3843 305.458 14.9711 306.124 16.0211C306.705 16.9493 306.277 17.6034 305.1 17.5636C305.085 17.5686 305.072 17.5784 305.057 17.583C304.335 17.6289 303.614 17.6165 302.913 17.701C301.671 17.8492 301.996 18.3121 302.703 18.8092C302.843 18.8078 303.004 18.7684 303.085 18.8452C305.833 20.8727 308.411 19.8005 311.025 18.5139C313.061 17.5045 316.817 18.165 318.379 19.8173C319.068 20.5472 319.856 21.1013 320.797 20.9371C323.401 20.5231 325.932 20.8469 328.464 21.2676C328.466 21.2725 328.466 21.2778 328.468 21.2827C328.547 21.2077 328.645 21.1882 328.744 21.2061C328.745 21.2061 328.746 21.2061 328.748 21.2061C328.746 21.1998 328.745 21.1935 328.744 21.1872C330.077 20.1459 331.642 20.0134 333.269 20.1911C335.578 20.4394 337.684 20.3994 339.55 18.5582C341.139 16.9715 345.007 18.6576 345.274 21.234C345.453 23.0747 346.373 22.6781 347.415 22.6482C348.157 22.6408 348.879 22.5758 349.62 22.5296C349.716 22.5166 349.805 22.4876 349.892 22.4549C349.794 22.4729 349.698 22.4942 349.6 22.5109C350.633 21.4144 351.645 20.3168 351.568 18.6691C351.564 18.3204 351.601 18.0104 352.001 17.8901C352.461 17.7498 352.804 17.9783 353.008 18.3251C353.519 19.2508 354.104 19.556 355.038 18.7518C355.237 18.5754 355.757 18.5126 355.979 18.6458C358.541 20.036 361.237 18.6514 363.849 19.052C365.094 19.2331 366.334 18.8706 367.023 17.5258C367.377 16.8244 368.115 16.391 369.018 16.4983C369.025 16.5045 369.032 16.5108 369.038 16.517C370.32 16.3297 371.348 16.8041 372.239 17.629C373.603 18.9049 375.235 19.4067 377.02 19.5112C377.278 19.5181 377.536 19.525 377.794 19.5319C378.286 18.6159 379.146 18.3745 380.129 18.3645C381.505 18.3508 382.882 18.337 384.258 18.3232C384.267 18.3185 384.276 18.3146 384.285 18.3097C384.291 18.2076 384.323 18.1171 384.359 18.0116C384.346 18.0117 384.333 18.0119 384.319 18.012C386.221 17.6443 388.294 18.418 390.067 17.2177C392.58 15.7768 395.089 15.7129 397.69 17.0639C398.192 17.3295 398.851 17.2856 399.433 17.3949C399.428 17.3824 399.421 17.37 399.417 17.3572C401.181 15.2838 405.869 14.597 409.336 16.2883C411.594 17.3905 413.964 17.6778 416.124 17.0746C418.984 16.2508 421.929 15.698 424.748 14.797C424.761 14.7899 424.774 14.7828 424.787 14.7758C425.176 14.7132 425.564 14.6506 425.953 14.588C428.678 14.1889 431.433 14.0685 434.187 13.8882C436.312 13.7506 438.456 13.5732 440.585 13.8621C440.725 13.8607 440.866 13.8593 441.006 13.8579C442.568 13.532 444.175 13.7479 445.758 13.5963C445.853 13.7936 445.954 13.9207 446.054 14.0006C446.118 13.9663 446.183 13.9298 446.243 13.8832C446.819 13.3731 447.501 13.3077 448.224 13.3974C448.926 13.4292 449.629 13.4617 450.246 13.0098C452.211 12.8931 453.907 12.022 455.138 10.6521C457.122 8.46029 459.525 8.14553 462.238 8.62264C462.238 8.62895 462.238 8.63527 462.238 8.64158C462.839 8.51925 463.382 8.64904 463.907 8.97339C463.912 8.98048 463.919 8.98709 463.925 8.99405C466.874 9.12566 468.832 10.9516 470.805 12.7644C472.812 14.264 474.82 15.7635 476.827 17.2631C476.817 17.2801 476.806 17.296 476.796 17.3126C476.814 17.296 476.831 17.2794 476.848 17.2628C477.495 17.7409 478.38 18.0036 478.49 18.9719C478.483 18.9851 478.477 18.9986 478.47 19.0118C479.045 20.2851 480.812 20.5197 481.169 22.0475C481.311 22.6839 481.711 23.282 481.707 23.9702C481.715 23.9803 481.721 23.9922 481.729 24.0022C482.403 25.256 482.761 26.7263 484.133 27.5464C484.117 27.5472 484.1 27.5462 484.084 27.5469C484.1 27.5528 484.117 27.5594 484.133 27.5654C487.274 28.7362 490.623 28.7231 493.878 29.2142C496.696 29.6491 499.337 30.3739 501.165 32.6737C501.174 32.6786 501.184 32.6836 501.194 32.6885C501.95 33.9998 502.705 35.332 503.481 36.6431C504.156 40.0302 504.31 43.3646 502.557 46.5239C502.242 47.0893 501.886 47.6355 501.57 48.1816C501.146 48.8276 500.683 49.3632 500.125 49.7396C500.119 49.908 500.101 50.0735 500.045 50.2329C500.026 50.2641 500.008 50.2966 499.989 50.3281C500.021 50.3037 500.053 50.2774 500.087 50.2533C500.199 51.532 499.75 52.7008 499.361 53.8876C499.351 53.847 499.341 53.8054 499.33 53.7648C499.326 53.7988 499.324 53.8332 499.32 53.8672C499.328 54.7056 499.044 55.4528 498.565 56.1456C498.569 56.152 498.576 56.1578 498.581 56.1644C497.414 59.9189 494.733 62.564 491.728 64.9795C490.829 65.3569 490.134 66.0808 489.921 66.8972C489.129 69.9113 486.923 71.893 484.878 74.0275C485.042 74.3749 484.883 74.6479 484.584 74.8448C483.244 75.1299 482.129 75.8984 481.195 76.7803C479.287 78.6031 477.072 79.9044 474.614 80.7629C471.676 81.8008 469.387 83.5498 467.162 85.7051C464.022 88.7038 460.069 90.6638 455.664 91.5418C454.944 91.6847 454.222 91.8088 453.502 91.9517C453.489 91.9569 453.475 91.9585 453.463 91.9635C453.469 91.9655 453.476 91.9689 453.482 91.9709C452.131 92.913 450.528 92.6036 449.008 92.7713C449.004 92.7707 448.999 92.7701 448.995 92.7696C447.369 93.5395 445.58 93.4066 443.909 93.3848C437.55 93.3514 431.259 94.2483 424.923 94.5444C423.981 94.5926 423.058 94.5635 422.116 94.5536C422.108 94.5599 422.101 94.5663 422.094 94.5727C419.422 94.2144 416.77 93.8556 414.099 93.4973C414.093 93.5008 414.087 93.5053 414.081 93.5089C413.56 93.5141 413.018 93.5399 412.497 93.5645C412.473 93.5709 412.447 93.5741 412.423 93.5804C412.028 94.0627 411.484 94.2905 410.878 94.2587C407.768 94.1154 404.724 94.6315 401.721 95.2045C398.303 95.8504 394.924 95.2603 391.523 95.2629C391.272 95.2732 391.021 95.2821 390.769 95.2951C390.77 95.3077 390.77 95.3203 390.77 95.3329C390.713 95.3336 390.656 95.334 390.599 95.3346C390.864 96.4689 389.717 96.4387 389.015 96.5532C386.973 96.903 384.903 96.4585 382.857 96.4595C378.003 96.508 373.167 96.4395 368.359 97.1082C366.977 97.2966 365.595 97.4067 364.208 97.091C362.603 97.1071 360.978 97.1238 359.373 97.1204C359.374 97.1268 359.374 97.1331 359.374 97.1394C352.76 97.7679 346.297 95.4474 339.644 96.115C338.3 96.2416 336.985 95.617 335.711 95.1487C335.688 95.1478 335.665 95.1483 335.642 95.1474C332.309 94.8705 328.904 95.3692 325.624 94.3934C325.611 94.3872 325.598 94.3811 325.585 94.3749C325.588 94.3739 325.591 94.372 325.595 94.371C324.571 94.0365 323.393 94.2006 322.427 93.611C322.428 93.604 322.428 93.597 322.429 93.5901C322.428 93.5908 322.428 93.5914 322.427 93.592C321.324 93.6031 320.2 93.6148 319.097 93.6064C319.121 93.5824 319.145 93.5588 319.169 93.5356C319.112 93.5646 319.054 93.5941 318.997 93.6263C318.772 93.6286 318.562 93.6577 318.341 93.6802C318.353 93.6965 318.365 93.7128 318.377 93.7291C318.37 93.7291 318.361 93.7275 318.354 93.7275C318.354 93.7281 318.355 93.7287 318.356 93.7293C318.363 93.7293 318.37 93.7292 318.377 93.7291C317.892 95.3243 319.394 95.1162 320.16 95.5352C320.604 95.7825 321.304 95.7563 321.231 96.4355C321.157 97.0763 320.495 97.0448 319.975 97.147C317.651 97.4221 315.554 96.3756 313.325 96.1263C311.739 95.9483 313.068 94.5787 312.283 94.1594C311.768 94.1449 311.252 94.1112 310.717 94.0974C310.717 94.076 310.711 94.0547 310.709 94.0331C310.705 94.0535 310.705 94.0746 310.7 94.0957C302.277 93.7755 293.954 95.3319 285.554 95.2222C279.555 95.127 273.576 95.0316 267.577 94.9171C267.217 94.9207 266.837 94.7848 266.474 94.6914C266.472 94.6926 266.471 94.6939 266.47 94.6952C265.827 94.5465 265.183 94.3783 264.54 94.2296C264.526 94.2165 264.513 94.2034 264.5 94.1902C260.759 93.2386 256.981 92.5391 253.014 92.9471C254.009 92.1425 255.09 91.9373 256.194 92.0232C257.538 92.126 257.692 91.408 257.622 90.4199C258.062 90.3573 258.564 90.3317 258.337 89.6551C258.343 89.646 258.35 89.6374 258.356 89.6284C258.343 89.6309 258.33 89.6339 258.317 89.6364C257.936 89.6208 257.554 89.5858 257.153 89.5704C257.153 89.5767 257.153 89.583 257.153 89.5893C257.143 89.5834 257.133 89.5783 257.123 89.5725C257.125 89.5971 257.131 89.6221 257.132 89.6482C254.866 89.6709 252.6 89.7329 250.334 89.7749C250.34 89.7553 250.346 89.7357 250.353 89.716C249.136 90.3681 247.939 91.0018 246.722 91.6539C245.829 92.1977 244.893 92.4562 243.938 92.5757C244.228 92.7034 244.567 92.9396 244.972 93.2813C245.498 93.7221 246.224 93.9854 246.332 94.7791C245.95 94.783 245.567 94.7868 245.185 94.7906C245.185 94.7973 245.188 94.8047 245.189 94.8114C245.182 94.8117 245.174 94.8113 245.167 94.8116C245.168 94.9277 245.131 95.0444 245.112 95.1607C243.928 95.1725 242.744 95.2222 241.561 95.2341C240.48 95.3806 239.418 95.527 238.337 95.6735C237.935 95.5612 237.511 95.4307 237.109 95.3184C237.102 95.3184 237.096 95.3185 237.089 95.3186C237.093 95.3183 237.097 95.3167 237.101 95.3165C236.863 95.2993 236.624 95.2647 236.385 95.2479C236.379 95.248 236.372 95.2481 236.366 95.2481C236.122 95.267 235.878 95.2858 235.634 95.3047C234.906 95.331 234.194 95.2496 233.514 94.9073C233.508 94.9074 233.501 94.9074 233.495 94.9075C233.613 94.7707 233.752 94.6329 233.871 94.5155C233.97 94.4369 234.131 94.3579 234.15 94.2608C234.409 93.4351 234.622 92.9061 234.954 92.6012C234.794 92.6015 234.634 92.6034 234.475 92.6097C233.933 92.6152 233.412 92.6979 233.046 92.1979C232.394 91.1767 230.796 91.7929 230.183 90.6943C229.942 90.6967 229.681 90.6595 229.44 90.6619C228.908 89.659 227.663 89.5543 226.953 88.7663C226.833 88.7674 226.712 88.7497 226.592 88.7509C226.387 88.5422 226.339 88.3219 226.411 88.0974C225.762 88.1323 225.12 88.1079 224.595 87.6459C224.599 87.6231 224.605 87.6012 224.61 87.5794C224.605 87.5824 224.599 87.586 224.594 87.589C223.017 86.8461 221.424 86.2264 219.629 86.4909C220.728 87.2763 221.935 87.9518 222.546 89.2384C222.567 89.3542 222.587 89.4704 222.608 89.5863C222.602 89.5863 222.595 89.5864 222.589 89.5864C220.834 92.6681 218.148 90.8139 215.801 90.7983C216.908 89.2751 216.16 88.6229 214.593 88.2895C214.163 88.1996 213.751 87.9628 213.34 87.7755C213.321 87.7769 213.302 87.7781 213.283 87.7798C213.165 87.781 213.027 87.7616 212.908 87.7438C211.852 87.8676 210.974 87.6619 210.484 86.624C210.486 86.6177 210.489 86.6114 210.491 86.605C210.489 86.605 210.486 86.6051 210.484 86.6051C209.055 86.1927 207.57 86.2459 206.105 86.183C206.095 86.172 206.083 86.1636 206.073 86.153C206.07 86.169 206.07 86.1861 206.066 86.2023C204.659 85.9448 203.393 85.6673 203.816 87.8934C204.007 88.9191 203.048 89.395 201.945 89.4254C200.882 89.4361 199.819 89.3687 198.842 89.9603C197.286 90.8874 197.173 91.6259 198.468 92.7766C198.913 93.1599 199.459 93.4649 199.605 94.0645C196.675 93.8805 193.759 93.25 190.792 93.4348C188.124 93.4615 185.436 93.4889 182.768 93.4961C182.782 93.4891 182.796 93.482 182.809 93.4749C181.226 93.5877 180.057 93.056 179.101 91.7468C178.033 90.2482 175.972 90.1928 174.552 89.1482C174.46 89.074 174.369 88.9998 174.277 88.9256C174.114 88.8073 173.95 88.6889 173.786 88.5706C172.696 87.8392 171.46 87.3157 170.479 86.4237C170.406 86.3531 170.332 86.2825 170.258 86.2119C168.072 86.2337 165.886 86.2556 163.7 86.2775C164.051 87.3014 165.009 86.7485 165.436 87.3454C163.815 87.6525 162.226 87.4357 160.642 87.471C159.65 86.5506 158.349 86.7577 157.164 86.5758C156.92 86.3067 156.338 86.254 156.474 85.7872C156.501 85.6795 156.767 85.6384 157.029 85.5998C156.628 85.1877 156.207 84.8654 155.443 85.0986C154.023 85.5393 152.736 85.1253 151.545 84.3421C150.696 83.7688 149.69 83.4692 148.708 83.5371C146.924 83.6713 145.18 83.8434 143.429 83.2016C142.865 82.9939 141.961 83.0031 141.647 83.7043C140.665 85.7506 138.842 85.9819 136.876 85.9434C136.094 85.9319 135.274 86.1531 134.508 85.8118C134.501 85.8118 134.494 85.8119 134.487 85.812C133.394 85.571 132.302 85.33 131.21 85.089C131.215 85.0813 131.22 85.0737 131.225 85.0662C131.22 85.0671 131.215 85.0691 131.21 85.0701C130.428 85.0779 129.666 85.0851 128.885 85.1123C128.844 85.1204 128.804 85.1324 128.766 85.1419C128.806 85.1447 128.846 85.1513 128.885 85.1521C128.396 86.6379 127.441 88.1946 129.471 89.2221C129.553 89.2506 129.634 89.2774 129.708 89.3125C129.829 89.3114 129.949 89.3306 130.069 89.3487C130.471 89.3447 130.872 89.3407 131.274 89.3367C131.839 91.7158 131.819 91.754 129.387 91.2742C128.242 91.0529 127.036 90.9303 126.046 90.2034C126.053 90.2033 126.059 90.2032 126.066 90.2032C123.64 90.2661 121.367 89.6297 119.151 88.7211C119.154 88.7072 119.158 88.6929 119.161 88.6794C119.158 88.6795 119.154 88.6812 119.151 88.6814C118.259 88.6352 117.35 88.7618 116.553 88.2736C116.493 88.2713 116.435 88.2743 116.379 88.2829C115.456 88.2732 114.585 87.8162 113.628 88.0434C113.656 89.0591 114.278 89.4873 115.267 89.5157C115.608 89.5123 115.929 89.5096 116.251 89.5646C116.934 89.674 118.076 89.5652 118.005 90.3993C117.914 91.4087 116.767 91.091 116.043 90.9625C114.959 90.7793 113.969 90.0914 112.768 90.3362C112.045 90.2271 111.283 90.2533 110.638 89.9692C107.717 88.7184 104.627 88.7107 101.539 88.8385C101.481 91.0303 101.341 91.1286 99.128 90.4138C98.4257 89.5395 96.6804 89.7356 96.6805 88.1882C96.6597 88.1882 96.6387 88.1889 96.6179 88.1889C91.8187 87.6938 86.9993 87.2574 82.1635 87.1118C82.1902 87.0989 82.2168 87.086 82.2435 87.0731C82.2424 87.0561 82.2383 87.0387 82.2371 87.022C82.2322 87.0253 82.2284 87.0302 82.2235 87.0335C81.7629 87.1157 81.242 87.1594 80.957 86.7356C79.8968 85.0207 78.2122 85.0565 76.5712 85.4025C74.3692 85.8512 71.9187 85.547 70.0698 87.2138C70.0459 87.2049 70.0209 87.1967 69.997 87.188C70.0136 87.2095 70.0322 87.2298 70.0486 87.2519C70.0623 87.2517 70.076 87.2516 70.0898 87.2514C70.4324 87.4225 70.7946 87.5748 71.379 87.8598C70.1793 88.2401 69.0114 87.8068 68.0339 88.3402C67.4122 88.3464 66.8108 88.3903 66.1891 88.3965C64.9729 88.2641 63.5786 87.6958 63.1186 89.3004C64.2964 89.5337 63.9822 91.0258 64.618 91.7287C64.8612 91.9978 64.2221 92.3916 63.8396 92.2403C63.1751 91.9952 62.1132 92.0054 62.3632 90.9368C62.4374 90.6502 62.4616 90.4443 62.3799 90.2624C62.292 90.2968 62.1982 90.324 62.0966 90.3391C61.6948 90.2655 61.2937 90.2681 60.9108 90.0782C60.8435 90.0789 60.7763 90.0795 60.709 90.0802C60.6425 90.0872 60.576 90.0942 60.5094 90.1011C58.4329 91.0722 56.6564 90.0622 54.8631 89.2655C53.2942 88.7966 51.6683 88.6581 50.0428 88.558C50.0342 88.5514 50.0242 88.5459 50.0152 88.5393C48.6416 88.661 47.2816 88.1997 45.8698 88.5221C44.769 88.7658 43.3526 89.6521 42.809 87.4466C42.5786 86.5575 40.9112 86.1087 39.6302 86.3344C35.4851 87.0741 31.4444 86.3204 27.3859 85.6822C27.0057 85.628 26.6441 85.4389 26.2831 85.3068C23.9756 85.5805 22.1016 83.9687 19.8265 83.9528C18.9239 83.9618 18.9154 83.1862 19.5111 82.579C19.9875 82.0895 20.8689 81.984 21.0013 81.1493C20.4966 80.8246 20.1712 80.3616 19.8056 79.8998C19.0951 79.0343 19.2495 78.4312 20.2901 78.2074C20.6672 78.1306 20.9923 77.9485 21.3121 77.7578C20.8383 77.6552 20.5137 77.3899 20.8345 76.4178C20.97 75.9905 20.2878 75.8225 19.967 75.864C18.1635 76.0566 17.8665 74.6046 17.2543 73.5634C16.8068 72.7932 18.1704 72.9536 18.084 72.2955C18.0906 72.2817 18.1001 72.2687 18.1071 72.2555C18.0992 72.2556 18.0914 72.2557 18.0836 72.2558C17.7629 72.259 17.442 72.2635 17.1408 72.2084C16.739 72.1349 16.1003 72.3536 16.0146 71.8314C15.9722 71.5995 16.5654 71.2618 16.8642 70.9876C16.859 70.987 16.8536 70.9884 16.8485 70.9878C17.7218 70.0877 18.8829 69.8817 20.0651 69.8116C20.9673 69.7638 21.6867 69.3499 22.425 68.9547C22.4316 68.9609 22.4381 68.9672 22.4447 68.9734C22.3208 68.6065 22.1757 68.2401 22.0517 67.8731C22.0822 67.8923 22.1133 67.9064 22.1462 67.9157C22.1821 67.9198 22.2181 67.9239 22.2541 67.9279C22.2393 67.8866 22.2182 67.844 22.1979 67.7997C22.1494 67.8238 22.1003 67.8491 22.0517 67.8731C20.8658 67.5553 20.8381 66.8177 21.2698 65.8828C21.4856 65.3958 21.466 65.3961 20.4809 65.1539C19.7371 64.9675 18.9732 64.8007 18.1891 64.5953C19.3624 62.5814 19.5083 62.3136 17.4067 61.1826C17.0588 61.0005 16.7109 60.8183 16.363 60.6362C16.2563 60.6152 16.1497 60.5941 16.043 60.5731C15.298 60.404 14.5704 60.0832 13.5638 59.4823C16.708 58.9854 19.9148 58.8169 19.9938 54.647C16.5685 55.1078 12.9969 54.9876 9.49673 53.9754C8.23828 53.7567 7.01855 53.4412 5.87515 52.8582C5.87518 52.8614 5.87521 52.8645 5.87525 52.8677C5.59327 52.7541 5.28991 52.6414 5.00794 52.5278C3.58891 51.0294 3.67436 49.534 5.2252 48.1998C6.97725 46.8828 8.96069 46.5325 11.1105 46.8795C11.8939 47.0074 12.6953 46.9234 13.4777 46.9543C14.7747 47.1396 16.0652 47.2008 17.3544 47.1352C18.4497 46.8574 19.5163 46.4415 20.5915 46.0479C20.9933 45.9023 21.4332 45.8483 21.8742 45.8059C22.0217 45.6222 22.171 45.4413 22.3686 45.2934C22.5478 45.1948 22.7275 45.135 22.9075 45.1137C23.0539 45.1272 23.1974 45.1299 23.3366 45.1265C23.2547 44.8914 22.9016 44.7508 22.6631 44.5726C22.6737 44.5649 22.6854 44.5587 22.6961 44.5514C22.685 44.552 22.674 44.5531 22.6629 44.5537C21.4781 44.4297 20.2921 44.287 19.1073 44.1631C19.8985 43.0497 21.2025 43.0745 22.3631 42.7914C22.7231 42.7103 23.1461 42.8808 23.4638 42.5683C24.2813 41.0355 24.5793 40.7947 25.7367 41.4433C25.1363 40.693 24.8671 39.8693 25.5523 38.6685C26.6165 36.7767 26.1272 36.0246 23.9339 35.3095C23.8737 35.3101 23.8322 35.2324 23.7915 35.1746C23.7306 35.0783 23.7494 34.9613 23.8687 34.8632C23.8287 34.8447 23.7886 34.8261 23.7486 34.8076C23.7616 34.8005 23.7746 34.7934 23.7876 34.7864C24.1873 34.6466 24.587 34.5069 24.9666 34.3674C25.562 33.7214 25.5294 32.4235 26.9362 32.6809C26.9929 32.7469 27.0515 32.81 27.1105 32.8705C27.175 32.8513 27.2442 32.8337 27.3157 32.8211C27.2977 32.7152 27.3226 32.6067 27.3967 32.5021C28.0277 31.4097 26.6277 31.8682 26.4822 31.3654C24.8373 31.2849 24.8811 29.7737 25.1552 29.1304C25.9592 27.2799 24.5001 27.7588 23.6951 27.4953C23.7016 27.489 23.708 27.4826 23.7145 27.4762C22.4494 27.3338 21.068 27.5991 19.9343 26.5632C22.3752 26.6576 24.7683 26.5751 27.111 26.0672C27.4445 25.9856 27.778 25.904 28.1115 25.8223C27.3149 24.3951 26.7358 22.7519 24.5314 22.9679C24.6219 21.9781 25.4463 21.9896 25.9442 21.6355C26.3225 21.3603 26.8806 21.0436 26.6156 20.6004C25.3274 18.5828 26.9189 18.9186 28.0398 18.8417C28.047 18.8417 28.0541 18.8416 28.0613 18.8415C28.6006 18.6034 29.4975 18.0512 28.812 17.709C27.9051 17.2524 29.0914 15.5714 27.2889 15.8416C25.8669 16.0496 24.3798 15.755 22.9149 15.6921C22.8711 15.5689 22.8735 15.4509 22.9114 15.3436C22.8914 15.3438 22.8708 15.344 22.8507 15.3443C22.8484 15.3389 22.847 15.3326 22.8447 15.3273C22.8335 15.3391 22.8223 15.3509 22.8117 15.3636C21.4015 14.7571 19.9911 14.13 18.0168 13.277C19.7186 13.2239 20.971 13.6139 22.0705 13.138C21.0427 11.7857 21.184 11.6344 23.1287 11.0156C24.2281 10.6556 23.273 9.30915 24.3935 9.18087C24.6339 9.15908 24.8751 9.1178 25.1155 9.09599C25.6739 8.75089 25.2658 8.14845 25.2932 7.66235C24.5562 7.61353 23.832 7.55251 23.074 7.5065C23.1488 6.96308 23.7915 7.20718 23.9491 6.85757C23.9425 6.85764 23.936 6.8577 23.9295 6.85777C24.5866 6.36633 25.3522 6.59027 26.0548 6.64143C27.2389 6.7264 28.2392 6.40765 29.1351 5.73939C29.533 5.42515 29.9492 5.01368 30.4313 5.08625C33.4452 5.57977 35.7981 4.08103 38.2325 2.79603C38.6515 2.57878 39.1326 2.57334 39.5928 2.47181C40.4553 2.46319 41.1334 2.06852 41.6692 1.48132C42.5221 0.542469 43.5872 0.726131 44.6119 0.929142C45.4563 1.11465 46.046 1.92355 46.0528 2.60229C46.0629 3.62962 45.0543 2.96147 44.5141 3.10255C43.9739 3.24371 43.4324 3.26913 42.8505 3.25555C41.7267 3.20861 41.3112 3.83295 42.3031 4.73457C42.7352 5.8548 41.2066 5.38554 41.1338 6.12321C41.9855 7.04545 43.8341 7.33714 43.4707 9.04692C43.3751 9.50781 43.0831 9.93223 42.6324 10.0383C43.0423 10.7016 42.9323 11.415 42.2973 12.1819C42.299 12.3562 42.2816 12.5308 42.2631 12.686C42.0152 13.1183 42.1744 13.6784 42.1094 14.1649C42.2622 14.1173 42.4099 14.0754 42.5566 14.0222C44.1169 13.5993 45.6871 14.1444 47.2497 13.9544C47.9909 13.9165 48.6188 13.5938 49.2808 13.3299C49.1041 13.2274 48.9016 13.1105 48.6442 12.9518C53.6756 12.5911 58.4666 12.233 63.2576 11.9136C63.8389 11.869 64.423 12.0772 65.0058 12.1877C65.2674 12.2911 65.5738 12.269 65.8265 12.3727C65.9353 12.2938 66.0453 12.2113 66.1492 12.1176C68.451 12.9024 70.7391 12.3179 73.0305 12.062C72.7999 11.8465 72.6016 11.6208 72.7406 11.2751C72.9955 10.6731 73.6595 11.0142 74.1394 10.8937C75.4363 10.5713 77.08 10.9971 77.8093 9.39674C76.8429 8.72852 76.0354 7.90412 75.5448 6.86436C75.2576 6.22735 74.8126 5.999 74.1706 5.98603C73.6478 5.83618 73.1041 5.68584 72.5813 5.53599C73.0527 5.10303 73.6231 5.08584 74.1991 5.11071C73.4956 3.63915 73.7888 3.46191 75.7295 3.3908C76.5517 3.36318 77.3902 2.87099 78.1987 3.48353C80.4708 4.02313 82.7541 3.61215 85.0398 3.51172C84.8977 3.57959 84.7549 3.64698 84.6128 3.71486C84.7772 3.67382 84.9363 3.621 85.0792 3.53026C85.066 3.52408 85.0529 3.5179 85.0398 3.51172C85.7191 3.25286 86.3785 3.01363 87.0578 2.75477C88.3521 1.81103 89.863 2.4932 91.2645 2.24677C91.4068 2.16051 91.5495 2.08435 91.6913 2.01712C92.1293 1.40452 92.7783 0.957062 93.3334 0.500641ZM449.018 92.7731C449.011 92.7732 449.004 92.7733 448.997 92.7733C449 92.7729 449.005 92.7717 449.008 92.7713C449.012 92.7719 449.015 92.7725 449.018 92.7731ZM310.717 94.0974C310.711 94.1038 310.704 94.1102 310.698 94.1165C310.7 94.1099 310.698 94.1023 310.7 94.0957C310.706 94.0959 310.712 94.0972 310.717 94.0974ZM239.074 92.6168C240.273 92.7443 241.448 92.9595 242.369 93.9437C242.561 93.304 242.762 92.8777 243.01 92.6532C241.707 92.7089 240.379 92.5859 239.074 92.6168ZM83.0939 89.8374C85.9867 88.2764 88.7887 89.6443 91.9814 90.0004C90.4076 91.0627 88.511 89.8613 87.4219 91.2677C86.3987 91.2779 85.3756 91.2881 84.3524 91.2984C83.8865 90.8572 82.6446 91.0246 83.0939 89.8374ZM52.4849 90.0469C52.8876 90.2174 53.2114 90.447 52.8954 90.9349C51.9726 90.9247 51.0691 90.8949 50.1464 90.8847C49.924 90.6931 49.6208 90.5212 49.6768 90.1526C50.6193 90.1238 51.5424 90.0757 52.4849 90.0469ZM72.3518 88.7611C72.9128 88.7168 73.7761 88.8444 73.7832 89.4835C73.7915 90.3174 72.925 89.9581 72.3834 89.9635C72.0625 89.9667 71.7206 89.9312 71.3993 89.8956C71.3994 89.902 71.3995 89.9083 71.3995 89.9146C70.6357 89.7477 69.8718 89.5815 68.7864 89.3403C70.1482 89.1133 71.2494 88.8497 72.3518 88.7611ZM148.032 86.2599C148.89 85.9024 149.717 86.2418 150.541 86.4469C150.971 87.2766 151 88.1107 150.284 88.7772C149.608 89.4046 148.763 89.1609 148.037 88.7997C145.962 87.793 143.54 88.2817 141.445 87.3334C143.689 87.214 145.915 87.1339 148.032 86.2599ZM133.656 86.9851C135.393 86.2309 136.962 86.603 138.51 86.9366C138.303 88.2764 137.152 87.4931 136.493 87.7712C135.608 87.5668 134.665 87.5762 133.656 86.9851ZM323.118 84.689C323.131 84.6915 323.144 84.6936 323.157 84.6961C323.151 84.6878 323.145 84.68 323.139 84.6717C323.132 84.6773 323.125 84.6831 323.118 84.689ZM136.777 78.7756C136.786 78.7867 136.796 78.7965 136.805 78.8075C136.811 78.8087 136.816 78.8099 136.822 78.8111C136.824 78.797 136.826 78.7831 136.828 78.7694C136.811 78.772 136.794 78.7734 136.777 78.7756ZM113.046 71.9842C113.038 71.984 113.029 71.9846 113.021 71.9845C113.022 71.9851 113.024 71.9857 113.025 71.9863C113.032 71.9856 113.039 71.9849 113.046 71.9842C113.053 71.9843 113.06 71.9858 113.066 71.9859C113.086 71.9892 113.107 71.9915 113.127 71.9948C113.123 71.9799 113.12 71.9654 113.117 71.9513C113.094 71.9629 113.069 71.9719 113.046 71.9842ZM242.536 69.5643C242.547 69.5642 242.557 69.5641 242.568 69.5639C242.558 69.5566 242.546 69.5511 242.536 69.5434C242.536 69.5504 242.537 69.5573 242.536 69.5643ZM354.26 67.6705C354.268 67.6704 354.276 67.6722 354.283 67.6721C354.283 67.6658 354.283 67.6595 354.283 67.6532C354.325 67.6528 354.367 67.6524 354.409 67.6519C354.375 67.6382 354.338 67.6285 354.304 67.6132C354.302 67.6127 354.299 67.6119 354.296 67.6114C354.284 67.6317 354.272 67.6514 354.26 67.6705ZM407.731 66.3232C407.766 66.3229 407.802 66.3225 407.838 66.3222C407.832 66.3076 407.826 66.2929 407.82 66.2788C407.791 66.2938 407.76 66.3069 407.731 66.3232ZM292.672 63.5911C292.681 63.5919 292.69 63.5939 292.699 63.5946C292.95 63.6108 293.144 63.5584 292.928 63.5564C292.843 63.5685 292.757 63.5792 292.672 63.5911ZM323.676 59.0517C323.677 59.0473 323.677 59.0429 323.678 59.0385C323.661 59.0386 323.644 59.0388 323.627 59.039C323.643 59.0432 323.66 59.0475 323.676 59.0517ZM169.247 55.2398C169.251 55.2175 169.256 55.1947 169.262 55.1714C169.23 55.1718 169.198 55.1721 169.166 55.1724C169.193 55.1949 169.22 55.2173 169.247 55.2398ZM177.958 55.0447C177.96 55.0447 177.961 55.0447 177.962 55.0447C177.962 55.0421 177.962 55.0396 177.962 55.0371C177.961 55.0397 177.959 55.042 177.958 55.0447ZM304.156 53.6255C304.24 53.6248 304.325 53.6255 304.41 53.6249C304.599 53.6094 304.787 53.5973 304.976 53.5813C304.702 53.5959 304.429 53.6106 304.156 53.6255ZM257.588 53.0268C257.593 53.0267 257.598 53.0267 257.602 53.0266C257.601 53.0254 257.599 53.0241 257.598 53.0229C257.595 53.0237 257.592 53.026 257.588 53.0268ZM20.6966 53.0301C20.7096 53.0292 20.7227 53.0307 20.7357 53.0297C20.7219 53.0177 20.7084 53.0056 20.6943 52.9941C20.695 53.0058 20.6955 53.0177 20.6966 53.0301ZM5.87485 52.8279C5.87487 52.8304 5.8749 52.8329 5.87492 52.8355C5.88135 52.8315 5.88794 52.8278 5.8944 52.8239C5.88789 52.8252 5.88137 52.8265 5.87485 52.8279ZM106.045 49.8867C106.053 49.8867 106.06 49.8865 106.067 49.8865C106.061 49.8851 106.055 49.8843 106.049 49.8829C106.048 49.8842 106.047 49.8854 106.045 49.8867ZM337.972 47.2C337.949 47.1999 337.925 47.1989 337.901 47.1988C337.902 47.2228 337.901 47.2461 337.9 47.2689C337.923 47.2581 337.949 47.2493 337.972 47.2379C337.983 47.2235 337.996 47.2115 338.007 47.1978C337.995 47.1984 337.984 47.1994 337.972 47.2ZM114.355 43.5269C114.389 43.5282 114.422 43.5303 114.456 43.5315C114.373 43.5209 114.289 43.5127 114.205 43.5019C114.255 43.5136 114.305 43.5173 114.355 43.5269ZM156.136 42.0162C156.133 42.0271 156.128 42.0378 156.125 42.0485C156.135 42.0433 156.146 42.0404 156.156 42.035C156.158 42.0349 156.16 42.0349 156.162 42.0349C156.159 42.0274 156.157 42.0197 156.154 42.0123C156.148 42.0135 156.142 42.015 156.136 42.0162ZM125.624 39.2019C125.631 39.2025 125.637 39.203 125.644 39.2036C125.639 39.2011 125.635 39.1987 125.63 39.1962C125.629 39.1984 125.626 39.1997 125.624 39.2019ZM202.86 37.3348C203.094 37.329 203.329 37.3255 203.563 37.3202C203.235 37.3147 202.91 37.3105 202.588 37.3053C202.678 37.3175 202.769 37.324 202.86 37.3348ZM279.936 33.0204C279.947 33.0202 279.958 33.0201 279.97 33.02C279.964 33.017 279.959 33.0138 279.954 33.0107C279.948 33.014 279.942 33.017 279.936 33.0204ZM94.5331 30.1621C94.5055 30.1708 94.4767 30.1754 94.4491 30.1838C94.4772 30.1893 94.5054 30.1943 94.5335 30.2C94.5935 30.2364 94.655 30.2707 94.7187 30.308C94.7411 30.2631 94.7591 30.2131 94.776 30.1578C94.6951 30.1595 94.6141 30.1602 94.5331 30.1621ZM273.755 25.3357C273.756 25.3344 273.757 25.3331 273.757 25.3319C273.756 25.3319 273.755 25.3319 273.753 25.3319C273.754 25.3332 273.755 25.3344 273.755 25.3357ZM198.158 25.6863C198.167 25.6869 198.176 25.6874 198.185 25.6879C198.187 25.6817 198.187 25.6753 198.189 25.669C198.179 25.6757 198.168 25.6799 198.158 25.6863ZM173.973 20.4356C173.965 20.4456 173.96 20.4567 173.953 20.466C173.987 20.4657 174.021 20.4654 174.055 20.465C174.028 20.4569 174 20.4447 173.973 20.4356ZM347.089 10.1813C347.37 8.16149 348.705 9.19461 349.629 9.30175C350.974 9.44371 350.601 10.3981 350.389 11.2147C350.176 11.9926 349.08 12.6634 350.033 13.6236C348.792 13.927 347.755 14.5968 346.657 15.1896C345.461 15.8413 344.479 15.9671 344.362 14.2429C344.315 13.5645 343.892 13.4131 343.349 13.3022C343.351 13.2918 343.353 13.2819 343.355 13.2718C343.346 13.2753 343.338 13.28 343.329 13.2834C341.824 13.1628 340.318 13.0421 338.812 12.9214C338.811 12.7983 338.81 12.6752 338.809 12.5521C340.941 12.5308 343.074 12.5095 345.206 12.4881C345.213 12.4944 345.22 12.5006 345.228 12.5069C345.029 12.5872 344.831 12.6673 344.635 12.7476C344.884 12.7716 345.109 12.7511 345.248 12.5275C345.247 12.5142 345.247 12.501 345.247 12.4877C345.241 12.4815 345.234 12.4752 345.227 12.469C346.447 12.1657 346.939 11.1911 347.089 10.1813ZM372.536 9.17116C372.912 10.7755 371.567 10.5371 370.706 10.7198C369.825 10.9032 369.124 11.0268 370.217 11.9274C370.743 12.3682 370.728 12.9324 370.312 13.4795C369.005 15.141 365.752 14.9402 364.852 13.2425C366.805 11.9041 368.718 10.566 370.65 9.2279C371.271 9.22169 371.893 9.19698 372.514 9.17138C372.522 9.17131 372.529 9.17123 372.536 9.17116ZM141.518 15.9607C141.551 15.9976 141.573 16.0404 141.596 16.083C141.668 16.0867 141.741 16.0904 141.814 16.0941C141.716 16.0432 141.618 15.9987 141.518 15.9607ZM398.566 10.4412C399.754 8.95595 401.217 8.80682 403.007 9.27367C405.923 10.0396 408.877 10.4934 411.877 9.64899C412.297 9.52843 412.778 9.40839 413.344 9.82941C412.174 11.1792 410.491 11.4282 408.948 11.5988C407.606 11.748 406.185 12.0333 404.816 11.5625C404.293 11.3739 403.772 11.4759 403.315 11.8483C401.684 13.2029 399.595 13.0697 397.674 13.4768C396.332 13.7617 396.34 12.5783 395.911 11.8068C395.911 11.8005 395.911 11.7942 395.911 11.7879C396.891 11.4678 397.912 11.2429 398.566 10.4412ZM355.639 10.6394C355.949 11.6441 355.027 11.5376 354.508 11.7947C353.825 11.6852 353.014 12.8757 352.685 12.0838C352.356 11.2727 353.658 11.1816 354.297 10.865C354.676 10.6673 355.178 10.7021 355.639 10.6394ZM72.0838 14.7459C71.8093 14.4642 71.5181 14.2687 71.0475 14.5517C71.335 14.5884 71.8245 14.5513 71.9086 14.8575C71.9655 14.8063 72.024 14.7695 72.0838 14.7459ZM149.135 14.0416C149.127 14.0341 149.116 14.0294 149.108 14.023C149.1 14.023 149.092 14.0231 149.084 14.0232C149.101 14.0299 149.119 14.0345 149.135 14.0416ZM220.468 9.9153C220.474 9.92155 220.481 9.9278 220.487 9.93404C220.892 10.2984 221.857 10.4057 221.424 11.1463C221.05 11.7899 220.383 11.3511 219.838 11.0656C219.254 10.7612 218.669 10.496 217.823 10.0781C218.463 9.97482 218.903 9.91188 219.364 9.82975C219.725 9.86491 220.106 9.89951 220.468 9.9153ZM239.048 10.4076C239.041 10.4076 239.035 10.4077 239.028 10.4078C239.033 10.4062 239.037 10.4035 239.042 10.4019C239.043 10.4039 239.046 10.4056 239.048 10.4076ZM188.802 6.7413C189.445 6.85109 190.267 6.8234 190.156 7.75431C190.083 8.43386 189.566 8.98275 188.844 8.95119C188.041 8.92043 187.533 8.18895 187.467 7.56908C187.4 6.91032 188.201 6.82443 188.802 6.76023C188.802 6.75392 188.802 6.74761 188.802 6.7413Z" fill="url(#paint0_linear_397_3727)"/>
</g>
<defs>
<filter id="filter0_d_397_3727" x="0" y="0" width="507.953" height="105.29" filterUnits="userSpaceOnUse" color-interpolation-filters="sRGB">
<feFlood flood-opacity="0" result="BackgroundImageFix"/>
<feColorMatrix in="SourceAlpha" type="matrix" values="0 0 0 0 0 0 0 0 0 0 0 0 0 0 0 0 0 0 127 0" result="hardAlpha"/>
<feOffset dy="4"/>
<feGaussianBlur stdDeviation="2"/>
<feComposite in2="hardAlpha" operator="out"/>
<feColorMatrix type="matrix" values="0 0 0 0 1 0 0 0 0 1 0 0 0 0 1 0 0 0 1 0"/>
<feBlend mode="normal" in2="BackgroundImageFix" result="effect1_dropShadow_397_3727"/>
<feBlend mode="normal" in="SourceGraphic" in2="effect1_dropShadow_397_3727" result="shape"/>
</filter>
<linearGradient id="paint0_linear_397_3727" x1="4.00482" y1="48.4092" x2="504.005" y2="48.4092" gradientUnits="userSpaceOnUse">
<stop stop-color="#00BF63" stop-opacity="0.8"/>
<stop offset="1" stop-color="#0053A0"/>
</linearGradient>
</defs>
</svg>
