<svg width="608" height="108" viewBox="0 0 608 108" fill="none" xmlns="http://www.w3.org/2000/svg">
<g filter="url(#filter0_d_392_3729)">
<path d="M256.92 0.637032C259.934 -0.757862 263.003 0.584221 266.045 0.508236C268.423 1.62419 270.858 2.46156 273.596 2.18257C275.116 2.05538 276.636 0.941383 278.184 2.08102C278.516 2.08102 278.849 2.08161 279.153 2.05625C282.278 2.33512 285.43 1.65082 288.554 2.05625C293.697 0.407677 298.953 2.30878 304.152 1.57327C304.705 1.62399 305.23 1.70088 305.783 1.7516C305.787 1.75756 305.788 1.76546 305.792 1.77142C306.314 1.56972 306.838 1.37125 307.388 1.16955C307.44 1.16027 307.492 1.15365 307.544 1.14478C307.483 1.14328 307.422 1.14387 307.361 1.1423C309.821 0.00161743 312.448 0.00228882 315.046 0.357151C318.945 0.889744 322.928 0.002388 326.772 1.09277C327.104 1.19422 327.602 0.838745 328.017 0.686569C328.026 0.686569 328.035 0.686569 328.044 0.686569C328.044 0.777386 328.044 0.868202 328.044 0.959019C328.127 0.943573 328.21 0.931252 328.292 0.914436C330.477 0.407284 332.662 0.661701 334.874 0.6618C343.502 0.6618 352.104 0.558765 360.704 0.939205C360.741 0.946205 360.778 0.949696 360.815 0.956539C360.815 0.883888 360.815 0.811234 360.815 0.738583C363.608 0.814743 366.373 1.39751 369.165 1.068C372.687 1.12662 376.208 1.18523 379.73 1.24385C380.244 1.24386 380.786 1.26855 381.301 1.29339C381.311 1.28503 381.324 1.27984 381.334 1.2711C385.454 1.55006 389.574 1.82929 393.694 2.10826C394.782 2.10826 395.869 2.10826 396.957 2.10826C399.335 1.42347 401.714 1.21889 404.037 2.28411C404.353 2.42902 404.687 2.55904 405.01 2.69775C405.081 2.72156 405.154 2.74171 405.226 2.7671C407.327 2.58958 409.429 2.56352 411.475 3.12128C412.563 3.12128 413.651 3.12128 414.74 3.12128C415.013 3.13412 415.288 3.14559 415.563 3.15843C416.615 2.92063 417.668 2.64605 418.747 2.69032C423.808 3.09611 428.897 3.22386 433.93 4.23833C436.612 4.77093 439.433 5.53027 442.337 5.25135C443.277 5.17526 444.384 4.92342 445.159 5.81111C445.149 5.81936 445.139 5.82762 445.129 5.83588C448.084 6.33443 451.04 6.82485 453.995 7.31701C457.38 7.4814 460.778 7.03831 464.127 7.73807C474.552 9.89385 485.145 10.4763 495.791 10.6285C499.579 10.6792 503.313 10.8581 507.101 10.7821C509.7 10.7314 512.551 10.9323 515.095 11.9214C515.703 12.0735 516.31 12.2523 516.891 12.4044C516.888 12.4332 516.883 12.461 516.88 12.4886C516.901 12.4761 516.926 12.4672 516.947 12.4539C517.851 12.4539 518.755 12.4539 519.659 12.4539C519.676 12.4289 519.695 12.4049 519.713 12.3796C520.616 12.3796 521.518 12.3796 522.421 12.3796C522.43 12.3961 522.439 12.4127 522.448 12.4292C524.329 13.3929 526.073 13.4945 528.341 13.1648C532.073 12.6071 535.89 13.4196 539.181 15.4484C540.01 16.0564 541.033 15.8782 541.973 15.9289C542.477 16.1942 542.91 16.4819 543.215 16.8032C544.514 17.123 545.739 17.6124 546.948 18.1432C547.896 18.0141 548.853 17.945 549.826 17.9847C552.644 18.6194 555.724 18.3865 558.263 19.8869C557.455 18.1286 558.161 16.9704 560.502 16.184C562.852 15.3979 564.319 15.4227 565.895 16.3103C565.618 14.6364 566.115 13.6205 568.217 13.6205C569.461 13.6206 570.762 13.9017 572.006 13.4199C572.015 13.4282 572.024 13.4364 572.033 13.4447C572.392 13.4446 572.751 13.3932 573.11 13.3679C575.184 12.1759 577.591 12.8361 579.775 12.3796C581.711 11.5173 583.896 11.8719 585.887 11.3394C586.633 11.3394 587.382 11.2874 588.128 11.2874C588.488 11.4902 588.846 11.6938 589.206 11.8967C591.473 13.0886 591.556 13.4188 589.565 14.7376C587.38 16.1831 585.445 17.908 583.205 19.2776C581.905 20.0638 581.959 21.7638 580.631 22.5247C578.641 23.2857 576.982 24.7042 574.825 25.1353C573.957 25.2979 573.676 25.9707 573.297 26.5669C574.175 26.608 575.054 26.6476 575.932 26.708C576.015 26.7148 576.098 26.7165 576.181 26.7229C580.692 26.4985 585.201 26.2022 589.659 27.1291C589.711 27.1326 589.762 27.1353 589.813 27.139C590.532 27.3165 591.279 27.494 591.998 27.6715C594.21 29.3708 596.424 31.0968 598.636 32.7961C598.645 32.804 598.652 32.8128 598.66 32.8208C599.01 32.8231 599.335 32.8728 599.687 32.8976C600.489 34.8756 601.953 36.4736 603.197 38.198C604.248 39.669 604.47 40.9378 602.617 41.9776C602.617 41.971 602.617 41.9644 602.617 41.9578C602.61 41.9678 602.602 41.9776 602.595 41.9875C602.602 41.9837 602.61 41.9814 602.617 41.9776C601.677 43.7783 602.063 46.0344 600.321 47.5307C600.321 47.5133 600.319 47.496 600.318 47.4786C600.311 47.4946 600.309 47.5123 600.302 47.5282C600.309 47.5286 600.315 47.5302 600.321 47.5307C600.313 47.5369 600.305 47.5418 600.297 47.548C600.296 47.5508 600.295 47.5551 600.294 47.5579C600.286 47.5624 600.275 47.5634 600.267 47.5678C598.31 49.1405 595.747 50.0621 594.294 52.1995C594.1 52.1995 593.879 52.1728 593.686 52.1474C593.681 52.1418 593.677 52.1357 593.672 52.1301C593.667 52.1441 593.662 52.1582 593.656 52.1722C593.573 52.1896 593.491 52.2069 593.408 52.2242C593.325 52.2242 593.242 52.2242 593.159 52.2242C593.168 52.2069 593.177 52.1896 593.186 52.1722C592.944 52.4685 592.702 52.7651 592.46 53.0614C592.463 53.0614 592.465 53.0614 592.468 53.0614C592.137 53.4413 591.806 53.7961 591.474 54.176C589.566 54.4042 588.432 55.7492 587.105 56.789C587.062 56.7653 587.02 56.7449 586.98 56.7246C587.022 56.7543 587.063 56.7841 587.105 56.8138C586.745 58.6399 587.186 60.8219 584.199 61.4306C583.398 61.5838 583.509 62.9784 583.786 63.739C584.836 66.7821 583.867 68.9896 580.853 70.4858C580.846 70.4835 580.84 70.4807 580.834 70.4784C580.676 70.6493 580.543 70.8231 580.383 71.0183C580.052 71.0183 579.719 71.0178 579.359 71.0431C579.349 71.0427 579.338 71.0411 579.327 71.0406C572.286 76.3839 565.245 81.7019 557.569 86.2855C557.569 86.2937 557.569 86.302 557.569 86.3102C557.017 86.4875 556.492 86.6902 555.94 86.8675C555.939 86.8762 555.94 86.8859 555.938 86.8948C555.471 87.6991 554.707 87.9018 553.777 87.8805C553.778 87.8814 553.779 87.8822 553.78 87.883C552.923 89.6834 550.271 89.2536 549.302 90.9518C549.29 90.9522 549.277 90.9537 549.265 90.9543C547.893 92.0445 546.646 93.3161 544.887 93.9091C544.855 93.9288 544.825 93.9523 544.793 93.971C541.779 95.6192 538.35 96.6096 535.862 99.0188C535.696 99.1704 535.53 99.1945 535.365 99.0683C533.733 99.0176 532.101 101.173 530.442 99.0931C530.58 99.0677 530.718 99.0174 530.828 98.9668C531.741 96.608 533.014 94.6289 536.083 94.2484C536.608 94.1719 536.719 93.4879 536.442 92.9555C536.304 92.9048 536.165 92.8787 536.027 92.8787C534.838 91.6366 533.427 90.5467 532.902 88.8737C532.543 87.7327 532.515 86.8189 534.312 87.1226C535.445 87.4523 536.441 87.325 537.188 86.387C537.851 85.2965 537.549 84.485 536.664 83.5213C535.779 82.5576 534.7 81.0871 537.493 80.8587C537.732 80.9683 537.899 81.1203 538.011 81.307C539.925 80.3044 541.917 80.5529 543.92 80.8464C542.191 78.1873 543.242 77.3595 547.92 76.4203C548.085 76.2685 548.222 76.141 548.36 75.9893C548.526 75.685 548.583 75.3036 548.86 75.0754C550.334 73.8076 550.222 72.6327 548.527 71.5509C548.168 71.4748 547.835 71.2967 547.558 71.0431C545.679 70.8906 545.927 69.8001 546.37 68.7099C546.978 67.2389 546.148 66.9348 544.793 67.0108C544.78 67.0013 544.771 66.9882 544.76 66.9786C543.202 68.1498 542.214 66.3759 540.896 66.3495C540.907 66.3437 540.919 66.3379 540.931 66.3322C540.919 66.3297 540.907 66.3272 540.896 66.3248C540.122 66.5022 539.346 66.7046 538.6 66.882C537.829 68.5618 536.764 68.8741 535.459 67.9867C535.091 68.7611 534.096 68.8062 533.51 69.344C532.266 70.0288 531.326 71.2955 529.613 71.0679C527.898 70.5607 526.156 70.9929 524.441 71.0183C524.263 70.9958 524.084 70.9707 523.904 70.949C523.712 71.5088 523.421 71.9456 522.173 71.4221C520.791 70.8649 520.568 72.1582 520.485 73.0964C520.402 74.1108 520.431 75.126 520.431 76.1404C520.068 76.2514 519.703 76.3787 519.34 76.4946C519.299 76.5369 519.259 76.5825 519.213 76.6234C518.297 76.9759 517.38 77.3284 516.464 77.681C516.627 77.9581 516.844 78.2179 516.92 78.4983C517.141 79.259 518.827 79.5394 517.971 80.4773C517.252 81.2381 515.868 81.3912 514.9 80.8587C512.937 79.7935 510.724 79.7157 508.678 79.1324C508.669 79.1324 508.66 79.1324 508.651 79.1324C507.516 78.6425 506.272 78.2193 506.277 77.0543C506.166 76.9565 506.048 76.8596 505.94 76.7497C504.834 75.5579 505.746 74.6444 506.52 73.5794C505.166 74.568 503.949 74.3387 502.926 73.4258C501.931 72.5133 501.044 72.5907 499.966 73.2499C498.529 74.1115 497.036 74.1366 495.516 73.3763C494.216 72.8183 492.998 73.4767 491.754 73.6289C491.477 73.6542 491.201 73.6307 490.952 73.5546C490.862 73.525 490.771 73.4977 490.682 73.4704C489.996 74.1117 489.091 74.4028 487.827 74.315C485.947 74.1882 484.122 74.5692 482.491 75.5583C480.293 76.2639 478.121 76.9411 475.923 77.6463C475.919 77.6513 475.914 77.6562 475.91 77.6612C474.61 78.219 473.614 79.4113 471.983 79.2092C469.384 80.8069 466.59 82.0236 463.603 82.8352C461.806 83.4947 459.979 84.0544 458.016 84.0291C457.104 84.1302 456.164 83.877 455.28 84.1554C454.368 84.3329 453.454 84.5352 452.542 84.7127C452.52 84.7098 452.499 84.7034 452.477 84.7003C452.48 84.7042 452.482 84.7088 452.485 84.7127C450.384 85.6003 448.31 86.641 445.877 85.8297C445.876 85.8289 445.875 85.8281 445.874 85.8272C445.874 85.8363 445.877 85.8454 445.877 85.8545C445.462 86.0067 445.047 86.3102 444.632 86.3102C442.862 86.361 441.507 86.591 442.669 88.6706C442.721 88.7478 442.226 89.077 441.977 89.3047C440.484 88.8409 440.291 86.8966 438.769 86.4687C438.58 86.4509 438.39 86.4263 438.199 86.392C438.134 86.3903 438.066 86.3839 437.997 86.387C438.006 86.387 438.015 86.387 438.024 86.387C438.055 86.3835 438.087 86.3805 438.118 86.3771C438.087 86.3711 438.055 86.3687 438.024 86.3622C437.102 86.2012 436.18 86.0402 435.258 85.8793C435.201 85.8743 435.143 85.8694 435.086 85.8644C434.279 85.7036 434.161 84.4291 433.076 84.7102C433.067 84.7197 433.055 84.7267 433.047 84.7374C432.162 85.6758 430.916 85.6516 429.755 85.8545C428.289 85.398 429.035 83.0644 426.962 83.1399C426.971 83.1399 426.98 83.1399 426.989 83.1399C427.425 83.104 427.865 83.0982 428.307 83.0978C428.293 83.0781 428.276 83.0586 428.261 83.0383C428.094 82.8112 427.404 82.9379 426.962 83.1151C426.769 83.1151 426.602 83.1145 426.409 83.1399C426.397 83.1292 426.385 83.1184 426.374 83.1077C423.381 82.7483 420.441 83.6989 417.475 83.5981C416.785 83.8516 416.122 84.181 415.431 84.3585C413.827 84.7642 412.278 85.271 411.531 83.0656C411.089 81.7975 409.624 81.0598 408.518 80.1974C408.02 79.7917 407.244 79.5905 407.189 80.0216C406.859 83.0224 405.408 80.7313 404.413 80.5813C404.389 80.5972 404.364 80.6149 404.34 80.6309C402.863 80.4272 402.888 79.149 402.501 78.164C402.292 78.1974 402.085 78.2285 401.88 78.2457C401.078 79.9195 398.921 80.1731 397.842 81.5423C397.841 81.5447 397.838 81.5474 397.837 81.5498C398.837 82.2119 399.879 82.7021 401.547 81.7454C402.598 81.1367 403.179 82.6079 402.487 83.7492C401.022 83.9267 399.556 84.1042 398.091 84.2817C398.091 84.2735 398.091 84.2652 398.091 84.2569C398.367 83.184 398.251 82.5026 397.378 82.4984C397.307 82.7096 397.248 82.9243 397.205 83.1399C396.928 83.7993 396.266 83.9271 395.658 84.1554C394.386 84.561 393.583 83.6994 393.251 82.964C392.671 81.6452 391.675 81.974 390.707 82.0501C387.03 82.329 383.323 81.5686 379.673 82.4563C379.203 82.5569 378.871 82.0751 378.512 81.847C378.185 81.7721 377.858 81.6965 377.532 81.6216C377.343 81.6712 377.181 81.7206 376.991 81.7702C376.95 81.5253 376.893 81.2889 376.824 81.0594C376.62 80.8187 376.546 80.5928 376.567 80.3733C375.932 78.9246 374.783 77.7584 373.643 76.5961C373.626 76.595 373.608 76.5975 373.591 76.5961C372.703 76.4974 372.832 75.6812 372.457 75.2165C372.364 75.2318 372.272 75.2537 372.179 75.2537C372.058 75.2844 371.944 75.2968 371.836 75.3008C370.129 76.5098 371.688 77.4459 372.706 78.5751C370.111 79.1852 368.032 77.6125 365.827 77.4482C365.737 77.4435 365.646 77.4448 365.555 77.4383C365.118 77.43 364.676 77.4789 364.223 77.6191C364.175 77.6478 364.124 77.6762 364.077 77.7132C362.971 78.2965 361.865 77.942 360.758 77.6884C360.261 75.8116 358.353 74.796 356.832 75.8357C354.177 77.6616 351.109 77.9921 348.012 78.2457C347.976 78.2504 347.939 78.2513 347.904 78.2556C347.018 78.7363 346.133 79.2388 345.246 79.7169C343.034 79.1843 340.93 79.2097 338.884 80.351C337.529 81.1111 336.313 80.5031 335.041 79.8185C332.663 78.5251 330.148 77.8915 327.493 79.1844C327.141 78.9072 326.764 78.6294 326.407 78.3522C326.354 78.3575 326.302 78.3672 326.248 78.372C325.308 77.5097 324.393 76.6213 323.453 75.759C321.241 75.9107 319.471 74.6687 317.425 74.263C316.458 74.2629 315.517 74.1125 314.66 73.6561C313.973 73.6676 313.265 73.7302 312.627 73.6413C312.778 74.0741 312.664 74.5423 311.922 75.1001C311.922 75.0919 311.922 75.0836 311.922 75.0754C310.733 75.811 310.595 77.2065 309.71 78.1194C308.973 78.1194 308.235 78.1194 307.498 78.1194C307.471 74.4676 303.987 75.4305 301.941 74.949C299.701 74.4164 297.902 73.1739 295.745 72.6159C295.754 72.6064 295.761 72.5956 295.77 72.5862C295.218 72.2319 294.666 71.8778 294.114 71.5236C294.132 71.5169 294.148 71.5083 294.166 71.5013C294.158 71.5003 294.149 71.4999 294.141 71.4988C294.132 71.5071 294.123 71.5154 294.114 71.5236C293.036 71.6251 291.984 71.7281 290.601 71.8803C291.264 70.5111 291.542 69.167 289.691 68.4821C289.681 68.4821 289.671 68.4821 289.661 68.4821C288.942 68.6342 288.195 68.8104 287.476 68.9626C287.329 69.0352 287.181 69.1079 287.034 69.1805C284.805 70.1072 282.403 68.6812 280.147 69.4183C280.141 69.4119 280.135 69.4049 280.128 69.3985C280.126 69.4051 280.123 69.4116 280.12 69.4183C278.13 69.5454 276.691 70.5857 275.391 71.8283C274.949 72.2594 274.591 72.8931 273.844 72.6902C272.904 72.4619 273.097 71.6505 273.042 70.9911C273.051 70.9911 273.06 70.9911 273.069 70.9911C273.078 70.9879 273.087 70.9819 273.096 70.9787C273.087 70.9743 273.078 70.9708 273.069 70.9663C273.056 70.9464 273.046 70.9247 273.034 70.9044C273.037 70.9329 273.037 70.9621 273.042 70.9911C271.162 69.9514 269.06 70.4352 268.424 72.388C268.037 73.6045 267.732 73.8833 266.709 73.1484C265.575 72.3622 264.303 72.5137 263.031 72.5391C263.031 72.5308 263.031 72.5226 263.031 72.5143C262.155 72.5394 261.252 72.5635 260.376 72.5886C260.367 72.5886 260.358 72.5886 260.349 72.5886C260.285 72.7158 260.22 72.8429 260.155 72.9701C259.492 73.0208 258.829 73.071 258.138 73.0964C257.732 73.2574 257.326 73.4184 256.92 73.5794C256.929 73.5876 256.938 73.5959 256.947 73.6041C252.218 73.807 247.516 73.9858 242.788 74.1887C242.152 74.2139 241.295 74.1123 240.935 74.4165C239.252 75.9346 237.238 75.6101 235.224 75.5583C234.514 75.5834 233.83 75.6051 233.12 75.6302C233.115 75.6477 233.114 75.6671 233.109 75.6847C233.109 75.6764 233.109 75.6681 233.109 75.6599C233.081 75.8115 233.026 75.9391 232.998 76.0909C231.506 76.6992 230.013 77.3073 228.521 77.941C225.866 79.0824 223.099 79.234 220.279 78.7014C218.896 78.8029 217.707 78.7535 216.49 77.79C214.305 76.0146 211.65 76.6721 209.134 77.1286C208.868 77.3726 208.567 77.3867 208.259 77.3441C206.961 77.6992 205.608 78.0706 203.962 78.5256C207.308 80.0473 210.627 76.7754 213.392 78.9813C212.203 82.0499 209.963 82.8608 206.838 81.7702C205.152 81.4152 203.464 81.0095 201.75 80.7052C201.253 80.6039 200.505 80.5792 200.395 81.2129C200.284 81.847 200.977 82.0248 201.475 82.1516C202.442 82.4305 203.438 82.5818 204.405 82.8352C205.152 83.0128 205.871 83.3444 205.871 84.1306C205.871 85.0429 205.013 85.0677 204.294 85.2452C201.087 86.0311 197.907 85.0169 194.699 85.2452C194.45 85.1185 194.092 84.9921 194.065 84.7895C193.909 82.3135 192.361 80.621 190.594 78.9962C190.585 79.0967 190.561 79.19 190.494 79.2612C189.196 80.7313 189.611 81.4155 191.602 81.5423C192.68 81.6184 193.538 82.0506 193.649 83.1919C193.759 84.3834 192.624 84.3582 191.85 84.6879C189.5 85.7276 187.288 86.158 184.91 84.5096C183.416 83.47 181.396 83.6483 179.544 83.7244C178.438 83.775 177.333 83.623 176.338 83.1671C176.338 83.1754 176.338 83.1837 176.338 83.1919C173.49 81.1375 171.054 78.6514 166.519 80.0463C164.362 80.7055 161.902 80.96 159.635 81.6191C157.865 82.1517 156.426 81.6946 155.182 80.3758C156.15 79.2855 157.34 79.6916 158.363 79.7169C162.336 79.8434 162.509 79.6666 161.328 76.0884C161.326 76.0892 161.323 76.09 161.32 76.0909C160.961 76.0909 160.602 76.0903 160.216 76.1156C160.211 76.1193 160.205 76.1219 160.2 76.1255C160.214 76.1217 160.229 76.1195 160.243 76.1156C160.126 76.1939 160.005 76.2609 159.886 76.3286C159.866 76.3402 159.847 76.3523 159.827 76.3633C157.116 77.871 153.901 76.7908 151.007 77.5869C150.271 77.7868 149.401 77.6407 148.582 77.6364C148.587 77.6535 148.596 77.6708 148.601 77.6884C148.048 78.7787 148.657 79.4117 149.597 79.9696C150.427 80.4767 151.478 80.7323 151.893 81.6959C150.068 82.3806 148.242 83.065 146.389 83.7244C146.38 83.7244 146.371 83.7244 146.362 83.7244C145.09 83.0397 144.066 83.9276 142.932 84.1306C141.578 84.3588 140.167 84.2059 139.586 82.964C139.033 81.7466 140.72 81.6432 141.218 80.933C141.91 79.945 144.368 80.2483 143.926 78.9045C143.483 77.5616 141.494 78.2701 140.167 78.1689C139.116 78.0928 138.148 77.9668 137.429 77.1807C137.44 77.1617 137.45 77.1424 137.461 77.1237C137.441 77.1236 137.421 77.1297 137.402 77.1286C135.577 77.2808 133.723 76.4711 131.898 77.1559C131.752 77.197 131.614 77.2478 131.479 77.3045C131.627 77.2738 131.776 77.2413 131.925 77.2054C129.574 79.2852 127.14 81.3404 125.26 83.826C124.486 83.4463 123.463 84.8399 122.827 83.5213C121.693 81.188 122.579 79.6146 125.317 78.803C124.072 77.9153 123.103 78.6012 122.162 78.6519C120.559 78.7282 119.067 79.3867 117.464 78.1962C116.481 77.4629 115.403 78.5068 114.263 78.694C114.129 78.8457 113.925 78.9798 113.618 79.0829C111.434 78.7028 109.775 79.8696 108.06 80.7572C108.051 80.7572 108.042 80.7572 108.033 80.7572C108.006 80.8839 107.977 81.0367 107.949 81.1634C107.563 81.3155 107.175 81.4918 106.788 81.6439C105.406 82.6837 104.079 82.6333 102.972 81.3145C102.364 80.6045 101.535 80.0216 100.65 80.2494C97.6945 80.9522 96.011 79.0968 94.0201 77.7801C93.9787 77.818 93.9373 77.856 93.8958 77.894C93.9637 77.9406 94.0307 77.9897 94.0957 78.0426C95.1189 79.3107 94.5378 80.0961 93.0722 80.299C92.0767 80.4258 91.1364 80.5039 90.3068 81.0618C88.408 80.8083 87.7252 81.3327 88.2598 82.6346C88.2589 83.4956 87.347 83.3181 86.8771 83.6476C86.8681 83.6732 86.8591 83.6988 86.8501 83.7244C86.6755 83.7244 86.5008 83.7244 86.3262 83.7244C84.5287 83.623 83.3106 83.1151 82.8128 81.2129C82.3426 79.4633 79.8262 79.7932 78.554 78.5256C77.4479 77.435 75.0984 76.9771 75.5132 75.2017C75.8719 73.7124 77.5504 73.4751 79.1239 73.3391C77.9342 73.0724 76.7026 73.003 75.4295 73.0964C74.5169 73.1471 73.4923 73.0968 73.1881 74.1367C72.9115 75.0243 73.3285 75.7862 74.0198 76.4203C74.4619 76.8255 75.0698 77.1801 75.3188 77.6612C75.6783 78.3206 75.8448 79.1596 75.1811 79.7937C74.711 80.2501 74.019 80.1986 73.3555 80.1479C72.0282 80.0464 72.4426 79.1843 72.4427 78.4488C72.4427 78.1952 72.0557 77.9148 71.8621 77.6612C71.5301 77.1541 70.8394 76.5961 70.9223 76.1652C71.4747 73.1481 68.7929 72.9188 66.885 72.0314C66.8661 72.0314 66.8472 72.0314 66.8283 72.0314C65.8336 69.6486 68.0444 70.2554 69.1507 70.0276C70.501 69.7496 72.2902 70.1272 71.8378 67.9718C71.3022 67.9488 70.7666 67.9466 70.231 67.8975C69.7057 67.8468 68.9047 68.1004 68.8213 67.4418C68.7421 66.764 69.4926 66.592 70.0662 66.4015C70.0568 66.3845 70.0453 66.3672 70.0365 66.3495C69.8426 65.2596 69.0953 64.65 67.9895 64.3458C66.6349 63.7126 64.7557 63.9912 64.0089 62.3445C63.4106 62.4258 62.8866 62.3391 62.4588 61.9903C61.5838 62.7247 60.3203 62.4257 59.2235 62.5724C58.7816 62.6733 58.2844 62.3947 57.8976 62.7482C58.1463 62.8242 58.4233 62.8517 58.6996 62.877C59.7225 62.877 60.8006 62.8011 61.2705 63.9421C61.382 64.7789 62.653 65.8951 61.492 66.3768C60.1647 66.9094 58.5333 66.8566 56.9848 66.248C54.3302 65.2336 52.2281 63.0803 48.9101 63.4095C46.5322 63.6631 46.5314 61.3038 45.8126 60.0609C45.2597 59.0973 47.1107 59.046 47.9406 58.6912C48.4936 58.463 49.4073 58.4375 49.38 57.7277C49.3801 57.0683 48.4384 57.0425 47.9406 56.6875C47.9406 56.6792 47.9406 56.6709 47.9406 56.6627C47.9502 56.6511 47.9608 56.6393 47.9704 56.628C47.9518 56.6316 47.9323 56.6342 47.9136 56.6379C47.7607 56.6613 47.5841 56.6815 47.4059 56.685C47.4091 56.6942 47.4136 56.703 47.4167 56.7122C47.0572 56.7122 46.696 56.7389 46.3365 56.7642C46.3329 56.7642 46.3293 56.7618 46.3257 56.7618C46.3266 56.7634 46.3275 56.7651 46.3284 56.7667C45.1135 57.7751 43.7083 57.7272 42.2182 57.3983C41.6931 57.2716 41.0844 57.2961 40.7248 57.7773C40.3929 58.2338 40.7798 58.5398 41.084 58.8695C44.0422 62.0901 44.0966 64.0673 41.3594 67.5161C40.032 68.3531 38.8727 68.201 37.9324 66.9836C38.2084 64.3467 36.6029 63.0025 34.0868 62.2925C34.0623 62.2593 34.0434 62.2247 34.022 62.1934C34.0159 62.2009 34.0093 62.2081 34.0031 62.2157C33.2843 62.5961 32.5649 62.9778 31.8184 63.3328C31.8139 63.3328 31.8094 63.3328 31.8049 63.3328C31.8158 63.3535 31.8295 63.3732 31.84 63.3947C28.0343 64.8761 24.0915 64.5736 20.1763 64.0931C18.2133 63.8396 16.498 63.8651 15.1155 65.3613C14.9499 65.3866 14.7842 65.4127 14.6186 65.4381C14.2315 65.4127 13.8445 65.3619 13.4574 65.3365C13.4526 65.3134 13.4482 65.29 13.4439 65.2672C13.4391 65.2727 13.4351 65.2789 13.4304 65.2845C13.2652 65.2845 13.0719 65.3088 12.9065 65.334C12.9243 65.3432 12.9429 65.3518 12.9605 65.3613C10.5546 65.8939 8.09236 66.0466 5.63119 65.869C4.99546 65.8184 4.19333 65.8687 4.02707 65.2102C3.83349 64.3479 4.71905 64.1177 5.38274 63.9148C6.21982 63.6919 7.10997 63.5669 7.97527 63.4195C7.97802 63.4076 7.98044 63.3944 7.98337 63.3823C9.03359 63.3565 9.86339 62.8249 10.665 62.2925C10.674 62.3008 10.683 62.309 10.692 62.3173C10.7018 62.3108 10.7093 62.3015 10.719 62.295C10.7203 61.6508 10.7488 60.9838 10.7757 60.3408C11.6329 59.8843 12.8204 59.6038 13.2629 58.9191C14.4797 57.093 15.836 57.6015 17.357 58.337C17.2467 59.7059 17.7715 60.897 19.3743 60.264C22.2498 59.1482 25.403 59.4018 28.251 58.4386C29.3847 58.0582 29.9673 54.9372 29.0827 54.176C28.8892 53.6689 28.695 53.1622 28.5291 52.6552C28.5321 52.6521 28.5342 52.6483 28.5372 52.6453C28.5254 52.6406 28.514 52.635 28.5021 52.6304C28.476 52.6237 28.4494 52.6148 28.4238 52.6081C28.4499 52.6229 28.4755 52.6406 28.5021 52.6552C27.2303 52.782 25.9574 52.8826 24.7133 53.0094C24.7134 51.4001 25.3382 50.2397 27.3166 50.0966C27.3331 50.0786 27.351 50.0605 27.3679 50.0422C27.7272 48.7996 27.7543 47.6075 26.8143 46.5424C26.8125 46.5408 26.8107 46.5391 26.8089 46.5375C26.811 46.5472 26.812 46.5573 26.8143 46.5672C26.0123 46.3389 25.4595 45.8822 25.653 45.0959C26.0394 43.4227 24.6294 42.0788 24.6565 40.4816C25.0067 40.4816 25.3569 40.4816 25.7071 40.4816C28.0081 41.2605 28.8675 42.9098 29.0179 44.987C29.0207 44.9894 29.0233 44.992 29.026 44.9944C29.026 45.0117 29.026 45.0291 29.026 45.0464C29.9936 46.2634 30.9063 47.5309 31.9291 48.6972C32.3716 49.2045 33.1202 49.5087 33.9221 49.2298C34.5294 49.0011 34.6949 48.4178 34.5567 47.9616C33.6727 44.9953 35.8857 45.0958 37.9594 44.9944C39.4339 44.9944 40.9084 44.9944 42.3829 44.9944C42.3887 44.9908 42.3933 44.9856 42.3991 44.982C42.3845 44.9849 42.3707 44.9916 42.3559 44.9944C42.4663 44.8681 42.6572 44.717 42.6584 44.5907C42.7413 42.1051 43.793 40.1498 46.3095 38.9832C47.4429 38.9324 48.493 38.9845 48.8804 40.2513C49.2084 41.3291 50.2398 41.4383 51.2515 41.4897C51.2533 41.4889 51.2551 41.488 51.2569 41.4872C51.2658 41.4801 51.2781 41.4769 51.2866 41.4699C51.2866 41.4732 51.2866 41.4765 51.2866 41.4798C51.296 41.4761 51.307 41.4737 51.3163 41.4699C51.4631 41.436 51.6098 41.4022 51.7565 41.3683C51.842 41.2602 51.9276 41.152 52.0131 41.0439C53.3334 39.5089 55.2109 39.2769 57.2332 39.4909C59.4455 39.7445 60.2468 38.8569 59.3343 37.0562C58.8093 36.0424 58.644 35.6112 59.9149 35.0029C60.7664 34.6012 61.388 33.7513 62.0699 33.0338C61.089 32.5987 60.2322 32.4791 59.418 33.6332C58.699 34.6476 57.3975 35.1557 56.2637 34.4456C54.6055 33.4088 52.9249 33.6432 51.2002 33.8289C51.2783 34.3103 51.1241 34.7868 50.679 35.2555C50.6539 35.2726 50.6258 35.2858 50.6007 35.3026C51.0563 35.7658 51.52 36.2438 52.0617 36.7788C50.4856 37.6409 48.8536 37.3854 47.1116 37.1825C47.2652 36.944 47.3975 36.7328 47.5194 36.5361C47.2508 36.5514 46.9832 36.5565 46.8091 36.3974C45.2517 34.8987 43.245 34.8319 41.2271 34.8097C41.2073 34.8142 41.1877 34.8201 41.1677 34.8246C40.8361 35.002 40.4482 35.0783 40.1442 35.2555C39.3213 35.3221 38.4972 35.2733 37.7299 34.9707C37.6219 34.922 37.5138 34.8733 37.4058 34.8246C37.2825 34.799 37.1592 34.7734 37.0358 34.7478C36.661 34.6468 36.314 34.4702 36.3553 34.1657C36.9636 30.6407 34.0879 31.0698 31.8481 30.7403C31.6822 30.7403 31.5144 30.6908 31.3485 30.6908C31.0721 29.9809 30.74 29.2711 30.5464 28.5359C30.3252 27.7497 28.8613 26.9116 30.244 26.1507C31.6263 25.3903 33.8648 25.1113 34.5567 26.4034C35.9671 28.965 38.1255 29.753 40.8355 30.1335C41.0561 30.1597 41.1933 30.4886 41.3864 30.666C41.8941 30.7081 42.4018 30.7502 42.9095 30.7923C43.1175 30.9492 43.3254 31.106 43.5334 31.2629C44.8936 32.2398 46.3135 32.8858 48.0595 32.0307C48.1954 31.9564 48.3313 31.8821 48.4673 31.8078C48.3007 31.7822 48.1342 31.7566 47.9677 31.731C47.7111 31.6699 47.4546 31.6088 47.198 31.5477C46.4538 31.3481 45.8259 31.0339 45.6182 30.0072C45.5668 29.7598 45.4699 29.583 45.3481 29.4523C44.4229 29.8857 43.3763 30.0374 42.1345 29.7025C41.2496 29.1446 40.1717 28.8386 39.3421 28.1793C39.038 25.5927 39.1465 22.9305 38.2619 20.3946C38.1238 20.1666 38.0681 19.9123 38.0404 19.659C37.4321 17.7822 38.2351 16.9191 40.3089 16.9444C42.1338 16.4626 44.2365 16.4117 44.4029 13.9524C44.4859 12.7605 45.5908 12.9104 46.531 12.9865C46.6398 13.0637 46.7532 13.1301 46.8631 13.1945C49.1222 12.6253 51.3494 13.2933 53.5875 13.4744C53.6783 13.4795 53.7698 13.4848 53.8602 13.4942C54.0807 13.3931 54.3014 13.2927 54.5219 13.2168C54.5318 13.2333 54.5417 13.2498 54.5516 13.2663C56.8704 14.6421 59.0272 13.6486 61.2354 12.9642C61.2463 12.9463 61.2618 12.9308 61.2705 12.9121C61.6486 12.9121 62.0267 12.9121 62.4048 12.9121C62.4138 12.9204 62.4228 12.9287 62.4318 12.9369C62.4349 12.9384 62.4394 12.9379 62.4426 12.9394C62.4397 12.9302 62.4346 12.9215 62.4318 12.9121C65.5565 10.097 69.4278 10.5531 73.0503 11.2378C77.4471 12.0748 81.9827 11.6683 86.2965 12.8601C86.2965 12.8692 86.2965 12.8783 86.2965 12.8874C88.3266 12.9871 89.754 11.2393 91.7732 11.3394C91.8002 11.3476 91.8272 11.3559 91.8542 11.3641C95.8359 11.212 99.5423 9.64081 103.496 9.31085C103.512 9.29039 103.529 9.26903 103.545 9.24893C104.112 7.46147 105.566 6.47273 107.453 6.8489C111.903 7.75972 116.353 7.47674 120.804 7.20308C121.054 7.15565 121.305 7.10603 121.555 7.05199C122.08 6.92518 122.69 6.92518 123.216 7.05199C123.245 7.05815 123.275 7.0608 123.305 7.06686C124.713 6.99407 126.12 6.93978 127.528 6.95044C134.414 7.00117 141.356 7.63633 148.242 6.79936C149.735 6.62192 151.173 6.87517 152.638 7.12878C154.491 7.45849 156.289 7.56044 157.92 6.36839C158.75 5.73437 159.883 5.63308 160.823 5.93742C165.524 7.53504 170.004 5.81086 174.345 4.87239C178.244 4.03543 182.2 3.47638 185.822 4.38941C190.551 5.60676 194.56 4.56649 198.542 2.81663C200.671 1.87822 202.691 1.90387 204.71 2.48722C206.889 3.1195 209.04 3.19632 211.245 3.12128C212.371 2.32978 213.685 2.05808 215.08 2.10826C216.463 2.15897 217.819 2.13296 219.09 1.49897C220.113 0.9921 221.191 1.27049 222.269 1.72683C226.887 3.62901 231.368 2.63937 235.847 1.21909C236.207 1.16839 236.566 1.11869 236.898 1.068C241.15 0.0868416 245.265 0.353836 249.218 2.09092C250.44 0.631123 252.34 1.93597 253.768 1.21909C254.846 1.09252 255.952 1.21991 256.92 0.637032ZM422.509 94.1741C422.509 94.2499 422.483 94.3259 422.455 94.4268C421.266 95.7708 419.496 95.8222 417.864 96.1011C418.666 94.0722 420.879 94.555 422.455 93.9463C422.456 94.022 422.509 94.0984 422.509 94.1741ZM370.326 80.1479C371.764 79.6406 373.203 78.8554 374.226 79.8953C374.752 80.4027 376.521 81.594 374.696 82.7857C374.143 82.4307 373.591 82.1004 373.038 81.7454C373.038 81.7372 373.038 81.7289 373.038 81.7207C372.595 80.7315 371.35 80.858 370.326 80.1479ZM113.872 72.8066C114.677 73.1818 114.897 73.9105 114.641 74.9243C114.488 75.5078 114.217 76.0755 114.207 76.6779C114.819 76.0381 115.277 75.2878 115.754 74.5528C115.298 73.7068 114.916 72.7368 113.872 72.8066ZM88.7297 75.2265C88.6435 75.2343 88.5638 75.2284 88.4866 75.2165C87.9964 76.2563 88.8687 76.3438 89.8342 76.3906C89.8541 76.1758 89.9243 75.9661 90.0665 75.7614C89.6776 75.5736 89.2909 75.3871 88.8998 75.1992C88.8436 75.2071 88.7876 75.222 88.7297 75.2265ZM280.093 71.2214C280.287 70.8664 281.034 70.916 281.227 71.3725C281.697 72.4882 282.665 73.2741 283.301 74.263C283.965 75.2771 282.418 75.456 281.892 76.0388C281.533 76.0642 281.2 76.0903 280.841 76.1156C280.841 76.1239 280.841 76.1321 280.841 76.1404C279.874 76.0136 278.324 76.0391 278.405 75.0258C278.516 73.7327 279.402 72.4639 280.093 71.2214ZM108.492 75.5905C108.259 75.8256 108.499 75.4594 108.336 75.759C108.391 75.7082 108.448 75.6587 108.503 75.6079C108.5 75.6021 108.496 75.5963 108.492 75.5905ZM419.366 74.3794C419.566 74.6077 419.893 74.5355 419.606 74.3918C419.53 74.3498 419.457 74.3035 419.382 74.2605C419.38 74.2993 419.371 74.3384 419.366 74.3794ZM62.3778 70.4586C63.4557 70.5601 64.3675 70.9161 64.6165 72.0314C63.7593 72.6654 65.8875 74.4655 63.5093 74.4908C61.5195 74.4903 61.4913 73.1474 61.519 71.8035C61.519 71.3977 61.4096 70.9665 61.3543 70.5354C61.6859 70.51 62.0185 70.4839 62.3778 70.4586ZM555.714 69.7948C555.669 70.2241 555.77 70.6397 556.216 71.0183C556.918 71.5914 557.335 72.2663 557.399 72.9701C557.523 72.2309 557.848 71.6482 559.23 72.0933C559.23 72.0809 559.23 72.0685 559.23 72.0561C558.996 71.614 558.765 71.1719 558.719 70.7261C558.607 70.5338 558.504 70.3398 558.422 70.144C557.328 70.6692 556.385 70.7274 555.714 69.7948ZM414.588 72.6208C414.508 72.6982 414.427 72.7751 414.337 72.8462C414.727 72.9019 415.119 72.9354 415.512 72.9577C415.175 72.9114 414.845 72.8253 414.588 72.6208ZM302.184 70.1638C301.942 70.2266 301.698 70.2564 301.444 70.2505C301.658 70.5118 301.816 70.82 301.857 71.2214C301.883 70.8237 302.006 70.4775 302.184 70.1638ZM31.8481 63.4095C31.8459 63.4049 31.8422 63.3993 31.84 63.3947C31.8513 63.3903 31.8638 63.3867 31.8751 63.3823C31.8661 63.3914 31.8571 63.4005 31.8481 63.4095ZM74.8624 60.4052C74.7158 60.5092 74.546 60.5833 74.3493 60.6157C74.3404 60.65 74.331 60.6847 74.3223 60.7197C73.6311 61.8861 73.7698 62.7746 75.2621 63.2312C75.3866 63.2664 75.5072 63.3073 75.6239 63.3476C74.8969 62.3587 74.0814 61.4261 74.8624 60.4052ZM46.3365 56.789C46.3349 56.7813 46.3301 56.7743 46.3284 56.7667C46.3311 56.7659 46.3338 56.7651 46.3365 56.7642C46.3365 56.7725 46.3365 56.7808 46.3365 56.789ZM586.918 56.7073C586.931 56.7085 586.943 56.7083 586.956 56.7097C586.95 56.7065 586.944 56.7031 586.937 56.6998C586.931 56.7026 586.924 56.7045 586.918 56.7073ZM317.806 55.2806C317.815 55.2998 317.825 55.3182 317.833 55.3376C317.853 55.3141 317.875 55.2922 317.895 55.2682C317.866 55.2754 317.835 55.2744 317.806 55.2806ZM303.561 55.0874C303.573 55.0793 303.587 55.0734 303.599 55.0651C303.573 55.0639 303.548 55.0636 303.523 55.0627C303.536 55.0713 303.549 55.0787 303.561 55.0874ZM325.319 54.7456C325.326 54.7522 325.334 54.7588 325.341 54.7654C325.34 54.7556 325.339 54.7457 325.338 54.7357C325.332 54.7394 325.325 54.742 325.319 54.7456ZM236.406 53.1852C236.434 53.1967 236.462 53.2065 236.49 53.2174C236.493 53.1976 236.497 53.1779 236.501 53.158C236.47 53.1674 236.439 53.1771 236.406 53.1852ZM531.517 36.2983C531.545 36.2965 531.574 36.2976 531.603 36.2958C531.572 36.2908 531.542 36.2859 531.511 36.2809C531.514 36.2866 531.514 36.2927 531.517 36.2983ZM380.821 35.6518C380.55 35.8654 380.255 36.0511 379.932 36.2066C380.29 36.0974 380.592 35.9256 380.821 35.6518ZM564.29 20.8504C563.696 20.131 563.101 19.6362 562.314 20.0751C562.355 20.1157 562.394 20.1605 562.427 20.2138C563.154 20.0132 563.735 20.2681 564.29 20.8504ZM189.638 20.0132C189.647 20.0132 189.656 20.0132 189.665 20.0132C189.505 20.0214 189.357 20.0508 189.214 20.0875C189.365 20.1128 189.515 20.1387 189.665 20.1668C189.665 20.1238 189.665 20.0809 189.665 20.038C189.704 20.038 189.743 20.038 189.781 20.038C189.745 20.0015 189.708 19.9676 189.671 19.9339C189.66 19.9607 189.648 19.9866 189.638 20.0132ZM215.269 3.28228C215.28 3.2798 215.291 3.27732 215.302 3.27485C215.29 3.27441 215.278 3.27279 215.266 3.27237C215.268 3.27562 215.268 3.27904 215.269 3.28228Z" fill="url(#paint0_linear_392_3729)"/>
</g>
<defs>
<filter id="filter0_d_392_3729" x="0" y="0" width="608" height="108" filterUnits="userSpaceOnUse" color-interpolation-filters="sRGB">
<feFlood flood-opacity="0" result="BackgroundImageFix"/>
<feColorMatrix in="SourceAlpha" type="matrix" values="0 0 0 0 0 0 0 0 0 0 0 0 0 0 0 0 0 0 127 0" result="hardAlpha"/>
<feOffset dy="4"/>
<feGaussianBlur stdDeviation="2"/>
<feComposite in2="hardAlpha" operator="out"/>
<feColorMatrix type="matrix" values="0 0 0 0 1 0 0 0 0 1 0 0 0 0 1 0 0 0 1 0"/>
<feBlend mode="normal" in2="BackgroundImageFix" result="effect1_dropShadow_392_3729"/>
<feBlend mode="normal" in="SourceGraphic" in2="effect1_dropShadow_392_3729" result="shape"/>
</filter>
<linearGradient id="paint0_linear_392_3729" x1="4" y1="50.5" x2="604" y2="50.5" gradientUnits="userSpaceOnUse">
<stop stop-color="#0053A0"/>
<stop offset="1" stop-color="#00BF63" stop-opacity="0.8"/>
</linearGradient>
</defs>
</svg>
